<svg width="1920" height="111" viewBox="0 0 1920 111" fill="none" xmlns="http://www.w3.org/2000/svg">
<path d="M966.086 49.6593L965.508 46.6164C965.327 45.6611 965.637 44.6787 966.335 44.0012C967.166 43.1939 968.398 42.96 969.467 43.4067L969.59 43.4583C970.424 43.8066 971.064 44.5018 971.342 45.3614L972.272 48.2335C972.545 49.0747 972.7 49.9495 972.733 50.8332L972.823 53.2774C972.849 53.9555 972.634 54.6208 972.217 55.1562L971.912 55.5487C971.408 56.195 970.576 56.4905 969.778 56.3062C969.146 56.1603 968.616 55.7309 968.343 55.1426L966.739 51.6906C966.438 51.0431 966.219 50.3608 966.086 49.6593Z" fill="#E1DA9E" fill-opacity="0.31"/>
<path d="M961.356 66.5411L960.778 63.4982C960.597 62.543 960.907 61.5605 961.605 60.883C962.436 60.0758 963.668 59.8419 964.737 60.2885L964.86 60.3401C965.694 60.6885 966.334 61.3836 966.612 62.2432L967.543 65.1153C967.815 65.9565 967.97 66.8314 968.003 67.715L968.094 70.1593C968.119 70.8374 967.904 71.5026 967.487 72.0381L967.182 72.4305C966.679 73.0768 965.846 73.3724 965.048 73.1881C964.416 73.0421 963.887 72.6128 963.613 72.0244L962.009 68.5725C961.709 67.9249 961.489 67.2426 961.356 66.5411Z" fill="#E1DA9E" fill-opacity="0.31"/>
<path d="M974.883 81.004L974.305 77.9611C974.124 77.0059 974.434 76.0234 975.132 75.3459C975.962 74.5387 977.195 74.3048 978.264 74.7514L978.387 74.803C979.221 75.1513 979.861 75.8465 980.139 76.7061L981.069 79.5782C981.342 80.4194 981.497 81.2943 981.529 82.1779L981.62 84.6222C981.646 85.3003 981.431 85.9655 981.014 86.5009L980.708 86.8934C980.205 87.5397 979.373 87.8352 978.575 87.651C977.943 87.505 977.413 87.0756 977.14 86.4873L975.536 83.0353C975.235 82.3878 975.016 81.7055 974.883 81.004Z" fill="#E1DA9E" fill-opacity="0.31"/>
<path d="M968.213 96.5636L967.635 93.5207C967.454 92.5654 967.764 91.583 968.462 90.9055C969.293 90.0982 970.525 89.8643 971.594 90.311L971.717 90.3625C972.551 90.7109 973.191 91.4061 973.469 92.2657L974.399 95.1378C974.672 95.979 974.827 96.8538 974.86 97.7375L974.951 100.182C974.976 100.86 974.761 101.525 974.344 102.061L974.039 102.453C973.536 103.099 972.703 103.395 971.905 103.211C971.273 103.065 970.743 102.635 970.47 102.047L968.866 98.5949C968.565 97.9474 968.346 97.2651 968.213 96.5636Z" fill="#E1DA9E" fill-opacity="0.31"/>
<path d="M959.714 10.6492L959.733 8.73751C959.74 8.0141 960.123 7.35852 960.743 7.00692C961.412 6.62795 962.248 6.66293 962.909 7.09749L962.994 7.15346C963.564 7.52879 963.944 8.13593 964.028 8.80697L964.262 10.6704C964.338 11.2727 964.324 11.8801 964.221 12.4725L963.96 13.9647C963.874 14.4595 963.609 14.8998 963.214 15.2025L962.974 15.3874C962.532 15.7267 961.932 15.7913 961.411 15.5557C960.967 15.3552 960.635 14.9619 960.513 14.4918L959.893 12.1002C959.769 11.6246 959.709 11.1366 959.714 10.6492Z" fill="#E1DA9E" fill-opacity="0.31"/>
<path d="M954.02 20.8592L954.039 18.9475C954.046 18.2241 954.429 17.5685 955.049 17.2169C955.718 16.8379 956.554 16.8729 957.215 17.3075L957.3 17.3634C957.87 17.7387 958.25 18.3459 958.335 19.0169L958.569 20.8803C958.644 21.4827 958.63 22.09 958.527 22.6825L958.266 24.1747C958.18 24.6695 957.915 25.1098 957.521 25.4124L957.28 25.5973C956.838 25.9367 956.239 26.0012 955.717 25.7656C955.273 25.5652 954.941 25.1719 954.819 24.7018L954.199 22.3101C954.075 21.8345 954.015 21.3466 954.02 20.8592Z" fill="#E1DA9E" fill-opacity="0.31"/>
<path d="M961.507 32.3045L961.526 30.3928C961.533 29.6694 961.916 29.0138 962.536 28.6622C963.205 28.2832 964.041 28.3182 964.701 28.7528L964.787 28.8087C965.357 29.1841 965.737 29.7912 965.821 30.4622L966.055 32.3256C966.131 32.928 966.117 33.5354 966.013 34.1278L965.753 35.62C965.667 36.1148 965.401 36.5551 965.007 36.8577L964.767 37.0426C964.325 37.382 963.725 37.4465 963.204 37.211C962.76 37.0105 962.428 36.6172 962.306 36.1471L961.685 33.7554C961.562 33.2798 961.502 32.7919 961.507 32.3045Z" fill="#E1DA9E" fill-opacity="0.31"/>
<path d="M954.634 41.3611L954.653 39.4494C954.66 38.726 955.042 38.0704 955.663 37.7188C956.332 37.3399 957.168 37.3748 957.828 37.8094L957.913 37.8654C958.484 38.2407 958.864 38.8478 958.948 39.5189L959.182 41.3823C959.258 41.9846 959.244 42.592 959.14 43.1844L958.88 44.6767C958.794 45.1715 958.528 45.6117 958.134 45.9144L957.893 46.0993C957.452 46.4386 956.852 46.5032 956.331 46.2676C955.887 46.0671 955.555 45.6738 955.433 45.2038L954.812 42.8121C954.689 42.3365 954.629 41.8485 954.634 41.3611Z" fill="#E1DA9E" fill-opacity="0.31"/>
<path d="M1079.15 12.4847L1078.32 10.7588C1078.01 10.1056 1078.07 9.34861 1078.47 8.76035C1078.91 8.12632 1079.67 7.79065 1080.46 7.89111L1080.56 7.90405C1081.24 7.99081 1081.84 8.36954 1082.22 8.93549L1083.24 10.507C1083.58 11.015 1083.83 11.567 1084 12.1446L1084.42 13.5997C1084.56 14.0822 1084.51 14.5942 1084.29 15.0391L1084.16 15.311C1083.91 15.8098 1083.4 16.1309 1082.83 16.1482C1082.34 16.163 1081.87 15.9553 1081.55 15.5865L1079.94 13.71C1079.62 13.3368 1079.36 12.9248 1079.15 12.4847Z" fill="#E1DA9E" fill-opacity="0.31"/>
<path d="M1078.51 24.1576L1077.69 22.4316C1077.38 21.7785 1077.44 21.0215 1077.84 20.4332C1078.27 19.7992 1079.04 19.4635 1079.82 19.564L1079.93 19.5769C1080.6 19.6637 1081.21 20.0424 1081.58 20.6083L1082.61 22.1799C1082.94 22.6879 1083.2 23.2398 1083.36 23.8175L1083.78 25.2726C1083.92 25.755 1083.88 26.267 1083.66 26.712L1083.52 26.9838C1083.27 27.4827 1082.76 27.8038 1082.19 27.8211C1081.71 27.8358 1081.23 27.6281 1080.92 27.2593L1079.31 25.3828C1078.99 25.0097 1078.72 24.5976 1078.51 24.1576Z" fill="#E1DA9E" fill-opacity="0.31"/>
<path d="M1090.26 31.1547L1089.44 29.4287C1089.13 28.7756 1089.19 28.0185 1089.59 27.4303C1090.02 26.7962 1090.79 26.4606 1091.58 26.561L1091.68 26.574C1092.35 26.6607 1092.96 27.0395 1093.33 27.6054L1094.36 29.177C1094.69 29.685 1094.95 30.2369 1095.11 30.8146L1095.54 32.2696C1095.67 32.7521 1095.63 33.2641 1095.41 33.709L1095.27 33.9809C1095.03 34.4797 1094.52 34.8009 1093.94 34.8182C1093.46 34.8329 1092.99 34.6252 1092.67 34.2564L1091.06 32.3799C1090.74 32.0067 1090.47 31.5947 1090.26 31.1547Z" fill="#E1DA9E" fill-opacity="0.31"/>
<path d="M1088.06 42.309L1087.24 40.583C1086.93 39.9299 1086.99 39.1728 1087.39 38.5846C1087.82 37.9505 1088.59 37.6149 1089.38 37.7153L1089.48 37.7283C1090.15 37.815 1090.76 38.1938 1091.13 38.7597L1092.16 40.3313C1092.49 40.8392 1092.75 41.3912 1092.91 41.9689L1093.34 43.4239C1093.47 43.9064 1093.43 44.4184 1093.21 44.8633L1093.07 45.1352C1092.83 45.634 1092.32 45.9552 1091.74 45.9725C1091.26 45.9872 1090.79 45.7795 1090.47 45.4107L1088.86 43.5342C1088.54 43.161 1088.27 42.749 1088.06 42.309Z" fill="#E1DA9E" fill-opacity="0.31"/>
<path d="M852.959 6.08973L854.425 4.86265C854.98 4.3983 855.727 4.26358 856.397 4.50702C857.12 4.76939 857.636 5.42803 857.735 6.21258L857.747 6.31363C857.833 6.99125 857.618 7.67445 857.162 8.1743L855.897 9.56231C855.488 10.011 855.017 10.3947 854.499 10.7008L853.196 11.4719C852.763 11.7276 852.256 11.8118 851.77 11.7086L851.473 11.6456C850.928 11.53 850.49 11.1161 850.33 10.5665C850.194 10.0987 850.278 9.59096 850.556 9.19295L851.972 7.16785C852.253 6.76515 852.585 6.40258 852.959 6.08973Z" fill="#E1DA9E" fill-opacity="0.31"/>
<path d="M841.498 8.39051L842.964 7.16343C843.518 6.69908 844.265 6.56436 844.936 6.8078C845.658 7.07017 846.175 7.72881 846.273 8.51337L846.286 8.61441C846.371 9.29203 846.156 9.97523 845.7 10.4751L844.435 11.8631C844.026 12.3118 843.555 12.6955 843.038 13.0016L841.734 13.7727C841.301 14.0283 840.794 14.1125 840.308 14.0094L840.011 13.9464C839.466 13.8308 839.028 13.4169 838.868 12.8673C838.733 12.3995 838.816 11.8917 839.094 11.4937L840.51 9.46863C840.792 9.06593 841.124 8.70337 841.498 8.39051Z" fill="#E1DA9E" fill-opacity="0.31"/>
<path d="M837.656 21.5165L839.122 20.2894C839.676 19.8251 840.423 19.6903 841.094 19.9338C841.816 20.1961 842.333 20.8548 842.431 21.6393L842.444 21.7404C842.529 22.418 842.314 23.1012 841.858 23.6011L840.593 24.9891C840.184 25.4377 839.713 25.8214 839.196 26.1276L837.892 26.8986C837.46 27.1543 836.953 27.2385 836.466 27.1354L836.169 27.0724C835.624 26.9567 835.186 26.5429 835.027 25.9933C834.891 25.5255 834.974 25.0177 835.253 24.6197L836.668 22.5946C836.95 22.1919 837.282 21.8293 837.656 21.5165Z" fill="#E1DA9E" fill-opacity="0.31"/>
<path d="M826.306 22.1718L827.772 20.9447C828.326 20.4803 829.073 20.3456 829.744 20.589C830.466 20.8514 830.983 21.5101 831.081 22.2946L831.094 22.3957C831.179 23.0733 830.964 23.7565 830.508 24.2563L829.243 25.6443C828.834 26.093 828.363 26.4767 827.846 26.7828L826.542 27.5539C826.109 27.8096 825.602 27.8938 825.116 27.7907L824.819 27.7276C824.274 27.612 823.836 27.1982 823.677 26.6485C823.541 26.1808 823.624 25.673 823.902 25.275L825.318 23.2499C825.6 22.8472 825.932 22.4846 826.306 22.1718Z" fill="#E1DA9E" fill-opacity="0.31"/>
<path d="M1105.07 59.8944L1103.83 57.276C1103.43 56.454 1103.48 55.4904 1103.95 54.7111C1104.51 53.7826 1105.57 53.2779 1106.65 53.4283L1106.77 53.4457C1107.61 53.563 1108.35 54.0405 1108.81 54.7528L1110.34 57.1327C1110.78 57.8298 1111.13 58.5853 1111.37 59.3777L1112.03 61.5696C1112.22 62.1777 1112.18 62.8312 1111.93 63.4152L1111.75 63.8432C1111.45 64.5481 1110.76 65.0136 1110 65.0364C1109.39 65.0545 1108.81 64.7915 1108.42 64.3236L1106.15 61.5787C1105.72 61.0637 1105.36 60.498 1105.07 59.8944Z" fill="#E1DA9E" fill-opacity="0.31"/>
<path d="M1104.8 76.3065L1103.55 73.6881C1103.16 72.8661 1103.21 71.9026 1103.68 71.1232C1104.24 70.1947 1105.3 69.69 1106.38 69.8404L1106.5 69.8578C1107.34 69.9751 1108.08 70.4526 1108.54 71.1649L1110.06 73.5448C1110.51 74.2419 1110.86 74.9974 1111.1 75.7898L1111.76 77.9817C1111.95 78.5898 1111.91 79.2433 1111.66 79.8273L1111.48 80.2553C1111.17 80.9602 1110.49 81.4257 1109.72 81.4485C1109.12 81.4666 1108.54 81.2036 1108.15 80.7357L1105.88 77.9908C1105.45 77.4758 1105.09 76.9101 1104.8 76.3065Z" fill="#E1DA9E" fill-opacity="0.31"/>
<path d="M1120.49 86.1893L1119.24 83.5709C1118.85 82.7489 1118.9 81.7854 1119.37 81.0061C1119.93 80.0775 1120.99 79.5728 1122.06 79.7232L1122.19 79.7406C1123.03 79.8579 1123.77 80.3354 1124.23 81.0477L1125.75 83.4276C1126.2 84.1247 1126.55 84.8802 1126.79 85.6726L1127.45 87.8645C1127.63 88.4726 1127.6 89.1261 1127.35 89.7101L1127.16 90.1381C1126.86 90.843 1126.18 91.3085 1125.41 91.3313C1124.8 91.3494 1124.22 91.0864 1123.84 90.6185L1121.56 87.8736C1121.14 87.3587 1120.78 86.7929 1120.49 86.1893Z" fill="#E1DA9E" fill-opacity="0.31"/>
<path d="M1118.15 101.866L1116.9 99.2476C1116.51 98.4256 1116.56 97.4621 1117.03 96.6828C1117.59 95.7543 1118.65 95.2496 1119.72 95.4L1119.85 95.4174C1120.68 95.5347 1121.43 96.0121 1121.89 96.7245L1123.41 99.1044C1123.86 99.8015 1124.2 100.557 1124.44 101.349L1125.11 103.541C1125.29 104.149 1125.26 104.803 1125.01 105.387L1124.82 105.815C1124.52 106.52 1123.84 106.985 1123.07 107.008C1122.46 107.026 1121.88 106.763 1121.49 106.295L1119.22 103.55C1118.79 103.035 1118.43 102.47 1118.15 101.866Z" fill="#E1DA9E" fill-opacity="0.31"/>
<path d="M818.651 36.3559L819.77 33.5718C820.121 32.6978 820.887 32.0585 821.81 31.8701C822.91 31.6455 824.037 32.0984 824.676 33.0211L824.749 33.1277C825.248 33.8474 825.407 34.7488 825.185 35.5955L824.443 38.4243C824.226 39.2529 823.895 40.0475 823.461 40.7856L822.258 42.8271C821.925 43.3935 821.402 43.8241 820.782 44.0431L820.328 44.2037C819.58 44.4681 818.746 44.2744 818.191 43.7072C817.752 43.2579 817.544 42.6311 817.629 42.0083L818.123 38.3544C818.216 37.669 818.394 36.9977 818.651 36.3559Z" fill="#E1DA9E" fill-opacity="0.31"/>
<path d="M805.975 47.6576L807.093 44.8735C807.444 43.9995 808.211 43.3603 809.133 43.1718C810.233 42.9473 811.36 43.4001 811.999 44.3229L812.073 44.4294C812.571 45.1491 812.73 46.0505 812.508 46.8972L811.767 49.7261C811.55 50.5547 811.219 51.3493 810.784 52.0873L809.582 54.1289C809.248 54.6953 808.725 55.1258 808.106 55.3449L807.651 55.5054C806.903 55.7698 806.07 55.5761 805.515 55.0089C805.075 54.5597 804.868 53.9328 804.952 53.3101L805.447 49.6562C805.54 48.9708 805.717 48.2995 805.975 47.6576Z" fill="#E1DA9E" fill-opacity="0.31"/>
<path d="M809.455 66.5209L810.574 63.7368C810.925 62.8628 811.691 62.2235 812.614 62.0351C813.713 61.8106 814.841 62.2634 815.48 63.1861L815.553 63.2927C816.052 64.0124 816.211 64.9138 815.989 65.7605L815.247 68.5894C815.03 69.418 814.699 70.2125 814.265 70.9506L813.062 72.9922C812.729 73.5585 812.206 73.9891 811.586 74.2082L811.132 74.3687C810.384 74.6331 809.55 74.4394 808.995 73.8722C808.556 73.4229 808.348 72.7961 808.433 72.1733L808.927 68.5195C809.02 67.8341 809.198 67.1628 809.455 66.5209Z" fill="#E1DA9E" fill-opacity="0.31"/>
<path d="M795.887 75.7309L797.005 72.9468C797.356 72.0728 798.123 71.4335 799.045 71.2451C800.145 71.0205 801.272 71.4734 801.911 72.3961L801.985 72.5027C802.483 73.2224 802.642 74.1238 802.42 74.9705L801.679 77.7993C801.461 78.6279 801.131 79.4225 800.696 80.1606L799.494 82.2021C799.16 82.7685 798.637 83.1991 798.018 83.4181L797.563 83.5787C796.815 83.8431 795.982 83.6494 795.427 83.0822C794.987 82.6329 794.78 82.0061 794.864 81.3833L795.359 77.7294C795.452 77.044 795.629 76.3727 795.887 75.7309Z" fill="#E1DA9E" fill-opacity="0.31"/>
</svg>
