<svg width="1920" height="186" viewBox="0 0 1920 186" fill="none" xmlns="http://www.w3.org/2000/svg">
<path d="M-0.5 137.234V185.999H1920.5V85.9585C1920.5 85.9585 1726 -30.6701 1705.5 9.04316C1685 48.7565 1484.5 163.375 1484.5 163.375C1484.5 163.375 1281 53.7848 1281 76.4069C1281 99.0291 1196.94 116.729 1133.5 145.78C1065.14 177.086 1012.43 175.943 943.5 175.943C875.354 175.943 831.768 167.292 768.5 137.234C700.119 104.747 578.5 51.7753 569.5 76.4069C560.5 101.039 456 137.234 456 137.234C456 137.234 175.5 -11.5668 157 14.0702C138.5 39.7072 -0.5 137.234 -0.5 137.234Z" fill="#FFFACD"/>
<path d="M167.5 41.218C153.013 26.6529 158.5 12.5635 158.5 12.5635C158.5 12.5635 137.5 33.6773 128 41.218C105.98 58.6967 102.077 62.1762 79.5 78.9216C49 101.544 0 136.734 0 136.734V186H326C326 186 289 167.4 268 141.258C247 115.117 211.5 90.9869 194 76.9109C180.009 65.6572 174 47.7528 167.5 41.218Z" fill="url(#paint0_linear_291_105)"/>
<path d="M572.5 104.563C578.526 93.6538 584.5 82.441 583 78.922C583 78.922 578.5 70.3764 575 71.3821C570.5 72.675 568.5 77.9167 567 80.4305C555.496 99.709 456 137.239 456 137.239C456 137.239 486.853 150.798 507.5 156.844C544.247 167.605 623 169.914 623 169.914C623 169.914 555.862 134.685 572.5 104.563Z" fill="url(#paint1_linear_291_105)"/>
<path d="M1183.01 171.924C1146.01 171.924 1076.08 165.811 1079.51 164.886C1096.68 160.245 1106 157.345 1122 150.81C1137.5 143.772 1160.5 134.198 1160.5 134.198C1160.5 134.198 1204.5 118.133 1240 105.063C1266.14 95.9988 1277.5 85.4567 1279 82.4405C1282 77.916 1279 74.397 1284 73.3916C1288.13 75.251 1292.77 83.9825 1296 90.4839C1300.5 99.5328 1292 119.139 1316 140.253C1338.58 160.115 1404 176.448 1404 176.448C1404 176.448 1220.01 171.924 1183.01 171.924Z" fill="url(#paint2_linear_291_105)"/>
<path d="M1713.5 49.7647C1714.81 33.2084 1718.5 2.50955 1715 2.00684C1708.5 3.01226 1705.5 9.04484 1705.5 9.04484C1683.5 52.2783 1445.5 186 1445.5 186L1872 185.498C1872 185.498 1713.5 105.566 1713.5 49.7647Z" fill="url(#paint3_linear_291_105)"/>
<path d="M540.525 121.525C540.525 121.525 540.099 119.091 540.25 117.63C540.405 116.128 541.336 114.027 541.336 114.027" stroke="#31B51C" stroke-width="2"/>
<path d="M540.904 121.555C540.904 121.555 541.149 119.103 541.691 117.714C542.249 116.285 543.723 114.432 543.723 114.432" stroke="#31B51C" stroke-width="2"/>
<path d="M540.851 121.753C540.851 121.753 541.524 119.806 542.135 118.722C542.763 117.607 544.005 116.195 544.005 116.195" stroke="#31B51C" stroke-width="2"/>
<path d="M540.351 121.604C540.351 121.604 541.023 119.658 541.634 118.573C542.262 117.458 543.505 116.047 543.505 116.047" stroke="#258A14" stroke-width="2"/>
<path d="M540.38 121.818C540.38 121.818 539.043 119.585 538.458 118.182C537.857 116.739 537.398 114.613 537.398 114.613" stroke="#258A14" stroke-width="2"/>
<path d="M540.882 121.821C540.882 121.821 539.545 119.588 538.96 118.184C538.358 116.742 537.899 114.616 537.899 114.616" stroke="#CAD827" stroke-width="2"/>
<path d="M540.521 121.656C540.521 121.656 540.627 119.145 540.916 117.676C541.213 116.166 542.023 114.121 542.023 114.121" stroke="#CAD827" stroke-width="2"/>
<path d="M540.526 121.984C540.526 121.984 539.64 120.489 539.304 119.534C538.958 118.552 538.816 117.079 538.816 117.079" stroke="#31B51C" stroke-width="2"/>
<path d="M555.915 100.529C555.915 100.529 555.489 98.0952 555.64 96.6337C555.795 95.1314 556.726 93.0306 556.726 93.0306" stroke="#31B51C" stroke-width="2"/>
<path d="M556.294 100.559C556.294 100.559 556.539 98.1074 557.081 96.7176C557.639 95.2891 559.113 93.4359 559.113 93.4359" stroke="#31B51C" stroke-width="2"/>
<path d="M556.241 100.757C556.241 100.757 556.914 98.8101 557.525 97.7255C558.153 96.6106 559.395 95.1993 559.395 95.1993" stroke="#31B51C" stroke-width="2"/>
<path d="M555.741 100.608C555.741 100.608 556.413 98.6617 557.024 97.5771C557.652 96.4622 558.895 95.0509 558.895 95.0509" stroke="#258A14" stroke-width="2"/>
<path d="M555.77 100.822C555.77 100.822 554.433 98.5887 553.848 97.1855C553.247 95.7431 552.788 93.6166 552.788 93.6166" stroke="#258A14" stroke-width="2"/>
<path d="M556.272 100.825C556.272 100.825 554.935 98.5916 554.35 97.1884C553.749 95.746 553.289 93.6195 553.289 93.6195" stroke="#CAD827" stroke-width="2"/>
<path d="M555.911 100.66C555.911 100.66 556.017 98.1488 556.306 96.6797C556.603 95.1695 557.413 93.125 557.413 93.125" stroke="#CAD827" stroke-width="2"/>
<path d="M555.916 100.988C555.916 100.988 555.03 99.4926 554.694 98.5375C554.348 97.5558 554.206 96.083 554.206 96.083" stroke="#31B51C" stroke-width="2"/>
<path d="M522.915 116.529C522.915 116.529 522.489 114.095 522.64 112.634C522.795 111.131 523.726 109.031 523.726 109.031" stroke="#31B51C" stroke-width="2"/>
<path d="M523.294 116.559C523.294 116.559 523.539 114.107 524.081 112.718C524.639 111.289 526.113 109.436 526.113 109.436" stroke="#31B51C" stroke-width="2"/>
<path d="M523.241 116.757C523.241 116.757 523.914 114.81 524.525 113.725C525.153 112.611 526.395 111.199 526.395 111.199" stroke="#31B51C" stroke-width="2"/>
<path d="M522.741 116.608C522.741 116.608 523.413 114.662 524.024 113.577C524.652 112.462 525.895 111.051 525.895 111.051" stroke="#258A14" stroke-width="2"/>
<path d="M522.77 116.822C522.77 116.822 521.433 114.589 520.848 113.185C520.247 111.743 519.788 109.617 519.788 109.617" stroke="#258A14" stroke-width="2"/>
<path d="M523.272 116.825C523.272 116.825 521.935 114.592 521.35 113.188C520.749 111.746 520.289 109.619 520.289 109.619" stroke="#CAD827" stroke-width="2"/>
<path d="M522.911 116.66C522.911 116.66 523.017 114.149 523.306 112.68C523.603 111.17 524.413 109.125 524.413 109.125" stroke="#CAD827" stroke-width="2"/>
<path d="M522.916 116.988C522.916 116.988 522.03 115.493 521.694 114.538C521.348 113.556 521.206 112.083 521.206 112.083" stroke="#31B51C" stroke-width="2"/>
<path d="M1267.91 92.5294C1267.91 92.5294 1267.49 90.0952 1267.64 88.6337C1267.8 87.1314 1268.73 85.0306 1268.73 85.0306" stroke="#31B51C" stroke-width="2"/>
<path d="M1268.29 92.5589C1268.29 92.5589 1268.54 90.1074 1269.08 88.7176C1269.64 87.2891 1271.11 85.4359 1271.11 85.4359" stroke="#31B51C" stroke-width="2"/>
<path d="M1268.24 92.7567C1268.24 92.7567 1268.91 90.8101 1269.52 89.7255C1270.15 88.6106 1271.4 87.1993 1271.4 87.1993" stroke="#31B51C" stroke-width="2"/>
<path d="M1267.74 92.6083C1267.74 92.6083 1268.41 90.6617 1269.02 89.5771C1269.65 88.4622 1270.89 87.0509 1270.89 87.0509" stroke="#258A14" stroke-width="2"/>
<path d="M1267.77 92.8221C1267.77 92.8221 1266.43 90.5887 1265.85 89.1855C1265.25 87.7431 1264.79 85.6166 1264.79 85.6166" stroke="#258A14" stroke-width="2"/>
<path d="M1268.27 92.825C1268.27 92.825 1266.93 90.5916 1266.35 89.1884C1265.75 87.746 1265.29 85.6195 1265.29 85.6195" stroke="#CAD827" stroke-width="2"/>
<path d="M1267.91 92.6596C1267.91 92.6596 1268.02 90.1488 1268.31 88.6797C1268.6 87.1695 1269.41 85.125 1269.41 85.125" stroke="#CAD827" stroke-width="2"/>
<path d="M1267.92 92.9884C1267.92 92.9884 1267.03 91.4926 1266.69 90.5375C1266.35 89.5558 1266.21 88.083 1266.21 88.083" stroke="#31B51C" stroke-width="2"/>
<path d="M1202.91 123.529C1202.91 123.529 1202.49 121.095 1202.64 119.634C1202.8 118.131 1203.73 116.031 1203.73 116.031" stroke="#31B51C" stroke-width="2"/>
<path d="M1203.29 123.559C1203.29 123.559 1203.54 121.107 1204.08 119.718C1204.64 118.289 1206.11 116.436 1206.11 116.436" stroke="#31B51C" stroke-width="2"/>
<path d="M1203.24 123.757C1203.24 123.757 1203.91 121.81 1204.52 120.725C1205.15 119.611 1206.4 118.199 1206.4 118.199" stroke="#31B51C" stroke-width="2"/>
<path d="M1202.74 123.608C1202.74 123.608 1203.41 121.662 1204.02 120.577C1204.65 119.462 1205.89 118.051 1205.89 118.051" stroke="#258A14" stroke-width="2"/>
<path d="M1202.77 123.822C1202.77 123.822 1201.43 121.589 1200.85 120.185C1200.25 118.743 1199.79 116.617 1199.79 116.617" stroke="#258A14" stroke-width="2"/>
<path d="M1203.27 123.825C1203.27 123.825 1201.93 121.592 1201.35 120.188C1200.75 118.746 1200.29 116.619 1200.29 116.619" stroke="#CAD827" stroke-width="2"/>
<path d="M1202.91 123.66C1202.91 123.66 1203.02 121.149 1203.31 119.68C1203.6 118.17 1204.41 116.125 1204.41 116.125" stroke="#CAD827" stroke-width="2"/>
<path d="M1202.92 123.988C1202.92 123.988 1202.03 122.493 1201.69 121.538C1201.35 120.556 1201.21 119.083 1201.21 119.083" stroke="#31B51C" stroke-width="2"/>
<path d="M1273.91 129.529C1273.91 129.529 1273.49 127.095 1273.64 125.634C1273.8 124.131 1274.73 122.031 1274.73 122.031" stroke="#31B51C" stroke-width="2"/>
<path d="M1274.29 129.559C1274.29 129.559 1274.54 127.107 1275.08 125.718C1275.64 124.289 1277.11 122.436 1277.11 122.436" stroke="#31B51C" stroke-width="2"/>
<path d="M1274.24 129.757C1274.24 129.757 1274.91 127.81 1275.52 126.725C1276.15 125.611 1277.4 124.199 1277.4 124.199" stroke="#31B51C" stroke-width="2"/>
<path d="M1273.74 129.608C1273.74 129.608 1274.41 127.662 1275.02 126.577C1275.65 125.462 1276.89 124.051 1276.89 124.051" stroke="#258A14" stroke-width="2"/>
<path d="M1273.77 129.822C1273.77 129.822 1272.43 127.589 1271.85 126.185C1271.25 124.743 1270.79 122.617 1270.79 122.617" stroke="#258A14" stroke-width="2"/>
<path d="M1274.27 129.825C1274.27 129.825 1272.93 127.592 1272.35 126.188C1271.75 124.746 1271.29 122.619 1271.29 122.619" stroke="#CAD827" stroke-width="2"/>
<path d="M1273.91 129.66C1273.91 129.66 1274.02 127.149 1274.31 125.68C1274.6 124.17 1275.41 122.125 1275.41 122.125" stroke="#CAD827" stroke-width="2"/>
<path d="M1273.92 129.988C1273.92 129.988 1273.03 128.493 1272.69 127.538C1272.35 126.556 1272.21 125.083 1272.21 125.083" stroke="#31B51C" stroke-width="2"/>
<path d="M1260.91 120.529C1260.91 120.529 1260.49 118.095 1260.64 116.634C1260.8 115.131 1261.73 113.031 1261.73 113.031" stroke="#31B51C" stroke-width="2"/>
<path d="M1261.29 120.559C1261.29 120.559 1261.54 118.107 1262.08 116.718C1262.64 115.289 1264.11 113.436 1264.11 113.436" stroke="#31B51C" stroke-width="2"/>
<path d="M1261.24 120.757C1261.24 120.757 1261.91 118.81 1262.52 117.725C1263.15 116.611 1264.4 115.199 1264.4 115.199" stroke="#31B51C" stroke-width="2"/>
<path d="M1260.74 120.608C1260.74 120.608 1261.41 118.662 1262.02 117.577C1262.65 116.462 1263.89 115.051 1263.89 115.051" stroke="#258A14" stroke-width="2"/>
<path d="M1260.77 120.822C1260.77 120.822 1259.43 118.589 1258.85 117.185C1258.25 115.743 1257.79 113.617 1257.79 113.617" stroke="#258A14" stroke-width="2"/>
<path d="M1261.27 120.825C1261.27 120.825 1259.93 118.592 1259.35 117.188C1258.75 115.746 1258.29 113.619 1258.29 113.619" stroke="#CAD827" stroke-width="2"/>
<path d="M1260.91 120.66C1260.91 120.66 1261.02 118.149 1261.31 116.68C1261.6 115.17 1262.41 113.125 1262.41 113.125" stroke="#CAD827" stroke-width="2"/>
<path d="M1260.92 120.988C1260.92 120.988 1260.03 119.493 1259.69 118.538C1259.35 117.556 1259.21 116.083 1259.21 116.083" stroke="#31B51C" stroke-width="2"/>
<path d="M1666.57 68.8377C1666.57 68.8377 1665.97 64.0382 1666.19 61.155C1666.42 58.1914 1667.75 54.0444 1667.75 54.0444" stroke="#31B51C" stroke-width="2"/>
<path d="M1667.11 68.8948C1667.11 68.8948 1667.46 64.0584 1668.24 61.3154C1669.04 58.4958 1671.14 54.8351 1671.14 54.8351" stroke="#31B51C" stroke-width="2"/>
<path d="M1667.03 69.2839C1667.03 69.2839 1667.99 65.442 1668.87 63.3004C1669.76 61.0992 1671.53 58.311 1671.53 58.311" stroke="#31B51C" stroke-width="2"/>
<path d="M1666.32 68.9938C1666.32 68.9938 1667.28 65.1519 1668.15 63.0104C1669.05 60.8091 1670.82 58.0209 1670.82 58.0209" stroke="#258A14" stroke-width="2"/>
<path d="M1666.36 69.4153C1666.36 69.4153 1664.47 65.0151 1663.64 62.2495C1662.79 59.4067 1662.15 55.2141 1662.15 55.2141" stroke="#258A14" stroke-width="2"/>
<path d="M1667.07 69.4192C1667.07 69.4192 1665.18 65.019 1664.35 62.2534C1663.5 59.4106 1662.86 55.218 1662.86 55.218" stroke="#CAD827" stroke-width="2"/>
<path d="M1666.56 69.0945C1666.56 69.0945 1666.72 64.1419 1667.14 61.243C1667.56 58.2633 1668.72 54.2278 1668.72 54.2278" stroke="#CAD827" stroke-width="2"/>
<path d="M1666.57 69.7419C1666.57 69.7419 1665.31 66.7948 1664.84 64.9123C1664.35 62.9773 1664.15 60.0728 1664.15 60.0728" stroke="#31B51C" stroke-width="2"/>
<path d="M1698.78 124.326C1698.78 124.326 1698.17 118.072 1698.4 114.315C1698.64 110.452 1700.03 105.046 1700.03 105.046" stroke="#31B51C" stroke-width="2"/>
<path d="M1699.34 124.399C1699.34 124.399 1699.72 118.096 1700.53 114.52C1701.36 110.845 1703.55 106.071 1703.55 106.071" stroke="#31B51C" stroke-width="2"/>
<path d="M1699.26 124.907C1699.26 124.907 1700.27 119.899 1701.18 117.107C1702.11 114.237 1703.96 110.6 1703.96 110.6" stroke="#31B51C" stroke-width="2"/>
<path d="M1698.52 124.529C1698.52 124.529 1699.53 119.521 1700.44 116.729C1701.38 113.859 1703.22 110.222 1703.22 110.222" stroke="#258A14" stroke-width="2"/>
<path d="M1698.57 125.079C1698.57 125.079 1696.61 119.348 1695.76 115.745C1694.88 112.042 1694.22 106.58 1694.22 106.58" stroke="#258A14" stroke-width="2"/>
<path d="M1699.31 125.083C1699.31 125.083 1697.35 119.352 1696.5 115.749C1695.62 112.046 1694.96 106.584 1694.96 106.584" stroke="#CAD827" stroke-width="2"/>
<path d="M1698.78 124.659C1698.78 124.659 1698.95 118.205 1699.39 114.427C1699.84 110.543 1701.05 105.282 1701.05 105.282" stroke="#CAD827" stroke-width="2"/>
<path d="M1698.78 125.504C1698.78 125.504 1697.48 121.666 1696.99 119.213C1696.49 116.693 1696.29 112.908 1696.29 112.908" stroke="#31B51C" stroke-width="2"/>
<path d="M1608.73 160.792C1608.73 160.792 1607.91 152.77 1608.22 147.95C1608.54 142.996 1610.39 136.061 1610.39 136.061" stroke="#31B51C" stroke-width="2"/>
<path d="M1609.47 160.887C1609.47 160.887 1609.98 152.801 1611.06 148.215C1612.17 143.5 1615.1 137.376 1615.1 137.376" stroke="#31B51C" stroke-width="2"/>
<path d="M1609.37 161.538C1609.37 161.538 1610.71 155.114 1611.93 151.532C1613.18 147.851 1615.64 143.187 1615.64 143.187" stroke="#31B51C" stroke-width="2"/>
<path d="M1608.38 161.054C1608.38 161.054 1609.73 154.629 1610.94 151.048C1612.19 147.367 1614.65 142.702 1614.65 142.702" stroke="#258A14" stroke-width="2"/>
<path d="M1608.44 161.758C1608.44 161.758 1605.82 154.406 1604.68 149.785C1603.51 145.034 1602.62 138.027 1602.62 138.027" stroke="#258A14" stroke-width="2"/>
<path d="M1609.43 161.764C1609.43 161.764 1606.81 154.412 1605.67 149.791C1604.5 145.04 1603.61 138.033 1603.61 138.033" stroke="#CAD827" stroke-width="2"/>
<path d="M1608.72 161.221C1608.72 161.221 1608.95 152.942 1609.53 148.096C1610.13 143.114 1611.75 136.366 1611.75 136.366" stroke="#CAD827" stroke-width="2"/>
<path d="M1608.72 162.304C1608.72 162.304 1606.99 157.38 1606.34 154.234C1605.66 151 1605.39 146.145 1605.39 146.145" stroke="#31B51C" stroke-width="2"/>
<path d="M54.4721 134.331C54.4721 134.331 53.8714 125.927 54.1147 120.876C54.3648 115.684 55.7752 108.413 55.7752 108.413" stroke="#31B51C" stroke-width="2"/>
<path d="M55.0353 134.428C55.0353 134.428 55.4313 125.955 56.2554 121.147C57.1026 116.204 59.3171 109.782 59.3171 109.782" stroke="#31B51C" stroke-width="2"/>
<path d="M54.9546 135.111C54.9546 135.111 55.9793 128.377 56.9014 124.622C57.8493 120.762 59.7139 115.869 59.7139 115.869" stroke="#31B51C" stroke-width="2"/>
<path d="M54.2124 134.605C54.2124 134.605 55.2372 127.871 56.1593 124.116C57.1072 120.256 58.9717 115.364 58.9717 115.364" stroke="#258A14" stroke-width="2"/>
<path d="M54.2531 135.344C54.2531 135.344 52.2958 127.645 51.4447 122.805C50.5698 117.83 49.9154 110.489 49.9154 110.489" stroke="#258A14" stroke-width="2"/>
<path d="M54.9987 135.348C54.9987 135.348 53.0414 127.649 52.1903 122.809C51.3154 117.833 50.661 110.493 50.661 110.493" stroke="#CAD827" stroke-width="2"/>
<path d="M54.4649 134.78C54.4649 134.78 54.6553 126.104 55.1034 121.025C55.5641 115.804 56.7947 108.729 56.7947 108.729" stroke="#CAD827" stroke-width="2"/>
<path d="M54.4674 135.915C54.4674 135.915 53.1713 130.759 52.6834 127.464C52.182 124.076 51.9907 118.99 51.9907 118.99" stroke="#31B51C" stroke-width="2"/>
<path d="M136.726 37.7923C136.726 37.7923 135.908 29.7704 136.219 24.9504C136.538 19.9959 138.392 13.0612 138.392 13.0612" stroke="#31B51C" stroke-width="2"/>
<path d="M137.474 37.8865C137.474 37.8865 137.979 29.8013 139.061 25.2145C140.173 20.4997 143.097 14.3765 143.097 14.3765" stroke="#31B51C" stroke-width="2"/>
<path d="M137.369 38.5379C137.369 38.5379 138.712 32.1139 139.927 28.5324C141.176 24.851 143.638 20.1869 143.638 20.1869" stroke="#31B51C" stroke-width="2"/>
<path d="M136.382 38.0535C136.382 38.0535 137.726 31.6295 138.941 28.048C140.189 24.3667 142.652 19.7025 142.652 19.7025" stroke="#258A14" stroke-width="2"/>
<path d="M136.438 38.7583C136.438 38.7583 133.821 31.4063 132.679 26.7848C131.506 22.0343 130.619 15.0271 130.619 15.0271" stroke="#258A14" stroke-width="2"/>
<path d="M137.428 38.7641C137.428 38.7641 134.811 31.4121 133.669 26.7906C132.495 22.0402 131.609 15.0329 131.609 15.0329" stroke="#CAD827" stroke-width="2"/>
<path d="M136.718 38.2212C136.718 38.2212 136.949 29.942 137.531 25.0955C138.13 20.1138 139.746 13.3656 139.746 13.3656" stroke="#CAD827" stroke-width="2"/>
<path d="M136.724 39.3039C136.724 39.3039 134.991 34.3798 134.335 31.2339C133.661 28.0002 133.395 23.1453 133.395 23.1453" stroke="#31B51C" stroke-width="2"/>
<path d="M168.957 118.827C168.957 118.827 167.548 110.801 168.048 105.982C168.561 101.029 171.641 94.1023 171.641 94.1023" stroke="#31B51C" stroke-width="2"/>
<path d="M170.212 118.924C170.212 118.924 171.023 110.841 172.818 106.259C174.663 101.549 179.541 95.4389 179.541 95.4389" stroke="#31B51C" stroke-width="2"/>
<path d="M170.038 119.576C170.038 119.576 172.264 113.157 174.286 109.581C176.365 105.906 180.476 101.252 180.476 101.252" stroke="#31B51C" stroke-width="2"/>
<path d="M168.381 119.086C168.381 119.086 170.607 112.668 172.629 109.092C174.707 105.416 178.819 100.763 178.819 100.763" stroke="#258A14" stroke-width="2"/>
<path d="M168.478 119.792C168.478 119.792 164.054 112.428 162.117 107.801C160.127 103.045 158.607 96.0336 158.607 96.0336" stroke="#258A14" stroke-width="2"/>
<path d="M170.138 119.801C170.138 119.801 165.714 112.437 163.778 107.811C161.787 103.055 160.268 96.0434 160.268 96.0434" stroke="#CAD827" stroke-width="2"/>
<path d="M168.945 119.257C168.945 119.257 169.296 110.978 170.251 106.134C171.233 101.155 173.914 94.4138 173.914 94.4138" stroke="#CAD827" stroke-width="2"/>
<path d="M168.96 120.339C168.96 120.339 166.03 115.407 164.915 112.258C163.77 109.021 163.301 104.165 163.301 104.165" stroke="#31B51C" stroke-width="2"/>
<defs>
<linearGradient id="paint0_linear_291_105" x1="157.5" y1="13" x2="157.5" y2="186" gradientUnits="userSpaceOnUse">
<stop stop-color="#F3EDB3"/>
<stop offset="0.650918" stop-color="#E9E199" stop-opacity="0.296875"/>
<stop offset="1" stop-color="#E5DC8E" stop-opacity="0"/>
</linearGradient>
<linearGradient id="paint1_linear_291_105" x1="539.5" y1="71.2487" x2="539.5" y2="169.913" gradientUnits="userSpaceOnUse">
<stop stop-color="#F3EDB3"/>
<stop offset="1" stop-color="#E5DC8E" stop-opacity="0"/>
</linearGradient>
<linearGradient id="paint2_linear_291_105" x1="1241.69" y1="74.397" x2="1241.69" y2="176.448" gradientUnits="userSpaceOnUse">
<stop stop-color="#F3EDB3"/>
<stop offset="1" stop-color="#E5DC8E" stop-opacity="0"/>
</linearGradient>
<linearGradient id="paint3_linear_291_105" x1="1658.75" y1="4.01769" x2="1658.75" y2="186" gradientUnits="userSpaceOnUse">
<stop stop-color="#F3EDB3"/>
<stop offset="1" stop-color="#E1DA9E" stop-opacity="0"/>
</linearGradient>
</defs>
</svg>
