<svg width="1920" height="79" viewBox="0 0 1920 79" fill="none" xmlns="http://www.w3.org/2000/svg">
<path d="M957.531 36.4757L957.513 34.5206C957.507 33.9069 957.81 33.3312 958.319 32.9883C958.925 32.5797 959.717 32.5722 960.331 32.9692L960.402 33.015C960.881 33.3247 961.201 33.8281 961.278 34.3933L961.535 36.2816C961.61 36.8347 961.608 37.3955 961.53 37.9482L961.313 39.4769C961.253 39.901 961.045 40.2903 960.726 40.5763L960.492 40.786C960.108 41.1312 959.557 41.2218 959.082 41.018C958.706 40.8567 958.425 40.5307 958.321 40.1347L957.71 37.8107C957.596 37.3748 957.536 36.9264 957.531 36.4757Z" fill="#E1DA9E" fill-opacity="0.31"/>
<path d="M952.705 46.4346L952.687 44.4796C952.681 43.8659 952.984 43.2902 953.493 42.9473C954.099 42.5387 954.891 42.5311 955.505 42.9281L955.576 42.974C956.055 43.2836 956.375 43.7871 956.452 44.3523L956.708 46.2406C956.784 46.7937 956.782 47.3545 956.704 47.9072L956.487 49.4359C956.427 49.86 956.219 50.2493 955.9 50.5353L955.666 50.745C955.282 51.0902 954.731 51.1807 954.256 50.977C953.88 50.8157 953.599 50.4897 953.495 50.0936L952.884 47.7697C952.77 47.3338 952.71 46.8853 952.705 46.4346Z" fill="#E1DA9E" fill-opacity="0.31"/>
<path d="M959.492 56.9327L959.473 54.9777C959.468 54.3639 959.77 53.7883 960.279 53.4453C960.886 53.0367 961.678 53.0292 962.292 53.4262L962.363 53.472C962.842 53.7817 963.162 54.2851 963.238 54.8503L963.495 56.7386C963.57 57.2917 963.569 57.8526 963.49 58.4052L963.273 59.9339C963.213 60.358 963.006 60.7473 962.687 61.0333L962.453 61.243C962.068 61.5883 961.518 61.6788 961.043 61.4751C960.666 61.3137 960.385 60.9878 960.281 60.5917L959.671 58.2678C959.556 57.8318 959.496 57.3834 959.492 56.9327Z" fill="#E1DA9E" fill-opacity="0.31"/>
<path d="M953.609 65.8536L953.59 63.8986C953.584 63.2848 953.887 62.7092 954.396 62.3662C955.002 61.9576 955.794 61.9501 956.408 62.3471L956.479 62.3929C956.958 62.7026 957.278 63.206 957.355 63.7712L957.612 65.6595C957.687 66.2126 957.685 66.7735 957.607 67.3261L957.39 68.8548C957.33 69.2789 957.122 69.6682 956.803 69.9542L956.57 70.1639C956.185 70.5092 955.634 70.5997 955.159 70.396C954.783 70.2346 954.502 69.9087 954.398 69.5126L953.787 67.1887C953.673 66.7527 953.613 66.3043 953.609 65.8536Z" fill="#E1DA9E" fill-opacity="0.31"/>
<path d="M953.288 10.7222L953.3 9.51547C953.305 9.05882 953.546 8.64498 953.938 8.42303C954.36 8.18381 954.888 8.20589 955.305 8.48021L955.359 8.51554C955.719 8.75246 955.959 9.13572 956.012 9.55932L956.159 10.7356C956.207 11.1158 956.198 11.4992 956.133 11.8732L955.969 12.8152C955.914 13.1275 955.747 13.4054 955.498 13.5965L955.346 13.7132C955.067 13.9274 954.689 13.9681 954.359 13.8194C954.079 13.6929 953.87 13.4446 953.793 13.1479L953.401 11.6381C953.323 11.3379 953.285 11.0299 953.288 10.7222Z" fill="#E1DA9E" fill-opacity="0.31"/>
<path d="M949.694 17.1675L949.706 15.9608C949.711 15.5041 949.952 15.0903 950.344 14.8683C950.766 14.6291 951.294 14.6512 951.711 14.9255L951.764 14.9608C952.125 15.1978 952.364 15.581 952.418 16.0046L952.565 17.1809C952.613 17.5611 952.604 17.9445 952.539 18.3185L952.374 19.2605C952.32 19.5728 952.153 19.8507 951.904 20.0418L951.752 20.1585C951.473 20.3727 951.095 20.4135 950.765 20.2648C950.485 20.1382 950.276 19.8899 950.199 19.5932L949.807 18.0834C949.729 17.7832 949.691 17.4752 949.694 17.1675Z" fill="#E1DA9E" fill-opacity="0.31"/>
<path d="M954.42 24.3922L954.432 23.1854C954.436 22.7287 954.678 22.3149 955.07 22.093C955.492 21.8537 956.02 21.8758 956.437 22.1501L956.49 22.1855C956.851 22.4224 957.09 22.8056 957.144 23.2292L957.291 24.4055C957.339 24.7857 957.33 25.1691 957.265 25.5431L957.1 26.4851C957.046 26.7974 956.878 27.0753 956.63 27.2664L956.478 27.3831C956.199 27.5973 955.82 27.6381 955.491 27.4894C955.211 27.3628 955.001 27.1145 954.924 26.8178L954.533 25.3081C954.455 25.0078 954.417 24.6998 954.42 24.3922Z" fill="#E1DA9E" fill-opacity="0.31"/>
<path d="M950.081 30.109L950.093 28.9022C950.098 28.4455 950.339 28.0317 950.731 27.8097C951.153 27.5705 951.681 27.5926 952.098 27.8669L952.152 27.9023C952.512 28.1392 952.752 28.5224 952.805 28.946L952.953 30.1223C953 30.5025 952.991 30.8859 952.926 31.2599L952.762 32.2019C952.707 32.5142 952.54 32.7921 952.291 32.9832L952.139 33.0999C951.86 33.3141 951.482 33.3549 951.153 33.2062C950.872 33.0796 950.663 32.8313 950.586 32.5346L950.194 31.0249C950.116 30.7246 950.078 30.4166 950.081 30.109Z" fill="#E1DA9E" fill-opacity="0.31"/>
<path d="M1045.32 26.898L1044.8 25.8085C1044.6 25.3962 1044.64 24.9184 1044.89 24.547C1045.17 24.1468 1045.65 23.9349 1046.15 23.9983L1046.21 24.0065C1046.64 24.0613 1047.02 24.3003 1047.26 24.6576L1047.9 25.6496C1048.11 25.9703 1048.27 26.3187 1048.38 26.6834L1048.65 27.6019C1048.73 27.9064 1048.71 28.2296 1048.57 28.5105L1048.48 28.6821C1048.32 28.997 1048 29.1997 1047.64 29.2106C1047.33 29.2199 1047.04 29.0888 1046.84 28.856L1045.82 27.6715C1045.62 27.4359 1045.45 27.1758 1045.32 26.898Z" fill="#E1DA9E" fill-opacity="0.31"/>
<path d="M1044.92 34.2662L1044.4 33.1767C1044.2 32.7644 1044.24 32.2865 1044.49 31.9152C1044.77 31.515 1045.25 31.3031 1045.75 31.3665L1045.81 31.3746C1046.24 31.4294 1046.62 31.6685 1046.86 32.0257L1047.5 33.0178C1047.71 33.3385 1047.87 33.6869 1047.98 34.0515L1048.25 34.97C1048.33 35.2746 1048.31 35.5978 1048.17 35.8787L1048.08 36.0503C1047.92 36.3652 1047.6 36.5679 1047.24 36.5788C1046.93 36.5881 1046.64 36.457 1046.44 36.2242L1045.42 35.0396C1045.22 34.8041 1045.05 34.544 1044.92 34.2662Z" fill="#E1DA9E" fill-opacity="0.31"/>
<path d="M1052.34 38.6832L1051.82 37.5937C1051.62 37.1814 1051.66 36.7035 1051.91 36.3322C1052.19 35.932 1052.67 35.7201 1053.16 35.7835L1053.23 35.7916C1053.66 35.8464 1054.04 36.0855 1054.27 36.4427L1054.92 37.4348C1055.13 37.7554 1055.29 38.1039 1055.4 38.4685L1055.66 39.387C1055.75 39.6916 1055.72 40.0148 1055.58 40.2957L1055.5 40.4673C1055.34 40.7822 1055.02 40.9849 1054.66 40.9958C1054.35 41.0051 1054.05 40.874 1053.85 40.6412L1052.84 39.4566C1052.64 39.2211 1052.47 38.961 1052.34 38.6832Z" fill="#E1DA9E" fill-opacity="0.31"/>
<path d="M1050.95 45.7242L1050.43 44.6347C1050.23 44.2224 1050.27 43.7445 1050.52 43.3732C1050.8 42.973 1051.28 42.7611 1051.78 42.8245L1051.84 42.8327C1052.27 42.8874 1052.65 43.1265 1052.88 43.4838L1053.53 44.4758C1053.74 44.7965 1053.9 45.1449 1054.01 45.5095L1054.27 46.428C1054.36 46.7326 1054.33 47.0558 1054.2 47.3367L1054.11 47.5083C1053.95 47.8232 1053.63 48.0259 1053.27 48.0368C1052.96 48.0461 1052.67 47.915 1052.47 47.6822L1051.45 46.4976C1051.25 46.2621 1051.08 46.002 1050.95 45.7242Z" fill="#E1DA9E" fill-opacity="0.31"/>
<path d="M879.437 12.8442L880.363 12.0696C880.713 11.7764 881.184 11.6914 881.607 11.8451C882.063 12.0107 882.389 12.4264 882.452 12.9217L882.46 12.9855C882.513 13.4132 882.378 13.8445 882.09 14.16L881.292 15.0362C881.033 15.3194 880.736 15.5617 880.409 15.7549L879.586 16.2416C879.313 16.403 878.993 16.4562 878.686 16.3911L878.499 16.3513C878.155 16.2783 877.878 16.0171 877.778 15.6701C877.692 15.3748 877.745 15.0543 877.92 14.8031L878.814 13.5247C878.992 13.2705 879.201 13.0416 879.437 12.8442Z" fill="#E1DA9E" fill-opacity="0.31"/>
<path d="M872.202 14.2963L873.127 13.5217C873.478 13.2286 873.949 13.1435 874.372 13.2972C874.828 13.4628 875.154 13.8786 875.216 14.3738L875.224 14.4376C875.278 14.8654 875.143 15.2967 874.855 15.6122L874.056 16.4884C873.798 16.7716 873.501 17.0138 873.174 17.207L872.351 17.6938C872.078 17.8552 871.758 17.9083 871.451 17.8432L871.264 17.8035C870.92 17.7305 870.643 17.4692 870.542 17.1223C870.457 16.827 870.509 16.5064 870.685 16.2552L871.579 14.9769C871.756 14.7227 871.966 14.4938 872.202 14.2963Z" fill="#E1DA9E" fill-opacity="0.31"/>
<path d="M869.777 22.5824L870.702 21.8078C871.052 21.5147 871.524 21.4297 871.947 21.5833C872.403 21.749 872.729 22.1647 872.791 22.66L872.799 22.7238C872.853 23.1515 872.717 23.5828 872.43 23.8983L871.631 24.7745C871.373 25.0577 871.076 25.2999 870.749 25.4932L869.926 25.9799C869.653 26.1413 869.333 26.1945 869.026 26.1294L868.839 26.0896C868.495 26.0166 868.218 25.7553 868.117 25.4084C868.031 25.1131 868.084 24.7926 868.26 24.5413L869.153 23.263C869.331 23.0088 869.541 22.7799 869.777 22.5824Z" fill="#E1DA9E" fill-opacity="0.31"/>
<path d="M862.612 22.9955L863.537 22.2209C863.888 21.9278 864.359 21.8428 864.782 21.9964C865.238 22.162 865.564 22.5778 865.627 23.0731L865.635 23.1369C865.688 23.5646 865.553 23.9959 865.265 24.3114L864.466 25.1876C864.208 25.4708 863.911 25.713 863.584 25.9063L862.761 26.393C862.488 26.5544 862.168 26.6076 861.861 26.5424L861.674 26.5027C861.33 26.4297 861.053 26.1684 860.952 25.8215C860.867 25.5262 860.919 25.2057 861.095 24.9544L861.989 23.6761C862.166 23.4219 862.376 23.193 862.612 22.9955Z" fill="#E1DA9E" fill-opacity="0.31"/>
<path d="M1059.46 46.8772L1058.68 45.2244C1058.43 44.7055 1058.46 44.0973 1058.76 43.6053C1059.11 43.0192 1059.78 42.7006 1060.46 42.7955L1060.54 42.8065C1061.07 42.8806 1061.54 43.1819 1061.82 43.6316L1062.79 45.1339C1063.07 45.574 1063.29 46.0509 1063.44 46.5511L1063.86 47.9347C1063.97 48.3186 1063.95 48.7311 1063.79 49.0997L1063.68 49.3699C1063.49 49.8149 1063.06 50.1088 1062.57 50.1231C1062.19 50.1345 1061.82 49.9685 1061.58 49.6732L1060.14 47.9404C1059.87 47.6154 1059.65 47.2583 1059.46 46.8772Z" fill="#E1DA9E" fill-opacity="0.31"/>
<path d="M1059.29 57.2376L1058.51 55.5847C1058.26 55.0658 1058.29 54.4576 1058.59 53.9657C1058.94 53.3795 1059.61 53.0609 1060.29 53.1559L1060.37 53.1669C1060.9 53.2409 1061.37 53.5423 1061.65 53.992L1062.62 55.4943C1062.9 55.9343 1063.12 56.4112 1063.27 56.9114L1063.69 58.2951C1063.8 58.6789 1063.78 59.0915 1063.62 59.4601L1063.51 59.7303C1063.32 60.1752 1062.88 60.4691 1062.4 60.4835C1062.02 60.4949 1061.65 60.3289 1061.41 60.0335L1059.97 58.3008C1059.7 57.9757 1059.47 57.6186 1059.29 57.2376Z" fill="#E1DA9E" fill-opacity="0.31"/>
<path d="M1069.2 63.4759L1068.41 61.823C1068.16 61.3041 1068.19 60.6959 1068.49 60.204C1068.84 59.6178 1069.51 59.2992 1070.19 59.3942L1070.27 59.4051C1070.8 59.4792 1071.27 59.7806 1071.56 60.2302L1072.52 61.7326C1072.8 62.1726 1073.02 62.6495 1073.17 63.1497L1073.59 64.5334C1073.71 64.9172 1073.68 65.3297 1073.53 65.6984L1073.41 65.9686C1073.22 66.4135 1072.79 66.7074 1072.3 66.7218C1071.92 66.7332 1071.55 66.5672 1071.31 66.2718L1069.87 64.5391C1069.6 64.214 1069.38 63.8569 1069.2 63.4759Z" fill="#E1DA9E" fill-opacity="0.31"/>
<path d="M1067.72 73.3714L1066.93 71.7185C1066.68 71.1996 1066.71 70.5914 1067.01 70.0995C1067.36 69.5133 1068.03 69.1947 1068.71 69.2897L1068.79 69.3006C1069.32 69.3747 1069.79 69.6761 1070.08 70.1257L1071.04 71.6281C1071.32 72.0681 1071.54 72.545 1071.69 73.0452L1072.11 74.4289C1072.23 74.8127 1072.21 75.2253 1072.05 75.5939L1071.93 75.8641C1071.74 76.309 1071.31 76.6029 1070.83 76.6173C1070.44 76.6287 1070.07 76.4627 1069.83 76.1673L1068.4 74.4346C1068.13 74.1095 1067.9 73.7524 1067.72 73.3714Z" fill="#E1DA9E" fill-opacity="0.31"/>
<path d="M862.242 32.9055L862.948 31.1481C863.17 30.5964 863.654 30.1928 864.236 30.0739C864.93 29.9321 865.642 30.218 866.045 30.8005L866.092 30.8677C866.406 31.322 866.507 31.891 866.367 32.4255L865.899 34.2113C865.762 34.7343 865.553 35.2359 865.278 35.7018L864.519 36.9905C864.309 37.348 863.979 37.6199 863.588 37.7581L863.301 37.8595C862.829 38.0264 862.302 37.9041 861.952 37.546C861.675 37.2624 861.544 36.8668 861.597 36.4736L861.909 34.1671C861.968 33.7345 862.08 33.3107 862.242 32.9055Z" fill="#E1DA9E" fill-opacity="0.31"/>
<path d="M854.24 40.0403L854.946 38.2829C855.168 37.7311 855.652 37.3276 856.234 37.2086C856.928 37.0669 857.64 37.3528 858.043 37.9352L858.09 38.0025C858.404 38.4568 858.505 39.0258 858.365 39.5603L857.897 41.346C857.759 41.8691 857.551 42.3707 857.276 42.8365L856.517 44.1253C856.307 44.4828 855.977 44.7546 855.585 44.8929L855.299 44.9942C854.826 45.1611 854.3 45.0388 853.95 44.6808C853.673 44.3972 853.542 44.0015 853.595 43.6084L853.907 41.3019C853.966 40.8692 854.078 40.4455 854.24 40.0403Z" fill="#E1DA9E" fill-opacity="0.31"/>
<path d="M856.437 51.9475L857.143 50.1901C857.365 49.6384 857.849 49.2348 858.431 49.1159C859.125 48.9741 859.837 49.26 860.24 49.8425L860.287 49.9097C860.601 50.364 860.702 50.933 860.562 51.4675L860.094 53.2533C859.957 53.7763 859.748 54.2779 859.473 54.7438L858.714 56.0325C858.504 56.39 858.174 56.6618 857.783 56.8001L857.496 56.9015C857.024 57.0684 856.497 56.9461 856.147 56.588C855.87 56.3044 855.739 55.9087 855.792 55.5156L856.104 53.2091C856.163 52.7765 856.275 52.3527 856.437 51.9475Z" fill="#E1DA9E" fill-opacity="0.31"/>
<path d="M847.872 57.761L848.578 56.0036C848.8 55.4518 849.284 55.0483 849.866 54.9293C850.56 54.7876 851.272 55.0735 851.675 55.6559L851.722 55.7232C852.036 56.1775 852.137 56.7465 851.997 57.281L851.528 59.0667C851.391 59.5898 851.183 60.0914 850.908 60.5572L850.149 61.846C849.939 62.2035 849.609 62.4753 849.217 62.6136L848.931 62.7149C848.458 62.8818 847.932 62.7595 847.582 62.4015C847.305 62.1179 847.174 61.7222 847.227 61.3291L847.539 59.0226C847.598 58.5899 847.71 58.1662 847.872 57.761Z" fill="#E1DA9E" fill-opacity="0.31"/>
</svg>
