<svg width="1920" height="110" viewBox="0 0 1920 110" fill="none" xmlns="http://www.w3.org/2000/svg">
<path d="M1924 0.00390625H-19V33.941C-19 33.941 115.913 1.36142 218.5 1C326.993 0.617777 520.414 33.941 520.414 33.941C520.414 33.941 741.236 80.6128 902.247 80.3549C1087.97 80.0574 1215.55 19.3937 1401.26 16.9724C1606.91 14.2911 1924 80.3549 1924 80.3549V0.00390625Z" fill="#FFFACD"/>
<path d="M-16.5051 50.9058C-16.5051 50.9058 54.9175 35.5043 101.176 28.4474C149.052 21.1438 175.994 15.9741 224.413 14.4733C291.08 12.4068 328.667 18.6257 394.622 28.4474C446.987 36.2454 527.455 55.3974 527.455 55.3974" stroke="white" stroke-width="2"/>
<path d="M-16 37.798C-16 37.798 93.4935 14.3692 164.815 9.35075C223.248 5.23923 256.445 4.51298 314.821 9.35075C362.745 13.3223 436.542 27.8165 436.542 27.8165" stroke="white" stroke-width="2"/>
<path d="M1098.69 66.8762C1098.69 66.8762 1206.14 42.8713 1275.97 33.4382C1319.78 27.5202 1344.42 23.8151 1388.6 21.9595C1419.74 20.6517 1437.25 20.9055 1468.4 21.9595C1535.82 24.2412 1573.28 31.4285 1640.12 40.4253C1752.17 55.5072 1924.98 91.83 1924.98 91.83" stroke="white" stroke-width="2"/>
<path d="M1077.98 83.8058C1077.98 83.8058 1194.49 59.7636 1270.21 50.3159C1317.72 44.3886 1344.44 40.6778 1392.35 38.8193C1426.11 37.5095 1445.1 37.7636 1478.88 38.8193C1551.98 41.1045 1592.61 48.303 1665.09 57.3138C1786.59 72.4191 1973.97 108.798 1973.97 108.798" stroke="white" stroke-width="2"/>
<path d="M500.475 37.502C500.475 37.502 581.038 54.4012 633.201 62.7983C715.671 76.074 762.277 84.8368 846.046 87.2371C933.853 89.753 1070.47 73.517 1070.47 73.517" stroke="white" stroke-width="2"/>
</svg>
