<svg width="1920" height="183" viewBox="0 0 1920 183" fill="none" xmlns="http://www.w3.org/2000/svg">
<path d="M149.727 175.5C69.9092 161.988 -3 118 -3 118V0H1937.94V96C1937.94 96 1763.64 123.318 1607.71 143C1311.6 180.378 1043.96 68.0071 745.462 71.5C510.849 74.2453 380.99 214.648 149.727 175.5Z" fill="#007CD7"/>
<path d="M-14.9224 101.511C-14.9224 101.511 34.9096 130.408 68.9255 144.392C97.6561 156.204 114.026 163.04 144.426 169.432C173.484 175.541 190.396 176.54 220.086 176.965C248.624 177.373 264.726 175.912 293.004 172.049C336.232 166.144 359.595 157.555 401.508 145.439C441.379 133.913 462.579 123.744 502.378 111.975C541.663 100.358 603.883 85.5006 603.883 85.5006" stroke="white" stroke-width="2"/>
<path d="M1927.5 91.5C1927.5 91.5 1801.79 111.401 1721 122.5C1659.96 130.886 1625.94 137.82 1564.5 142.5C1533.5 144.861 1516.09 146.53 1485 146.5C1454.5 146.471 1437.42 144.687 1407 142.5C1364.33 139.432 1340.49 136.508 1298 131.5C1248.28 125.639 1220.5 121.531 1171 114C1115.21 105.511 1084.36 98.0194 1028.5 90C976.909 82.5935 896 74 896 74" stroke="white" stroke-width="2"/>
<path d="M-4 85.5C-4 85.5 27.1964 104.126 47.7833 114.795C80.8866 131.951 98.9904 144.266 134.74 153.507C164.58 161.219 182.207 162.558 212.904 162.4C242.272 162.249 259.6 167.2 288.624 162.4C335.006 154.729 362.217 143.918 407.824 132.058C456.118 119.499 528 90.7313 528 90.7313" stroke="white" stroke-width="2"/>
<path d="M1861.5 92C1861.5 92 1743.1 109.848 1667 119.5C1615.32 126.055 1586.55 132.745 1534.5 135C1503.68 136.335 1486.34 135.872 1455.5 135C1370.7 132.602 1323.69 122.387 1239.5 112C1202.17 107.394 1144 99.5 1144 99.5" stroke="white" stroke-width="2"/>
<path d="M543.676 80.7438C543.676 80.7438 596.274 66.6386 630.759 60.8511C674.893 53.4441 700.285 52.5819 745.089 50.3077C781.217 48.4739 801.563 47.6352 837.718 48.688C896.48 50.3991 929.181 56.0227 987.195 64.4442C1006.22 67.2061 1035.8 72.1385 1035.8 72.1385" stroke="white" stroke-width="2"/>
</svg>
