<svg width="400" height="90" viewBox="0 0 400 90" fill="none" xmlns="http://www.w3.org/2000/svg">
<mask id="path-1-outside-1_280_186" maskUnits="userSpaceOnUse" x="89" y="21" width="223" height="65" fill="black">
<rect fill="white" x="89" y="21" width="223" height="65"/>
<path d="M108.395 65.793C105.508 65.793 102.966 65.1423 100.77 63.841C98.6151 62.5397 96.9477 60.6893 95.7684 58.29C94.5891 55.8907 93.9994 53.044 93.9994 49.75C93.9994 46.6187 94.5077 43.6093 95.5244 40.722C96.5411 37.8347 98.0051 35.2523 99.9164 32.975C101.828 30.6977 104.125 28.888 106.809 27.546C109.493 26.204 112.523 25.533 115.898 25.533C118.42 25.533 120.494 25.9193 122.12 26.692C123.747 27.4647 124.56 28.6033 124.56 30.108C124.56 30.84 124.357 31.572 123.95 32.304C123.584 32.9953 123.096 33.585 122.486 34.073C121.876 34.561 121.246 34.805 120.595 34.805C120.189 34.805 119.863 34.7033 119.619 34.5C118.521 33.768 117.444 33.2393 116.386 32.914C115.329 32.548 114.109 32.365 112.726 32.365C109.839 32.365 107.399 33.036 105.406 34.378C103.414 35.6793 101.889 37.4077 100.831 39.563C99.8147 41.7183 99.3064 44.0567 99.3064 46.578C99.3064 49.018 99.7741 51.1733 100.709 53.044C101.645 54.9147 102.946 56.3787 104.613 57.436C106.281 58.4933 108.233 59.022 110.469 59.022C112.259 59.022 113.987 58.6763 115.654 57.985C117.362 57.253 118.867 56.2567 120.168 54.996C120.738 54.4673 121.307 54.203 121.876 54.203C122.364 54.203 122.71 54.4063 122.913 54.813C123.117 55.2197 123.218 55.6263 123.218 56.033C123.218 56.7243 123.015 57.5173 122.608 58.412C122.202 59.266 121.571 60.12 120.717 60.974C119.213 62.4787 117.362 63.658 115.166 64.512C112.97 65.366 110.713 65.793 108.395 65.793ZM134.734 65.793C132.294 65.793 130.322 65.0407 128.817 63.536C127.353 61.9907 126.621 59.7947 126.621 56.948C126.621 54.9147 127.007 52.9017 127.78 50.909C128.593 48.8757 129.752 47.0457 131.257 45.419C132.762 43.7923 134.571 42.491 136.686 41.515C138.801 40.539 141.18 40.051 143.823 40.051C146.263 40.051 148.337 40.478 150.045 41.332C151.794 42.1453 152.668 43.2637 152.668 44.687C152.668 45.053 152.627 45.541 152.546 46.151C152.465 46.7203 152.363 47.188 152.241 47.554C152.119 47.8793 151.936 48.1843 151.692 48.469C151.489 48.713 151.204 48.835 150.838 48.835C150.675 48.835 150.37 48.774 149.923 48.652C149.76 49.506 149.638 50.3397 149.557 51.153C149.476 51.9663 149.435 52.7797 149.435 53.593C149.435 55.1383 149.659 56.521 150.106 57.741C150.594 58.9203 151.529 59.6523 152.912 59.937C153.278 60.0183 153.563 60.1403 153.766 60.303C154.01 60.4657 154.132 60.8113 154.132 61.34C154.132 61.7873 154.01 62.3567 153.766 63.048C153.563 63.7393 153.136 64.3697 152.485 64.939C151.875 65.4677 150.98 65.732 149.801 65.732C148.215 65.732 146.995 65.1627 146.141 64.024C145.287 62.8447 144.86 61.1773 144.86 59.022C143.762 61.0147 142.359 62.6413 140.651 63.902C138.984 65.1627 137.011 65.793 134.734 65.793ZM136.686 59.449C138.313 59.449 139.736 58.9407 140.956 57.924C142.217 56.9073 143.193 55.6263 143.884 54.081C144.331 53.105 144.677 52.0477 144.921 50.909C145.165 49.7297 145.328 48.5707 145.409 47.432C144.718 47.1067 143.925 46.8423 143.03 46.639C142.135 46.4357 141.2 46.334 140.224 46.334C137.743 46.334 135.69 47.066 134.063 48.53C132.477 49.994 131.684 51.824 131.684 54.02C131.684 55.6467 132.131 56.9683 133.026 57.985C133.921 58.961 135.141 59.449 136.686 59.449ZM161.324 65.671C159.86 65.671 159.21 65.183 159.372 64.207C159.82 62.4583 160.186 60.6893 160.47 58.9C160.796 57.07 160.958 55.3213 160.958 53.654C160.958 51.4987 160.816 49.933 160.531 48.957C160.287 47.9403 159.942 47.249 159.494 46.883C159.047 46.4763 158.498 46.1713 157.847 45.968C157.563 45.846 157.298 45.6833 157.054 45.48C156.851 45.2767 156.749 44.992 156.749 44.626C156.749 44.0567 156.973 43.4263 157.42 42.735C157.868 42.0437 158.498 41.454 159.311 40.966C160.165 40.4373 161.121 40.173 162.178 40.173C163.561 40.173 164.517 40.661 165.045 41.637C165.574 42.5723 165.838 43.8127 165.838 45.358C165.838 46.3747 165.737 47.5133 165.533 48.774C165.33 50.0347 165.127 51.1733 164.923 52.19L165.045 52.251C165.696 50.0957 166.489 48.103 167.424 46.273C168.4 44.443 169.559 42.9587 170.901 41.82C172.284 40.6813 173.87 40.112 175.659 40.112C177.489 40.112 178.933 40.7423 179.99 42.003C181.048 43.223 181.576 45.0327 181.576 47.432V48.774C182.756 46.2933 184.179 44.2193 185.846 42.552C187.554 40.8847 189.608 40.051 192.007 40.051C193.959 40.051 195.484 40.7017 196.582 42.003C197.68 43.3043 198.229 44.931 198.229 46.883C198.229 47.6557 198.148 48.408 197.985 49.14C197.823 49.8313 197.64 50.5227 197.436 51.214C197.274 51.8647 197.111 52.5357 196.948 53.227C196.786 53.9183 196.704 54.6097 196.704 55.301C196.704 57.741 197.741 59.327 199.815 60.059C200.1 60.181 200.324 60.3233 200.486 60.486C200.649 60.608 200.73 60.852 200.73 61.218C200.73 61.584 200.608 62.1127 200.364 62.804C200.161 63.4953 199.734 64.146 199.083 64.756C198.433 65.3253 197.497 65.61 196.277 65.61C194.691 65.61 193.471 65.0407 192.617 63.902C191.763 62.7227 191.336 61.2383 191.336 59.449C191.336 58.5543 191.418 57.619 191.58 56.643C191.743 55.667 191.946 54.7317 192.19 53.837C192.394 53.0237 192.556 52.251 192.678 51.519C192.841 50.787 192.922 50.1567 192.922 49.628C192.922 48.652 192.678 47.9403 192.19 47.493C191.743 47.0457 191.133 46.822 190.36 46.822C189.059 46.822 187.88 47.2287 186.822 48.042C185.806 48.8553 184.891 49.9127 184.077 51.214C183.305 52.5153 182.634 53.9387 182.064 55.484C182.105 55.85 182.125 56.338 182.125 56.948C182.166 57.5173 182.186 58.0257 182.186 58.473C182.186 59.2457 182.125 60.059 182.003 60.913C181.922 61.767 181.739 62.4787 181.454 63.048C181.129 63.8207 180.641 64.451 179.99 64.939C179.38 65.427 178.547 65.671 177.489 65.671C177.042 65.671 176.615 65.5693 176.208 65.366C175.802 65.2033 175.598 64.9187 175.598 64.512C175.598 64.3493 175.72 63.6377 175.964 62.377C176.208 61.0757 176.452 59.4897 176.696 57.619C176.94 55.7483 177.062 53.9183 177.062 52.129C177.062 50.177 176.859 48.835 176.452 48.103C176.046 47.3303 175.436 46.944 174.622 46.944C173.606 46.944 172.63 47.371 171.694 48.225C170.8 49.079 169.966 50.177 169.193 51.519C168.461 52.861 167.811 54.264 167.241 55.728C166.713 57.192 166.286 58.5543 165.96 59.815V60.486C165.96 61.9907 165.533 63.231 164.679 64.207C163.866 65.183 162.748 65.671 161.324 65.671ZM208.454 81.836C207.234 81.836 206.279 81.4903 205.587 80.799C204.896 80.1483 204.55 78.9487 204.55 77.2C204.55 76.0207 204.672 74.5363 204.916 72.747C205.201 70.9577 205.526 69.0667 205.892 67.074C206.177 65.488 206.441 63.8207 206.685 62.072C206.97 60.3233 207.194 58.6153 207.356 56.948C207.56 55.24 207.661 53.715 207.661 52.373C207.661 50.8277 207.478 49.4857 207.112 48.347C206.787 47.2083 206.096 46.4763 205.038 46.151C204.632 45.9883 204.266 45.8053 203.94 45.602C203.615 45.3987 203.452 45.0733 203.452 44.626C203.452 44.0567 203.676 43.4263 204.123 42.735C204.571 42.0437 205.201 41.454 206.014 40.966C206.868 40.4373 207.824 40.173 208.881 40.173C210.264 40.173 211.22 40.661 211.748 41.637C212.277 42.5723 212.541 43.8127 212.541 45.358C212.541 45.8053 212.521 46.273 212.48 46.761C212.44 47.2083 212.379 47.676 212.297 48.164C213.477 45.8867 215.022 43.9753 216.933 42.43C218.885 40.844 221.081 40.051 223.521 40.051C225.961 40.051 227.873 40.8847 229.255 42.552C230.679 44.1787 231.39 46.395 231.39 49.201C231.39 51.275 231.065 53.3083 230.414 55.301C229.764 57.253 228.849 59.022 227.669 60.608C226.49 62.194 225.067 63.4547 223.399 64.39C221.773 65.3253 219.943 65.793 217.909 65.793C216.445 65.793 215.164 65.5287 214.066 65C212.968 64.512 212.013 63.8613 211.199 63.048C211.037 64.1053 210.874 65.3863 210.711 66.891C210.589 68.3957 210.528 69.7987 210.528 71.1C210.528 72.6047 210.691 73.784 211.016 74.638C211.382 75.492 212.074 76.1427 213.09 76.59C213.538 76.7933 213.761 77.1187 213.761 77.566C213.761 77.8913 213.599 78.3997 213.273 79.091C212.948 79.7823 212.399 80.4127 211.626 80.982C210.894 81.5513 209.837 81.836 208.454 81.836ZM219.312 59.205C221.63 59.205 223.42 58.473 224.68 57.009C225.941 55.545 226.571 53.8573 226.571 51.946C226.571 50.2787 226.124 48.9977 225.229 48.103C224.335 47.1677 223.135 46.7 221.63 46.7C220.085 46.7 218.723 47.1677 217.543 48.103C216.364 48.9977 215.347 50.177 214.493 51.641C213.68 53.105 213.009 54.6707 212.48 56.338C214.514 58.2493 216.791 59.205 219.312 59.205ZM241.189 34.683C240.05 34.6423 239.135 34.2967 238.444 33.646C237.752 32.9953 237.407 32.0803 237.407 30.901C237.447 29.6403 237.874 28.6237 238.688 27.851C239.501 27.0377 240.538 26.6513 241.799 26.692C242.978 26.7327 243.893 27.0783 244.544 27.729C245.235 28.3797 245.56 29.2947 245.52 30.474C245.479 31.694 245.072 32.7107 244.3 33.524C243.527 34.2967 242.49 34.683 241.189 34.683ZM241.25 65.61C240.03 65.61 239.074 65.2847 238.383 64.634C237.691 63.9427 237.346 62.7837 237.346 61.157C237.346 60.2217 237.427 59.3067 237.59 58.412C237.793 57.5173 238.017 56.643 238.261 55.789C238.545 54.8943 238.769 53.9793 238.932 53.044C239.135 52.1087 239.237 51.1123 239.237 50.055C239.237 49.323 239.135 48.6317 238.932 47.981C238.728 47.2897 238.281 46.7813 237.59 46.456C237.061 46.1713 236.593 45.8867 236.187 45.602C235.821 45.2767 235.638 44.87 235.638 44.382C235.638 43.8127 235.902 43.2027 236.431 42.552C236.959 41.9013 237.651 41.3523 238.505 40.905C239.399 40.417 240.314 40.173 241.25 40.173C242.266 40.173 242.998 40.4373 243.446 40.966C243.934 41.4947 244.259 42.1657 244.422 42.979C244.584 43.7923 244.666 44.626 244.666 45.48C244.666 46.7813 244.564 48.0623 244.361 49.323C244.157 50.543 243.954 51.6817 243.751 52.739C243.588 53.5117 243.466 54.2233 243.385 54.874C243.303 55.5247 243.263 56.1347 243.263 56.704C243.263 57.7207 243.507 58.4933 243.995 59.022C244.483 59.51 245.174 59.9777 246.069 60.425C246.435 60.6283 246.618 60.9333 246.618 61.34C246.618 61.6653 246.455 62.1737 246.13 62.865C245.804 63.5563 245.235 64.1867 244.422 64.756C243.649 65.3253 242.592 65.61 241.25 65.61ZM254.611 65.671C253.147 65.671 252.497 65.183 252.659 64.207C253.107 62.4583 253.473 60.6893 253.757 58.9C254.083 57.07 254.245 55.3213 254.245 53.654C254.245 51.4987 254.103 49.933 253.818 48.957C253.574 47.9403 253.229 47.249 252.781 46.883C252.334 46.4763 251.785 46.1713 251.134 45.968C250.85 45.846 250.585 45.6833 250.341 45.48C250.138 45.2767 250.036 44.992 250.036 44.626C250.036 44.0567 250.26 43.4263 250.707 42.735C251.155 42.0437 251.785 41.454 252.598 40.966C253.452 40.4373 254.408 40.173 255.465 40.173C256.848 40.173 257.804 40.661 258.332 41.637C258.861 42.5723 259.125 43.8127 259.125 45.358C259.125 46.3747 259.024 47.5133 258.82 48.774C258.617 50.0347 258.414 51.1733 258.21 52.19L258.393 52.251C259.207 50.0957 260.183 48.103 261.321 46.273C262.501 44.4023 263.863 42.8977 265.408 41.759C266.954 40.6203 268.743 40.051 270.776 40.051C272.932 40.051 274.579 40.7017 275.717 42.003C276.856 43.3043 277.425 44.931 277.425 46.883C277.425 47.6963 277.324 48.469 277.12 49.201C276.958 49.933 276.775 50.6447 276.571 51.336C276.368 51.9867 276.185 52.6577 276.022 53.349C275.9 54.0403 275.839 54.7317 275.839 55.423C275.839 57.741 276.937 59.3067 279.133 60.12C279.703 60.364 279.987 60.73 279.987 61.218C279.987 61.584 279.865 62.1127 279.621 62.804C279.377 63.4953 278.93 64.146 278.279 64.756C277.629 65.3253 276.673 65.61 275.412 65.61C273.786 65.61 272.525 65.0407 271.63 63.902C270.736 62.7227 270.288 61.2383 270.288 59.449C270.288 58.4323 270.39 57.4157 270.593 56.399C270.837 55.3417 271.081 54.3657 271.325 53.471C271.488 52.7797 271.63 52.1087 271.752 51.458C271.915 50.7667 271.996 50.1567 271.996 49.628C271.996 47.7573 271.02 46.822 269.068 46.822C267.401 46.822 265.937 47.4523 264.676 48.713C263.416 49.933 262.338 51.4783 261.443 53.349C260.549 55.2197 259.817 57.1107 259.247 59.022V60.486C259.247 61.9907 258.82 63.231 257.966 64.207C257.153 65.183 256.035 65.671 254.611 65.671ZM291.83 81.836C288.78 81.836 286.36 81.2057 284.571 79.945C282.781 78.6843 281.887 77.0577 281.887 75.065C281.887 73.601 282.334 72.2997 283.229 71.161C284.164 70.0223 285.384 69.453 286.889 69.453C287.743 69.453 288.17 69.697 288.17 70.185C288.17 70.4697 288.109 70.795 287.987 71.161C287.905 71.527 287.865 71.893 287.865 72.259C287.865 73.3977 288.515 74.2313 289.817 74.76C291.118 75.3293 292.684 75.614 294.514 75.614C295.652 75.614 296.811 75.492 297.991 75.248C299.17 75.004 300.146 74.6177 300.919 74.089C301.732 73.601 302.139 72.93 302.139 72.076C302.139 71.1407 301.671 70.4493 300.736 70.002C299.8 69.5547 298.621 69.209 297.198 68.965C295.774 68.7617 294.31 68.5583 292.806 68.355C291.342 68.1923 290.081 67.9077 289.024 67.501C287.682 67.0537 286.685 66.5047 286.035 65.854C285.384 65.2033 285.059 64.3697 285.059 63.353C285.059 61.4417 286.218 59.9167 288.536 58.778C287.194 58.0867 286.177 57.1107 285.486 55.85C284.835 54.5893 284.51 53.1863 284.51 51.641C284.51 49.6483 285.018 47.7777 286.035 46.029C287.092 44.2803 288.637 42.857 290.671 41.759C292.745 40.6203 295.327 40.051 298.418 40.051C299.8 40.051 301.203 40.1933 302.627 40.478C304.05 40.722 305.229 41.21 306.165 41.942C307.141 42.6333 307.629 43.65 307.629 44.992C307.629 45.48 307.527 46.029 307.324 46.639C307.12 47.2083 306.734 47.493 306.165 47.493C305.921 47.493 305.595 47.4523 305.189 47.371C304.782 47.249 304.416 47.1473 304.091 47.066C304.172 47.4727 304.233 47.92 304.274 48.408C304.355 48.896 304.396 49.4043 304.396 49.933C304.396 52.3323 303.582 54.508 301.956 56.46C300.329 58.3713 297.95 59.51 294.819 59.876C293.68 59.9573 292.826 60.0997 292.257 60.303C291.728 60.4657 291.464 60.7707 291.464 61.218C291.464 61.6247 291.708 61.9297 292.196 62.133C292.684 62.2957 293.314 62.4177 294.087 62.499C296.567 62.7023 298.763 63.048 300.675 63.536C302.586 64.024 304.07 64.7967 305.128 65.854C306.226 66.952 306.775 68.4973 306.775 70.49C306.775 72.808 306.083 74.8007 304.701 76.468C303.359 78.176 301.549 79.4977 299.272 80.433C296.994 81.3683 294.514 81.836 291.83 81.836ZM294.148 54.569C296.018 54.569 297.482 54.0607 298.54 53.044C299.597 52.0273 300.126 50.7057 300.126 49.079C300.126 48.6317 300.085 48.1843 300.004 47.737C299.922 47.249 299.841 46.8423 299.76 46.517C299.109 46.3137 298.479 46.1917 297.869 46.151C297.259 46.0697 296.669 46.029 296.1 46.029C293.944 46.029 292.257 46.4357 291.037 47.249C289.817 48.0623 289.207 49.1807 289.207 50.604C289.207 51.8647 289.654 52.8407 290.549 53.532C291.443 54.2233 292.643 54.569 294.148 54.569Z"/>
</mask>
<path d="M108.395 65.793C105.508 65.793 102.966 65.1423 100.77 63.841C98.6151 62.5397 96.9477 60.6893 95.7684 58.29C94.5891 55.8907 93.9994 53.044 93.9994 49.75C93.9994 46.6187 94.5077 43.6093 95.5244 40.722C96.5411 37.8347 98.0051 35.2523 99.9164 32.975C101.828 30.6977 104.125 28.888 106.809 27.546C109.493 26.204 112.523 25.533 115.898 25.533C118.42 25.533 120.494 25.9193 122.12 26.692C123.747 27.4647 124.56 28.6033 124.56 30.108C124.56 30.84 124.357 31.572 123.95 32.304C123.584 32.9953 123.096 33.585 122.486 34.073C121.876 34.561 121.246 34.805 120.595 34.805C120.189 34.805 119.863 34.7033 119.619 34.5C118.521 33.768 117.444 33.2393 116.386 32.914C115.329 32.548 114.109 32.365 112.726 32.365C109.839 32.365 107.399 33.036 105.406 34.378C103.414 35.6793 101.889 37.4077 100.831 39.563C99.8147 41.7183 99.3064 44.0567 99.3064 46.578C99.3064 49.018 99.7741 51.1733 100.709 53.044C101.645 54.9147 102.946 56.3787 104.613 57.436C106.281 58.4933 108.233 59.022 110.469 59.022C112.259 59.022 113.987 58.6763 115.654 57.985C117.362 57.253 118.867 56.2567 120.168 54.996C120.738 54.4673 121.307 54.203 121.876 54.203C122.364 54.203 122.71 54.4063 122.913 54.813C123.117 55.2197 123.218 55.6263 123.218 56.033C123.218 56.7243 123.015 57.5173 122.608 58.412C122.202 59.266 121.571 60.12 120.717 60.974C119.213 62.4787 117.362 63.658 115.166 64.512C112.97 65.366 110.713 65.793 108.395 65.793ZM134.734 65.793C132.294 65.793 130.322 65.0407 128.817 63.536C127.353 61.9907 126.621 59.7947 126.621 56.948C126.621 54.9147 127.007 52.9017 127.78 50.909C128.593 48.8757 129.752 47.0457 131.257 45.419C132.762 43.7923 134.571 42.491 136.686 41.515C138.801 40.539 141.18 40.051 143.823 40.051C146.263 40.051 148.337 40.478 150.045 41.332C151.794 42.1453 152.668 43.2637 152.668 44.687C152.668 45.053 152.627 45.541 152.546 46.151C152.465 46.7203 152.363 47.188 152.241 47.554C152.119 47.8793 151.936 48.1843 151.692 48.469C151.489 48.713 151.204 48.835 150.838 48.835C150.675 48.835 150.37 48.774 149.923 48.652C149.76 49.506 149.638 50.3397 149.557 51.153C149.476 51.9663 149.435 52.7797 149.435 53.593C149.435 55.1383 149.659 56.521 150.106 57.741C150.594 58.9203 151.529 59.6523 152.912 59.937C153.278 60.0183 153.563 60.1403 153.766 60.303C154.01 60.4657 154.132 60.8113 154.132 61.34C154.132 61.7873 154.01 62.3567 153.766 63.048C153.563 63.7393 153.136 64.3697 152.485 64.939C151.875 65.4677 150.98 65.732 149.801 65.732C148.215 65.732 146.995 65.1627 146.141 64.024C145.287 62.8447 144.86 61.1773 144.86 59.022C143.762 61.0147 142.359 62.6413 140.651 63.902C138.984 65.1627 137.011 65.793 134.734 65.793ZM136.686 59.449C138.313 59.449 139.736 58.9407 140.956 57.924C142.217 56.9073 143.193 55.6263 143.884 54.081C144.331 53.105 144.677 52.0477 144.921 50.909C145.165 49.7297 145.328 48.5707 145.409 47.432C144.718 47.1067 143.925 46.8423 143.03 46.639C142.135 46.4357 141.2 46.334 140.224 46.334C137.743 46.334 135.69 47.066 134.063 48.53C132.477 49.994 131.684 51.824 131.684 54.02C131.684 55.6467 132.131 56.9683 133.026 57.985C133.921 58.961 135.141 59.449 136.686 59.449ZM161.324 65.671C159.86 65.671 159.21 65.183 159.372 64.207C159.82 62.4583 160.186 60.6893 160.47 58.9C160.796 57.07 160.958 55.3213 160.958 53.654C160.958 51.4987 160.816 49.933 160.531 48.957C160.287 47.9403 159.942 47.249 159.494 46.883C159.047 46.4763 158.498 46.1713 157.847 45.968C157.563 45.846 157.298 45.6833 157.054 45.48C156.851 45.2767 156.749 44.992 156.749 44.626C156.749 44.0567 156.973 43.4263 157.42 42.735C157.868 42.0437 158.498 41.454 159.311 40.966C160.165 40.4373 161.121 40.173 162.178 40.173C163.561 40.173 164.517 40.661 165.045 41.637C165.574 42.5723 165.838 43.8127 165.838 45.358C165.838 46.3747 165.737 47.5133 165.533 48.774C165.33 50.0347 165.127 51.1733 164.923 52.19L165.045 52.251C165.696 50.0957 166.489 48.103 167.424 46.273C168.4 44.443 169.559 42.9587 170.901 41.82C172.284 40.6813 173.87 40.112 175.659 40.112C177.489 40.112 178.933 40.7423 179.99 42.003C181.048 43.223 181.576 45.0327 181.576 47.432V48.774C182.756 46.2933 184.179 44.2193 185.846 42.552C187.554 40.8847 189.608 40.051 192.007 40.051C193.959 40.051 195.484 40.7017 196.582 42.003C197.68 43.3043 198.229 44.931 198.229 46.883C198.229 47.6557 198.148 48.408 197.985 49.14C197.823 49.8313 197.64 50.5227 197.436 51.214C197.274 51.8647 197.111 52.5357 196.948 53.227C196.786 53.9183 196.704 54.6097 196.704 55.301C196.704 57.741 197.741 59.327 199.815 60.059C200.1 60.181 200.324 60.3233 200.486 60.486C200.649 60.608 200.73 60.852 200.73 61.218C200.73 61.584 200.608 62.1127 200.364 62.804C200.161 63.4953 199.734 64.146 199.083 64.756C198.433 65.3253 197.497 65.61 196.277 65.61C194.691 65.61 193.471 65.0407 192.617 63.902C191.763 62.7227 191.336 61.2383 191.336 59.449C191.336 58.5543 191.418 57.619 191.58 56.643C191.743 55.667 191.946 54.7317 192.19 53.837C192.394 53.0237 192.556 52.251 192.678 51.519C192.841 50.787 192.922 50.1567 192.922 49.628C192.922 48.652 192.678 47.9403 192.19 47.493C191.743 47.0457 191.133 46.822 190.36 46.822C189.059 46.822 187.88 47.2287 186.822 48.042C185.806 48.8553 184.891 49.9127 184.077 51.214C183.305 52.5153 182.634 53.9387 182.064 55.484C182.105 55.85 182.125 56.338 182.125 56.948C182.166 57.5173 182.186 58.0257 182.186 58.473C182.186 59.2457 182.125 60.059 182.003 60.913C181.922 61.767 181.739 62.4787 181.454 63.048C181.129 63.8207 180.641 64.451 179.99 64.939C179.38 65.427 178.547 65.671 177.489 65.671C177.042 65.671 176.615 65.5693 176.208 65.366C175.802 65.2033 175.598 64.9187 175.598 64.512C175.598 64.3493 175.72 63.6377 175.964 62.377C176.208 61.0757 176.452 59.4897 176.696 57.619C176.94 55.7483 177.062 53.9183 177.062 52.129C177.062 50.177 176.859 48.835 176.452 48.103C176.046 47.3303 175.436 46.944 174.622 46.944C173.606 46.944 172.63 47.371 171.694 48.225C170.8 49.079 169.966 50.177 169.193 51.519C168.461 52.861 167.811 54.264 167.241 55.728C166.713 57.192 166.286 58.5543 165.96 59.815V60.486C165.96 61.9907 165.533 63.231 164.679 64.207C163.866 65.183 162.748 65.671 161.324 65.671ZM208.454 81.836C207.234 81.836 206.279 81.4903 205.587 80.799C204.896 80.1483 204.55 78.9487 204.55 77.2C204.55 76.0207 204.672 74.5363 204.916 72.747C205.201 70.9577 205.526 69.0667 205.892 67.074C206.177 65.488 206.441 63.8207 206.685 62.072C206.97 60.3233 207.194 58.6153 207.356 56.948C207.56 55.24 207.661 53.715 207.661 52.373C207.661 50.8277 207.478 49.4857 207.112 48.347C206.787 47.2083 206.096 46.4763 205.038 46.151C204.632 45.9883 204.266 45.8053 203.94 45.602C203.615 45.3987 203.452 45.0733 203.452 44.626C203.452 44.0567 203.676 43.4263 204.123 42.735C204.571 42.0437 205.201 41.454 206.014 40.966C206.868 40.4373 207.824 40.173 208.881 40.173C210.264 40.173 211.22 40.661 211.748 41.637C212.277 42.5723 212.541 43.8127 212.541 45.358C212.541 45.8053 212.521 46.273 212.48 46.761C212.44 47.2083 212.379 47.676 212.297 48.164C213.477 45.8867 215.022 43.9753 216.933 42.43C218.885 40.844 221.081 40.051 223.521 40.051C225.961 40.051 227.873 40.8847 229.255 42.552C230.679 44.1787 231.39 46.395 231.39 49.201C231.39 51.275 231.065 53.3083 230.414 55.301C229.764 57.253 228.849 59.022 227.669 60.608C226.49 62.194 225.067 63.4547 223.399 64.39C221.773 65.3253 219.943 65.793 217.909 65.793C216.445 65.793 215.164 65.5287 214.066 65C212.968 64.512 212.013 63.8613 211.199 63.048C211.037 64.1053 210.874 65.3863 210.711 66.891C210.589 68.3957 210.528 69.7987 210.528 71.1C210.528 72.6047 210.691 73.784 211.016 74.638C211.382 75.492 212.074 76.1427 213.09 76.59C213.538 76.7933 213.761 77.1187 213.761 77.566C213.761 77.8913 213.599 78.3997 213.273 79.091C212.948 79.7823 212.399 80.4127 211.626 80.982C210.894 81.5513 209.837 81.836 208.454 81.836ZM219.312 59.205C221.63 59.205 223.42 58.473 224.68 57.009C225.941 55.545 226.571 53.8573 226.571 51.946C226.571 50.2787 226.124 48.9977 225.229 48.103C224.335 47.1677 223.135 46.7 221.63 46.7C220.085 46.7 218.723 47.1677 217.543 48.103C216.364 48.9977 215.347 50.177 214.493 51.641C213.68 53.105 213.009 54.6707 212.48 56.338C214.514 58.2493 216.791 59.205 219.312 59.205ZM241.189 34.683C240.05 34.6423 239.135 34.2967 238.444 33.646C237.752 32.9953 237.407 32.0803 237.407 30.901C237.447 29.6403 237.874 28.6237 238.688 27.851C239.501 27.0377 240.538 26.6513 241.799 26.692C242.978 26.7327 243.893 27.0783 244.544 27.729C245.235 28.3797 245.56 29.2947 245.52 30.474C245.479 31.694 245.072 32.7107 244.3 33.524C243.527 34.2967 242.49 34.683 241.189 34.683ZM241.25 65.61C240.03 65.61 239.074 65.2847 238.383 64.634C237.691 63.9427 237.346 62.7837 237.346 61.157C237.346 60.2217 237.427 59.3067 237.59 58.412C237.793 57.5173 238.017 56.643 238.261 55.789C238.545 54.8943 238.769 53.9793 238.932 53.044C239.135 52.1087 239.237 51.1123 239.237 50.055C239.237 49.323 239.135 48.6317 238.932 47.981C238.728 47.2897 238.281 46.7813 237.59 46.456C237.061 46.1713 236.593 45.8867 236.187 45.602C235.821 45.2767 235.638 44.87 235.638 44.382C235.638 43.8127 235.902 43.2027 236.431 42.552C236.959 41.9013 237.651 41.3523 238.505 40.905C239.399 40.417 240.314 40.173 241.25 40.173C242.266 40.173 242.998 40.4373 243.446 40.966C243.934 41.4947 244.259 42.1657 244.422 42.979C244.584 43.7923 244.666 44.626 244.666 45.48C244.666 46.7813 244.564 48.0623 244.361 49.323C244.157 50.543 243.954 51.6817 243.751 52.739C243.588 53.5117 243.466 54.2233 243.385 54.874C243.303 55.5247 243.263 56.1347 243.263 56.704C243.263 57.7207 243.507 58.4933 243.995 59.022C244.483 59.51 245.174 59.9777 246.069 60.425C246.435 60.6283 246.618 60.9333 246.618 61.34C246.618 61.6653 246.455 62.1737 246.13 62.865C245.804 63.5563 245.235 64.1867 244.422 64.756C243.649 65.3253 242.592 65.61 241.25 65.61ZM254.611 65.671C253.147 65.671 252.497 65.183 252.659 64.207C253.107 62.4583 253.473 60.6893 253.757 58.9C254.083 57.07 254.245 55.3213 254.245 53.654C254.245 51.4987 254.103 49.933 253.818 48.957C253.574 47.9403 253.229 47.249 252.781 46.883C252.334 46.4763 251.785 46.1713 251.134 45.968C250.85 45.846 250.585 45.6833 250.341 45.48C250.138 45.2767 250.036 44.992 250.036 44.626C250.036 44.0567 250.26 43.4263 250.707 42.735C251.155 42.0437 251.785 41.454 252.598 40.966C253.452 40.4373 254.408 40.173 255.465 40.173C256.848 40.173 257.804 40.661 258.332 41.637C258.861 42.5723 259.125 43.8127 259.125 45.358C259.125 46.3747 259.024 47.5133 258.82 48.774C258.617 50.0347 258.414 51.1733 258.21 52.19L258.393 52.251C259.207 50.0957 260.183 48.103 261.321 46.273C262.501 44.4023 263.863 42.8977 265.408 41.759C266.954 40.6203 268.743 40.051 270.776 40.051C272.932 40.051 274.579 40.7017 275.717 42.003C276.856 43.3043 277.425 44.931 277.425 46.883C277.425 47.6963 277.324 48.469 277.12 49.201C276.958 49.933 276.775 50.6447 276.571 51.336C276.368 51.9867 276.185 52.6577 276.022 53.349C275.9 54.0403 275.839 54.7317 275.839 55.423C275.839 57.741 276.937 59.3067 279.133 60.12C279.703 60.364 279.987 60.73 279.987 61.218C279.987 61.584 279.865 62.1127 279.621 62.804C279.377 63.4953 278.93 64.146 278.279 64.756C277.629 65.3253 276.673 65.61 275.412 65.61C273.786 65.61 272.525 65.0407 271.63 63.902C270.736 62.7227 270.288 61.2383 270.288 59.449C270.288 58.4323 270.39 57.4157 270.593 56.399C270.837 55.3417 271.081 54.3657 271.325 53.471C271.488 52.7797 271.63 52.1087 271.752 51.458C271.915 50.7667 271.996 50.1567 271.996 49.628C271.996 47.7573 271.02 46.822 269.068 46.822C267.401 46.822 265.937 47.4523 264.676 48.713C263.416 49.933 262.338 51.4783 261.443 53.349C260.549 55.2197 259.817 57.1107 259.247 59.022V60.486C259.247 61.9907 258.82 63.231 257.966 64.207C257.153 65.183 256.035 65.671 254.611 65.671ZM291.83 81.836C288.78 81.836 286.36 81.2057 284.571 79.945C282.781 78.6843 281.887 77.0577 281.887 75.065C281.887 73.601 282.334 72.2997 283.229 71.161C284.164 70.0223 285.384 69.453 286.889 69.453C287.743 69.453 288.17 69.697 288.17 70.185C288.17 70.4697 288.109 70.795 287.987 71.161C287.905 71.527 287.865 71.893 287.865 72.259C287.865 73.3977 288.515 74.2313 289.817 74.76C291.118 75.3293 292.684 75.614 294.514 75.614C295.652 75.614 296.811 75.492 297.991 75.248C299.17 75.004 300.146 74.6177 300.919 74.089C301.732 73.601 302.139 72.93 302.139 72.076C302.139 71.1407 301.671 70.4493 300.736 70.002C299.8 69.5547 298.621 69.209 297.198 68.965C295.774 68.7617 294.31 68.5583 292.806 68.355C291.342 68.1923 290.081 67.9077 289.024 67.501C287.682 67.0537 286.685 66.5047 286.035 65.854C285.384 65.2033 285.059 64.3697 285.059 63.353C285.059 61.4417 286.218 59.9167 288.536 58.778C287.194 58.0867 286.177 57.1107 285.486 55.85C284.835 54.5893 284.51 53.1863 284.51 51.641C284.51 49.6483 285.018 47.7777 286.035 46.029C287.092 44.2803 288.637 42.857 290.671 41.759C292.745 40.6203 295.327 40.051 298.418 40.051C299.8 40.051 301.203 40.1933 302.627 40.478C304.05 40.722 305.229 41.21 306.165 41.942C307.141 42.6333 307.629 43.65 307.629 44.992C307.629 45.48 307.527 46.029 307.324 46.639C307.12 47.2083 306.734 47.493 306.165 47.493C305.921 47.493 305.595 47.4523 305.189 47.371C304.782 47.249 304.416 47.1473 304.091 47.066C304.172 47.4727 304.233 47.92 304.274 48.408C304.355 48.896 304.396 49.4043 304.396 49.933C304.396 52.3323 303.582 54.508 301.956 56.46C300.329 58.3713 297.95 59.51 294.819 59.876C293.68 59.9573 292.826 60.0997 292.257 60.303C291.728 60.4657 291.464 60.7707 291.464 61.218C291.464 61.6247 291.708 61.9297 292.196 62.133C292.684 62.2957 293.314 62.4177 294.087 62.499C296.567 62.7023 298.763 63.048 300.675 63.536C302.586 64.024 304.07 64.7967 305.128 65.854C306.226 66.952 306.775 68.4973 306.775 70.49C306.775 72.808 306.083 74.8007 304.701 76.468C303.359 78.176 301.549 79.4977 299.272 80.433C296.994 81.3683 294.514 81.836 291.83 81.836ZM294.148 54.569C296.018 54.569 297.482 54.0607 298.54 53.044C299.597 52.0273 300.126 50.7057 300.126 49.079C300.126 48.6317 300.085 48.1843 300.004 47.737C299.922 47.249 299.841 46.8423 299.76 46.517C299.109 46.3137 298.479 46.1917 297.869 46.151C297.259 46.0697 296.669 46.029 296.1 46.029C293.944 46.029 292.257 46.4357 291.037 47.249C289.817 48.0623 289.207 49.1807 289.207 50.604C289.207 51.8647 289.654 52.8407 290.549 53.532C291.443 54.2233 292.643 54.569 294.148 54.569Z" fill="#ACA885"/>
<path d="M100.77 63.841L98.7029 67.2653L98.717 67.2738L98.7312 67.2822L100.77 63.841ZM95.7684 58.29L92.1786 60.0545L92.1786 60.0545L95.7684 58.29ZM95.5244 40.722L91.7515 39.3935L91.7515 39.3935L95.5244 40.722ZM99.9164 32.975L96.8525 30.4035L96.8525 30.4035L99.9164 32.975ZM106.809 27.546L108.598 31.1237L108.598 31.1237L106.809 27.546ZM122.12 26.692L123.837 23.0789L123.837 23.0789L122.12 26.692ZM123.95 32.304L120.454 30.3614L120.434 30.3967L120.415 30.4324L123.95 32.304ZM122.486 34.073L124.985 37.1965L124.985 37.1965L122.486 34.073ZM119.619 34.5L122.18 31.4271L122.016 31.2903L121.838 31.1718L119.619 34.5ZM116.386 32.914L115.078 36.6939L115.144 36.7167L115.21 36.7371L116.386 32.914ZM105.406 34.378L107.594 37.7271L107.617 37.7116L107.641 37.6957L105.406 34.378ZM100.831 39.563L97.2402 37.8013L97.2267 37.8288L97.2137 37.8565L100.831 39.563ZM104.613 57.436L102.471 60.814L104.613 57.436ZM115.654 57.985L117.186 61.68L117.208 61.6709L117.23 61.6616L115.654 57.985ZM120.168 54.996L117.447 52.0648L117.416 52.0936L117.385 52.123L120.168 54.996ZM122.913 54.813L126.491 53.0241L126.491 53.0241L122.913 54.813ZM122.608 58.412L126.22 60.1317L126.235 60.0996L126.25 60.0672L122.608 58.412ZM120.717 60.974L123.546 63.8024L123.546 63.8024L120.717 60.974ZM108.395 61.793C106.13 61.793 104.311 61.2893 102.81 60.3998L98.7312 67.2822C101.622 68.9954 104.887 69.793 108.395 69.793V61.793ZM102.838 60.4167C101.38 59.5364 100.221 58.2818 99.3582 56.5255L92.1786 60.0545C93.674 63.0969 95.8504 65.543 98.7029 67.2653L102.838 60.4167ZM99.3582 56.5255C98.5041 54.7878 97.9994 52.5714 97.9994 49.75H89.9994C89.9994 53.5166 90.6741 56.9935 92.1786 60.0545L99.3582 56.5255ZM97.9994 49.75C97.9994 47.0606 98.4344 44.5012 99.2973 42.0505L91.7515 39.3935C90.581 42.7175 89.9994 46.1767 89.9994 49.75H97.9994ZM99.2973 42.0505C100.159 39.6031 101.387 37.4446 102.98 35.5465L96.8525 30.4035C94.6229 33.0601 92.923 36.0662 91.7515 39.3935L99.2973 42.0505ZM102.98 35.5465C104.537 33.6922 106.399 32.2234 108.598 31.1237L105.021 23.9683C101.852 25.5526 99.1189 27.7031 96.8525 30.4035L102.98 35.5465ZM108.598 31.1237C110.661 30.0924 113.066 29.533 115.898 29.533V21.533C111.98 21.533 108.326 22.3156 105.021 23.9683L108.598 31.1237ZM115.898 29.533C118.048 29.533 119.484 29.8679 120.404 30.3051L123.837 23.0789C121.504 21.9707 118.791 21.533 115.898 21.533V29.533ZM120.404 30.3051C120.775 30.4814 120.781 30.5708 120.695 30.4504C120.652 30.3895 120.611 30.3099 120.585 30.2245C120.559 30.1418 120.56 30.0956 120.56 30.108H128.56C128.56 28.5883 128.134 27.1003 127.205 25.8005C126.306 24.5415 125.092 23.6752 123.837 23.0789L120.404 30.3051ZM120.56 30.108C120.56 30.0987 120.562 30.1048 120.554 30.1354C120.545 30.1686 120.519 30.2433 120.454 30.3614L127.447 34.2466C128.136 33.0069 128.56 31.6124 128.56 30.108H120.56ZM120.415 30.4324C120.305 30.6406 120.17 30.804 119.988 30.9495L124.985 37.1965C126.023 36.366 126.864 35.35 127.486 34.1756L120.415 30.4324ZM119.988 30.9495C119.953 30.9775 119.993 30.9379 120.112 30.8917C120.239 30.8425 120.408 30.805 120.595 30.805V38.805C122.327 38.805 123.813 38.1339 124.985 37.1965L119.988 30.9495ZM120.595 30.805C120.857 30.805 121.523 30.8798 122.18 31.4271L117.059 37.5729C118.203 38.5268 119.521 38.805 120.595 38.805V30.805ZM121.838 31.1718C120.478 30.2653 119.053 29.5494 117.563 29.0909L115.21 36.7371C115.835 36.9293 116.564 37.2707 117.401 37.8282L121.838 31.1718ZM117.695 29.1341C116.131 28.5927 114.453 28.365 112.726 28.365V36.365C113.765 36.365 114.527 36.5033 115.078 36.6939L117.695 29.1341ZM112.726 28.365C109.206 28.365 105.948 29.1904 103.172 31.0602L107.641 37.6957C108.85 36.8816 110.472 36.365 112.726 36.365V28.365ZM103.219 31.0289C100.619 32.7271 98.6114 35.0062 97.2402 37.8013L104.423 41.3247C105.166 39.8092 106.209 38.6315 107.594 37.7271L103.219 31.0289ZM97.2137 37.8565C95.9308 40.5763 95.3064 43.5016 95.3064 46.578H103.306C103.306 44.6117 103.699 42.8604 104.449 41.2695L97.2137 37.8565ZM95.3064 46.578C95.3064 49.5357 95.8759 52.3212 97.1317 54.8329L104.287 51.2551C103.672 50.0255 103.306 48.5003 103.306 46.578H95.3064ZM97.1317 54.8329C98.3721 57.3137 100.153 59.3439 102.471 60.814L106.756 54.058C105.739 53.4134 104.917 52.5157 104.287 51.2551L97.1317 54.8329ZM102.471 60.814C104.861 62.3297 107.578 63.022 110.469 63.022V55.022C108.888 55.022 107.7 54.6569 106.756 54.058L102.471 60.814ZM110.469 63.022C112.789 63.022 115.038 62.5709 117.186 61.68L114.122 54.29C112.936 54.7818 111.728 55.022 110.469 55.022V63.022ZM117.23 61.6616C119.374 60.7425 121.291 59.4776 122.952 57.869L117.385 52.123C116.443 53.0357 115.35 53.7635 114.079 54.3084L117.23 61.6616ZM122.89 57.9272C122.993 57.8317 122.636 58.203 121.876 58.203V50.203C119.978 50.203 118.482 51.103 117.447 52.0648L122.89 57.9272ZM121.876 58.203C121.562 58.203 121.036 58.1341 120.474 57.8032C119.894 57.4625 119.532 56.9944 119.336 56.6019L126.491 53.0241C126.091 52.2249 125.455 51.4518 124.53 50.9078C123.622 50.3735 122.679 50.203 121.876 50.203V58.203ZM119.336 56.6019C119.294 56.5194 119.218 56.3174 119.218 56.033H127.218C127.218 54.9353 126.939 53.92 126.491 53.0241L119.336 56.6019ZM119.218 56.033C119.218 55.9888 119.224 56.0231 119.191 56.1527C119.158 56.2826 119.092 56.4819 118.967 56.7568L126.25 60.0672C126.8 58.8562 127.218 57.4831 127.218 56.033H119.218ZM118.997 56.6923C118.832 57.0388 118.506 57.5289 117.889 58.1456L123.546 63.8024C124.637 62.7111 125.571 61.4932 126.22 60.1317L118.997 56.6923ZM117.889 58.1456C116.817 59.2178 115.451 60.1093 113.717 60.784L116.616 68.24C119.273 67.2067 121.609 65.7395 123.546 63.8024L117.889 58.1456ZM113.717 60.784C111.975 61.4613 110.209 61.793 108.395 61.793V69.793C111.218 69.793 113.966 69.2707 116.616 68.24L113.717 60.784ZM128.817 63.536L125.913 66.287L125.95 66.3262L125.989 66.3644L128.817 63.536ZM127.78 50.909L124.066 49.4234L124.058 49.4431L124.051 49.4629L127.78 50.909ZM131.257 45.419L134.193 48.1352L134.193 48.1352L131.257 45.419ZM150.045 41.332L148.256 44.9097L148.307 44.935L148.358 44.9589L150.045 41.332ZM152.546 46.151L156.506 46.7167L156.508 46.6982L156.511 46.6797L152.546 46.151ZM152.241 47.554L155.986 48.9585L156.012 48.8892L156.036 48.8189L152.241 47.554ZM151.692 48.469L148.655 45.8658L148.637 45.8869L148.619 45.9083L151.692 48.469ZM149.923 48.652L150.976 44.7929L146.803 43.655L145.994 47.9035L149.923 48.652ZM149.557 51.153L153.537 51.551L153.537 51.551L149.557 51.153ZM150.106 57.741L146.351 59.118L146.379 59.1948L146.41 59.2704L150.106 57.741ZM152.912 59.937L153.78 56.0323L153.749 56.0255L153.719 56.0192L152.912 59.937ZM153.766 60.303L151.267 63.4265L151.403 63.5349L151.547 63.6312L153.766 60.303ZM153.766 63.048L149.994 61.7167L149.959 61.8172L149.929 61.9193L153.766 63.048ZM152.485 64.939L155.105 67.9618L155.112 67.9555L155.119 67.9493L152.485 64.939ZM146.141 64.024L142.901 66.37L142.921 66.3972L142.941 66.424L146.141 64.024ZM144.86 59.022H148.86L141.357 57.0916L144.86 59.022ZM140.651 63.902L138.276 60.6837L138.257 60.6974L138.239 60.7114L140.651 63.902ZM140.956 57.924L138.445 54.8103L138.42 54.8305L138.395 54.8511L140.956 57.924ZM143.884 54.081L140.248 52.4144L140.24 52.4309L140.233 52.4475L143.884 54.081ZM144.921 50.909L148.832 51.7471L148.835 51.7333L148.838 51.7194L144.921 50.909ZM145.409 47.432L149.399 47.717L149.594 44.9808L147.112 43.8127L145.409 47.432ZM143.03 46.639L143.917 42.7385L143.917 42.7385L143.03 46.639ZM134.063 48.53L131.387 45.5568L131.368 45.5737L131.35 45.5908L134.063 48.53ZM133.026 57.985L130.023 60.6275L130.05 60.658L130.077 60.6879L133.026 57.985ZM134.734 61.793C133.186 61.793 132.288 61.3506 131.645 60.7076L125.989 66.3644C128.355 68.7308 131.402 69.793 134.734 69.793V61.793ZM131.721 60.785C131.171 60.2047 130.621 59.1245 130.621 56.948H122.621C122.621 60.4648 123.535 63.7766 125.913 66.287L131.721 60.785ZM130.621 56.948C130.621 55.4343 130.906 53.9105 131.509 52.3551L124.051 49.4629C123.108 51.8928 122.621 54.3951 122.621 56.948H130.621ZM131.494 52.3946C132.123 50.821 133.017 49.407 134.193 48.1352L128.321 42.7028C126.488 44.6843 125.063 46.9303 124.066 49.4234L131.494 52.3946ZM134.193 48.1352C135.324 46.9128 136.699 45.9145 138.362 45.1468L135.01 37.8832C132.444 39.0675 130.199 40.6718 128.321 42.7028L134.193 48.1352ZM138.362 45.1468C139.885 44.4441 141.68 44.051 143.823 44.051V36.051C140.679 36.051 137.717 36.6338 135.01 37.8832L138.362 45.1468ZM143.823 44.051C145.809 44.051 147.236 44.3996 148.256 44.9097L151.834 37.7543C149.438 36.5564 146.717 36.051 143.823 36.051V44.051ZM148.358 44.9589C148.597 45.0699 148.742 45.162 148.821 45.22C148.898 45.2768 148.897 45.29 148.861 45.2444C148.822 45.194 148.765 45.1031 148.722 44.9779C148.679 44.8527 148.668 44.7476 148.668 44.687H156.668C156.668 41.148 154.301 38.9002 151.732 37.7051L148.358 44.9589ZM148.668 44.687C148.668 44.7975 148.653 45.0869 148.581 45.6223L156.511 46.6797C156.602 45.9951 156.668 45.3085 156.668 44.687H148.668ZM148.586 45.5853C148.524 46.0205 148.465 46.2321 148.446 46.2891L156.036 48.8189C156.261 48.1439 156.405 47.4201 156.506 46.7167L148.586 45.5853ZM148.496 46.1495C148.55 46.0035 148.619 45.9081 148.655 45.8658L154.729 51.0722C155.253 50.4606 155.688 49.7552 155.986 48.9585L148.496 46.1495ZM148.619 45.9083C148.911 45.5582 149.297 45.261 149.75 45.0669C150.188 44.8794 150.576 44.835 150.838 44.835V52.835C152.189 52.835 153.681 52.3303 154.765 51.0297L148.619 45.9083ZM150.838 44.835C150.94 44.835 151.021 44.8396 151.077 44.8439C151.134 44.8483 151.178 44.8535 151.207 44.8572C151.261 44.8642 151.286 44.8697 151.272 44.8669C151.261 44.8647 151.23 44.8583 151.177 44.8454C151.125 44.8327 151.058 44.8156 150.976 44.7929L148.871 52.5111C149.247 52.6138 150.057 52.835 150.838 52.835V44.835ZM145.994 47.9035C145.81 48.8663 145.671 49.817 145.577 50.755L153.537 51.551C153.606 50.8623 153.71 50.1457 153.852 49.4004L145.994 47.9035ZM145.577 50.755C145.482 51.6999 145.435 52.6461 145.435 53.593H153.435C153.435 52.9132 153.469 52.2327 153.537 51.551L145.577 50.755ZM145.435 53.593C145.435 55.5214 145.714 57.3823 146.351 59.118L153.862 56.364C153.603 55.6597 153.435 54.7553 153.435 53.593H145.435ZM146.41 59.2704C147.465 61.8211 149.585 63.3359 152.105 63.8548L153.719 56.0192C153.617 55.9982 153.571 55.9788 153.566 55.9765C153.562 55.9751 153.592 55.9881 153.639 56.0245C153.686 56.0616 153.73 56.1068 153.764 56.1526C153.797 56.197 153.807 56.2224 153.802 56.2116L146.41 59.2704ZM152.044 63.8417C152.033 63.8393 151.952 63.8208 151.824 63.7661C151.696 63.7111 151.494 63.608 151.267 63.4265L156.265 57.1795C155.422 56.5052 154.498 56.192 153.78 56.0323L152.044 63.8417ZM151.547 63.6312C150.786 63.1234 150.423 62.4517 150.269 62.0155C150.128 61.6169 150.132 61.3462 150.132 61.34H158.132C158.132 60.521 157.996 58.3154 155.985 56.9748L151.547 63.6312ZM150.132 61.34C150.132 61.2124 150.148 61.1776 150.129 61.2644C150.112 61.3456 150.073 61.4931 149.994 61.7167L157.538 64.3793C157.849 63.4973 158.132 62.4379 158.132 61.34H150.132ZM149.929 61.9193C149.939 61.8855 149.95 61.8563 149.961 61.8332C149.972 61.8103 149.98 61.7978 149.982 61.7959C149.984 61.7921 149.953 61.8397 149.851 61.9287L155.119 67.9493C156.226 66.9807 157.146 65.731 157.604 64.1767L149.929 61.9193ZM149.865 61.9162C149.956 61.8378 150.041 61.7831 150.109 61.7473C150.176 61.7122 150.218 61.6992 150.223 61.6977C150.228 61.6964 150.198 61.7054 150.126 61.7145C150.055 61.7237 149.948 61.732 149.801 61.732V69.732C151.509 69.732 153.496 69.3563 155.105 67.9618L149.865 61.9162ZM149.801 61.732C149.643 61.732 149.538 61.7178 149.476 61.7051C149.415 61.6928 149.39 61.681 149.388 61.6803C149.387 61.6795 149.387 61.6799 149.39 61.6814C149.392 61.6829 149.394 61.6839 149.393 61.6835C149.392 61.6831 149.388 61.6794 149.38 61.6709C149.372 61.6622 149.359 61.6473 149.341 61.624L142.941 66.424C144.645 68.6953 147.121 69.732 149.801 69.732V61.732ZM149.381 61.678C149.207 61.4379 148.86 60.7198 148.86 59.022H140.86C140.86 61.6349 141.367 64.2514 142.901 66.37L149.381 61.678ZM141.357 57.0916C140.517 58.6155 139.486 59.7901 138.276 60.6837L143.026 67.1203C145.232 65.4926 147.007 63.4138 148.363 60.9524L141.357 57.0916ZM138.239 60.7114C137.329 61.3991 136.223 61.793 134.734 61.793V69.793C137.8 69.793 140.638 68.9262 143.063 67.0926L138.239 60.7114ZM136.686 63.449C139.224 63.449 141.559 62.6283 143.517 60.9969L138.395 54.8511C137.913 55.253 137.402 55.449 136.686 55.449V63.449ZM143.467 61.0377C145.242 59.6064 146.598 57.8094 147.535 55.7145L140.233 52.4475C139.787 53.4433 139.192 54.2083 138.445 54.8103L143.467 61.0377ZM147.52 55.7476C148.099 54.485 148.532 53.1473 148.832 51.7471L141.01 50.0709C140.822 50.948 140.564 51.725 140.248 52.4144L147.52 55.7476ZM148.838 51.7194C149.116 50.3762 149.304 49.0416 149.399 47.717L141.419 47.147C141.351 48.0998 141.214 49.0832 141.004 50.0986L148.838 51.7194ZM147.112 43.8127C146.114 43.3428 145.039 42.9935 143.917 42.7385L142.144 50.5395C142.811 50.6912 143.322 50.8705 143.706 51.0513L147.112 43.8127ZM143.917 42.7385C142.713 42.465 141.479 42.334 140.224 42.334V50.334C140.921 50.334 141.558 50.4064 142.144 50.5395L143.917 42.7385ZM140.224 42.334C136.897 42.334 133.847 43.3429 131.387 45.5568L136.739 51.5032C137.532 50.7891 138.59 50.334 140.224 50.334V42.334ZM131.35 45.5908C128.927 47.8269 127.684 50.7297 127.684 54.02H135.684C135.684 52.9183 136.027 52.1611 136.776 51.4692L131.35 45.5908ZM127.684 54.02C127.684 56.414 128.362 58.7398 130.023 60.6275L136.029 55.3425C135.901 55.1968 135.684 54.8793 135.684 54.02H127.684ZM130.077 60.6879C131.858 62.6305 134.225 63.449 136.686 63.449V55.449C136.334 55.449 136.16 55.3939 136.098 55.3691C136.049 55.3498 136.02 55.3311 135.975 55.2821L130.077 60.6879ZM159.372 64.207L155.497 63.2157L155.455 63.381L155.427 63.5494L159.372 64.207ZM160.47 58.9L156.532 58.1999L156.526 58.2356L156.52 58.2715L160.47 58.9ZM160.531 48.957L156.642 49.8905L156.664 49.9843L156.691 50.077L160.531 48.957ZM159.494 46.883L156.804 49.8428L156.881 49.9128L156.961 49.9788L159.494 46.883ZM157.847 45.968L156.272 49.6446L156.459 49.725L156.654 49.7859L157.847 45.968ZM157.054 45.48L154.226 48.3084L154.354 48.4367L154.494 48.5529L157.054 45.48ZM157.42 42.735L160.779 44.908L160.779 44.908L157.42 42.735ZM159.311 40.966L161.369 44.396L161.393 44.3817L161.417 44.3671L159.311 40.966ZM165.045 41.637L161.528 43.5421L161.545 43.5738L161.563 43.6052L165.045 41.637ZM165.533 48.774L161.584 48.1371L161.584 48.1371L165.533 48.774ZM164.923 52.19L161.001 51.4055L160.402 54.4014L163.134 55.7677L164.923 52.19ZM165.045 52.251L163.256 55.8287L167.503 57.9518L168.875 53.407L165.045 52.251ZM167.424 46.273L163.895 44.3906L163.878 44.4215L163.863 44.4526L167.424 46.273ZM170.901 41.82L168.359 38.7323L168.336 38.751L168.313 38.77L170.901 41.82ZM179.99 42.003L176.926 44.5734L176.946 44.5983L176.968 44.6227L179.99 42.003ZM181.576 48.774H177.576L185.189 50.4914L181.576 48.774ZM185.846 42.552L183.052 39.6897L183.035 39.7065L183.018 39.7236L185.846 42.552ZM196.582 42.003L193.525 44.5825L193.525 44.5825L196.582 42.003ZM197.985 49.14L201.879 50.0562L201.885 50.032L201.89 50.0077L197.985 49.14ZM197.436 51.214L193.599 50.0853L193.576 50.1642L193.556 50.2439L197.436 51.214ZM196.948 53.227L200.842 54.1432L200.842 54.1432L196.948 53.227ZM199.815 60.059L201.391 56.3824L201.27 56.3307L201.147 56.287L199.815 60.059ZM200.486 60.486L197.658 63.3144L197.859 63.5154L198.086 63.686L200.486 60.486ZM200.364 62.804L196.592 61.4727L196.557 61.5732L196.527 61.6753L200.364 62.804ZM199.083 64.756L201.717 67.7663L201.769 67.7211L201.819 67.6741L199.083 64.756ZM192.617 63.902L189.378 66.248L189.397 66.2752L189.417 66.302L192.617 63.902ZM192.19 53.837L196.049 54.8895L196.061 54.8484L196.071 54.8071L192.19 53.837ZM192.678 51.519L188.774 50.6513L188.75 50.7558L188.733 50.8614L192.678 51.519ZM192.19 47.493L189.362 50.3214L189.423 50.3829L189.487 50.4416L192.19 47.493ZM186.822 48.042L184.383 44.8715L184.353 44.8947L184.324 44.9185L186.822 48.042ZM184.077 51.214L180.685 49.094L180.661 49.1327L180.638 49.1718L184.077 51.214ZM182.064 55.484L178.311 54.1012L177.985 54.9872L178.089 55.9257L182.064 55.484ZM182.125 56.948H178.125V57.0907L178.135 57.233L182.125 56.948ZM182.003 60.913L178.044 60.3473L178.03 60.4403L178.021 60.5338L182.003 60.913ZM181.454 63.048L177.877 61.2591L177.818 61.3757L177.768 61.4958L181.454 63.048ZM179.99 64.939L177.59 61.739L177.54 61.7765L177.492 61.8155L179.99 64.939ZM176.208 65.366L177.997 61.7883L177.848 61.7139L177.694 61.6521L176.208 65.366ZM175.964 62.377L179.891 63.1371L179.894 63.1256L179.896 63.1142L175.964 62.377ZM176.452 48.103L172.913 49.966L172.934 50.006L172.956 50.0456L176.452 48.103ZM171.694 48.225L168.997 45.2711L168.965 45.301L168.932 45.3316L171.694 48.225ZM169.193 51.519L165.727 49.5231L165.704 49.5631L165.682 49.6036L169.193 51.519ZM167.241 55.728L163.513 54.2782L163.496 54.3236L163.479 54.3694L167.241 55.728ZM165.96 59.815L162.087 58.8155L161.96 59.3072V59.815H165.96ZM164.679 64.207L161.669 61.573L161.637 61.6092L161.606 61.6463L164.679 64.207ZM161.324 61.671C161.163 61.671 161.166 61.656 161.278 61.6819C161.385 61.7066 161.732 61.8006 162.138 62.105C162.589 62.4432 162.987 62.9507 163.198 63.5826C163.393 64.1687 163.355 64.6418 163.318 64.8646L155.427 63.5494C155.164 65.1282 155.536 67.1535 157.338 68.505C158.722 69.5425 160.336 69.671 161.324 69.671V61.671ZM163.248 65.1983C163.726 63.3295 164.117 61.4394 164.421 59.5285L156.52 58.2715C156.255 59.9393 155.914 61.5872 155.497 63.2157L163.248 65.1983ZM164.409 59.6001C164.77 57.5649 164.958 55.581 164.958 53.654H156.958C156.958 55.0617 156.821 56.5751 156.532 58.1999L164.409 59.6001ZM164.958 53.654C164.958 51.445 164.826 49.3942 164.371 47.837L156.691 50.077C156.806 50.4718 156.958 51.5523 156.958 53.654H164.958ZM164.421 48.0235C164.118 46.7612 163.511 45.0009 162.027 43.7872L156.961 49.9788C156.791 49.8394 156.678 49.7083 156.611 49.6185C156.544 49.5297 156.515 49.4716 156.511 49.4649C156.508 49.4576 156.522 49.4859 156.548 49.5608C156.574 49.635 156.606 49.7429 156.642 49.8905L164.421 48.0235ZM162.185 43.9232C161.255 43.0777 160.176 42.5048 159.04 42.1501L156.654 49.7859C156.741 49.8132 156.788 49.8364 156.805 49.8459C156.82 49.8546 156.817 49.8545 156.804 49.8428L162.185 43.9232ZM159.423 42.2914C159.503 42.3258 159.569 42.369 159.615 42.4071L154.494 48.5529C155.027 48.9977 155.622 49.3662 156.272 49.6446L159.423 42.2914ZM159.883 42.6516C160.62 43.3889 160.749 44.235 160.749 44.626H152.749C152.749 45.749 153.082 47.1644 154.226 48.3084L159.883 42.6516ZM160.749 44.626C160.749 44.8689 160.701 45.0229 160.687 45.0639C160.674 45.1005 160.687 45.0498 160.779 44.908L154.062 40.562C153.373 41.6266 152.749 43.0137 152.749 44.626H160.749ZM160.779 44.908C160.847 44.8021 161 44.6175 161.369 44.396L157.253 37.536C155.996 38.2905 154.888 39.2853 154.062 40.562L160.779 44.908ZM161.417 44.3671C161.604 44.251 161.824 44.173 162.178 44.173V36.173C160.418 36.173 158.726 36.6237 157.206 37.5649L161.417 44.3671ZM162.178 44.173C162.414 44.173 162.337 44.2159 162.113 44.1014C161.998 44.0428 161.874 43.9572 161.76 43.8444C161.646 43.7324 161.572 43.6231 161.528 43.5421L168.562 39.7319C167.153 37.1296 164.603 36.173 162.178 36.173V44.173ZM161.563 43.6052C161.636 43.7337 161.838 44.2185 161.838 45.358H169.838C169.838 43.4068 169.512 41.411 168.528 39.6688L161.563 43.6052ZM161.838 45.358C161.838 46.1154 161.762 47.0363 161.584 48.1371L169.482 49.4109C169.711 47.9904 169.838 46.6339 169.838 45.358H161.838ZM161.584 48.1371C161.387 49.3592 161.193 50.4475 161.001 51.4055L168.846 52.9745C169.061 51.8991 169.273 50.7102 169.482 49.4109L161.584 48.1371ZM163.134 55.7677L163.256 55.8287L166.834 48.6733L166.712 48.6123L163.134 55.7677ZM168.875 53.407C169.463 51.4592 170.169 49.6913 170.986 48.0934L163.863 44.4526C162.809 46.5147 161.929 48.7321 161.216 51.095L168.875 53.407ZM170.954 48.1554C171.734 46.6925 172.594 45.6297 173.489 44.87L168.313 38.77C166.525 40.2877 165.067 42.1935 163.895 44.3906L170.954 48.1554ZM173.444 44.9077C174.111 44.3582 174.799 44.112 175.659 44.112V36.112C172.941 36.112 170.457 37.0045 168.359 38.7323L173.444 44.9077ZM175.659 44.112C176.456 44.112 176.719 44.3277 176.926 44.5734L183.055 39.4326C181.147 37.157 178.522 36.112 175.659 36.112V44.112ZM176.968 44.6227C177.15 44.8331 177.576 45.5404 177.576 47.432H185.576C185.576 44.5249 184.945 41.6129 183.013 39.3833L176.968 44.6227ZM177.576 47.432V48.774H185.576V47.432H177.576ZM185.189 50.4914C186.204 48.3565 187.379 46.6765 188.675 45.3804L183.018 39.7236C180.979 41.7621 179.307 44.2302 177.964 47.0566L185.189 50.4914ZM188.64 45.4143C189.597 44.4806 190.646 44.051 192.007 44.051V36.051C188.57 36.051 185.512 37.2887 183.052 39.6897L188.64 45.4143ZM192.007 44.051C192.973 44.051 193.303 44.3195 193.525 44.5825L199.64 39.4235C197.665 37.0839 194.945 36.051 192.007 36.051V44.051ZM193.525 44.5825C193.926 45.0577 194.229 45.7288 194.229 46.883H202.229C202.229 44.1332 201.435 41.551 199.639 39.4235L193.525 44.5825ZM194.229 46.883C194.229 47.3727 194.178 47.8337 194.081 48.2723L201.89 50.0077C202.118 48.9823 202.229 47.9386 202.229 46.883H194.229ZM194.092 48.2238C193.946 48.8428 193.782 49.4633 193.599 50.0853L201.274 52.3427C201.498 51.582 201.699 50.8199 201.879 50.0562L194.092 48.2238ZM193.556 50.2439C193.388 50.9135 193.221 51.6025 193.055 52.3108L200.842 54.1432C201.001 53.4688 201.159 52.8158 201.317 52.1841L193.556 50.2439ZM193.055 52.3108C192.823 53.2942 192.704 54.2929 192.704 55.301H200.704C200.704 54.9265 200.748 54.5425 200.842 54.1432L193.055 52.3108ZM192.704 55.301C192.704 57.0771 193.083 58.9023 194.134 60.5095C195.208 62.1512 196.758 63.2217 198.484 63.831L201.147 56.287C200.957 56.2203 200.871 56.1621 200.844 56.1423C200.83 56.1321 200.826 56.1273 200.828 56.1287C200.829 56.1302 200.83 56.132 200.83 56.1315C200.83 56.1308 200.823 56.1214 200.814 56.0988C200.804 56.0758 200.788 56.0354 200.772 55.9731C200.74 55.8465 200.704 55.6311 200.704 55.301H192.704ZM198.24 63.7356C198.209 63.7224 197.956 63.6127 197.658 63.3144L203.315 57.6576C202.691 57.034 201.991 56.6396 201.391 56.3824L198.24 63.7356ZM198.086 63.686C197.363 63.1436 197.023 62.4704 196.875 62.0254C196.735 61.607 196.73 61.2986 196.73 61.218H204.73C204.73 60.5561 204.635 58.5975 202.886 57.286L198.086 63.686ZM196.73 61.218C196.73 61.0928 196.74 61.0103 196.744 60.9825C196.748 60.9527 196.75 60.9532 196.741 60.9896C196.723 61.0672 196.681 61.223 196.592 61.4727L204.136 64.1353C204.411 63.3564 204.73 62.295 204.73 61.218H196.73ZM196.527 61.6753C196.545 61.6144 196.562 61.5934 196.547 61.6159C196.53 61.6417 196.475 61.7184 196.348 61.8379L201.819 67.6741C202.867 66.6916 203.755 65.4532 204.202 63.9327L196.527 61.6753ZM196.449 61.7457C196.522 61.6823 196.591 61.6374 196.646 61.6077C196.699 61.5787 196.731 61.5693 196.729 61.5698C196.719 61.5729 196.586 61.61 196.277 61.61V69.61C198.071 69.61 200.087 69.1931 201.717 67.7663L196.449 61.7457ZM196.277 61.61C196.12 61.61 196.014 61.5958 195.952 61.5831C195.891 61.5708 195.866 61.559 195.864 61.5583C195.863 61.5575 195.864 61.5579 195.866 61.5594C195.869 61.5609 195.87 61.5619 195.869 61.5615C195.869 61.5611 195.864 61.5574 195.856 61.5489C195.848 61.5402 195.835 61.5253 195.817 61.502L189.417 66.302C191.121 68.5733 193.598 69.61 196.277 69.61V61.61ZM195.857 61.556C195.601 61.2023 195.336 60.5918 195.336 59.449H187.336C187.336 61.8849 187.926 64.243 189.378 66.248L195.857 61.556ZM195.336 59.449C195.336 58.7964 195.396 58.0818 195.526 57.3006L187.635 55.9854C187.44 57.1562 187.336 58.3123 187.336 59.449H195.336ZM195.526 57.3006C195.668 56.4488 195.843 55.6457 196.049 54.8895L188.331 52.7845C188.05 53.8176 187.818 54.8852 187.635 55.9854L195.526 57.3006ZM196.071 54.8071C196.297 53.9035 196.482 53.026 196.624 52.1766L188.733 50.8614C188.63 51.476 188.491 52.1438 188.31 52.8669L196.071 54.8071ZM196.583 52.3867C196.785 51.4779 196.922 50.5416 196.922 49.628H188.922C188.922 49.7718 188.897 50.0961 188.774 50.6513L196.583 52.3867ZM196.922 49.628C196.922 48.0672 196.534 46.0485 194.893 44.5444L189.487 50.4416C189.175 50.1552 189.02 49.8485 188.956 49.6595C188.899 49.4947 188.922 49.4573 188.922 49.628H196.922ZM195.019 44.6646C193.661 43.3071 191.944 42.822 190.36 42.822V50.822C190.364 50.822 190.231 50.8225 190.02 50.7453C189.795 50.6627 189.56 50.5198 189.362 50.3214L195.019 44.6646ZM190.36 42.822C188.153 42.822 186.121 43.5349 184.383 44.8715L189.261 51.2125C189.638 50.9225 189.965 50.822 190.36 50.822V42.822ZM184.324 44.9185C182.898 46.0589 181.696 47.4769 180.685 49.094L187.469 53.334C188.085 52.3484 188.713 51.6518 189.321 51.1655L184.324 44.9185ZM180.638 49.1718C179.73 50.7004 178.957 52.3468 178.311 54.1012L185.818 56.8668C186.31 55.5305 186.879 54.3303 187.517 53.2562L180.638 49.1718ZM178.089 55.9257C178.106 56.0814 178.125 56.4034 178.125 56.948H186.125C186.125 56.2726 186.104 55.6186 186.04 55.0423L178.089 55.9257ZM178.135 57.233C178.171 57.7319 178.186 58.1424 178.186 58.473H186.186C186.186 57.9089 186.161 57.3028 186.115 56.663L178.135 57.233ZM178.186 58.473C178.186 59.0361 178.142 59.6594 178.044 60.3473L185.963 61.4787C186.109 60.4586 186.186 59.4553 186.186 58.473H178.186ZM178.021 60.5338C177.997 60.7862 177.963 60.968 177.931 61.0911C177.9 61.214 177.875 61.2628 177.877 61.2591L185.032 64.8369C185.599 63.7025 185.872 62.4769 185.985 61.2922L178.021 60.5338ZM177.768 61.4958C177.709 61.6359 177.656 61.69 177.59 61.739L182.39 68.139C183.626 67.212 184.549 66.0054 185.141 64.6002L177.768 61.4958ZM177.492 61.8155C177.561 61.7602 177.627 61.7197 177.682 61.6916C177.736 61.664 177.773 61.6522 177.784 61.6491C177.801 61.644 177.717 61.671 177.489 61.671V69.671C179.135 69.671 180.955 69.2897 182.489 68.0625L177.492 61.8155ZM177.489 61.671C177.572 61.671 177.664 61.6807 177.76 61.7035C177.856 61.7263 177.936 61.7576 177.997 61.7883L174.419 68.9437C175.372 69.42 176.411 69.671 177.489 69.671V61.671ZM177.694 61.6521C178.023 61.7835 178.563 62.0853 179.006 62.7055C179.464 63.3472 179.598 64.0215 179.598 64.512H171.598C171.598 65.4092 171.834 66.4291 172.496 67.3555C173.142 68.2604 173.987 68.7858 174.723 69.0799L177.694 61.6521ZM179.598 64.512C179.598 64.6957 179.584 64.8256 179.584 64.83C179.581 64.8588 179.579 64.8656 179.583 64.8398C179.59 64.7891 179.605 64.6912 179.632 64.5321C179.686 64.218 179.771 63.7573 179.891 63.1371L172.037 61.6169C171.913 62.2574 171.815 62.7829 171.747 63.1804C171.712 63.3865 171.598 64.0074 171.598 64.512H179.598ZM179.896 63.1142C180.158 61.7166 180.413 60.0525 180.663 58.1364L172.73 57.1016C172.492 58.9268 172.259 60.4348 172.033 61.6398L179.896 63.1142ZM180.663 58.1364C180.928 56.1034 181.062 54.1004 181.062 52.129H173.062C173.062 53.7363 172.953 55.3933 172.73 57.1016L180.663 58.1364ZM181.062 52.129C181.062 51.0313 181.006 49.9937 180.865 49.0593C180.73 48.1725 180.483 47.1215 179.949 46.1604L172.956 50.0456C172.828 49.8165 172.886 49.8025 172.955 50.2577C173.017 50.6653 173.062 51.2747 173.062 52.129H181.062ZM179.992 46.24C179.531 45.3639 178.838 44.4931 177.83 43.8545C176.806 43.2061 175.688 42.944 174.622 42.944V50.944C174.37 50.944 173.963 50.875 173.55 50.613C173.151 50.3607 172.967 50.0694 172.913 49.966L179.992 46.24ZM174.622 42.944C172.378 42.944 170.481 43.9166 168.997 45.2711L174.391 51.1789C174.595 50.9929 174.712 50.9374 174.731 50.9289C174.74 50.9249 174.731 50.9299 174.706 50.9353C174.68 50.9408 174.651 50.944 174.622 50.944V42.944ZM168.932 45.3316C167.702 46.5062 166.644 47.9293 165.727 49.5231L172.66 53.5149C173.288 52.4247 173.897 51.6518 174.456 51.1184L168.932 45.3316ZM165.682 49.6036C164.865 51.1001 164.143 52.6589 163.513 54.2782L170.969 57.1778C171.478 55.8691 172.057 54.6219 172.705 53.4344L165.682 49.6036ZM163.479 54.3694C162.916 55.9293 162.449 57.4128 162.087 58.8155L169.833 60.8145C170.122 59.6959 170.51 58.4547 171.004 57.0866L163.479 54.3694ZM161.96 59.815V60.486H169.96V59.815H161.96ZM161.96 60.486C161.96 61.1864 161.784 61.4412 161.669 61.573L167.69 66.841C169.282 65.0208 169.96 62.795 169.96 60.486H161.96ZM161.606 61.6463C161.588 61.6682 161.584 61.6687 161.596 61.6596C161.609 61.6501 161.622 61.6425 161.631 61.6388C161.653 61.6291 161.576 61.671 161.324 61.671V69.671C163.774 69.671 166.082 68.7725 167.752 66.7677L161.606 61.6463ZM205.587 80.799L208.416 77.9706L208.373 77.9277L208.329 77.8862L205.587 80.799ZM204.916 72.747L200.966 72.1185L200.959 72.1625L200.953 72.2065L204.916 72.747ZM205.892 67.074L209.827 67.7966L209.828 67.7886L209.83 67.7807L205.892 67.074ZM206.685 62.072L202.737 61.4293L202.73 61.4742L202.724 61.5192L206.685 62.072ZM207.356 56.948L203.385 56.4751L203.379 56.5173L203.375 56.5596L207.356 56.948ZM207.112 48.347L203.266 49.4459L203.284 49.5088L203.304 49.571L207.112 48.347ZM205.038 46.151L203.553 49.8649L203.705 49.9259L203.862 49.9741L205.038 46.151ZM204.123 42.735L207.482 44.908L207.482 44.908L204.123 42.735ZM206.014 40.966L208.072 44.396L208.096 44.3817L208.12 44.3671L206.014 40.966ZM211.748 41.637L208.231 43.5421L208.248 43.5738L208.266 43.6052L211.748 41.637ZM212.48 46.761L216.464 47.1231L216.465 47.1082L216.467 47.0932L212.48 46.761ZM212.297 48.164L208.352 47.5064L215.849 50.0034L212.297 48.164ZM216.933 42.43L219.448 45.5405L219.456 45.5345L216.933 42.43ZM229.255 42.552L226.176 45.1053L226.21 45.1461L226.245 45.186L229.255 42.552ZM230.414 55.301L234.209 56.5659L234.213 56.5543L234.217 56.5426L230.414 55.301ZM227.669 60.608L224.46 58.2212L224.46 58.2212L227.669 60.608ZM223.399 64.39L221.442 60.9014L221.424 60.9118L221.406 60.9224L223.399 64.39ZM214.066 65L215.802 61.396L215.747 61.3695L215.691 61.3448L214.066 65ZM211.199 63.048L214.028 60.2196L208.446 54.6379L207.246 62.4398L211.199 63.048ZM210.711 66.891L206.735 66.4611L206.729 66.5143L206.725 66.5677L210.711 66.891ZM211.016 74.638L207.279 76.062L207.308 76.1385L207.34 76.2137L211.016 74.638ZM213.09 76.59L214.746 72.9485L214.724 72.9385L214.701 72.9287L213.09 76.59ZM213.273 79.091L209.654 77.3878L209.654 77.3878L213.273 79.091ZM211.626 80.982L209.254 77.7618L209.212 77.7926L209.171 77.8246L211.626 80.982ZM224.68 57.009L221.649 54.3989L221.649 54.3989L224.68 57.009ZM225.229 48.103L222.339 50.8679L222.37 50.9L222.401 50.9314L225.229 48.103ZM217.543 48.103L219.961 51.2898L219.995 51.2637L220.029 51.237L217.543 48.103ZM214.493 51.641L211.038 49.6255L211.017 49.6618L210.997 49.6984L214.493 51.641ZM212.48 56.338L208.668 55.129L207.907 57.5285L209.741 59.2525L212.48 56.338ZM208.454 77.836C208.218 77.836 208.147 77.8022 208.183 77.8152C208.202 77.8221 208.239 77.838 208.287 77.8678C208.335 77.8978 208.379 77.9335 208.416 77.9706L202.759 83.6274C204.376 85.2449 206.451 85.836 208.454 85.836V77.836ZM208.329 77.8862C208.646 78.1845 208.688 78.4254 208.653 78.3038C208.616 78.1757 208.55 77.8371 208.55 77.2H200.55C200.55 79.2051 200.894 81.8743 202.846 83.7118L208.329 77.8862ZM208.55 77.2C208.55 76.2696 208.649 74.981 208.88 73.2875L200.953 72.2065C200.696 74.0916 200.55 75.7717 200.55 77.2H208.55ZM208.867 73.3755C209.146 71.621 209.466 69.7615 209.827 67.7966L201.958 66.3514C201.587 68.3718 201.256 70.2943 200.966 72.1185L208.867 73.3755ZM209.83 67.7807C210.124 66.139 210.397 64.4201 210.647 62.6248L202.724 61.5192C202.486 63.2212 202.23 64.837 201.955 66.3673L209.83 67.7807ZM210.633 62.7147C210.931 60.8864 211.166 59.0935 211.338 57.3364L203.375 56.5596C203.221 58.1371 203.009 59.7602 202.737 61.4293L210.633 62.7147ZM211.328 57.4209C211.546 55.5972 211.661 53.9097 211.661 52.373H203.661C203.661 53.5203 203.574 54.8828 203.385 56.4751L211.328 57.4209ZM211.661 52.373C211.661 50.5268 211.445 48.7533 210.921 47.123L203.304 49.571C203.512 50.218 203.661 51.1285 203.661 52.373H211.661ZM210.959 47.2481C210.293 44.9178 208.671 43.0836 206.215 42.3279L203.862 49.9741C203.797 49.9541 203.617 49.8755 203.442 49.6905C203.276 49.5148 203.249 49.3846 203.266 49.4459L210.959 47.2481ZM206.524 42.4371C206.308 42.3505 206.158 42.2712 206.06 42.21L201.82 48.994C202.373 49.3395 202.956 49.6261 203.553 49.8649L206.524 42.4371ZM206.06 42.21C206.486 42.4761 206.886 42.8843 207.152 43.4166C207.405 43.9225 207.452 44.3689 207.452 44.626H199.452C199.452 46.1838 200.115 47.9278 201.82 48.994L206.06 42.21ZM207.452 44.626C207.452 44.8689 207.404 45.0229 207.39 45.0639C207.377 45.1005 207.39 45.0498 207.482 44.908L200.765 40.562C200.076 41.6266 199.452 43.0137 199.452 44.626H207.452ZM207.482 44.908C207.55 44.8021 207.703 44.6175 208.072 44.396L203.956 37.536C202.699 38.2905 201.591 39.2853 200.765 40.562L207.482 44.908ZM208.12 44.3671C208.307 44.251 208.527 44.173 208.881 44.173V36.173C207.121 36.173 205.43 36.6237 203.909 37.5649L208.12 44.3671ZM208.881 44.173C209.117 44.173 209.04 44.2159 208.816 44.1014C208.701 44.0428 208.577 43.9572 208.463 43.8444C208.35 43.7324 208.275 43.6231 208.231 43.5421L215.266 39.7319C213.856 37.1296 211.306 36.173 208.881 36.173V44.173ZM208.266 43.6052C208.339 43.7337 208.541 44.2185 208.541 45.358H216.541C216.541 43.4068 216.215 41.411 215.231 39.6688L208.266 43.6052ZM208.541 45.358C208.541 45.6847 208.527 46.0411 208.494 46.4288L216.467 47.0932C216.516 46.5049 216.541 45.926 216.541 45.358H208.541ZM208.497 46.3989C208.466 46.7379 208.419 47.1067 208.352 47.5064L216.243 48.8216C216.339 48.2453 216.414 47.6787 216.464 47.1231L208.497 46.3989ZM215.849 50.0034C216.786 48.1951 217.985 46.7233 219.448 45.5405L214.419 39.3195C212.059 41.2274 210.168 43.5782 208.745 46.3246L215.849 50.0034ZM219.456 45.5345C220.719 44.5084 222.03 44.051 223.521 44.051V36.051C220.133 36.051 217.052 37.1796 214.411 39.3255L219.456 45.5345ZM223.521 44.051C224.94 44.051 225.656 44.4773 226.176 45.1053L232.334 39.9987C230.09 37.292 226.982 36.051 223.521 36.051V44.051ZM226.245 45.186C226.86 45.8883 227.39 47.0685 227.39 49.201H235.39C235.39 45.7215 234.498 42.4691 232.266 39.918L226.245 45.186ZM227.39 49.201C227.39 50.8487 227.133 52.4632 226.612 54.0594L234.217 56.5426C234.997 54.1534 235.39 51.7013 235.39 49.201H227.39ZM226.62 54.0361C226.098 55.6021 225.375 56.9896 224.46 58.2212L230.879 62.9948C232.322 61.0544 233.43 58.9039 234.209 56.5659L226.62 54.0361ZM224.46 58.2212C223.604 59.3716 222.603 60.2506 221.442 60.9014L225.356 67.8786C227.531 66.6587 229.376 65.0164 230.879 62.9948L224.46 58.2212ZM221.406 60.9224C220.436 61.48 219.303 61.793 217.909 61.793V69.793C220.582 69.793 223.11 69.1707 225.393 67.8576L221.406 60.9224ZM217.909 61.793C216.927 61.793 216.26 61.6168 215.802 61.396L212.331 68.604C214.069 69.4406 215.964 69.793 217.909 69.793V61.793ZM215.691 61.3448C215.021 61.0471 214.479 60.6704 214.028 60.2196L208.371 65.8764C209.547 67.0523 210.916 67.9769 212.442 68.6552L215.691 61.3448ZM207.246 62.4398C207.071 63.575 206.901 64.919 206.735 66.4611L214.688 67.3209C214.847 65.8536 215.002 64.6357 215.153 63.6562L207.246 62.4398ZM206.725 66.5677C206.595 68.1634 206.528 69.6754 206.528 71.1H214.528C214.528 69.922 214.584 68.6279 214.698 67.2143L206.725 66.5677ZM206.528 71.1C206.528 72.8181 206.704 74.5534 207.279 76.062L214.754 73.214C214.678 73.0146 214.528 72.3913 214.528 71.1H206.528ZM207.34 76.2137C208.181 78.1762 209.727 79.4803 211.48 80.2513L214.701 72.9287C214.54 72.8579 214.514 72.819 214.551 72.8537C214.569 72.8708 214.596 72.8998 214.625 72.9406C214.654 72.9816 214.677 73.0238 214.693 73.0623L207.34 76.2137ZM211.435 80.2315C211.158 80.1054 210.687 79.8195 210.298 79.2526C209.892 78.6621 209.761 78.04 209.761 77.566H217.761C217.761 76.6447 217.52 75.6362 216.89 74.7204C216.276 73.8282 215.47 73.2779 214.746 72.9485L211.435 80.2315ZM209.761 77.566C209.761 77.4417 209.769 77.3386 209.778 77.2608C209.786 77.1826 209.797 77.121 209.805 77.0783C209.821 76.9964 209.834 76.9579 209.83 76.9721C209.826 76.984 209.812 77.0252 209.782 77.0996C209.752 77.173 209.71 77.2684 209.654 77.3878L216.893 80.7942C217.218 80.1025 217.761 78.8717 217.761 77.566H209.761ZM209.654 77.3878C209.675 77.3429 209.626 77.4876 209.254 77.7618L213.999 84.2022C215.173 83.3377 216.221 82.2218 216.893 80.7942L209.654 77.3878ZM209.171 77.8246C209.294 77.7288 209.351 77.7315 209.245 77.76C209.13 77.7908 208.882 77.836 208.454 77.836V85.836C210.309 85.836 212.377 85.4654 214.082 84.1394L209.171 77.8246ZM219.312 63.205C222.54 63.205 225.539 62.1421 227.712 59.6191L221.649 54.3989C221.301 54.8039 220.721 55.205 219.312 55.205V63.205ZM227.712 59.6191C229.59 57.4378 230.571 54.8266 230.571 51.946H222.571C222.571 52.888 222.292 53.6522 221.649 54.3989L227.712 59.6191ZM230.571 51.946C230.571 49.5675 229.918 47.135 228.058 45.2746L222.401 50.9314C222.403 50.9332 222.406 50.9361 222.412 50.9464C222.419 50.9575 222.437 50.9896 222.46 51.0535C222.506 51.1857 222.571 51.4623 222.571 51.946H230.571ZM228.12 45.3381C226.347 43.4844 224.034 42.7 221.63 42.7V50.7C221.968 50.7 222.14 50.752 222.206 50.7776C222.259 50.7983 222.293 50.8196 222.339 50.8679L228.12 45.3381ZM221.63 42.7C219.209 42.7 216.964 43.4569 215.058 44.969L220.029 51.237C220.481 50.8784 220.962 50.7 221.63 50.7V42.7ZM215.126 44.9162C213.471 46.172 212.12 47.772 211.038 49.6255L217.949 53.6565C218.575 52.582 219.258 51.8233 219.961 51.2898L215.126 44.9162ZM210.997 49.6984C210.048 51.4059 209.273 53.2185 208.668 55.129L216.293 57.547C216.745 56.1229 217.312 54.8041 217.99 53.5836L210.997 49.6984ZM209.741 59.2525C212.43 61.7802 215.661 63.205 219.312 63.205V55.205C217.921 55.205 216.598 54.7184 215.22 53.4235L209.741 59.2525ZM241.189 34.683L241.046 38.6805L241.117 38.683H241.189V34.683ZM238.444 33.646L235.702 36.5588L235.702 36.5588L238.444 33.646ZM237.407 30.901L233.409 30.772L233.407 30.8365V30.901H237.407ZM238.688 27.851L241.443 30.751L241.48 30.7157L241.516 30.6794L238.688 27.851ZM241.799 26.692L241.936 22.6944L241.928 22.6941L241.799 26.692ZM244.544 27.729L241.715 30.5574L241.758 30.6003L241.802 30.6418L244.544 27.729ZM245.52 30.474L241.522 30.3361L241.522 30.3407L245.52 30.474ZM244.3 33.524L247.128 36.3524L247.164 36.3162L247.2 36.279L244.3 33.524ZM238.383 64.634L235.554 67.4624L235.597 67.5053L235.641 67.5468L238.383 64.634ZM237.59 58.412L233.689 57.5255L233.67 57.6106L233.654 57.6965L237.59 58.412ZM238.261 55.789L234.449 54.5762L234.431 54.6329L234.414 54.6901L238.261 55.789ZM238.932 53.044L235.023 52.1943L235.005 52.2761L234.991 52.3586L238.932 53.044ZM238.932 47.981L235.094 49.1097L235.104 49.142L235.114 49.1741L238.932 47.981ZM237.59 46.456L235.693 49.9779L235.788 50.0292L235.886 50.0753L237.59 46.456ZM236.187 45.602L233.529 48.5916L233.703 48.7458L233.893 48.8789L236.187 45.602ZM236.431 42.552L233.326 40.0296L233.326 40.0296L236.431 42.552ZM238.505 40.905L240.361 44.4483L240.39 44.4327L240.42 44.4166L238.505 40.905ZM243.446 40.966L240.392 43.5498L240.448 43.6157L240.506 43.6791L243.446 40.966ZM244.422 42.979L248.344 42.1945L248.344 42.1945L244.422 42.979ZM244.361 49.323L248.306 49.9806L248.308 49.9703L248.31 49.9599L244.361 49.323ZM243.751 52.739L247.665 53.563L247.672 53.5288L247.679 53.4944L243.751 52.739ZM243.995 59.022L241.055 61.7351L241.11 61.7939L241.166 61.8504L243.995 59.022ZM246.069 60.425L248.011 56.9284L247.935 56.8862L247.857 56.8473L246.069 60.425ZM246.13 62.865L249.749 64.5682L249.749 64.5682L246.13 62.865ZM244.422 64.756L242.128 61.4791L242.088 61.5069L242.049 61.5358L244.422 64.756ZM241.331 30.6855C241.127 30.6782 241.052 30.6475 241.062 30.6514C241.067 30.6532 241.086 30.661 241.112 30.6776C241.139 30.6943 241.164 30.7138 241.185 30.7332L235.702 36.5588C237.235 38.0015 239.142 38.6124 241.046 38.6805L241.331 30.6855ZM241.185 30.7332C241.234 30.7792 241.282 30.8358 241.325 30.8996C241.367 30.9631 241.393 31.0191 241.408 31.0581C241.437 31.1347 241.407 31.1044 241.407 30.901H233.407C233.407 32.8977 234.021 34.9766 235.702 36.5588L241.185 30.7332ZM241.405 31.03C241.408 30.9229 241.419 30.8501 241.428 30.8059C241.437 30.7625 241.445 30.7435 241.445 30.7419C241.446 30.741 241.443 30.747 241.437 30.755C241.432 30.7629 241.431 30.7616 241.443 30.751L235.933 24.951C234.259 26.5406 233.479 28.6026 233.409 30.772L241.405 31.03ZM241.516 30.6794C241.53 30.6659 241.53 30.6683 241.516 30.6774C241.501 30.6867 241.485 30.6947 241.472 30.6996C241.459 30.7042 241.463 30.7011 241.49 30.697C241.518 30.6928 241.576 30.6869 241.67 30.6899L241.928 22.6941C239.68 22.6216 237.534 23.3473 235.859 25.0226L241.516 30.6794ZM241.661 30.6896C241.901 30.6979 241.981 30.7332 241.956 30.7236C241.942 30.7183 241.906 30.7033 241.859 30.6728C241.81 30.642 241.761 30.6029 241.715 30.5574L247.372 24.9006C245.82 23.3482 243.832 22.7597 241.936 22.6944L241.661 30.6896ZM241.802 30.6418C241.746 30.5889 241.689 30.5223 241.639 30.445C241.589 30.368 241.556 30.2973 241.537 30.2433C241.499 30.137 241.529 30.144 241.522 30.3361L249.517 30.6118C249.587 28.5843 249.012 26.4415 247.285 24.8162L241.802 30.6418ZM241.522 30.3407C241.511 30.6753 241.436 30.7306 241.4 30.769L247.2 36.279C248.708 34.6907 249.447 32.7127 249.517 30.6073L241.522 30.3407ZM241.471 30.6956C241.478 30.6886 241.493 30.6757 241.513 30.6627C241.533 30.6497 241.547 30.6446 241.546 30.6449C241.545 30.6452 241.445 30.683 241.189 30.683V38.683C243.333 38.683 245.464 38.0161 247.128 36.3524L241.471 30.6956ZM241.25 61.61C240.99 61.61 240.893 61.5748 240.907 61.5794C240.915 61.5822 240.946 61.5937 240.99 61.6198C241.035 61.6464 241.081 61.6808 241.124 61.7212L235.641 67.5468C237.268 69.078 239.312 69.61 241.25 69.61V61.61ZM241.211 61.8056C241.434 62.0282 241.465 62.1948 241.438 62.103C241.406 61.9972 241.346 61.7074 241.346 61.157H233.346C233.346 63.1782 233.746 65.6539 235.554 67.4624L241.211 61.8056ZM241.346 61.157C241.346 60.4548 241.407 59.7795 241.525 59.1275L233.654 57.6965C233.447 58.8339 233.346 59.9886 233.346 61.157H241.346ZM241.49 59.2985C241.678 58.4728 241.883 57.6693 242.107 56.8879L234.414 54.6901C234.15 55.6167 233.908 56.5619 233.689 57.5255L241.49 59.2985ZM242.072 57.0018C242.413 55.9325 242.679 54.8412 242.872 53.7294L234.991 52.3586C234.859 53.1174 234.678 53.8561 234.449 54.5762L242.072 57.0018ZM242.84 53.8937C243.11 52.6519 243.237 51.3687 243.237 50.055H235.237C235.237 50.856 235.16 51.5654 235.023 52.1943L242.84 53.8937ZM243.237 50.055C243.237 48.9482 243.082 47.8522 242.75 46.7879L235.114 49.1741C235.188 49.4111 235.237 49.6978 235.237 50.055H243.237ZM242.769 46.8523C242.222 44.9912 240.948 43.6158 239.293 42.8367L235.886 50.0753C235.8 50.0347 235.623 49.9304 235.441 49.7238C235.255 49.5124 235.146 49.2868 235.094 49.1097L242.769 46.8523ZM239.486 42.9341C239.067 42.7086 238.736 42.5042 238.48 42.3251L233.893 48.8789C234.45 49.2691 235.055 49.6341 235.693 49.9779L239.486 42.9341ZM238.844 42.6124C239.041 42.7872 239.261 43.0522 239.423 43.4115C239.584 43.7713 239.638 44.114 239.638 44.382H231.638C231.638 46.0171 232.313 47.5103 233.529 48.5916L238.844 42.6124ZM239.638 44.382C239.638 44.7284 239.555 44.9742 239.506 45.0879C239.461 45.1919 239.444 45.1865 239.535 45.0744L233.326 40.0296C232.483 41.0676 231.638 42.5474 231.638 44.382H239.638ZM239.535 45.0744C239.674 44.9038 239.916 44.6812 240.361 44.4483L236.649 37.3617C235.385 38.0235 234.245 38.8989 233.326 40.0296L239.535 45.0744ZM240.42 44.4166C240.781 44.2196 241.042 44.173 241.25 44.173V36.173C239.586 36.173 238.017 36.6144 236.589 37.3934L240.42 44.4166ZM241.25 44.173C241.429 44.173 241.383 44.1985 241.203 44.1335C240.993 44.0579 240.674 43.8835 240.392 43.5498L246.499 38.3822C244.991 36.5993 242.879 36.173 241.25 36.173V44.173ZM240.506 43.6791C240.492 43.6635 240.48 43.6479 240.47 43.6338C240.466 43.6271 240.462 43.6214 240.46 43.6173C240.459 43.6152 240.458 43.6136 240.457 43.6125C240.457 43.6114 240.456 43.6108 240.456 43.6108C240.456 43.6109 240.457 43.6115 240.457 43.6128C240.458 43.6141 240.459 43.6161 240.46 43.6188C240.462 43.6243 240.465 43.6329 240.469 43.645C240.477 43.6692 240.488 43.7078 240.499 43.7635L248.344 42.1945C248.059 40.7724 247.444 39.4002 246.385 38.2529L240.506 43.6791ZM240.499 43.7635C240.609 44.311 240.666 44.8816 240.666 45.48H248.666C248.666 44.3704 248.56 43.2737 248.344 42.1945L240.499 43.7635ZM240.666 45.48C240.666 46.5721 240.58 47.64 240.412 48.6861L248.31 49.9599C248.547 48.4847 248.666 46.9906 248.666 45.48H240.666ZM240.415 48.6654C240.216 49.8574 240.019 50.9631 239.823 51.9836L247.679 53.4944C247.889 52.4002 248.098 51.2286 248.306 49.9806L240.415 48.6654ZM239.836 51.915C239.655 52.7751 239.513 53.5977 239.415 54.3779L247.354 55.3701C247.419 54.8489 247.521 54.2483 247.665 53.563L239.836 51.915ZM239.415 54.3779C239.317 55.169 239.263 55.9462 239.263 56.704H247.263C247.263 56.3232 247.29 55.8803 247.354 55.3701L239.415 54.3779ZM239.263 56.704C239.263 58.3111 239.648 60.2106 241.055 61.7351L246.934 56.3089C247.137 56.5286 247.227 56.7378 247.26 56.8415C247.288 56.9293 247.263 56.903 247.263 56.704H239.263ZM241.166 61.8504C242.061 62.7457 243.158 63.4416 244.28 64.0027L247.857 56.8473C247.19 56.5137 246.904 56.2743 246.823 56.1936L241.166 61.8504ZM244.126 63.9216C243.805 63.7433 243.379 63.4124 243.05 62.8642C242.718 62.3101 242.618 61.7557 242.618 61.34H250.618C250.618 60.5176 250.426 59.6074 249.91 58.7483C249.398 57.8951 248.698 57.31 248.011 56.9284L244.126 63.9216ZM242.618 61.34C242.618 61.2157 242.625 61.1126 242.634 61.0348C242.642 60.9566 242.653 60.895 242.661 60.8523C242.677 60.7704 242.69 60.7319 242.686 60.7461C242.682 60.758 242.668 60.7992 242.638 60.8736C242.608 60.947 242.566 61.0424 242.51 61.1618L249.749 64.5682C250.074 63.8765 250.618 62.6457 250.618 61.34H242.618ZM242.51 61.1618C242.558 61.0603 242.536 61.193 242.128 61.4791L246.715 68.0329C247.933 67.1803 249.05 66.0524 249.749 64.5682L242.51 61.1618ZM242.049 61.5358C242.189 61.4322 242.069 61.61 241.25 61.61V69.61C243.114 69.61 245.108 69.2185 246.794 67.9762L242.049 61.5358ZM252.659 64.207L248.784 63.2157L248.742 63.381L248.714 63.5494L252.659 64.207ZM253.757 58.9L249.819 58.1999L249.813 58.2356L249.807 58.2715L253.757 58.9ZM253.818 48.957L249.929 49.8905L249.951 49.9843L249.978 50.077L253.818 48.957ZM252.781 46.883L250.091 49.8428L250.168 49.9128L250.248 49.9788L252.781 46.883ZM251.134 45.968L249.559 49.6446L249.746 49.725L249.941 49.7859L251.134 45.968ZM250.341 45.48L247.513 48.3084L247.641 48.4367L247.781 48.5529L250.341 45.48ZM250.707 42.735L254.066 44.908L254.066 44.908L250.707 42.735ZM252.598 40.966L254.656 44.396L254.68 44.3817L254.704 44.3671L252.598 40.966ZM258.332 41.637L254.815 43.5421L254.832 43.5738L254.85 43.6052L258.332 41.637ZM258.82 48.774L254.871 48.1371L254.871 48.1371L258.82 48.774ZM258.21 52.19L254.288 51.4055L253.596 54.8681L256.946 55.9847L258.21 52.19ZM258.393 52.251L257.129 56.0457L260.778 57.2622L262.136 53.6632L258.393 52.251ZM261.321 46.273L257.938 44.1398L257.931 44.1498L257.925 44.1598L261.321 46.273ZM265.408 41.759L267.781 44.9792L267.781 44.9792L265.408 41.759ZM275.717 42.003L272.707 44.637L272.707 44.637L275.717 42.003ZM277.12 49.201L273.266 48.1304L273.238 48.2312L273.216 48.3333L277.12 49.201ZM276.571 51.336L280.389 52.5291L280.399 52.497L280.409 52.4647L276.571 51.336ZM276.022 53.349L272.129 52.4328L272.103 52.5427L272.083 52.6539L276.022 53.349ZM279.133 60.12L280.709 56.4434L280.617 56.4039L280.523 56.369L279.133 60.12ZM279.621 62.804L275.849 61.4727L275.849 61.4727L279.621 62.804ZM278.279 64.756L280.913 67.7663L280.965 67.7211L281.015 67.6741L278.279 64.756ZM271.63 63.902L268.444 66.3195L268.464 66.3466L268.485 66.3733L271.63 63.902ZM270.593 56.399L266.696 55.4996L266.683 55.5569L266.671 55.6145L270.593 56.399ZM271.325 53.471L275.184 54.5235L275.203 54.4556L275.219 54.3872L271.325 53.471ZM271.752 51.458L267.859 50.5418L267.838 50.6309L267.821 50.7208L271.752 51.458ZM264.676 48.713L267.458 51.5874L267.482 51.5646L267.505 51.5414L264.676 48.713ZM259.247 59.022L255.414 57.8801L255.247 58.4389V59.022H259.247ZM257.966 64.207L254.956 61.573L254.924 61.6092L254.894 61.6463L257.966 64.207ZM254.611 61.671C254.451 61.671 254.453 61.656 254.565 61.6819C254.672 61.7066 255.02 61.8006 255.425 62.105C255.876 62.4432 256.274 62.9507 256.485 63.5826C256.68 64.1687 256.642 64.6418 256.605 64.8646L248.714 63.5494C248.451 65.1282 248.823 67.1535 250.625 68.505C252.009 69.5425 253.623 69.671 254.611 69.671V61.671ZM256.535 65.1983C257.013 63.3295 257.404 61.4394 257.708 59.5285L249.807 58.2715C249.542 59.9393 249.201 61.5872 248.784 63.2157L256.535 65.1983ZM257.696 59.6001C258.058 57.5649 258.245 55.581 258.245 53.654H250.245C250.245 55.0617 250.108 56.5751 249.819 58.1999L257.696 59.6001ZM258.245 53.654C258.245 51.445 258.113 49.3942 257.658 47.837L249.978 50.077C250.094 50.4718 250.245 51.5523 250.245 53.654H258.245ZM257.708 48.0235C257.405 46.7612 256.798 45.0009 255.314 43.7872L250.248 49.9788C250.078 49.8394 249.965 49.7083 249.898 49.6185C249.831 49.5297 249.802 49.4716 249.798 49.4649C249.795 49.4576 249.81 49.4859 249.835 49.5608C249.861 49.635 249.893 49.7429 249.929 49.8905L257.708 48.0235ZM255.472 43.9232C254.542 43.0777 253.463 42.5048 252.328 42.1501L249.941 49.7859C250.028 49.8132 250.075 49.8364 250.092 49.8459C250.107 49.8546 250.104 49.8545 250.091 49.8428L255.472 43.9232ZM252.71 42.2914C252.79 42.3258 252.856 42.369 252.902 42.4071L247.781 48.5529C248.314 48.9977 248.909 49.3662 249.559 49.6446L252.71 42.2914ZM253.17 42.6516C253.907 43.3889 254.036 44.235 254.036 44.626H246.036C246.036 45.749 246.369 47.1644 247.513 48.3084L253.17 42.6516ZM254.036 44.626C254.036 44.8689 253.988 45.0229 253.974 45.0639C253.961 45.1005 253.974 45.0498 254.066 44.908L247.349 40.562C246.66 41.6266 246.036 43.0137 246.036 44.626H254.036ZM254.066 44.908C254.134 44.8021 254.287 44.6175 254.656 44.396L250.54 37.536C249.283 38.2905 248.175 39.2853 247.349 40.562L254.066 44.908ZM254.704 44.3671C254.891 44.251 255.111 44.173 255.465 44.173V36.173C253.705 36.173 252.013 36.6237 250.493 37.5649L254.704 44.3671ZM255.465 44.173C255.701 44.173 255.624 44.2159 255.4 44.1014C255.285 44.0428 255.161 43.9572 255.047 43.8444C254.934 43.7324 254.859 43.6231 254.815 43.5421L261.85 39.7319C260.44 37.1296 257.89 36.173 255.465 36.173V44.173ZM254.85 43.6052C254.923 43.7337 255.125 44.2185 255.125 45.358H263.125C263.125 43.4068 262.799 41.411 261.815 39.6688L254.85 43.6052ZM255.125 45.358C255.125 46.1154 255.049 47.0363 254.871 48.1371L262.769 49.4109C262.999 47.9904 263.125 46.6339 263.125 45.358H255.125ZM254.871 48.1371C254.674 49.3592 254.48 50.4475 254.288 51.4055L262.133 52.9745C262.348 51.8991 262.56 50.7102 262.769 49.4109L254.871 48.1371ZM256.946 55.9847L257.129 56.0457L259.658 48.4563L259.475 48.3953L256.946 55.9847ZM262.136 53.6632C262.863 51.7356 263.726 49.9798 264.718 48.3862L257.925 44.1598C256.639 46.2262 255.55 48.4557 254.651 50.8388L262.136 53.6632ZM264.705 48.4062C265.658 46.8944 266.694 45.7804 267.781 44.9792L263.036 38.5388C261.032 40.015 259.343 41.9103 257.938 44.1398L264.705 48.4062ZM267.781 44.9792C268.597 44.3781 269.543 44.051 270.776 44.051V36.051C267.943 36.051 265.311 36.8625 263.036 38.5388L267.781 44.9792ZM270.776 44.051C272.085 44.051 272.509 44.4109 272.707 44.637L278.728 39.369C276.648 36.9925 273.778 36.051 270.776 36.051V44.051ZM272.707 44.637C273.125 45.1146 273.425 45.7664 273.425 46.883H281.425C281.425 44.0956 280.587 41.494 278.728 39.369L272.707 44.637ZM273.425 46.883C273.425 47.36 273.366 47.7707 273.266 48.1304L280.975 50.2716C281.281 49.1673 281.425 48.0327 281.425 46.883H273.425ZM273.216 48.3333C273.072 48.9811 272.911 49.6056 272.734 50.2073L280.409 52.4647C280.639 51.6837 280.844 50.8849 281.025 50.0687L273.216 48.3333ZM272.754 50.1429C272.52 50.8887 272.312 51.6522 272.129 52.4328L279.916 54.2652C280.058 53.6632 280.216 53.0847 280.389 52.5291L272.754 50.1429ZM272.083 52.6539C271.921 53.5711 271.839 54.495 271.839 55.423H279.839C279.839 54.9683 279.879 54.5095 279.962 54.0441L272.083 52.6539ZM271.839 55.423C271.839 57.2265 272.275 59.0448 273.388 60.6325C274.499 62.2169 276.058 63.2464 277.744 63.871L280.523 56.369C280.262 56.2726 280.112 56.1825 280.034 56.1262C279.961 56.0736 279.941 56.0431 279.938 56.039C279.935 56.0353 279.916 56.0095 279.894 55.9322C279.871 55.8488 279.839 55.688 279.839 55.423H271.839ZM277.558 63.7966C277.422 63.7382 277.006 63.534 276.617 63.0333C276.183 62.4756 275.987 61.8134 275.987 61.218H283.987C283.987 60.1346 283.65 59.0454 282.931 58.1217C282.257 57.255 281.415 56.7458 280.709 56.4434L277.558 63.7966ZM275.987 61.218C275.987 61.0928 275.997 61.0103 276.001 60.9825C276.005 60.9527 276.007 60.9532 275.998 60.9896C275.98 61.0672 275.938 61.223 275.849 61.4727L283.393 64.1353C283.668 63.3564 283.987 62.295 283.987 61.218H275.987ZM275.849 61.4727C275.86 61.4425 275.827 61.5724 275.544 61.8379L281.015 67.6741C282.033 66.7196 282.895 65.5482 283.393 64.1353L275.849 61.4727ZM275.645 61.7457C275.726 61.6755 275.8 61.6277 275.857 61.5977C275.912 61.5685 275.941 61.5605 275.933 61.563C275.908 61.5703 275.753 61.61 275.412 61.61V69.61C277.207 69.61 279.262 69.2113 280.913 67.7663L275.645 61.7457ZM275.412 61.61C275.068 61.61 274.923 61.551 274.893 61.5375C274.876 61.5295 274.865 61.5226 274.854 61.5143C274.843 61.5054 274.816 61.4821 274.776 61.4307L268.485 66.3733C270.239 68.6049 272.731 69.61 275.412 69.61V61.61ZM274.817 61.4845C274.553 61.1364 274.288 60.5526 274.288 59.449H266.288C266.288 61.9241 266.918 64.309 268.444 66.3195L274.817 61.4845ZM274.288 59.449C274.288 58.7009 274.363 57.947 274.516 57.1835L266.671 55.6145C266.417 56.8844 266.288 58.1637 266.288 59.449H274.288ZM274.491 57.2984C274.725 56.284 274.956 55.3597 275.184 54.5235L267.466 52.4185C267.206 53.3716 266.95 54.3993 266.696 55.4996L274.491 57.2984ZM275.219 54.3872C275.395 53.6407 275.55 52.9099 275.684 52.1952L267.821 50.7208C267.711 51.3074 267.581 51.9186 267.432 52.5548L275.219 54.3872ZM275.646 52.3742C275.857 51.4779 275.996 50.5497 275.996 49.628H267.996C267.996 49.7636 267.973 50.0554 267.859 50.5418L275.646 52.3742ZM275.996 49.628C275.996 48.0317 275.571 46.1106 274.032 44.6355C272.525 43.191 270.619 42.822 269.068 42.822V50.822C269.469 50.822 269.028 50.9207 268.497 50.4115C267.934 49.8718 267.996 49.3536 267.996 49.628H275.996ZM269.068 42.822C266.262 42.822 263.801 43.9313 261.848 45.8846L267.505 51.5414C268.073 50.9734 268.541 50.822 269.068 50.822V42.822ZM261.895 45.8386C260.236 47.4434 258.898 49.3999 257.835 51.6232L265.052 55.0748C265.778 53.5568 266.595 52.4226 267.458 51.5874L261.895 45.8386ZM257.835 51.6232C256.854 53.6749 256.045 55.7608 255.414 57.8801L263.081 60.1639C263.588 58.4606 264.244 56.7645 265.052 55.0748L257.835 51.6232ZM255.247 59.022V60.486H263.247V59.022H255.247ZM255.247 60.486C255.247 61.1864 255.071 61.4412 254.956 61.573L260.977 66.841C262.569 65.0208 263.247 62.795 263.247 60.486H255.247ZM254.894 61.6463C254.875 61.6682 254.871 61.6687 254.883 61.6596C254.896 61.6501 254.909 61.6425 254.918 61.6388C254.94 61.6291 254.863 61.671 254.611 61.671V69.671C257.061 69.671 259.369 68.7725 261.039 66.7677L254.894 61.6463ZM284.571 79.945L286.874 76.6751L286.874 76.6751L284.571 79.945ZM283.229 71.161L280.138 68.622L280.11 68.6556L280.083 68.6897L283.229 71.161ZM287.987 71.161L284.192 69.8961L284.127 70.0918L284.082 70.2933L287.987 71.161ZM289.817 74.76L291.42 71.0954L291.371 71.0741L291.322 71.0541L289.817 74.76ZM297.991 75.248L298.801 79.165L298.801 79.165L297.991 75.248ZM300.919 74.089L298.861 70.659L298.758 70.7204L298.66 70.7878L300.919 74.089ZM297.198 68.965L297.873 65.0225L297.818 65.0131L297.763 65.0052L297.198 68.965ZM292.806 68.355L293.341 64.391L293.294 64.3847L293.247 64.3795L292.806 68.355ZM289.024 67.501L290.459 63.7676L290.375 63.735L290.288 63.7063L289.024 67.501ZM286.035 65.854L288.863 63.0256L288.863 63.0256L286.035 65.854ZM288.536 58.778L290.299 62.3682L297.435 58.8629L290.367 55.2221L288.536 58.778ZM285.486 55.85L281.931 57.6846L281.954 57.7292L281.978 57.7733L285.486 55.85ZM286.035 46.029L282.612 43.9593L282.594 43.9888L282.577 44.0185L286.035 46.029ZM290.671 41.759L292.571 45.2786L292.583 45.272L292.596 45.2653L290.671 41.759ZM302.627 40.478L301.842 44.4003L301.896 44.4112L301.951 44.4205L302.627 40.478ZM306.165 41.942L303.699 45.092L303.775 45.1509L303.852 45.2061L306.165 41.942ZM307.324 46.639L311.091 47.9843L311.105 47.9443L311.118 47.9039L307.324 46.639ZM305.189 47.371L304.039 51.2023L304.219 51.2564L304.404 51.2933L305.189 47.371ZM304.091 47.066L305.061 43.1854L298.929 41.6524L300.168 47.8505L304.091 47.066ZM304.274 48.408L300.287 48.7402L300.301 48.9037L300.328 49.0656L304.274 48.408ZM301.956 56.46L305.002 59.0525L305.015 59.0367L305.028 59.0207L301.956 56.46ZM294.819 59.876L295.104 63.8658L295.193 63.8594L295.283 63.849L294.819 59.876ZM292.257 60.303L293.433 64.1261L293.518 64.0999L293.602 64.07L292.257 60.303ZM292.196 62.133L290.657 65.8253L290.792 65.8815L290.931 65.9277L292.196 62.133ZM294.087 62.499L293.668 66.477L293.714 66.4819L293.76 66.4856L294.087 62.499ZM300.675 63.536L301.664 59.6603L301.664 59.6603L300.675 63.536ZM305.128 65.854L302.299 68.6824L302.299 68.6824L305.128 65.854ZM304.701 76.468L301.622 73.9147L301.588 73.9552L301.555 73.9967L304.701 76.468ZM299.272 80.433L300.791 84.1331L300.791 84.1331L299.272 80.433ZM298.54 53.044L301.312 55.9273L301.312 55.9273L298.54 53.044ZM300.004 47.737L296.058 48.3946L296.063 48.4236L296.068 48.4525L300.004 47.737ZM299.76 46.517L303.64 45.5469L303.096 43.3688L300.953 42.6991L299.76 46.517ZM297.869 46.151L297.34 50.1159L297.471 50.1334L297.602 50.1421L297.869 46.151ZM291.037 47.249L293.255 50.5772L293.255 50.5772L291.037 47.249ZM290.549 53.532L288.103 56.6971L288.103 56.6971L290.549 53.532ZM291.83 77.836C289.289 77.836 287.771 77.3068 286.874 76.6751L282.267 83.2149C284.949 85.1045 288.27 85.836 291.83 85.836V77.836ZM286.874 76.6751C286.026 76.0775 285.887 75.614 285.887 75.065H277.887C277.887 78.5014 279.536 81.2911 282.267 83.2149L286.874 76.6751ZM285.887 75.065C285.887 74.4866 286.039 74.0579 286.374 73.6323L280.083 68.6897C278.628 70.5415 277.887 72.7154 277.887 75.065H285.887ZM286.319 73.7C286.444 73.5483 286.518 73.5134 286.537 73.5047C286.558 73.4949 286.652 73.453 286.889 73.453V65.453C284.216 65.453 281.851 66.536 280.138 68.622L286.319 73.7ZM286.889 73.453C287.066 73.453 286.551 73.5013 285.865 73.109C285.461 72.8782 284.988 72.4867 284.634 71.8802C284.28 71.2723 284.17 70.6622 284.17 70.185H292.17C292.17 68.4917 291.282 66.9903 289.834 66.163C288.72 65.5267 287.565 65.453 286.889 65.453V73.453ZM284.17 70.185C284.17 70.044 284.184 69.9475 284.192 69.9053C284.2 69.8628 284.204 69.8582 284.192 69.8961L291.781 72.4259C291.994 71.7869 292.17 71.0218 292.17 70.185H284.17ZM284.082 70.2933C283.939 70.9372 283.865 71.5941 283.865 72.259H291.865C291.865 72.1919 291.872 72.1168 291.891 72.0287L284.082 70.2933ZM283.865 72.259C283.865 73.6471 284.282 75.024 285.199 76.1993C286.074 77.3204 287.218 78.0217 288.311 78.4659L291.322 71.0541C291.114 70.9696 291.281 70.9897 291.506 71.2772C291.621 71.4245 291.72 71.6044 291.785 71.8027C291.849 71.9975 291.865 72.1588 291.865 72.259H283.865ZM288.213 78.4246C290.143 79.2691 292.284 79.614 294.514 79.614V71.614C293.083 71.614 292.092 71.3896 291.42 71.0954L288.213 78.4246ZM294.514 79.614C295.94 79.614 297.37 79.461 298.801 79.165L297.18 71.331C296.252 71.523 295.365 71.614 294.514 71.614V79.614ZM298.801 79.165C300.357 78.8431 301.862 78.2904 303.177 77.3902L298.66 70.7878C298.43 70.9449 297.983 71.1649 297.18 71.331L298.801 79.165ZM302.977 77.519C304.835 76.4041 306.139 74.5121 306.139 72.076H298.139C298.139 71.8389 298.204 71.491 298.413 71.1465C298.61 70.8209 298.825 70.6804 298.861 70.659L302.977 77.519ZM306.139 72.076C306.139 70.9094 305.835 69.7004 305.101 68.6148C304.383 67.5535 303.416 66.8502 302.461 66.3935L299.01 73.6105C298.99 73.6012 298.725 73.4671 298.475 73.0972C298.208 72.7029 298.139 72.3073 298.139 72.076H306.139ZM302.461 66.3935C301.091 65.7382 299.529 65.3064 297.873 65.0225L296.522 72.9075C297.712 73.1116 298.509 73.3711 299.01 73.6105L302.461 66.3935ZM297.763 65.0052C296.329 64.8004 294.855 64.5956 293.341 64.391L292.27 72.319C293.765 72.521 295.219 72.723 296.632 72.9248L297.763 65.0052ZM293.247 64.3795C292.028 64.244 291.118 64.021 290.459 63.7676L287.588 71.2344C289.044 71.7944 290.655 72.1407 292.364 72.3305L293.247 64.3795ZM290.288 63.7063C289.249 63.3596 288.902 63.0641 288.863 63.0256L283.206 68.6824C284.469 69.9452 286.115 70.7477 287.759 71.2957L290.288 63.7063ZM288.863 63.0256C288.886 63.0483 288.917 63.0844 288.95 63.1341C288.983 63.184 289.009 63.2364 289.029 63.2866C289.07 63.3919 289.059 63.4309 289.059 63.353H281.059C281.059 65.3085 281.723 67.1995 283.206 68.6824L288.863 63.0256ZM289.059 63.353C289.059 63.3169 289.061 63.2952 289.063 63.285C289.064 63.2752 289.066 63.2712 289.066 63.2703C289.066 63.2694 289.068 63.265 289.073 63.2555C289.078 63.2458 289.09 63.226 289.112 63.1961C289.208 63.0703 289.513 62.7543 290.299 62.3682L286.772 55.1878C283.646 56.7232 281.059 59.3777 281.059 63.353H289.059ZM290.367 55.2221C289.697 54.8766 289.281 54.4524 288.993 53.9267L281.978 57.7733C283.073 59.769 284.69 61.2967 286.704 62.3339L290.367 55.2221ZM289.04 54.0154C288.708 53.3715 288.51 52.6062 288.51 51.641H280.51C280.51 53.7665 280.962 55.8072 281.931 57.6846L289.04 54.0154ZM288.51 51.641C288.51 50.3657 288.825 49.1873 289.493 48.0395L282.577 44.0185C281.21 46.3681 280.51 48.931 280.51 51.641H288.51ZM289.457 48.0987C290.099 47.0371 291.082 46.083 292.571 45.2786L288.77 38.2394C286.193 39.631 284.084 41.5236 282.612 43.9593L289.457 48.0987ZM292.596 45.2653C293.926 44.5347 295.8 44.051 298.418 44.051V36.051C294.854 36.051 291.563 36.7059 288.746 38.2527L292.596 45.2653ZM298.418 44.051C299.524 44.051 300.664 44.1648 301.842 44.4003L303.411 36.5557C301.742 36.2219 300.076 36.051 298.418 36.051V44.051ZM301.951 44.4205C302.861 44.5765 303.387 44.8475 303.699 45.092L308.63 38.792C307.072 37.5725 305.239 36.8675 303.302 36.5355L301.951 44.4205ZM303.852 45.2061C303.846 45.2012 303.812 45.1756 303.768 45.1247C303.724 45.0728 303.685 45.0132 303.656 44.9539C303.596 44.8289 303.629 44.8075 303.629 44.992H311.629C311.629 42.5362 310.653 40.2193 308.477 38.6779L303.852 45.2061ZM303.629 44.992C303.629 44.9597 303.632 44.9735 303.619 45.0414C303.607 45.1092 303.581 45.2188 303.529 45.3741L311.118 47.9039C311.417 47.0078 311.629 46.0218 311.629 44.992H303.629ZM303.557 45.2937C303.653 45.0234 303.912 44.4986 304.508 44.0593C305.124 43.6058 305.759 43.493 306.165 43.493V51.493C307.139 51.493 308.252 51.2379 309.254 50.4997C310.237 49.7757 310.791 48.824 311.091 47.9843L303.557 45.2937ZM306.165 43.493C306.213 43.493 306.243 43.495 306.251 43.4955C306.26 43.4962 306.255 43.496 306.234 43.4934C306.189 43.4878 306.105 43.475 305.973 43.4487L304.404 51.2933C304.917 51.3959 305.537 51.493 306.165 51.493V43.493ZM306.338 43.5397C305.887 43.4043 305.459 43.2851 305.061 43.1854L303.12 50.9466C303.372 51.0095 303.677 51.0937 304.039 51.2023L306.338 43.5397ZM300.168 47.8505C300.215 48.0839 300.257 48.3777 300.287 48.7402L308.26 48.0758C308.209 47.4622 308.129 46.8614 308.013 46.2815L300.168 47.8505ZM300.328 49.0656C300.371 49.322 300.396 49.6097 300.396 49.933H308.396C308.396 49.1989 308.339 48.47 308.219 47.7504L300.328 49.0656ZM300.396 49.933C300.396 51.3386 299.948 52.6203 298.883 53.8993L305.028 59.0207C307.216 56.3957 308.396 53.3261 308.396 49.933H300.396ZM298.909 53.8675C298.094 54.8254 296.75 55.6231 294.354 55.903L295.283 63.849C299.15 63.3969 302.564 61.9173 305.002 59.0525L298.909 53.8675ZM294.534 55.8862C293.293 55.9748 292.002 56.1463 290.911 56.536L293.602 64.07C293.59 64.0741 293.698 64.0367 293.982 63.9893C294.254 63.944 294.622 63.9002 295.104 63.8658L294.534 55.8862ZM291.08 56.4799C290.356 56.7028 289.412 57.1425 288.639 58.034C287.807 58.9941 287.464 60.1439 287.464 61.218H295.464C295.464 61.8448 295.252 62.6184 294.685 63.2735C294.176 63.86 293.629 64.0658 293.433 64.1261L291.08 56.4799ZM287.464 61.218C287.464 62.2892 287.809 63.3579 288.523 64.2505C289.187 65.0805 290.003 65.5527 290.657 65.8253L293.734 58.4407C293.9 58.51 294.35 58.728 294.77 59.253C295.24 59.8406 295.464 60.5534 295.464 61.218H287.464ZM290.931 65.9277C291.794 66.2157 292.737 66.3791 293.668 66.477L294.505 58.521C293.89 58.4563 293.573 58.3757 293.46 58.3383L290.931 65.9277ZM293.76 66.4856C296.072 66.6751 298.039 66.9914 299.685 67.4117L301.664 59.6603C299.488 59.1046 297.063 58.7295 294.413 58.5124L293.76 66.4856ZM299.685 67.4117C301.117 67.7772 301.887 68.2703 302.299 68.6824L307.956 63.0256C306.253 61.323 304.055 60.2708 301.664 59.6603L299.685 67.4117ZM302.299 68.6824C302.45 68.8338 302.775 69.2436 302.775 70.49H310.775C310.775 67.7511 310.001 65.0702 307.956 63.0256L302.299 68.6824ZM302.775 70.49C302.775 71.946 302.365 73.0175 301.622 73.9147L307.78 79.0213C309.801 76.5838 310.775 73.67 310.775 70.49H302.775ZM301.555 73.9967C300.694 75.0925 299.477 76.0244 297.752 76.7329L300.791 84.1331C303.621 82.9709 306.023 81.2595 307.846 78.9393L301.555 73.9967ZM297.752 76.7329C295.999 77.453 294.04 77.836 291.83 77.836V85.836C294.988 85.836 297.99 85.2837 300.791 84.1331L297.752 76.7329ZM294.148 58.569C296.755 58.569 299.32 57.8427 301.312 55.9273L295.767 50.1607C295.644 50.2786 295.281 50.569 294.148 50.569V58.569ZM301.312 55.9273C303.243 54.0704 304.126 51.663 304.126 49.079H296.126C296.126 49.7484 295.951 49.9842 295.767 50.1607L301.312 55.9273ZM304.126 49.079C304.126 48.3878 304.063 47.701 303.939 47.0215L296.068 48.4525C296.107 48.6677 296.126 48.8755 296.126 49.079H304.126ZM303.949 47.0794C303.858 46.5306 303.756 46.0114 303.64 45.5469L295.879 47.4871C295.926 47.6733 295.987 47.9674 296.058 48.3946L303.949 47.0794ZM300.953 42.6991C300.035 42.4123 299.093 42.2238 298.135 42.1599L297.602 50.1421C297.864 50.1596 298.183 50.2151 298.566 50.3349L300.953 42.6991ZM298.397 42.1861C297.626 42.0832 296.859 42.029 296.1 42.029V50.029C296.479 50.029 296.891 50.0561 297.34 50.1159L298.397 42.1861ZM296.1 42.029C293.505 42.029 290.936 42.5085 288.818 43.9208L293.255 50.5772C293.577 50.3628 294.383 50.029 296.1 50.029V42.029ZM288.818 43.9208C286.525 45.4491 285.207 47.7955 285.207 50.604H293.207C293.207 50.5349 293.214 50.5134 293.21 50.5272C293.209 50.5335 293.206 50.5457 293.199 50.562C293.193 50.5784 293.185 50.5959 293.176 50.6132C293.166 50.6304 293.157 50.6445 293.15 50.6547C293.142 50.6649 293.138 50.6689 293.14 50.6672C293.143 50.664 293.175 50.6311 293.255 50.5772L288.818 43.9208ZM285.207 50.604C285.207 52.9406 286.106 55.154 288.103 56.6971L292.994 50.3669C293.005 50.3752 293.038 50.4025 293.077 50.4521C293.118 50.5024 293.153 50.5589 293.178 50.6149C293.232 50.7331 293.207 50.7584 293.207 50.604H285.207ZM288.103 56.6971C289.898 58.0846 292.05 58.569 294.148 58.569V50.569C293.696 50.569 293.402 50.5165 293.227 50.4661C293.061 50.4184 293.003 50.3734 292.994 50.3669L288.103 56.6971Z" fill="#E1DA9E" mask="url(#path-1-outside-1_280_186)"/>
</svg>
