<svg width="400" height="90" viewBox="0 0 400 90" fill="none" xmlns="http://www.w3.org/2000/svg">
<mask id="path-1-outside-1_280_187" maskUnits="userSpaceOnUse" x="95" y="21" width="211" height="49" fill="black">
<rect fill="white" x="95" y="21" width="211" height="49"/>
<path d="M110.649 65.793C107.883 65.793 105.748 65.488 104.244 64.878C102.739 64.268 101.702 63.414 101.133 62.316C100.563 61.218 100.279 59.9167 100.279 58.412C100.279 57.68 100.34 56.8667 100.462 55.972C100.584 55.0367 100.726 53.9793 100.889 52.8C101.621 48.3267 101.987 44.3617 101.987 40.905C101.987 38.6277 101.885 36.696 101.682 35.11C101.519 33.4833 100.99 31.938 100.096 30.474C99.9329 30.23 99.7906 29.986 99.6686 29.742C99.5466 29.4573 99.4856 29.2337 99.4856 29.071C99.4856 28.583 99.7702 28.0747 100.34 27.546C100.909 27.0173 101.6 26.57 102.414 26.204C103.227 25.838 104 25.655 104.732 25.655C106.114 25.655 106.968 26.204 107.294 27.302C107.66 28.4 107.843 29.9657 107.843 31.999C107.843 32.7717 107.761 34.012 107.599 35.72C107.436 37.3873 107.192 39.5223 106.867 42.125C106.541 44.6463 106.297 46.822 106.135 48.652C105.972 50.482 105.891 51.946 105.891 53.044C105.891 54.6707 106.074 55.911 106.44 56.765C106.846 57.5783 107.497 58.1477 108.392 58.473C109.286 58.7983 110.547 58.961 112.174 58.961C113.922 58.961 115.59 58.8187 117.176 58.534C118.762 58.2087 120.307 57.7207 121.812 57.07C122.015 56.9887 122.198 56.9277 122.361 56.887C122.523 56.8463 122.666 56.826 122.788 56.826C123.154 56.826 123.499 57.0497 123.825 57.497C124.15 57.9443 124.313 58.5747 124.313 59.388C124.313 61.1773 123.337 62.5803 121.385 63.597C118.782 65.061 115.203 65.793 110.649 65.793ZM136.272 65.793C133.466 65.793 131.209 65.0407 129.501 63.536C127.834 61.9907 127 59.7337 127 56.765C127 55.3823 127.183 54.0403 127.549 52.739C127.956 51.4377 128.484 50.2177 129.135 49.079C128.484 49.4857 127.996 49.689 127.671 49.689C127.183 49.689 126.837 49.4247 126.634 48.896C126.471 48.3267 126.39 47.7777 126.39 47.249C126.39 46.3137 126.573 45.5817 126.939 45.053C127.346 44.4837 127.732 44.0567 128.098 43.772C128.952 43.04 130.294 42.247 132.124 41.393C133.954 40.4983 136.15 40.051 138.712 40.051C142.209 40.051 144.914 41.027 146.825 42.979C148.777 44.931 149.753 47.6557 149.753 51.153C149.753 53.8777 149.184 56.3583 148.045 58.595C146.906 60.791 145.32 62.5397 143.287 63.841C141.294 65.1423 138.956 65.793 136.272 65.793ZM138.163 59.571C140.196 59.571 141.904 58.9407 143.287 57.68C144.71 56.3787 145.422 54.6707 145.422 52.556C145.422 50.36 144.71 48.7943 143.287 47.859C141.864 46.9237 140.217 46.456 138.346 46.456C137.492 46.456 136.719 46.5373 136.028 46.7C135.337 46.8627 134.686 47.066 134.076 47.31C133.507 48.1233 132.998 49.0383 132.551 50.055C132.104 51.0717 131.88 52.19 131.88 53.41C131.88 55.4433 132.49 56.9887 133.71 58.046C134.93 59.0627 136.414 59.571 138.163 59.571ZM163.298 65.793C160.452 65.793 158.215 64.939 156.588 63.231C155.002 61.4823 154.209 59.0627 154.209 55.972C154.209 52.922 154.86 50.1973 156.161 47.798C157.463 45.3987 159.252 43.5077 161.529 42.125C163.807 40.7423 166.389 40.051 169.276 40.051C171.228 40.051 172.774 40.3763 173.912 41.027C175.051 41.6777 175.62 42.5723 175.62 43.711C175.62 44.7277 175.132 45.724 174.156 46.7C173.79 47.066 173.302 47.4117 172.692 47.737C172.123 48.0217 171.676 48.164 171.35 48.164C170.984 48.164 170.679 48.0217 170.435 47.737C170.029 47.2897 169.5 46.8627 168.849 46.456C168.199 46.0493 167.284 45.846 166.104 45.846C164.112 45.846 162.485 46.5373 161.224 47.92C159.964 49.262 159.333 51.031 159.333 53.227C159.333 55.2197 159.903 56.826 161.041 58.046C162.18 59.266 163.685 59.876 165.555 59.876C166.531 59.876 167.589 59.7133 168.727 59.388C169.907 59.022 170.944 58.5137 171.838 57.863C172.286 57.4563 172.753 57.253 173.241 57.253C174.055 57.253 174.461 57.7613 174.461 58.778C174.461 60.12 173.79 61.401 172.448 62.621C171.432 63.5563 170.069 64.329 168.361 64.939C166.694 65.5083 165.006 65.793 163.298 65.793ZM186.56 65.793C184.12 65.793 182.148 65.0407 180.643 63.536C179.179 61.9907 178.447 59.7947 178.447 56.948C178.447 54.9147 178.834 52.9017 179.606 50.909C180.42 48.8757 181.579 47.0457 183.083 45.419C184.588 43.7923 186.398 42.491 188.512 41.515C190.627 40.539 193.006 40.051 195.649 40.051C198.089 40.051 200.163 40.478 201.871 41.332C203.62 42.1453 204.494 43.2637 204.494 44.687C204.494 45.053 204.454 45.541 204.372 46.151C204.291 46.7203 204.189 47.188 204.067 47.554C203.945 47.8793 203.762 48.1843 203.518 48.469C203.315 48.713 203.03 48.835 202.664 48.835C202.502 48.835 202.197 48.774 201.749 48.652C201.587 49.506 201.465 50.3397 201.383 51.153C201.302 51.9663 201.261 52.7797 201.261 53.593C201.261 55.1383 201.485 56.521 201.932 57.741C202.42 58.9203 203.356 59.6523 204.738 59.937C205.104 60.0183 205.389 60.1403 205.592 60.303C205.836 60.4657 205.958 60.8113 205.958 61.34C205.958 61.7873 205.836 62.3567 205.592 63.048C205.389 63.7393 204.962 64.3697 204.311 64.939C203.701 65.4677 202.807 65.732 201.627 65.732C200.041 65.732 198.821 65.1627 197.967 64.024C197.113 62.8447 196.686 61.1773 196.686 59.022C195.588 61.0147 194.185 62.6413 192.477 63.902C190.81 65.1627 188.838 65.793 186.56 65.793ZM188.512 59.449C190.139 59.449 191.562 58.9407 192.782 57.924C194.043 56.9073 195.019 55.6263 195.71 54.081C196.158 53.105 196.503 52.0477 196.747 50.909C196.991 49.7297 197.154 48.5707 197.235 47.432C196.544 47.1067 195.751 46.8423 194.856 46.639C193.962 46.4357 193.026 46.334 192.05 46.334C189.57 46.334 187.516 47.066 185.889 48.53C184.303 49.994 183.51 51.824 183.51 54.02C183.51 55.6467 183.958 56.9683 184.852 57.985C185.747 58.961 186.967 59.449 188.512 59.449ZM218.641 65.793C216.16 65.793 214.371 64.9797 213.273 63.353C212.215 61.6857 211.687 59.5507 211.687 56.948C211.687 56.0127 211.727 55.0977 211.809 54.203C211.931 53.3083 212.053 52.4137 212.175 51.519C212.297 50.6243 212.419 49.75 212.541 48.896C212.663 48.042 212.764 47.2287 212.846 46.456C211.992 46.7 211.138 46.822 210.284 46.822C209.389 46.822 208.942 46.456 208.942 45.724C208.942 44.9513 209.287 44.016 209.979 42.918C210.67 41.7793 211.524 40.661 212.541 39.563C213.598 38.465 214.635 37.55 215.652 36.818C216.709 36.0453 217.604 35.659 218.336 35.659C219.23 35.659 219.678 36.4317 219.678 37.977C219.678 38.3837 219.637 38.8107 219.556 39.258C219.515 39.6647 219.454 40.0917 219.373 40.539C220.145 40.3763 220.918 40.234 221.691 40.112C222.504 39.99 223.277 39.929 224.009 39.929C224.944 39.929 225.656 40.0917 226.144 40.417C226.672 40.7423 226.937 41.3727 226.937 42.308C226.937 43.284 226.693 44.26 226.205 45.236C225.757 46.212 225.249 46.7 224.68 46.7C224.558 46.7 224.354 46.6797 224.07 46.639C223.785 46.5983 223.439 46.5373 223.033 46.456C222.504 46.334 221.833 46.212 221.02 46.09C220.206 45.968 219.23 45.907 218.092 45.907C217.807 47.1677 217.543 48.469 217.299 49.811C217.095 51.1123 216.994 52.2917 216.994 53.349C216.994 55.7077 217.583 57.314 218.763 58.168C219.942 59.022 221.65 59.449 223.887 59.449C224.578 59.449 225.066 59.571 225.351 59.815C225.635 60.0183 225.778 60.4047 225.778 60.974C225.778 62.316 225.086 63.4547 223.704 64.39C222.321 65.3253 220.633 65.793 218.641 65.793ZM235.291 34.683C234.152 34.6423 233.237 34.2967 232.546 33.646C231.855 32.9953 231.509 32.0803 231.509 30.901C231.55 29.6403 231.977 28.6237 232.79 27.851C233.603 27.0377 234.64 26.6513 235.901 26.692C237.08 26.7327 237.995 27.0783 238.646 27.729C239.337 28.3797 239.663 29.2947 239.622 30.474C239.581 31.694 239.175 32.7107 238.402 33.524C237.629 34.2967 236.592 34.683 235.291 34.683ZM235.352 65.61C234.132 65.61 233.176 65.2847 232.485 64.634C231.794 63.9427 231.448 62.7837 231.448 61.157C231.448 60.2217 231.529 59.3067 231.692 58.412C231.895 57.5173 232.119 56.643 232.363 55.789C232.648 54.8943 232.871 53.9793 233.034 53.044C233.237 52.1087 233.339 51.1123 233.339 50.055C233.339 49.323 233.237 48.6317 233.034 47.981C232.831 47.2897 232.383 46.7813 231.692 46.456C231.163 46.1713 230.696 45.8867 230.289 45.602C229.923 45.2767 229.74 44.87 229.74 44.382C229.74 43.8127 230.004 43.2027 230.533 42.552C231.062 41.9013 231.753 41.3523 232.607 40.905C233.502 40.417 234.417 40.173 235.352 40.173C236.369 40.173 237.101 40.4373 237.548 40.966C238.036 41.4947 238.361 42.1657 238.524 42.979C238.687 43.7923 238.768 44.626 238.768 45.48C238.768 46.7813 238.666 48.0623 238.463 49.323C238.26 50.543 238.056 51.6817 237.853 52.739C237.69 53.5117 237.568 54.2233 237.487 54.874C237.406 55.5247 237.365 56.1347 237.365 56.704C237.365 57.7207 237.609 58.4933 238.097 59.022C238.585 59.51 239.276 59.9777 240.171 60.425C240.537 60.6283 240.72 60.9333 240.72 61.34C240.72 61.6653 240.557 62.1737 240.232 62.865C239.907 63.5563 239.337 64.1867 238.524 64.756C237.751 65.3253 236.694 65.61 235.352 65.61ZM254.936 65.793C252.13 65.793 249.873 65.0407 248.165 63.536C246.498 61.9907 245.664 59.7337 245.664 56.765C245.664 55.3823 245.847 54.0403 246.213 52.739C246.62 51.4377 247.148 50.2177 247.799 49.079C247.148 49.4857 246.66 49.689 246.335 49.689C245.847 49.689 245.501 49.4247 245.298 48.896C245.135 48.3267 245.054 47.7777 245.054 47.249C245.054 46.3137 245.237 45.5817 245.603 45.053C246.01 44.4837 246.396 44.0567 246.762 43.772C247.616 43.04 248.958 42.247 250.788 41.393C252.618 40.4983 254.814 40.051 257.376 40.051C260.873 40.051 263.578 41.027 265.489 42.979C267.441 44.931 268.417 47.6557 268.417 51.153C268.417 53.8777 267.848 56.3583 266.709 58.595C265.57 60.791 263.984 62.5397 261.951 63.841C259.958 65.1423 257.62 65.793 254.936 65.793ZM256.827 59.571C258.86 59.571 260.568 58.9407 261.951 57.68C263.374 56.3787 264.086 54.6707 264.086 52.556C264.086 50.36 263.374 48.7943 261.951 47.859C260.528 46.9237 258.881 46.456 257.01 46.456C256.156 46.456 255.383 46.5373 254.692 46.7C254.001 46.8627 253.35 47.066 252.74 47.31C252.171 48.1233 251.662 49.0383 251.215 50.055C250.768 51.0717 250.544 52.19 250.544 53.41C250.544 55.4433 251.154 56.9887 252.374 58.046C253.594 59.0627 255.078 59.571 256.827 59.571ZM276.533 65.671C275.069 65.671 274.419 65.183 274.581 64.207C275.029 62.4583 275.395 60.6893 275.679 58.9C276.005 57.07 276.167 55.3213 276.167 53.654C276.167 51.4987 276.025 49.933 275.74 48.957C275.496 47.9403 275.151 47.249 274.703 46.883C274.256 46.4763 273.707 46.1713 273.056 45.968C272.772 45.846 272.507 45.6833 272.263 45.48C272.06 45.2767 271.958 44.992 271.958 44.626C271.958 44.0567 272.182 43.4263 272.629 42.735C273.077 42.0437 273.707 41.454 274.52 40.966C275.374 40.4373 276.33 40.173 277.387 40.173C278.77 40.173 279.726 40.661 280.254 41.637C280.783 42.5723 281.047 43.8127 281.047 45.358C281.047 46.3747 280.946 47.5133 280.742 48.774C280.539 50.0347 280.336 51.1733 280.132 52.19L280.315 52.251C281.129 50.0957 282.105 48.103 283.243 46.273C284.423 44.4023 285.785 42.8977 287.33 41.759C288.876 40.6203 290.665 40.051 292.698 40.051C294.854 40.051 296.501 40.7017 297.639 42.003C298.778 43.3043 299.347 44.931 299.347 46.883C299.347 47.6963 299.246 48.469 299.042 49.201C298.88 49.933 298.697 50.6447 298.493 51.336C298.29 51.9867 298.107 52.6577 297.944 53.349C297.822 54.0403 297.761 54.7317 297.761 55.423C297.761 57.741 298.859 59.3067 301.055 60.12C301.625 60.364 301.909 60.73 301.909 61.218C301.909 61.584 301.787 62.1127 301.543 62.804C301.299 63.4953 300.852 64.146 300.201 64.756C299.551 65.3253 298.595 65.61 297.334 65.61C295.708 65.61 294.447 65.0407 293.552 63.902C292.658 62.7227 292.21 61.2383 292.21 59.449C292.21 58.4323 292.312 57.4157 292.515 56.399C292.759 55.3417 293.003 54.3657 293.247 53.471C293.41 52.7797 293.552 52.1087 293.674 51.458C293.837 50.7667 293.918 50.1567 293.918 49.628C293.918 47.7573 292.942 46.822 290.99 46.822C289.323 46.822 287.859 47.4523 286.598 48.713C285.338 49.933 284.26 51.4783 283.365 53.349C282.471 55.2197 281.739 57.1107 281.169 59.022V60.486C281.169 61.9907 280.742 63.231 279.888 64.207C279.075 65.183 277.957 65.671 276.533 65.671Z"/>
</mask>
<path d="M110.649 65.793C107.883 65.793 105.748 65.488 104.244 64.878C102.739 64.268 101.702 63.414 101.133 62.316C100.563 61.218 100.279 59.9167 100.279 58.412C100.279 57.68 100.34 56.8667 100.462 55.972C100.584 55.0367 100.726 53.9793 100.889 52.8C101.621 48.3267 101.987 44.3617 101.987 40.905C101.987 38.6277 101.885 36.696 101.682 35.11C101.519 33.4833 100.99 31.938 100.096 30.474C99.9329 30.23 99.7906 29.986 99.6686 29.742C99.5466 29.4573 99.4856 29.2337 99.4856 29.071C99.4856 28.583 99.7702 28.0747 100.34 27.546C100.909 27.0173 101.6 26.57 102.414 26.204C103.227 25.838 104 25.655 104.732 25.655C106.114 25.655 106.968 26.204 107.294 27.302C107.66 28.4 107.843 29.9657 107.843 31.999C107.843 32.7717 107.761 34.012 107.599 35.72C107.436 37.3873 107.192 39.5223 106.867 42.125C106.541 44.6463 106.297 46.822 106.135 48.652C105.972 50.482 105.891 51.946 105.891 53.044C105.891 54.6707 106.074 55.911 106.44 56.765C106.846 57.5783 107.497 58.1477 108.392 58.473C109.286 58.7983 110.547 58.961 112.174 58.961C113.922 58.961 115.59 58.8187 117.176 58.534C118.762 58.2087 120.307 57.7207 121.812 57.07C122.015 56.9887 122.198 56.9277 122.361 56.887C122.523 56.8463 122.666 56.826 122.788 56.826C123.154 56.826 123.499 57.0497 123.825 57.497C124.15 57.9443 124.313 58.5747 124.313 59.388C124.313 61.1773 123.337 62.5803 121.385 63.597C118.782 65.061 115.203 65.793 110.649 65.793ZM136.272 65.793C133.466 65.793 131.209 65.0407 129.501 63.536C127.834 61.9907 127 59.7337 127 56.765C127 55.3823 127.183 54.0403 127.549 52.739C127.956 51.4377 128.484 50.2177 129.135 49.079C128.484 49.4857 127.996 49.689 127.671 49.689C127.183 49.689 126.837 49.4247 126.634 48.896C126.471 48.3267 126.39 47.7777 126.39 47.249C126.39 46.3137 126.573 45.5817 126.939 45.053C127.346 44.4837 127.732 44.0567 128.098 43.772C128.952 43.04 130.294 42.247 132.124 41.393C133.954 40.4983 136.15 40.051 138.712 40.051C142.209 40.051 144.914 41.027 146.825 42.979C148.777 44.931 149.753 47.6557 149.753 51.153C149.753 53.8777 149.184 56.3583 148.045 58.595C146.906 60.791 145.32 62.5397 143.287 63.841C141.294 65.1423 138.956 65.793 136.272 65.793ZM138.163 59.571C140.196 59.571 141.904 58.9407 143.287 57.68C144.71 56.3787 145.422 54.6707 145.422 52.556C145.422 50.36 144.71 48.7943 143.287 47.859C141.864 46.9237 140.217 46.456 138.346 46.456C137.492 46.456 136.719 46.5373 136.028 46.7C135.337 46.8627 134.686 47.066 134.076 47.31C133.507 48.1233 132.998 49.0383 132.551 50.055C132.104 51.0717 131.88 52.19 131.88 53.41C131.88 55.4433 132.49 56.9887 133.71 58.046C134.93 59.0627 136.414 59.571 138.163 59.571ZM163.298 65.793C160.452 65.793 158.215 64.939 156.588 63.231C155.002 61.4823 154.209 59.0627 154.209 55.972C154.209 52.922 154.86 50.1973 156.161 47.798C157.463 45.3987 159.252 43.5077 161.529 42.125C163.807 40.7423 166.389 40.051 169.276 40.051C171.228 40.051 172.774 40.3763 173.912 41.027C175.051 41.6777 175.62 42.5723 175.62 43.711C175.62 44.7277 175.132 45.724 174.156 46.7C173.79 47.066 173.302 47.4117 172.692 47.737C172.123 48.0217 171.676 48.164 171.35 48.164C170.984 48.164 170.679 48.0217 170.435 47.737C170.029 47.2897 169.5 46.8627 168.849 46.456C168.199 46.0493 167.284 45.846 166.104 45.846C164.112 45.846 162.485 46.5373 161.224 47.92C159.964 49.262 159.333 51.031 159.333 53.227C159.333 55.2197 159.903 56.826 161.041 58.046C162.18 59.266 163.685 59.876 165.555 59.876C166.531 59.876 167.589 59.7133 168.727 59.388C169.907 59.022 170.944 58.5137 171.838 57.863C172.286 57.4563 172.753 57.253 173.241 57.253C174.055 57.253 174.461 57.7613 174.461 58.778C174.461 60.12 173.79 61.401 172.448 62.621C171.432 63.5563 170.069 64.329 168.361 64.939C166.694 65.5083 165.006 65.793 163.298 65.793ZM186.56 65.793C184.12 65.793 182.148 65.0407 180.643 63.536C179.179 61.9907 178.447 59.7947 178.447 56.948C178.447 54.9147 178.834 52.9017 179.606 50.909C180.42 48.8757 181.579 47.0457 183.083 45.419C184.588 43.7923 186.398 42.491 188.512 41.515C190.627 40.539 193.006 40.051 195.649 40.051C198.089 40.051 200.163 40.478 201.871 41.332C203.62 42.1453 204.494 43.2637 204.494 44.687C204.494 45.053 204.454 45.541 204.372 46.151C204.291 46.7203 204.189 47.188 204.067 47.554C203.945 47.8793 203.762 48.1843 203.518 48.469C203.315 48.713 203.03 48.835 202.664 48.835C202.502 48.835 202.197 48.774 201.749 48.652C201.587 49.506 201.465 50.3397 201.383 51.153C201.302 51.9663 201.261 52.7797 201.261 53.593C201.261 55.1383 201.485 56.521 201.932 57.741C202.42 58.9203 203.356 59.6523 204.738 59.937C205.104 60.0183 205.389 60.1403 205.592 60.303C205.836 60.4657 205.958 60.8113 205.958 61.34C205.958 61.7873 205.836 62.3567 205.592 63.048C205.389 63.7393 204.962 64.3697 204.311 64.939C203.701 65.4677 202.807 65.732 201.627 65.732C200.041 65.732 198.821 65.1627 197.967 64.024C197.113 62.8447 196.686 61.1773 196.686 59.022C195.588 61.0147 194.185 62.6413 192.477 63.902C190.81 65.1627 188.838 65.793 186.56 65.793ZM188.512 59.449C190.139 59.449 191.562 58.9407 192.782 57.924C194.043 56.9073 195.019 55.6263 195.71 54.081C196.158 53.105 196.503 52.0477 196.747 50.909C196.991 49.7297 197.154 48.5707 197.235 47.432C196.544 47.1067 195.751 46.8423 194.856 46.639C193.962 46.4357 193.026 46.334 192.05 46.334C189.57 46.334 187.516 47.066 185.889 48.53C184.303 49.994 183.51 51.824 183.51 54.02C183.51 55.6467 183.958 56.9683 184.852 57.985C185.747 58.961 186.967 59.449 188.512 59.449ZM218.641 65.793C216.16 65.793 214.371 64.9797 213.273 63.353C212.215 61.6857 211.687 59.5507 211.687 56.948C211.687 56.0127 211.727 55.0977 211.809 54.203C211.931 53.3083 212.053 52.4137 212.175 51.519C212.297 50.6243 212.419 49.75 212.541 48.896C212.663 48.042 212.764 47.2287 212.846 46.456C211.992 46.7 211.138 46.822 210.284 46.822C209.389 46.822 208.942 46.456 208.942 45.724C208.942 44.9513 209.287 44.016 209.979 42.918C210.67 41.7793 211.524 40.661 212.541 39.563C213.598 38.465 214.635 37.55 215.652 36.818C216.709 36.0453 217.604 35.659 218.336 35.659C219.23 35.659 219.678 36.4317 219.678 37.977C219.678 38.3837 219.637 38.8107 219.556 39.258C219.515 39.6647 219.454 40.0917 219.373 40.539C220.145 40.3763 220.918 40.234 221.691 40.112C222.504 39.99 223.277 39.929 224.009 39.929C224.944 39.929 225.656 40.0917 226.144 40.417C226.672 40.7423 226.937 41.3727 226.937 42.308C226.937 43.284 226.693 44.26 226.205 45.236C225.757 46.212 225.249 46.7 224.68 46.7C224.558 46.7 224.354 46.6797 224.07 46.639C223.785 46.5983 223.439 46.5373 223.033 46.456C222.504 46.334 221.833 46.212 221.02 46.09C220.206 45.968 219.23 45.907 218.092 45.907C217.807 47.1677 217.543 48.469 217.299 49.811C217.095 51.1123 216.994 52.2917 216.994 53.349C216.994 55.7077 217.583 57.314 218.763 58.168C219.942 59.022 221.65 59.449 223.887 59.449C224.578 59.449 225.066 59.571 225.351 59.815C225.635 60.0183 225.778 60.4047 225.778 60.974C225.778 62.316 225.086 63.4547 223.704 64.39C222.321 65.3253 220.633 65.793 218.641 65.793ZM235.291 34.683C234.152 34.6423 233.237 34.2967 232.546 33.646C231.855 32.9953 231.509 32.0803 231.509 30.901C231.55 29.6403 231.977 28.6237 232.79 27.851C233.603 27.0377 234.64 26.6513 235.901 26.692C237.08 26.7327 237.995 27.0783 238.646 27.729C239.337 28.3797 239.663 29.2947 239.622 30.474C239.581 31.694 239.175 32.7107 238.402 33.524C237.629 34.2967 236.592 34.683 235.291 34.683ZM235.352 65.61C234.132 65.61 233.176 65.2847 232.485 64.634C231.794 63.9427 231.448 62.7837 231.448 61.157C231.448 60.2217 231.529 59.3067 231.692 58.412C231.895 57.5173 232.119 56.643 232.363 55.789C232.648 54.8943 232.871 53.9793 233.034 53.044C233.237 52.1087 233.339 51.1123 233.339 50.055C233.339 49.323 233.237 48.6317 233.034 47.981C232.831 47.2897 232.383 46.7813 231.692 46.456C231.163 46.1713 230.696 45.8867 230.289 45.602C229.923 45.2767 229.74 44.87 229.74 44.382C229.74 43.8127 230.004 43.2027 230.533 42.552C231.062 41.9013 231.753 41.3523 232.607 40.905C233.502 40.417 234.417 40.173 235.352 40.173C236.369 40.173 237.101 40.4373 237.548 40.966C238.036 41.4947 238.361 42.1657 238.524 42.979C238.687 43.7923 238.768 44.626 238.768 45.48C238.768 46.7813 238.666 48.0623 238.463 49.323C238.26 50.543 238.056 51.6817 237.853 52.739C237.69 53.5117 237.568 54.2233 237.487 54.874C237.406 55.5247 237.365 56.1347 237.365 56.704C237.365 57.7207 237.609 58.4933 238.097 59.022C238.585 59.51 239.276 59.9777 240.171 60.425C240.537 60.6283 240.72 60.9333 240.72 61.34C240.72 61.6653 240.557 62.1737 240.232 62.865C239.907 63.5563 239.337 64.1867 238.524 64.756C237.751 65.3253 236.694 65.61 235.352 65.61ZM254.936 65.793C252.13 65.793 249.873 65.0407 248.165 63.536C246.498 61.9907 245.664 59.7337 245.664 56.765C245.664 55.3823 245.847 54.0403 246.213 52.739C246.62 51.4377 247.148 50.2177 247.799 49.079C247.148 49.4857 246.66 49.689 246.335 49.689C245.847 49.689 245.501 49.4247 245.298 48.896C245.135 48.3267 245.054 47.7777 245.054 47.249C245.054 46.3137 245.237 45.5817 245.603 45.053C246.01 44.4837 246.396 44.0567 246.762 43.772C247.616 43.04 248.958 42.247 250.788 41.393C252.618 40.4983 254.814 40.051 257.376 40.051C260.873 40.051 263.578 41.027 265.489 42.979C267.441 44.931 268.417 47.6557 268.417 51.153C268.417 53.8777 267.848 56.3583 266.709 58.595C265.57 60.791 263.984 62.5397 261.951 63.841C259.958 65.1423 257.62 65.793 254.936 65.793ZM256.827 59.571C258.86 59.571 260.568 58.9407 261.951 57.68C263.374 56.3787 264.086 54.6707 264.086 52.556C264.086 50.36 263.374 48.7943 261.951 47.859C260.528 46.9237 258.881 46.456 257.01 46.456C256.156 46.456 255.383 46.5373 254.692 46.7C254.001 46.8627 253.35 47.066 252.74 47.31C252.171 48.1233 251.662 49.0383 251.215 50.055C250.768 51.0717 250.544 52.19 250.544 53.41C250.544 55.4433 251.154 56.9887 252.374 58.046C253.594 59.0627 255.078 59.571 256.827 59.571ZM276.533 65.671C275.069 65.671 274.419 65.183 274.581 64.207C275.029 62.4583 275.395 60.6893 275.679 58.9C276.005 57.07 276.167 55.3213 276.167 53.654C276.167 51.4987 276.025 49.933 275.74 48.957C275.496 47.9403 275.151 47.249 274.703 46.883C274.256 46.4763 273.707 46.1713 273.056 45.968C272.772 45.846 272.507 45.6833 272.263 45.48C272.06 45.2767 271.958 44.992 271.958 44.626C271.958 44.0567 272.182 43.4263 272.629 42.735C273.077 42.0437 273.707 41.454 274.52 40.966C275.374 40.4373 276.33 40.173 277.387 40.173C278.77 40.173 279.726 40.661 280.254 41.637C280.783 42.5723 281.047 43.8127 281.047 45.358C281.047 46.3747 280.946 47.5133 280.742 48.774C280.539 50.0347 280.336 51.1733 280.132 52.19L280.315 52.251C281.129 50.0957 282.105 48.103 283.243 46.273C284.423 44.4023 285.785 42.8977 287.33 41.759C288.876 40.6203 290.665 40.051 292.698 40.051C294.854 40.051 296.501 40.7017 297.639 42.003C298.778 43.3043 299.347 44.931 299.347 46.883C299.347 47.6963 299.246 48.469 299.042 49.201C298.88 49.933 298.697 50.6447 298.493 51.336C298.29 51.9867 298.107 52.6577 297.944 53.349C297.822 54.0403 297.761 54.7317 297.761 55.423C297.761 57.741 298.859 59.3067 301.055 60.12C301.625 60.364 301.909 60.73 301.909 61.218C301.909 61.584 301.787 62.1127 301.543 62.804C301.299 63.4953 300.852 64.146 300.201 64.756C299.551 65.3253 298.595 65.61 297.334 65.61C295.708 65.61 294.447 65.0407 293.552 63.902C292.658 62.7227 292.21 61.2383 292.21 59.449C292.21 58.4323 292.312 57.4157 292.515 56.399C292.759 55.3417 293.003 54.3657 293.247 53.471C293.41 52.7797 293.552 52.1087 293.674 51.458C293.837 50.7667 293.918 50.1567 293.918 49.628C293.918 47.7573 292.942 46.822 290.99 46.822C289.323 46.822 287.859 47.4523 286.598 48.713C285.338 49.933 284.26 51.4783 283.365 53.349C282.471 55.2197 281.739 57.1107 281.169 59.022V60.486C281.169 61.9907 280.742 63.231 279.888 64.207C279.075 65.183 277.957 65.671 276.533 65.671Z" fill="#ACA885"/>
<path d="M104.244 64.878L102.741 68.585L104.244 64.878ZM101.133 62.316L104.684 60.4747L104.684 60.4747L101.133 62.316ZM100.462 55.972L104.425 56.5125L104.426 56.5009L104.428 56.4894L100.462 55.972ZM100.889 52.8L96.9411 52.154L96.933 52.2037L96.9261 52.2535L100.889 52.8ZM101.682 35.11L97.7014 35.508L97.707 35.5634L97.7141 35.6187L101.682 35.11ZM100.096 30.474L103.509 28.3882L103.468 28.3209L103.424 28.2552L100.096 30.474ZM99.6686 29.742L95.992 31.3177L96.0383 31.4257L96.0909 31.5309L99.6686 29.742ZM100.34 27.546L97.6178 24.6148L97.6178 24.6148L100.34 27.546ZM102.414 26.204L100.772 22.5563L100.772 22.5563L102.414 26.204ZM107.294 27.302L103.458 28.4383L103.478 28.503L103.499 28.5669L107.294 27.302ZM107.599 35.72L111.58 36.1084L111.581 36.0992L107.599 35.72ZM106.867 42.125L110.834 42.6369L110.835 42.629L110.836 42.6211L106.867 42.125ZM106.135 48.652L110.119 49.0062L110.119 49.0062L106.135 48.652ZM106.44 56.765L102.763 58.3407L102.809 58.4487L102.862 58.5539L106.44 56.765ZM108.392 58.473L109.759 54.7138L109.759 54.7138L108.392 58.473ZM117.176 58.534L117.882 62.4711L117.931 62.4623L117.979 62.4524L117.176 58.534ZM121.812 57.07L120.326 53.3561L120.275 53.3766L120.224 53.3986L121.812 57.07ZM123.825 57.497L120.59 59.8497L120.59 59.8497L123.825 57.497ZM121.385 63.597L119.537 60.0493L119.48 60.0791L119.424 60.1107L121.385 63.597ZM110.649 61.793C108.087 61.793 106.552 61.4975 105.746 61.171L102.741 68.585C104.945 69.4785 107.679 69.793 110.649 69.793V61.793ZM105.746 61.171C104.845 60.8054 104.693 60.4921 104.684 60.4747L97.5816 64.1573C98.7112 66.3359 100.633 67.7306 102.741 68.585L105.746 61.171ZM104.684 60.4747C104.467 60.0561 104.279 59.4129 104.279 58.412H96.2786C96.2786 60.4204 96.66 62.3799 97.5816 64.1573L104.684 60.4747ZM104.279 58.412C104.279 57.8967 104.322 57.2676 104.425 56.5125L96.4983 55.4315C96.3572 56.4658 96.2786 57.4633 96.2786 58.412H104.279ZM104.428 56.4894C104.548 55.5659 104.689 54.5185 104.851 53.3465L96.9261 52.2535C96.7624 53.4401 96.6187 54.5074 96.4952 55.4546L104.428 56.4894ZM104.836 53.446C105.593 48.8208 105.987 44.6327 105.987 40.905H97.9866C97.9866 44.0906 97.6482 47.8326 96.9411 52.154L104.836 53.446ZM105.987 40.905C105.987 38.5225 105.881 36.4101 105.649 34.6013L97.7141 35.6187C97.8888 36.9819 97.9866 38.7328 97.9866 40.905H105.987ZM105.662 34.712C105.436 32.4576 104.701 30.339 103.509 28.3882L96.6825 32.5598C97.2796 33.537 97.6015 34.5091 97.7014 35.508L105.662 34.712ZM103.424 28.2552C103.346 28.139 103.289 28.0382 103.246 27.9531L96.0909 31.5309C96.2923 31.9338 96.5195 32.321 96.7674 32.6928L103.424 28.2552ZM103.345 28.1663C103.334 28.1414 103.359 28.1939 103.39 28.3083C103.417 28.4069 103.486 28.6816 103.486 29.071H95.4856C95.4856 30.0685 95.8146 30.9038 95.992 31.3177L103.345 28.1663ZM103.486 29.071C103.486 29.6328 103.316 30.051 103.189 30.2782C103.073 30.4859 102.987 30.5464 103.061 30.4772L97.6178 24.6148C96.7041 25.4632 95.4856 26.9597 95.4856 29.071H103.486ZM103.061 30.4772C103.269 30.2847 103.581 30.0651 104.055 29.8517L100.772 22.5563C99.6198 23.0749 98.5491 23.75 97.6178 24.6148L103.061 30.4772ZM104.055 29.8517C104.463 29.6683 104.675 29.655 104.732 29.655V21.655C103.324 21.655 101.991 22.0077 100.772 22.5563L104.055 29.8517ZM104.732 29.655C104.925 29.655 104.658 29.6965 104.246 29.4315C104.035 29.296 103.846 29.1164 103.698 28.9102C103.555 28.7099 103.487 28.5359 103.458 28.4383L111.129 26.1656C110.731 24.823 109.909 23.5616 108.572 22.702C107.306 21.888 105.921 21.655 104.732 21.655V29.655ZM103.499 28.5669C103.663 29.0602 103.843 30.1221 103.843 31.999H111.843C111.843 29.8092 111.656 27.7398 111.088 26.0371L103.499 28.5669ZM103.843 31.999C103.843 32.5671 103.778 33.645 103.617 35.3408L111.581 36.0992C111.744 34.379 111.843 32.9762 111.843 31.999H103.843ZM103.617 35.3316C103.46 36.9489 103.221 39.0445 102.897 41.6289L110.836 42.6211C111.163 40.0002 111.412 37.8258 111.58 36.1084L103.617 35.3316ZM102.899 41.6131C102.57 44.1686 102.319 46.3996 102.15 48.2978L110.119 49.0062C110.275 47.2444 110.513 45.124 110.834 42.6369L102.899 41.6131ZM102.15 48.2978C101.983 50.1787 101.891 51.7756 101.891 53.044H109.891C109.891 52.1164 109.961 50.7853 110.119 49.0062L102.15 48.2978ZM101.891 53.044C101.891 54.8663 102.08 56.747 102.763 58.3407L110.116 55.1893C110.067 55.075 109.891 54.475 109.891 53.044H101.891ZM102.862 58.5539C103.749 60.3289 105.218 61.5752 107.025 62.2322L109.759 54.7138C109.729 54.7032 109.784 54.7191 109.867 54.7917C109.952 54.8666 110.001 54.9427 110.017 54.9761L102.862 58.5539ZM107.025 62.2322C108.561 62.7909 110.363 62.961 112.174 62.961V54.961C110.731 54.961 110.011 54.8058 109.759 54.7138L107.025 62.2322ZM112.174 62.961C114.139 62.961 116.044 62.801 117.882 62.4711L116.469 54.5969C115.135 54.8363 113.705 54.961 112.174 54.961V62.961ZM117.979 62.4524C119.838 62.0712 121.646 61.4997 123.399 60.7414L120.224 53.3986C118.968 53.9416 117.685 54.3461 116.372 54.6156L117.979 62.4524ZM123.297 60.7839C123.336 60.7685 123.358 60.7607 123.366 60.758C123.375 60.7552 123.362 60.7597 123.331 60.7676L121.39 53.0064C121.009 53.1018 120.65 53.2267 120.326 53.3561L123.297 60.7839ZM123.331 60.7676C123.285 60.7789 123.089 60.826 122.788 60.826V52.826C122.242 52.826 121.761 52.9137 121.39 53.0064L123.331 60.7676ZM122.788 60.826C121.319 60.826 120.617 59.8875 120.59 59.8497L127.06 55.1443C126.381 54.2118 124.988 52.826 122.788 52.826V60.826ZM120.59 59.8497C120.409 59.6013 120.34 59.3922 120.317 59.3048C120.297 59.2242 120.313 59.2387 120.313 59.388H128.313C128.313 58.1089 128.067 56.529 127.06 55.1443L120.59 59.8497ZM120.313 59.388C120.313 59.4675 120.302 59.4944 120.304 59.4881C120.307 59.4801 120.309 59.4802 120.297 59.498C120.269 59.5377 120.099 59.7564 119.537 60.0493L123.232 67.1447C126.144 65.6283 128.313 63.0381 128.313 59.388H120.313ZM119.424 60.1107C117.654 61.1061 114.847 61.793 110.649 61.793V69.793C115.559 69.793 119.91 69.0159 123.346 67.0833L119.424 60.1107ZM129.501 63.536L126.782 66.4697L126.819 66.5041L126.857 66.5374L129.501 63.536ZM127.549 52.739L123.731 51.5459L123.714 51.6007L123.698 51.656L127.549 52.739ZM129.135 49.079L132.608 51.0636L127.015 45.687L129.135 49.079ZM126.634 48.896L122.788 49.9949L122.837 50.1659L122.901 50.3319L126.634 48.896ZM126.939 45.053L123.684 42.728L123.667 42.752L123.65 42.7762L126.939 45.053ZM128.098 43.772L130.554 46.9294L130.629 46.871L130.701 46.809L128.098 43.772ZM132.124 41.393L133.815 45.0177L133.848 45.0024L133.881 44.9865L132.124 41.393ZM146.825 42.979L143.967 45.7775L143.982 45.7925L143.996 45.8074L146.825 42.979ZM148.045 58.595L151.596 60.4363L151.603 60.423L151.61 60.4097L148.045 58.595ZM143.287 63.841L141.131 60.4719L141.115 60.4818L141.1 60.4919L143.287 63.841ZM143.287 57.68L145.982 60.6358L145.986 60.6321L143.287 57.68ZM136.028 46.7L135.112 42.8063L135.112 42.8063L136.028 46.7ZM134.076 47.31L132.59 43.5961L131.483 44.039L130.799 45.0162L134.076 47.31ZM132.551 50.055L128.89 48.444L132.551 50.055ZM133.71 58.046L131.09 61.0688L131.119 61.0941L131.149 61.1189L133.71 58.046ZM136.272 61.793C134.204 61.793 132.963 61.2552 132.145 60.5346L126.857 66.5374C129.455 68.8261 132.728 69.793 136.272 69.793V61.793ZM132.22 60.6023C131.6 60.0275 131 58.9789 131 56.765H123C123 60.4885 124.067 63.9538 126.782 66.4697L132.22 60.6023ZM131 56.765C131 55.74 131.135 54.7628 131.4 53.822L123.698 51.656C123.231 53.3178 123 55.0246 123 56.765H131ZM131.367 53.9321C131.691 52.8954 132.106 51.9419 132.608 51.0636L125.662 47.0944C124.863 48.4934 124.22 49.98 123.731 51.5459L131.367 53.9321ZM127.015 45.687C126.8 45.8213 126.717 45.8548 126.742 45.8442C126.76 45.837 126.841 45.804 126.975 45.7703C127.105 45.7379 127.347 45.689 127.671 45.689V53.689C128.59 53.689 129.355 53.4223 129.819 53.2288C130.333 53.0148 130.819 52.7433 131.255 52.471L127.015 45.687ZM127.671 45.689C128.193 45.689 128.866 45.8476 129.475 46.3133C130.042 46.7465 130.282 47.2386 130.367 47.4601L122.901 50.3319C123.189 51.0821 123.704 51.9707 124.616 52.6682C125.571 53.3982 126.661 53.689 127.671 53.689V45.689ZM130.48 47.7971C130.407 47.5429 130.39 47.3645 130.39 47.249H122.39C122.39 48.1908 122.535 49.1104 122.788 49.9949L130.48 47.7971ZM130.39 47.249C130.39 47.1446 130.395 47.0701 130.4 47.022C130.406 46.9739 130.41 46.958 130.408 46.9686C130.402 46.9908 130.362 47.1356 130.228 47.3298L123.65 42.7762C122.654 44.2146 122.39 45.8527 122.39 47.249H130.39ZM130.194 47.378C130.326 47.1928 130.429 47.0679 130.5 46.9894C130.573 46.9089 130.592 46.8996 130.554 46.9294L125.642 40.6146C124.858 41.2245 124.213 41.9868 123.684 42.728L130.194 47.378ZM130.701 46.809C131.143 46.4303 132.098 45.8193 133.815 45.0177L130.432 37.7683C128.49 38.6747 126.761 39.6497 125.495 40.735L130.701 46.809ZM133.881 44.9865C135.041 44.4192 136.606 44.051 138.712 44.051V36.051C135.694 36.051 132.867 36.5775 130.367 37.7995L133.881 44.9865ZM138.712 44.051C141.451 44.051 143.004 44.7941 143.967 45.7775L149.683 40.1805C146.823 37.2599 142.968 36.051 138.712 36.051V44.051ZM143.996 45.8074C145.011 46.8221 145.753 48.4188 145.753 51.153H153.753C153.753 46.8925 152.543 43.0399 149.653 40.1506L143.996 45.8074ZM145.753 51.153C145.753 53.302 145.309 55.1529 144.48 56.7803L151.61 60.4097C153.058 57.5638 153.753 54.4533 153.753 51.153H145.753ZM144.494 56.7537C143.67 58.343 142.558 59.5584 141.131 60.4719L145.443 67.2101C148.082 65.521 150.143 63.239 151.596 60.4363L144.494 56.7537ZM141.1 60.4919C139.838 61.3158 138.282 61.793 136.272 61.793V69.793C139.63 69.793 142.75 68.9689 145.474 67.1901L141.1 60.4919ZM138.163 63.571C141.099 63.571 143.796 62.629 145.982 60.6358L140.592 54.7242C140.013 55.2523 139.293 55.571 138.163 55.571V63.571ZM145.986 60.6321C148.323 58.4951 149.422 55.6728 149.422 52.556H141.422C141.422 53.6686 141.097 54.2623 140.588 54.7279L145.986 60.6321ZM149.422 52.556C149.422 49.4515 148.355 46.4032 145.484 44.5162L141.09 51.2018C141.164 51.2504 141.2 51.2877 141.247 51.39C141.31 51.5301 141.422 51.8766 141.422 52.556H149.422ZM145.484 44.5162C143.344 43.1103 140.917 42.456 138.346 42.456V50.456C139.516 50.456 140.383 50.7371 141.09 51.2018L145.484 44.5162ZM138.346 42.456C137.243 42.456 136.157 42.5605 135.112 42.8063L136.944 50.5937C137.282 50.5142 137.74 50.456 138.346 50.456V42.456ZM135.112 42.8063C134.242 43.011 133.4 43.2724 132.59 43.5961L135.561 51.0239C135.972 50.8596 136.431 50.7143 136.944 50.5937L135.112 42.8063ZM130.799 45.0162C130.063 46.0675 129.43 47.2155 128.89 48.444L136.212 51.666C136.566 50.8611 136.95 50.1791 137.353 49.6038L130.799 45.0162ZM128.89 48.444C128.198 50.0164 127.88 51.6903 127.88 53.41H135.88C135.88 52.6897 136.009 52.1269 136.212 51.666L128.89 48.444ZM127.88 53.41C127.88 56.2787 128.775 59.0621 131.09 61.0688L136.33 55.0232C136.205 54.9152 135.88 54.6079 135.88 53.41H127.88ZM131.149 61.1189C133.162 62.7963 135.58 63.571 138.163 63.571V55.571C137.249 55.571 136.698 55.329 136.271 54.9731L131.149 61.1189ZM156.588 63.231L153.625 65.9183L153.658 65.9543L153.692 65.9896L156.588 63.231ZM156.161 47.798L159.677 49.7051L156.161 47.798ZM161.529 42.125L159.453 38.7058L159.453 38.7058L161.529 42.125ZM172.692 47.737L174.481 51.3147L174.528 51.2912L174.575 51.2664L172.692 47.737ZM170.435 47.737L173.472 45.1338L173.434 45.0895L173.395 45.0463L170.435 47.737ZM168.849 46.456L170.969 43.064L170.969 43.064L168.849 46.456ZM161.224 47.92L164.14 50.6587L164.16 50.637L164.18 50.615L161.224 47.92ZM161.041 58.046L163.965 55.3167L163.965 55.3167L161.041 58.046ZM168.727 59.388L169.826 63.2341L169.87 63.2217L169.913 63.2083L168.727 59.388ZM171.838 57.863L174.191 61.0979L174.367 60.9696L174.529 60.8228L171.838 57.863ZM172.448 62.621L169.758 59.6612L169.749 59.6692L169.74 59.6773L172.448 62.621ZM168.361 64.939L169.654 68.7244L169.68 68.7154L169.707 68.706L168.361 64.939ZM163.298 61.793C161.302 61.793 160.203 61.2269 159.485 60.4724L153.692 65.9896C156.226 68.6511 159.601 69.793 163.298 69.793V61.793ZM159.551 60.5437C158.817 59.7349 158.209 58.384 158.209 55.972H150.209C150.209 59.7414 151.187 63.2298 153.625 65.9183L159.551 60.5437ZM158.209 55.972C158.209 53.5085 158.729 51.4527 159.677 49.7051L152.645 45.8909C150.99 48.9419 150.209 52.3355 150.209 55.972H158.209ZM159.677 49.7051C160.65 47.9124 161.949 46.5499 163.605 45.5441L159.453 38.7058C156.555 40.4655 154.275 42.8849 152.645 45.8909L159.677 49.7051ZM163.605 45.5441C165.205 44.5731 167.057 44.051 169.276 44.051V36.051C165.72 36.051 162.409 36.9116 159.453 38.7058L163.605 45.5441ZM169.276 44.051C170.848 44.051 171.618 44.3232 171.928 44.5L175.897 37.554C173.929 36.4295 171.609 36.051 169.276 36.051V44.051ZM171.928 44.5C172.064 44.578 171.956 44.5492 171.819 44.3335C171.751 44.2277 171.697 44.1066 171.662 43.9813C171.627 43.858 171.62 43.7624 171.62 43.711H179.62C179.62 40.8936 178.055 38.7874 175.897 37.554L171.928 44.5ZM171.62 43.711C171.62 43.6418 171.629 43.5784 171.641 43.5273C171.653 43.4774 171.665 43.4546 171.662 43.4613C171.653 43.4803 171.577 43.6224 171.328 43.8716L176.985 49.5284C178.435 48.0777 179.62 46.1231 179.62 43.711H171.62ZM171.328 43.8716C171.328 43.8715 171.326 43.8738 171.321 43.8783C171.316 43.8827 171.308 43.8893 171.298 43.8978C171.278 43.915 171.247 43.9392 171.204 43.9696C171.116 44.0315 170.989 44.1123 170.81 44.2076L174.575 51.2664C175.424 50.8135 176.264 50.2491 176.985 49.5284L171.328 43.8716ZM170.903 44.1593C170.744 44.2391 170.687 44.255 170.717 44.2455C170.735 44.2397 170.796 44.2213 170.892 44.2035C170.988 44.186 171.145 44.164 171.35 44.164V52.164C172.646 52.164 173.79 51.6603 174.481 51.3147L170.903 44.1593ZM171.35 44.164C171.7 44.164 172.116 44.2355 172.539 44.4325C172.958 44.6283 173.266 44.8933 173.472 45.1338L167.398 50.3402C168.381 51.4866 169.784 52.164 171.35 52.164V44.164ZM173.395 45.0463C172.686 44.2665 171.851 43.6154 170.969 43.064L166.729 49.848C167.148 50.11 167.371 50.3129 167.475 50.4277L173.395 45.0463ZM170.969 43.064C169.428 42.1007 167.662 41.846 166.104 41.846V49.846C166.473 49.846 166.697 49.8787 166.807 49.9032C166.916 49.9274 166.864 49.9321 166.729 49.848L170.969 43.064ZM166.104 41.846C163.069 41.846 160.341 42.9521 158.268 45.225L164.18 50.615C164.629 50.1225 165.154 49.846 166.104 49.846V41.846ZM158.309 45.1813C156.221 47.404 155.333 50.2216 155.333 53.227H163.333C163.333 51.8404 163.706 51.12 164.14 50.6587L158.309 45.1813ZM155.333 53.227C155.333 56.0243 156.157 58.675 158.117 60.7753L163.965 55.3167C163.648 54.977 163.333 54.4151 163.333 53.227H155.333ZM158.117 60.7753C160.108 62.9081 162.724 63.876 165.555 63.876V55.876C164.645 55.876 164.252 55.6239 163.965 55.3167L158.117 60.7753ZM165.555 63.876C166.972 63.876 168.403 63.6406 169.826 63.2341L167.628 55.5419C166.774 55.7861 166.09 55.876 165.555 55.876V63.876ZM169.913 63.2083C171.462 62.7273 172.903 62.0344 174.191 61.0979L169.486 54.6281C168.984 54.9929 168.351 55.3167 167.542 55.5677L169.913 63.2083ZM174.529 60.8228C174.487 60.8608 174.354 60.9719 174.119 61.0738C173.873 61.1809 173.571 61.253 173.241 61.253V53.253C171.535 53.253 170.148 53.9942 169.148 54.9032L174.529 60.8228ZM173.241 61.253C172.765 61.253 171.774 61.06 171.033 60.133C170.723 59.7457 170.582 59.3751 170.52 59.1415C170.489 59.0243 170.475 58.9327 170.468 58.8748C170.461 58.8166 170.461 58.7828 170.461 58.778H178.461C178.461 57.8423 178.292 56.4003 177.28 55.1355C176.132 53.7002 174.531 53.253 173.241 53.253V61.253ZM170.461 58.778C170.461 58.7786 170.461 58.7778 170.461 58.7766C170.462 58.7755 170.461 58.7769 170.46 58.7817C170.458 58.7898 170.448 58.8248 170.415 58.8892C170.344 59.0244 170.166 59.2896 169.758 59.6612L175.139 65.5808C177.009 63.8808 178.461 61.603 178.461 58.778H170.461ZM169.74 59.6773C169.22 60.1553 168.369 60.6887 167.016 61.172L169.707 68.706C171.769 67.9693 173.643 66.9574 175.156 65.5647L169.74 59.6773ZM167.069 61.1536C165.804 61.5854 164.553 61.793 163.298 61.793V69.793C165.46 69.793 167.584 69.4313 169.654 68.7244L167.069 61.1536ZM180.643 63.536L177.739 66.287L177.777 66.3262L177.815 66.3644L180.643 63.536ZM179.606 50.909L175.892 49.4234L175.884 49.4431L175.877 49.4629L179.606 50.909ZM183.083 45.419L186.02 48.1352L186.02 48.1352L183.083 45.419ZM201.871 41.332L200.082 44.9097L200.133 44.935L200.184 44.9589L201.871 41.332ZM204.372 46.151L208.332 46.7167L208.335 46.6982L208.337 46.6797L204.372 46.151ZM204.067 47.554L207.813 48.9585L207.839 48.8892L207.862 48.8189L204.067 47.554ZM203.518 48.469L200.481 45.8658L200.463 45.8869L200.445 45.9083L203.518 48.469ZM201.749 48.652L202.802 44.7929L198.629 43.655L197.82 47.9035L201.749 48.652ZM201.383 51.153L205.363 51.551L205.363 51.551L201.383 51.153ZM201.932 57.741L198.177 59.118L198.205 59.1948L198.236 59.2704L201.932 57.741ZM204.738 59.937L205.606 56.0323L205.575 56.0255L205.545 56.0192L204.738 59.937ZM205.592 60.303L203.093 63.4265L203.229 63.5349L203.373 63.6312L205.592 60.303ZM205.592 63.048L201.82 61.7167L201.785 61.8172L201.755 61.9193L205.592 63.048ZM204.311 64.939L206.931 67.9618L206.938 67.9555L206.945 67.9493L204.311 64.939ZM197.967 64.024L194.727 66.37L194.747 66.3972L194.767 66.424L197.967 64.024ZM196.686 59.022H200.686L193.183 57.0916L196.686 59.022ZM192.477 63.902L190.102 60.6837L190.083 60.6974L190.065 60.7114L192.477 63.902ZM192.782 57.924L190.271 54.8103L190.246 54.8305L190.221 54.8511L192.782 57.924ZM195.71 54.081L192.074 52.4144L192.066 52.4309L192.059 52.4475L195.71 54.081ZM196.747 50.909L200.658 51.7471L200.661 51.7333L200.664 51.7194L196.747 50.909ZM197.235 47.432L201.225 47.717L201.421 44.9808L198.938 43.8127L197.235 47.432ZM194.856 46.639L195.743 42.7385L195.743 42.7385L194.856 46.639ZM185.889 48.53L183.213 45.5568L183.195 45.5737L183.176 45.5908L185.889 48.53ZM184.852 57.985L181.849 60.6275L181.876 60.658L181.904 60.6879L184.852 57.985ZM186.56 61.793C185.012 61.793 184.115 61.3506 183.472 60.7076L177.815 66.3644C180.181 68.7308 183.228 69.793 186.56 69.793V61.793ZM183.547 60.785C182.997 60.2047 182.447 59.1245 182.447 56.948H174.447C174.447 60.4648 175.361 63.7766 177.739 66.287L183.547 60.785ZM182.447 56.948C182.447 55.4343 182.733 53.9105 183.336 52.3551L175.877 49.4629C174.935 51.8928 174.447 54.3951 174.447 56.948H182.447ZM183.32 52.3946C183.95 50.821 184.843 49.407 186.02 48.1352L180.147 42.7028C178.314 44.6843 176.89 46.9303 175.892 49.4234L183.32 52.3946ZM186.02 48.1352C187.15 46.9128 188.525 45.9145 190.188 45.1468L186.836 37.8832C184.27 39.0675 182.026 40.6718 180.147 42.7028L186.02 48.1352ZM190.188 45.1468C191.711 44.4441 193.506 44.051 195.649 44.051V36.051C192.505 36.051 189.543 36.6338 186.836 37.8832L190.188 45.1468ZM195.649 44.051C197.636 44.051 199.062 44.3996 200.082 44.9097L203.66 37.7543C201.264 36.5564 198.543 36.051 195.649 36.051V44.051ZM200.184 44.9589C200.423 45.0699 200.568 45.162 200.647 45.22C200.724 45.2768 200.723 45.29 200.687 45.2444C200.648 45.194 200.591 45.1031 200.548 44.9779C200.505 44.8527 200.494 44.7476 200.494 44.687H208.494C208.494 41.148 206.128 38.9002 203.558 37.7051L200.184 44.9589ZM200.494 44.687C200.494 44.7975 200.479 45.0869 200.407 45.6223L208.337 46.6797C208.428 45.9951 208.494 45.3085 208.494 44.687H200.494ZM200.412 45.5853C200.35 46.0205 200.291 46.2321 200.272 46.2891L207.862 48.8189C208.087 48.1439 208.232 47.4201 208.332 46.7167L200.412 45.5853ZM200.322 46.1495C200.377 46.0035 200.445 45.9081 200.481 45.8658L206.555 51.0722C207.079 50.4606 207.514 49.7552 207.813 48.9585L200.322 46.1495ZM200.445 45.9083C200.737 45.5582 201.124 45.261 201.577 45.0669C202.014 44.8794 202.402 44.835 202.664 44.835V52.835C204.015 52.835 205.507 52.3303 206.591 51.0297L200.445 45.9083ZM202.664 44.835C202.766 44.835 202.848 44.8396 202.903 44.8439C202.96 44.8483 203.005 44.8535 203.033 44.8572C203.087 44.8642 203.112 44.8697 203.098 44.8669C203.087 44.8647 203.056 44.8583 203.003 44.8454C202.951 44.8327 202.885 44.8156 202.802 44.7929L200.697 52.5111C201.074 52.6138 201.883 52.835 202.664 52.835V44.835ZM197.82 47.9035C197.636 48.8663 197.497 49.817 197.403 50.755L205.363 51.551C205.432 50.8623 205.537 50.1457 205.679 49.4004L197.82 47.9035ZM197.403 50.755C197.309 51.6999 197.261 52.6461 197.261 53.593H205.261C205.261 52.9132 205.295 52.2327 205.363 51.551L197.403 50.755ZM197.261 53.593C197.261 55.5214 197.54 57.3823 198.177 59.118L205.688 56.364C205.43 55.6597 205.261 54.7553 205.261 53.593H197.261ZM198.236 59.2704C199.292 61.8211 201.411 63.3359 203.932 63.8548L205.545 56.0192C205.443 55.9982 205.397 55.9788 205.392 55.9765C205.389 55.9751 205.419 55.9881 205.465 56.0245C205.512 56.0616 205.556 56.1068 205.59 56.1526C205.623 56.197 205.633 56.2224 205.628 56.2116L198.236 59.2704ZM203.87 63.8417C203.86 63.8393 203.778 63.8208 203.651 63.7661C203.522 63.7111 203.32 63.608 203.093 63.4265L208.091 57.1795C207.248 56.5052 206.325 56.192 205.606 56.0323L203.87 63.8417ZM203.373 63.6312C202.612 63.1234 202.249 62.4517 202.095 62.0155C201.954 61.6169 201.958 61.3462 201.958 61.34H209.958C209.958 60.521 209.822 58.3154 207.811 56.9748L203.373 63.6312ZM201.958 61.34C201.958 61.2124 201.974 61.1776 201.956 61.2644C201.938 61.3456 201.899 61.4931 201.82 61.7167L209.364 64.3793C209.675 63.4973 209.958 62.4379 209.958 61.34H201.958ZM201.755 61.9193C201.765 61.8855 201.776 61.8563 201.787 61.8332C201.798 61.8103 201.806 61.7978 201.808 61.7959C201.81 61.7921 201.779 61.8397 201.677 61.9287L206.945 67.9493C208.052 66.9807 208.973 65.731 209.43 64.1767L201.755 61.9193ZM201.691 61.9162C201.782 61.8378 201.867 61.7831 201.935 61.7473C202.002 61.7122 202.044 61.6992 202.049 61.6977C202.054 61.6964 202.024 61.7054 201.953 61.7145C201.881 61.7237 201.774 61.732 201.627 61.732V69.732C203.335 69.732 205.322 69.3563 206.931 67.9618L201.691 61.9162ZM201.627 61.732C201.47 61.732 201.364 61.7178 201.302 61.7051C201.241 61.6928 201.216 61.681 201.214 61.6803C201.213 61.6795 201.214 61.6799 201.216 61.6814C201.218 61.6829 201.22 61.6839 201.219 61.6835C201.219 61.6831 201.214 61.6794 201.206 61.6709C201.198 61.6622 201.185 61.6473 201.167 61.624L194.767 66.424C196.471 68.6953 198.948 69.732 201.627 69.732V61.732ZM201.207 61.678C201.033 61.4379 200.686 60.7198 200.686 59.022H192.686C192.686 61.6349 193.193 64.2514 194.727 66.37L201.207 61.678ZM193.183 57.0916C192.343 58.6155 191.313 59.7901 190.102 60.6837L194.853 67.1203C197.058 65.4926 198.833 63.4138 200.19 60.9524L193.183 57.0916ZM190.065 60.7114C189.155 61.3991 188.049 61.793 186.56 61.793V69.793C189.626 69.793 192.465 68.9262 194.89 67.0926L190.065 60.7114ZM188.512 63.449C191.05 63.449 193.385 62.6283 195.343 60.9969L190.221 54.8511C189.739 55.253 189.228 55.449 188.512 55.449V63.449ZM195.293 61.0377C197.068 59.6064 198.424 57.8094 199.361 55.7145L192.059 52.4475C191.613 53.4433 191.018 54.2083 190.271 54.8103L195.293 61.0377ZM199.346 55.7476C199.925 54.485 200.358 53.1473 200.658 51.7471L192.836 50.0709C192.648 50.948 192.39 51.725 192.074 52.4144L199.346 55.7476ZM200.664 51.7194C200.942 50.3762 201.13 49.0416 201.225 47.717L193.245 47.147C193.177 48.0998 193.04 49.0832 192.83 50.0986L200.664 51.7194ZM198.938 43.8127C197.94 43.3428 196.865 42.9935 195.743 42.7385L193.97 50.5395C194.637 50.6912 195.148 50.8705 195.532 51.0513L198.938 43.8127ZM195.743 42.7385C194.539 42.465 193.306 42.334 192.05 42.334V50.334C192.747 50.334 193.384 50.4064 193.97 50.5395L195.743 42.7385ZM192.05 42.334C188.723 42.334 185.673 43.3429 183.213 45.5568L188.565 51.5032C189.358 50.7891 190.416 50.334 192.05 50.334V42.334ZM183.176 45.5908C180.754 47.8269 179.51 50.7297 179.51 54.02H187.51C187.51 52.9183 187.853 52.1611 188.602 51.4692L183.176 45.5908ZM179.51 54.02C179.51 56.414 180.188 58.7398 181.849 60.6275L187.855 55.3425C187.727 55.1968 187.51 54.8793 187.51 54.02H179.51ZM181.904 60.6879C183.684 62.6305 186.051 63.449 188.512 63.449V55.449C188.16 55.449 187.986 55.3939 187.924 55.3691C187.876 55.3498 187.846 55.3311 187.801 55.2821L181.904 60.6879ZM213.273 63.353L209.894 65.4952L209.925 65.5435L209.957 65.5909L213.273 63.353ZM211.809 54.203L207.845 53.6625L207.833 53.7515L207.825 53.8409L211.809 54.203ZM212.541 48.896L216.5 49.4617L216.5 49.4617L212.541 48.896ZM212.846 46.456L216.824 46.8747L217.444 40.9821L211.747 42.6099L212.846 46.456ZM209.979 42.918L213.363 45.0493L213.381 45.0217L213.398 44.9939L209.979 42.918ZM212.541 39.563L209.659 36.7884L209.632 36.8166L209.605 36.8454L212.541 39.563ZM215.652 36.818L217.989 40.0641L218 40.0559L218.012 40.0476L215.652 36.818ZM219.556 39.258L215.62 38.5425L215.591 38.7003L215.575 38.86L219.556 39.258ZM219.373 40.539L215.437 39.8235L214.372 45.6794L220.197 44.4532L219.373 40.539ZM221.691 40.112L221.097 36.1563L221.082 36.1585L221.067 36.1609L221.691 40.112ZM226.144 40.417L223.925 43.7452L223.985 43.7855L224.047 43.8236L226.144 40.417ZM226.205 45.236L222.627 43.4471L222.596 43.5078L222.568 43.5694L226.205 45.236ZM224.07 46.639L224.635 42.6792L224.635 42.6792L224.07 46.639ZM223.033 46.456L222.133 50.3536L222.19 50.3668L222.248 50.3783L223.033 46.456ZM221.02 46.09L220.426 50.0457L220.426 50.0457L221.02 46.09ZM218.092 45.907V41.907H214.894L214.19 45.026L218.092 45.907ZM217.299 49.811L213.363 49.0955L213.354 49.1444L213.346 49.1935L217.299 49.811ZM225.351 59.815L222.747 62.852L222.882 62.9671L223.026 63.0699L225.351 59.815ZM223.704 64.39L221.462 61.0769L221.462 61.0769L223.704 64.39ZM218.641 61.793C217.094 61.793 216.745 61.3484 216.588 61.1151L209.957 65.5909C211.996 68.6109 215.226 69.793 218.641 69.793V61.793ZM216.651 61.2108C216.11 60.3581 215.687 59.0284 215.687 56.948H207.687C207.687 60.0729 208.321 63.0132 209.894 65.4952L216.651 61.2108ZM215.687 56.948C215.687 56.1286 215.722 55.3346 215.792 54.5651L207.825 53.8409C207.732 54.8607 207.687 55.8967 207.687 56.948H215.687ZM215.772 54.7435C215.894 53.8488 216.016 52.9541 216.138 52.0595L208.211 50.9785C208.089 51.8732 207.967 52.7679 207.845 53.6625L215.772 54.7435ZM216.138 52.0595C216.259 51.1728 216.38 50.3069 216.5 49.4617L208.581 48.3303C208.457 49.1931 208.334 50.0759 208.211 50.9785L216.138 52.0595ZM216.5 49.4617C216.629 48.5641 216.736 47.7015 216.824 46.8747L208.867 46.0373C208.792 46.7558 208.696 47.5199 208.581 48.3303L216.5 49.4617ZM211.747 42.6099C211.236 42.7559 210.751 42.822 210.284 42.822V50.822C211.524 50.822 212.747 50.6441 213.944 50.3021L211.747 42.6099ZM210.284 42.822C210.319 42.822 210.492 42.8243 210.749 42.8943C211.015 42.9668 211.408 43.123 211.81 43.4517C212.754 44.2241 212.942 45.2379 212.942 45.724H204.942C204.942 46.9421 205.353 48.5049 206.744 49.6433C207.982 50.656 209.393 50.822 210.284 50.822V42.822ZM212.942 45.724C212.942 45.926 212.899 45.976 212.953 45.8296C213.006 45.6864 213.124 45.4295 213.363 45.0493L206.594 40.7867C205.744 42.1368 204.942 43.8433 204.942 45.724H212.942ZM213.398 44.9939C213.934 44.111 214.619 43.2053 215.476 42.2806L209.605 36.8454C208.428 38.1167 207.406 39.4477 206.559 40.8421L213.398 44.9939ZM215.422 42.3376C216.347 41.377 217.204 40.6293 217.989 40.0641L213.314 33.5719C212.066 34.4707 210.849 35.553 209.659 36.7884L215.422 42.3376ZM218.012 40.0476C218.376 39.7813 218.603 39.6635 218.701 39.621C218.805 39.5762 218.663 39.659 218.336 39.659V31.659C216.312 31.659 214.558 32.6625 213.291 33.5884L218.012 40.0476ZM218.336 39.659C217.969 39.659 217.455 39.5745 216.927 39.2704C216.398 38.966 216.066 38.5629 215.88 38.2426C215.709 37.9474 215.669 37.7367 215.666 37.7208C215.662 37.698 215.678 37.7719 215.678 37.977H223.678C223.678 36.9494 223.552 35.5266 222.804 34.2344C221.863 32.6096 220.207 31.659 218.336 31.659V39.659ZM215.678 37.977C215.678 38.1175 215.663 38.304 215.62 38.5425L223.491 39.9735C223.61 39.3173 223.678 38.6498 223.678 37.977H215.678ZM215.575 38.86C215.546 39.1492 215.501 39.4698 215.437 39.8235L223.308 41.2545C223.406 40.7135 223.483 40.1801 223.536 39.656L215.575 38.86ZM220.197 44.4532C220.903 44.3044 221.609 44.1744 222.314 44.0631L221.067 36.1609C220.226 36.2936 219.387 36.4483 218.548 36.6248L220.197 44.4532ZM222.284 44.0677C222.924 43.9717 223.498 43.929 224.009 43.929V35.929C223.055 35.929 222.083 36.0083 221.097 36.1563L222.284 44.0677ZM224.009 43.929C224.128 43.929 224.215 43.9342 224.275 43.9401C224.335 43.9461 224.359 43.9519 224.352 43.9504C224.346 43.949 224.17 43.9089 223.925 43.7452L228.362 37.0888C226.933 36.1359 225.304 35.929 224.009 35.929V43.929ZM224.047 43.8236C223.527 43.5037 223.206 43.0548 223.049 42.6807C222.916 42.3612 222.937 42.1881 222.937 42.308H230.937C230.937 40.7385 230.477 38.3869 228.24 37.0104L224.047 43.8236ZM222.937 42.308C222.937 42.5929 222.87 42.9603 222.627 43.4471L229.782 47.0249C230.515 45.5597 230.937 43.9751 230.937 42.308H222.937ZM222.568 43.5694C222.456 43.8151 222.471 43.6856 222.718 43.4484C223.022 43.1563 223.699 42.7 224.68 42.7V50.7C227.851 50.7 229.33 48.0179 229.841 46.9026L222.568 43.5694ZM224.68 42.7C224.719 42.7 224.751 42.7008 224.773 42.7016C224.795 42.7024 224.812 42.7033 224.822 42.704C224.842 42.7052 224.847 42.7059 224.834 42.7046C224.821 42.7034 224.799 42.7009 224.764 42.6966C224.73 42.6923 224.687 42.6866 224.635 42.6792L223.504 50.5988C223.793 50.6401 224.246 50.7 224.68 50.7V42.7ZM224.635 42.6792C224.448 42.6524 224.18 42.6062 223.817 42.5337L222.248 50.3783C222.699 50.4684 223.122 50.5442 223.504 50.5988L224.635 42.6792ZM223.932 42.5584C223.265 42.4045 222.482 42.2647 221.613 42.1343L220.426 50.0457C221.183 50.1593 221.743 50.2635 222.133 50.3536L223.932 42.5584ZM221.613 42.1343C220.545 41.974 219.359 41.907 218.092 41.907V49.907C219.101 49.907 219.868 49.962 220.426 50.0457L221.613 42.1343ZM214.19 45.026C213.892 46.3445 213.617 47.7011 213.363 49.0955L221.234 50.5265C221.468 49.2369 221.722 47.9909 221.993 46.788L214.19 45.026ZM213.346 49.1935C213.119 50.6518 212.994 52.0419 212.994 53.349H220.994C220.994 52.5414 221.072 51.5729 221.251 50.4285L213.346 49.1935ZM212.994 53.349C212.994 56.1876 213.685 59.43 216.416 61.4078L221.109 54.9282C221.27 55.0449 221.261 55.1345 221.191 54.9443C221.107 54.715 220.994 54.2233 220.994 53.349H212.994ZM216.416 61.4078C218.556 62.9569 221.231 63.449 223.887 63.449V55.449C222.069 55.449 221.328 55.0871 221.109 54.9282L216.416 61.4078ZM223.887 63.449C224.018 63.449 223.967 63.4627 223.801 63.4211C223.639 63.3805 223.209 63.248 222.747 62.852L227.954 56.778C226.543 55.5685 224.82 55.449 223.887 55.449V63.449ZM223.026 63.0699C222.406 62.6272 222.073 62.0638 221.917 61.6401C221.776 61.2565 221.778 60.9936 221.778 60.974H229.778C229.778 59.9315 229.536 57.8889 227.675 56.5601L223.026 63.0699ZM221.778 60.974C221.778 60.9619 221.78 60.9226 221.795 60.8685C221.81 60.8143 221.829 60.7757 221.84 60.7586C221.859 60.7274 221.794 60.8527 221.462 61.0769L225.945 67.7031C228.123 66.2293 229.778 63.9728 229.778 60.974H221.778ZM221.462 61.0769C220.861 61.4837 219.992 61.793 218.641 61.793V69.793C221.275 69.793 223.781 69.1669 225.945 67.7031L221.462 61.0769ZM235.291 34.683L235.148 38.6805L235.22 38.683H235.291V34.683ZM232.546 33.646L229.805 36.5588L229.805 36.5588L232.546 33.646ZM231.509 30.901L227.511 30.772L227.509 30.8365V30.901H231.509ZM232.79 27.851L235.545 30.751L235.582 30.7157L235.619 30.6794L232.79 27.851ZM235.901 26.692L236.039 22.6944L236.03 22.6941L235.901 26.692ZM238.646 27.729L235.818 30.5574L235.861 30.6003L235.905 30.6418L238.646 27.729ZM239.622 30.474L235.624 30.3361L235.624 30.3407L239.622 30.474ZM238.402 33.524L241.231 36.3524L241.267 36.3162L241.302 36.279L238.402 33.524ZM232.485 64.634L229.657 67.4624L229.7 67.5053L229.744 67.5468L232.485 64.634ZM231.692 58.412L227.792 57.5255L227.772 57.6106L227.757 57.6965L231.692 58.412ZM232.363 55.789L228.551 54.5762L228.533 54.6329L228.517 54.6901L232.363 55.789ZM233.034 53.044L229.125 52.1943L229.108 52.2761L229.093 52.3586L233.034 53.044ZM233.034 47.981L229.197 49.1097L229.206 49.142L229.216 49.1741L233.034 47.981ZM231.692 46.456L229.796 49.9779L229.891 50.0292L229.989 50.0753L231.692 46.456ZM230.289 45.602L227.632 48.5916L227.805 48.7458L227.995 48.8789L230.289 45.602ZM230.533 42.552L227.429 40.0296L227.429 40.0296L230.533 42.552ZM232.607 40.905L234.463 44.4483L234.493 44.4327L234.523 44.4166L232.607 40.905ZM237.548 40.966L234.495 43.5498L234.55 43.6157L234.609 43.6791L237.548 40.966ZM238.524 42.979L242.446 42.1945L242.446 42.1945L238.524 42.979ZM238.463 49.323L242.409 49.9806L242.41 49.9703L242.412 49.9599L238.463 49.323ZM237.853 52.739L241.767 53.563L241.775 53.5288L241.781 53.4944L237.853 52.739ZM238.097 59.022L235.158 61.7351L235.212 61.7939L235.269 61.8504L238.097 59.022ZM240.171 60.425L242.114 56.9284L242.038 56.8862L241.96 56.8473L240.171 60.425ZM240.232 62.865L243.851 64.5682L243.851 64.5682L240.232 62.865ZM238.524 64.756L236.23 61.4791L236.19 61.5069L236.151 61.5358L238.524 64.756ZM235.434 30.6855C235.229 30.6782 235.154 30.6475 235.164 30.6514C235.169 30.6532 235.188 30.661 235.215 30.6776C235.242 30.6943 235.267 30.7138 235.288 30.7332L229.805 36.5588C231.338 38.0015 233.244 38.6124 235.148 38.6805L235.434 30.6855ZM235.288 30.7332C235.336 30.7792 235.385 30.8358 235.427 30.8996C235.469 30.9631 235.496 31.0191 235.51 31.0581C235.539 31.1347 235.509 31.1044 235.509 30.901H227.509C227.509 32.8977 228.124 34.9766 229.805 36.5588L235.288 30.7332ZM235.507 31.03C235.51 30.9229 235.521 30.8501 235.53 30.8059C235.539 30.7625 235.547 30.7435 235.548 30.7419C235.548 30.741 235.546 30.747 235.54 30.755C235.535 30.7629 235.534 30.7616 235.545 30.751L230.035 24.951C228.362 26.5406 227.581 28.6026 227.511 30.772L235.507 31.03ZM235.619 30.6794C235.632 30.6659 235.632 30.6683 235.618 30.6774C235.604 30.6867 235.587 30.6947 235.574 30.6996C235.562 30.7042 235.565 30.7011 235.593 30.697C235.621 30.6928 235.679 30.6869 235.772 30.6899L236.03 22.6941C233.783 22.6216 231.637 23.3473 229.962 25.0226L235.619 30.6794ZM235.763 30.6896C236.004 30.6979 236.084 30.7332 236.058 30.7236C236.044 30.7183 236.009 30.7033 235.961 30.6728C235.913 30.642 235.863 30.6029 235.818 30.5574L241.475 24.9006C239.922 23.3482 237.935 22.7597 236.039 22.6944L235.763 30.6896ZM235.905 30.6418C235.848 30.5889 235.791 30.5223 235.741 30.445C235.691 30.368 235.659 30.2973 235.64 30.2433C235.602 30.137 235.631 30.144 235.624 30.3361L243.62 30.6118C243.69 28.5843 243.115 26.4415 241.388 24.8162L235.905 30.6418ZM235.624 30.3407C235.613 30.6753 235.539 30.7306 235.502 30.769L241.302 36.279C242.811 34.6907 243.55 32.7127 243.62 30.6073L235.624 30.3407ZM235.574 30.6956C235.581 30.6886 235.595 30.6757 235.616 30.6627C235.636 30.6497 235.649 30.6446 235.648 30.6449C235.648 30.6452 235.547 30.683 235.291 30.683V38.683C237.436 38.683 239.567 38.0161 241.231 36.3524L235.574 30.6956ZM235.352 61.61C235.092 61.61 234.996 61.5748 235.009 61.5794C235.018 61.5822 235.048 61.5937 235.092 61.6198C235.137 61.6464 235.184 61.6808 235.227 61.7212L229.744 67.5468C231.371 69.078 233.414 69.61 235.352 69.61V61.61ZM235.314 61.8056C235.536 62.0282 235.568 62.1948 235.541 62.103C235.509 61.9972 235.448 61.7074 235.448 61.157H227.448C227.448 63.1782 227.848 65.6539 229.657 67.4624L235.314 61.8056ZM235.448 61.157C235.448 60.4548 235.509 59.7795 235.628 59.1275L227.757 57.6965C227.55 58.8339 227.448 59.9886 227.448 61.157H235.448ZM235.593 59.2985C235.78 58.4728 235.986 57.6693 236.209 56.8879L228.517 54.6901C228.252 55.6167 228.011 56.5619 227.792 57.5255L235.593 59.2985ZM236.175 57.0018C236.515 55.9325 236.782 54.8412 236.975 53.7294L229.093 52.3586C228.961 53.1174 228.781 53.8561 228.551 54.5762L236.175 57.0018ZM236.943 53.8937C237.213 52.6519 237.339 51.3687 237.339 50.055H229.339C229.339 50.856 229.262 51.5654 229.125 52.1943L236.943 53.8937ZM237.339 50.055C237.339 48.9482 237.185 47.8522 236.852 46.7879L229.216 49.1741C229.29 49.4111 229.339 49.6978 229.339 50.055H237.339ZM236.872 46.8523C236.324 44.9912 235.051 43.6158 233.395 42.8367L229.989 50.0753C229.903 50.0347 229.725 49.9304 229.543 49.7238C229.357 49.5124 229.249 49.2868 229.197 49.1097L236.872 46.8523ZM233.589 42.9341C233.17 42.7086 232.839 42.5042 232.583 42.3251L227.995 48.8789C228.553 49.2691 229.157 49.6341 229.796 49.9779L233.589 42.9341ZM232.947 42.6124C233.143 42.7872 233.363 43.0522 233.525 43.4115C233.687 43.7713 233.74 44.114 233.74 44.382H225.74C225.74 46.0171 226.415 47.5103 227.632 48.5916L232.947 42.6124ZM233.74 44.382C233.74 44.7284 233.658 44.9742 233.609 45.0879C233.564 45.1919 233.546 45.1865 233.638 45.0744L227.429 40.0296C226.585 41.0676 225.74 42.5474 225.74 44.382H233.74ZM233.638 45.0744C233.776 44.9038 234.019 44.6812 234.463 44.4483L230.751 37.3617C229.488 38.0235 228.347 38.8989 227.429 40.0296L233.638 45.0744ZM234.523 44.4166C234.884 44.2196 235.145 44.173 235.352 44.173V36.173C233.689 36.173 232.12 36.6144 230.692 37.3934L234.523 44.4166ZM235.352 44.173C235.531 44.173 235.485 44.1985 235.305 44.1335C235.096 44.0579 234.777 43.8835 234.495 43.5498L240.602 38.3822C239.093 36.5993 236.982 36.173 235.352 36.173V44.173ZM234.609 43.6791C234.595 43.6635 234.582 43.6479 234.573 43.6338C234.568 43.6271 234.565 43.6214 234.562 43.6173C234.561 43.6152 234.56 43.6136 234.56 43.6125C234.559 43.6114 234.559 43.6108 234.559 43.6108C234.559 43.6109 234.559 43.6115 234.56 43.6128C234.56 43.6141 234.561 43.6161 234.562 43.6188C234.564 43.6243 234.568 43.6329 234.572 43.645C234.58 43.6692 234.591 43.7078 234.602 43.7635L242.446 42.1945C242.162 40.7724 241.546 39.4002 240.487 38.2529L234.609 43.6791ZM234.602 43.7635C234.711 44.311 234.768 44.8816 234.768 45.48H242.768C242.768 44.3704 242.662 43.2737 242.446 42.1945L234.602 43.7635ZM234.768 45.48C234.768 46.5721 234.683 47.64 234.514 48.6861L242.412 49.9599C242.65 48.4847 242.768 46.9906 242.768 45.48H234.768ZM234.518 48.6654C234.319 49.8574 234.121 50.9631 233.925 51.9836L241.781 53.4944C241.992 52.4002 242.201 51.2286 242.409 49.9806L234.518 48.6654ZM233.939 51.915C233.758 52.7751 233.616 53.5977 233.518 54.3779L241.456 55.3701C241.521 54.8489 241.623 54.2483 241.767 53.563L233.939 51.915ZM233.518 54.3779C233.419 55.169 233.365 55.9462 233.365 56.704H241.365C241.365 56.3232 241.392 55.8803 241.456 55.3701L233.518 54.3779ZM233.365 56.704C233.365 58.3111 233.751 60.2106 235.158 61.7351L241.036 56.3089C241.239 56.5286 241.33 56.7378 241.362 56.8415C241.39 56.9293 241.365 56.903 241.365 56.704H233.365ZM235.269 61.8504C236.164 62.7457 237.26 63.4416 238.382 64.0027L241.96 56.8473C241.293 56.5137 241.006 56.2743 240.926 56.1936L235.269 61.8504ZM238.229 63.9216C237.908 63.7433 237.482 63.4124 237.153 62.8642C236.82 62.3101 236.72 61.7557 236.72 61.34H244.72C244.72 60.5176 244.528 59.6074 244.013 58.7483C243.501 57.8951 242.801 57.31 242.114 56.9284L238.229 63.9216ZM236.72 61.34C236.72 61.2157 236.728 61.1126 236.736 61.0348C236.745 60.9566 236.755 60.895 236.764 60.8523C236.78 60.7704 236.793 60.7319 236.788 60.7461C236.785 60.758 236.771 60.7992 236.74 60.8736C236.711 60.947 236.669 61.0424 236.613 61.1618L243.851 64.5682C244.177 63.8765 244.72 62.6457 244.72 61.34H236.72ZM236.613 61.1618C236.661 61.0603 236.639 61.193 236.23 61.4791L240.818 68.0329C242.036 67.1803 243.153 66.0524 243.851 64.5682L236.613 61.1618ZM236.151 61.5358C236.292 61.4322 236.172 61.61 235.352 61.61V69.61C237.217 69.61 239.211 69.2185 240.897 67.9762L236.151 61.5358ZM248.165 63.536L245.446 66.4697L245.483 66.5041L245.521 66.5374L248.165 63.536ZM246.213 52.739L242.395 51.5459L242.378 51.6007L242.362 51.656L246.213 52.739ZM247.799 49.079L251.272 51.0636L245.679 45.687L247.799 49.079ZM245.298 48.896L241.452 49.9949L241.501 50.1659L241.565 50.3319L245.298 48.896ZM245.603 45.053L242.348 42.728L242.331 42.752L242.314 42.7762L245.603 45.053ZM246.762 43.772L249.218 46.9294L249.293 46.871L249.365 46.809L246.762 43.772ZM250.788 41.393L252.48 45.0177L252.512 45.0024L252.545 44.9865L250.788 41.393ZM265.489 42.979L262.631 45.7775L262.646 45.7925L262.661 45.8074L265.489 42.979ZM266.709 58.595L270.26 60.4363L270.267 60.423L270.274 60.4097L266.709 58.595ZM261.951 63.841L259.795 60.4719L259.779 60.4818L259.764 60.4919L261.951 63.841ZM261.951 57.68L264.646 60.6358L264.65 60.6321L261.951 57.68ZM254.692 46.7L253.776 42.8063L253.776 42.8063L254.692 46.7ZM252.74 47.31L251.254 43.5961L250.147 44.039L249.463 45.0162L252.74 47.31ZM251.215 50.055L247.554 48.444L251.215 50.055ZM252.374 58.046L249.754 61.0688L249.784 61.0941L249.813 61.1189L252.374 58.046ZM254.936 61.793C252.868 61.793 251.627 61.2552 250.809 60.5346L245.521 66.5374C248.119 68.8261 251.392 69.793 254.936 69.793V61.793ZM250.884 60.6023C250.264 60.0275 249.664 58.9789 249.664 56.765H241.664C241.664 60.4885 242.731 63.9538 245.446 66.4697L250.884 60.6023ZM249.664 56.765C249.664 55.74 249.799 54.7628 250.064 53.822L242.362 51.656C241.895 53.3178 241.664 55.0246 241.664 56.765H249.664ZM250.031 53.9321C250.355 52.8954 250.77 51.9419 251.272 51.0636L244.326 47.0944C243.527 48.4934 242.884 49.98 242.395 51.5459L250.031 53.9321ZM245.679 45.687C245.464 45.8213 245.381 45.8548 245.407 45.8442C245.424 45.837 245.505 45.804 245.639 45.7703C245.769 45.7379 246.011 45.689 246.335 45.689V53.689C247.254 53.689 248.019 53.4223 248.483 53.2288C248.997 53.0148 249.483 52.7433 249.919 52.471L245.679 45.687ZM246.335 45.689C246.857 45.689 247.531 45.8476 248.14 46.3133C248.706 46.7465 248.946 47.2386 249.031 47.4601L241.565 50.3319C241.853 51.0821 242.368 51.9707 243.28 52.6682C244.235 53.3982 245.325 53.689 246.335 53.689V45.689ZM249.144 47.7971C249.071 47.5429 249.054 47.3645 249.054 47.249H241.054C241.054 48.1908 241.199 49.1104 241.452 49.9949L249.144 47.7971ZM249.054 47.249C249.054 47.1446 249.059 47.0701 249.064 47.022C249.07 46.9739 249.074 46.958 249.072 46.9686C249.066 46.9908 249.026 47.1356 248.892 47.3298L242.314 42.7762C241.318 44.2146 241.054 45.8527 241.054 47.249H249.054ZM248.858 47.378C248.99 47.1928 249.093 47.0679 249.164 46.9894C249.237 46.9089 249.256 46.8996 249.218 46.9294L244.306 40.6146C243.522 41.2245 242.877 41.9868 242.348 42.728L248.858 47.378ZM249.365 46.809C249.807 46.4303 250.762 45.8193 252.48 45.0177L249.096 37.7683C247.154 38.6747 245.425 39.6497 244.159 40.735L249.365 46.809ZM252.545 44.9865C253.705 44.4192 255.27 44.051 257.376 44.051V36.051C254.358 36.051 251.531 36.5775 249.031 37.7995L252.545 44.9865ZM257.376 44.051C260.115 44.051 261.668 44.7941 262.631 45.7775L268.347 40.1805C265.487 37.2599 261.632 36.051 257.376 36.051V44.051ZM262.661 45.8074C263.675 46.8221 264.417 48.4188 264.417 51.153H272.417C272.417 46.8925 271.207 43.0399 268.317 40.1506L262.661 45.8074ZM264.417 51.153C264.417 53.302 263.973 55.1529 263.144 56.7803L270.274 60.4097C271.722 57.5638 272.417 54.4533 272.417 51.153H264.417ZM263.158 56.7537C262.334 58.343 261.222 59.5584 259.795 60.4719L264.107 67.2101C266.746 65.521 268.807 63.239 270.26 60.4363L263.158 56.7537ZM259.764 60.4919C258.502 61.3158 256.946 61.793 254.936 61.793V69.793C258.294 69.793 261.414 68.9689 264.138 67.1901L259.764 60.4919ZM256.827 63.571C259.763 63.571 262.46 62.629 264.646 60.6358L259.256 54.7242C258.677 55.2523 257.957 55.571 256.827 55.571V63.571ZM264.65 60.6321C266.987 58.4951 268.086 55.6728 268.086 52.556H260.086C260.086 53.6686 259.761 54.2623 259.252 54.7279L264.65 60.6321ZM268.086 52.556C268.086 49.4515 267.019 46.4032 264.148 44.5162L259.754 51.2018C259.828 51.2504 259.864 51.2877 259.911 51.39C259.974 51.5301 260.086 51.8766 260.086 52.556H268.086ZM264.148 44.5162C262.008 43.1103 259.581 42.456 257.01 42.456V50.456C258.18 50.456 259.047 50.7371 259.754 51.2018L264.148 44.5162ZM257.01 42.456C255.907 42.456 254.821 42.5605 253.776 42.8063L255.608 50.5937C255.946 50.5142 256.405 50.456 257.01 50.456V42.456ZM253.776 42.8063C252.906 43.011 252.064 43.2724 251.254 43.5961L254.226 51.0239C254.636 50.8596 255.095 50.7143 255.608 50.5937L253.776 42.8063ZM249.463 45.0162C248.727 46.0675 248.094 47.2155 247.554 48.444L254.876 51.666C255.23 50.8611 255.614 50.1791 256.017 49.6038L249.463 45.0162ZM247.554 48.444C246.862 50.0164 246.544 51.6903 246.544 53.41H254.544C254.544 52.6897 254.673 52.1269 254.876 51.666L247.554 48.444ZM246.544 53.41C246.544 56.2787 247.439 59.0621 249.754 61.0688L254.994 55.0232C254.869 54.9152 254.544 54.6079 254.544 53.41H246.544ZM249.813 61.1189C251.826 62.7963 254.244 63.571 256.827 63.571V55.571C255.913 55.571 255.362 55.329 254.935 54.9731L249.813 61.1189ZM274.581 64.207L270.706 63.2157L270.664 63.381L270.636 63.5494L274.581 64.207ZM275.679 58.9L271.741 58.1999L271.735 58.2356L271.729 58.2715L275.679 58.9ZM275.74 48.957L271.851 49.8905L271.873 49.9843L271.9 50.077L275.74 48.957ZM274.703 46.883L272.013 49.8428L272.09 49.9128L272.17 49.9788L274.703 46.883ZM273.056 45.968L271.481 49.6446L271.668 49.725L271.863 49.7859L273.056 45.968ZM272.263 45.48L269.435 48.3084L269.563 48.4367L269.703 48.5529L272.263 45.48ZM272.629 42.735L275.988 44.908L275.988 44.908L272.629 42.735ZM274.52 40.966L276.578 44.396L276.602 44.3817L276.626 44.3671L274.52 40.966ZM280.254 41.637L276.737 43.5421L276.754 43.5738L276.772 43.6052L280.254 41.637ZM280.742 48.774L276.793 48.1371L276.793 48.1371L280.742 48.774ZM280.132 52.19L276.21 51.4055L275.517 54.8681L278.867 55.9847L280.132 52.19ZM280.315 52.251L279.05 56.0457L282.7 57.2622L284.058 53.6632L280.315 52.251ZM283.243 46.273L279.86 44.1398L279.853 44.1498L279.847 44.1598L283.243 46.273ZM287.33 41.759L289.703 44.9792L289.703 44.9792L287.33 41.759ZM297.639 42.003L294.629 44.637L294.629 44.637L297.639 42.003ZM299.042 49.201L295.188 48.1304L295.16 48.2312L295.138 48.3333L299.042 49.201ZM298.493 51.336L302.311 52.5291L302.321 52.497L302.331 52.4647L298.493 51.336ZM297.944 53.349L294.051 52.4328L294.025 52.5427L294.005 52.6539L297.944 53.349ZM301.055 60.12L302.631 56.4434L302.539 56.4039L302.445 56.369L301.055 60.12ZM301.543 62.804L297.771 61.4727L297.771 61.4727L301.543 62.804ZM300.201 64.756L302.835 67.7663L302.887 67.7211L302.937 67.6741L300.201 64.756ZM293.552 63.902L290.366 66.3195L290.386 66.3466L290.407 66.3733L293.552 63.902ZM292.515 56.399L288.618 55.4996L288.605 55.5569L288.593 55.6145L292.515 56.399ZM293.247 53.471L297.106 54.5235L297.125 54.4556L297.141 54.3872L293.247 53.471ZM293.674 51.458L289.781 50.5418L289.76 50.6309L289.743 50.7208L293.674 51.458ZM286.598 48.713L289.38 51.5874L289.404 51.5646L289.427 51.5414L286.598 48.713ZM281.169 59.022L277.336 57.8801L277.169 58.4389V59.022H281.169ZM279.888 64.207L276.878 61.573L276.846 61.6092L276.815 61.6463L279.888 64.207ZM276.533 61.671C276.372 61.671 276.375 61.656 276.487 61.6819C276.594 61.7066 276.941 61.8006 277.347 62.105C277.798 62.4432 278.196 62.9507 278.407 63.5826C278.602 64.1687 278.564 64.6418 278.527 64.8646L270.636 63.5494C270.373 65.1282 270.745 67.1535 272.547 68.505C273.931 69.5425 275.545 69.671 276.533 69.671V61.671ZM278.457 65.1983C278.935 63.3295 279.326 61.4394 279.63 59.5285L271.729 58.2715C271.464 59.9393 271.123 61.5872 270.706 63.2157L278.457 65.1983ZM279.618 59.6001C279.979 57.5649 280.167 55.581 280.167 53.654H272.167C272.167 55.0617 272.03 56.5751 271.741 58.1999L279.618 59.6001ZM280.167 53.654C280.167 51.445 280.035 49.3942 279.58 47.837L271.9 50.077C272.015 50.4718 272.167 51.5523 272.167 53.654H280.167ZM279.63 48.0235C279.327 46.7612 278.72 45.0009 277.236 43.7872L272.17 49.9788C272 49.8394 271.887 49.7083 271.82 49.6185C271.753 49.5297 271.724 49.4716 271.72 49.4649C271.717 49.4576 271.731 49.4859 271.757 49.5608C271.783 49.635 271.815 49.7429 271.851 49.8905L279.63 48.0235ZM277.394 43.9232C276.464 43.0777 275.385 42.5048 274.249 42.1501L271.863 49.7859C271.95 49.8132 271.996 49.8364 272.013 49.8459C272.029 49.8546 272.026 49.8545 272.013 49.8428L277.394 43.9232ZM274.632 42.2914C274.712 42.3258 274.778 42.369 274.824 42.4071L269.703 48.5529C270.236 48.9977 270.831 49.3662 271.481 49.6446L274.632 42.2914ZM275.092 42.6516C275.829 43.3889 275.958 44.235 275.958 44.626H267.958C267.958 45.749 268.291 47.1644 269.435 48.3084L275.092 42.6516ZM275.958 44.626C275.958 44.8689 275.91 45.0229 275.896 45.0639C275.883 45.1005 275.896 45.0498 275.988 44.908L269.271 40.562C268.582 41.6266 267.958 43.0137 267.958 44.626H275.958ZM275.988 44.908C276.056 44.8021 276.209 44.6175 276.578 44.396L272.462 37.536C271.205 38.2905 270.097 39.2853 269.271 40.562L275.988 44.908ZM276.626 44.3671C276.813 44.251 277.033 44.173 277.387 44.173V36.173C275.627 36.173 273.935 36.6237 272.415 37.5649L276.626 44.3671ZM277.387 44.173C277.623 44.173 277.546 44.2159 277.322 44.1014C277.207 44.0428 277.083 43.9572 276.969 43.8444C276.855 43.7324 276.781 43.6231 276.737 43.5421L283.771 39.7319C282.362 37.1296 279.812 36.173 277.387 36.173V44.173ZM276.772 43.6052C276.845 43.7337 277.047 44.2185 277.047 45.358H285.047C285.047 43.4068 284.721 41.411 283.737 39.6688L276.772 43.6052ZM277.047 45.358C277.047 46.1154 276.971 47.0363 276.793 48.1371L284.691 49.4109C284.92 47.9904 285.047 46.6339 285.047 45.358H277.047ZM276.793 48.1371C276.596 49.3592 276.402 50.4475 276.21 51.4055L284.055 52.9745C284.27 51.8991 284.482 50.7102 284.691 49.4109L276.793 48.1371ZM278.867 55.9847L279.05 56.0457L281.58 48.4563L281.397 48.3953L278.867 55.9847ZM284.058 53.6632C284.785 51.7356 285.648 49.9798 286.64 48.3862L279.847 44.1598C278.561 46.2262 277.472 48.4557 276.573 50.8388L284.058 53.6632ZM286.627 48.4062C287.58 46.8944 288.616 45.7804 289.703 44.9792L284.958 38.5388C282.954 40.015 281.265 41.9103 279.86 44.1398L286.627 48.4062ZM289.703 44.9792C290.519 44.3781 291.465 44.051 292.698 44.051V36.051C289.865 36.051 287.232 36.8625 284.958 38.5388L289.703 44.9792ZM292.698 44.051C294.007 44.051 294.431 44.4109 294.629 44.637L300.65 39.369C298.57 36.9925 295.7 36.051 292.698 36.051V44.051ZM294.629 44.637C295.047 45.1146 295.347 45.7664 295.347 46.883H303.347C303.347 44.0956 302.509 41.494 300.65 39.369L294.629 44.637ZM295.347 46.883C295.347 47.36 295.288 47.7707 295.188 48.1304L302.896 50.2716C303.203 49.1673 303.347 48.0327 303.347 46.883H295.347ZM295.138 48.3333C294.994 48.9811 294.833 49.6056 294.656 50.2073L302.331 52.4647C302.56 51.6837 302.766 50.8849 302.947 50.0687L295.138 48.3333ZM294.675 50.1429C294.442 50.8887 294.234 51.6522 294.051 52.4328L301.838 54.2652C301.98 53.6632 302.138 53.0847 302.311 52.5291L294.675 50.1429ZM294.005 52.6539C293.843 53.5711 293.761 54.495 293.761 55.423H301.761C301.761 54.9683 301.801 54.5095 301.883 54.0441L294.005 52.6539ZM293.761 55.423C293.761 57.2265 294.196 59.0448 295.31 60.6325C296.421 62.2169 297.98 63.2464 299.666 63.871L302.445 56.369C302.184 56.2726 302.034 56.1825 301.956 56.1262C301.883 56.0736 301.863 56.0431 301.86 56.039C301.857 56.0353 301.838 56.0095 301.816 55.9322C301.793 55.8488 301.761 55.688 301.761 55.423H293.761ZM299.48 63.7966C299.343 63.7382 298.928 63.534 298.538 63.0333C298.105 62.4756 297.909 61.8134 297.909 61.218H305.909C305.909 60.1346 305.572 59.0454 304.853 58.1217C304.179 57.255 303.337 56.7458 302.631 56.4434L299.48 63.7966ZM297.909 61.218C297.909 61.0928 297.919 61.0103 297.923 60.9825C297.927 60.9527 297.929 60.9532 297.92 60.9896C297.902 61.0672 297.859 61.223 297.771 61.4727L305.315 64.1353C305.59 63.3564 305.909 62.295 305.909 61.218H297.909ZM297.771 61.4727C297.782 61.4425 297.749 61.5724 297.466 61.8379L302.937 67.6741C303.955 66.7196 304.817 65.5482 305.315 64.1353L297.771 61.4727ZM297.567 61.7457C297.648 61.6755 297.722 61.6277 297.778 61.5977C297.833 61.5685 297.863 61.5605 297.855 61.563C297.83 61.5703 297.675 61.61 297.334 61.61V69.61C299.129 69.61 301.184 69.2113 302.835 67.7663L297.567 61.7457ZM297.334 61.61C296.99 61.61 296.845 61.551 296.815 61.5375C296.797 61.5295 296.787 61.5226 296.776 61.5143C296.765 61.5054 296.738 61.4821 296.698 61.4307L290.407 66.3733C292.16 68.6049 294.652 69.61 297.334 69.61V61.61ZM296.739 61.4845C296.475 61.1364 296.21 60.5526 296.21 59.449H288.21C288.21 61.9241 288.84 64.309 290.366 66.3195L296.739 61.4845ZM296.21 59.449C296.21 58.7009 296.285 57.947 296.438 57.1835L288.593 55.6145C288.339 56.8844 288.21 58.1637 288.21 59.449H296.21ZM296.413 57.2984C296.647 56.284 296.878 55.3597 297.106 54.5235L289.388 52.4185C289.128 53.3716 288.872 54.3993 288.618 55.4996L296.413 57.2984ZM297.141 54.3872C297.317 53.6407 297.472 52.9099 297.606 52.1952L289.743 50.7208C289.633 51.3074 289.503 51.9186 289.354 52.5548L297.141 54.3872ZM297.568 52.3742C297.779 51.4779 297.918 50.5497 297.918 49.628H289.918C289.918 49.7636 289.895 50.0554 289.781 50.5418L297.568 52.3742ZM297.918 49.628C297.918 48.0317 297.493 46.1106 295.954 44.6355C294.447 43.191 292.541 42.822 290.99 42.822V50.822C291.391 50.822 290.95 50.9207 290.419 50.4115C289.856 49.8718 289.918 49.3536 289.918 49.628H297.918ZM290.99 42.822C288.183 42.822 285.723 43.9313 283.77 45.8846L289.427 51.5414C289.995 50.9734 290.463 50.822 290.99 50.822V42.822ZM283.817 45.8386C282.158 47.4434 280.82 49.3999 279.757 51.6232L286.974 55.0748C287.7 53.5568 288.517 52.4226 289.38 51.5874L283.817 45.8386ZM279.757 51.6232C278.776 53.6749 277.967 55.7608 277.336 57.8801L285.003 60.1639C285.51 58.4606 286.166 56.7645 286.974 55.0748L279.757 51.6232ZM277.169 59.022V60.486H285.169V59.022H277.169ZM277.169 60.486C277.169 61.1864 276.993 61.4412 276.878 61.573L282.899 66.841C284.491 65.0208 285.169 62.795 285.169 60.486H277.169ZM276.815 61.6463C276.797 61.6682 276.793 61.6687 276.805 61.6596C276.818 61.6501 276.831 61.6425 276.84 61.6388C276.862 61.6291 276.785 61.671 276.533 61.671V69.671C278.983 69.671 281.291 68.7725 282.961 66.7677L276.815 61.6463Z" fill="#E1DA9E" mask="url(#path-1-outside-1_280_187)"/>
</svg>
