<svg width="238" height="160" viewBox="0 0 238 160" fill="none" xmlns="http://www.w3.org/2000/svg">
<circle cx="125.475" cy="80" r="66" stroke="#E06D02" stroke-width="28"/>
<path d="M87.9748 44C91.9388 39.3633 98.9748 35 98.9748 35C98.9748 35 90.7748 29.0456 86.9748 25C83.3382 21.1284 79.9748 14 79.9748 14C79.9748 14 76.9746 15 67.4745 24.5C63.0713 28.9031 58.8584 36 58.8584 36C58.8584 36 60.9378 42.01 64.9748 46C69.3135 50.2882 79.9748 56 79.9748 56C79.9748 56 84.6661 47.8702 87.9748 44Z" fill="white"/>
<path d="M164.474 115C160.51 119.637 153.474 124 153.474 124C153.474 124 161.674 129.954 165.474 134C169.111 137.872 172.474 145 172.474 145C172.474 145 175.475 144 184.975 134.5C189.378 130.097 193.591 123 193.591 123C193.591 123 191.511 116.99 187.474 113C183.136 108.712 172.474 103 172.474 103C172.474 103 167.783 111.13 164.474 115Z" fill="white"/>
<path d="M90.4746 118C85.8379 114.036 81.4746 107 81.4746 107C81.4746 107 75.5202 115.2 71.4746 119C67.603 122.636 60.4746 126 60.4746 126C60.4746 126 61.4746 129 70.9746 138.5C75.3777 142.903 82.4746 147.116 82.4746 147.116C82.4746 147.116 88.4846 145.037 92.4746 141C96.7628 136.661 102.475 126 102.475 126C102.475 126 94.3448 121.309 90.4746 118Z" fill="white"/>
<path d="M160.475 41.5C164.975 45.5 169.475 52.1164 169.475 52.1164C169.475 52.1164 175.429 43.9164 179.475 40.1164C183.346 36.4798 190.475 33.1164 190.475 33.1164C190.475 33.1164 189.475 30.1162 179.975 20.6161C175.571 16.2129 167.975 12 167.975 12C167.975 12 162.465 14.0794 158.475 18.1164C154.186 22.4551 148.475 33.1164 148.475 33.1164C148.475 33.1164 156.669 38.1172 160.475 41.5Z" fill="white"/>
<g filter="url(#filter0_d_280_153)">
<path d="M23.1504 66.2012C23.0202 65.7454 22.7598 65.4362 22.3691 65.2734C22.0111 65.1107 21.6042 65.0293 21.1484 65.0293C20.7253 64.9967 20.3021 65.013 19.8789 65.0781C19.4557 65.1432 19.1302 65.1758 18.9023 65.1758C18.349 65.1432 17.3887 65.0781 16.0215 64.9805C14.6543 64.8828 13.1732 64.7852 11.5781 64.6875C10.0156 64.5573 8.55078 64.4434 7.18359 64.3457C5.81641 64.2155 4.85612 64.1341 4.30273 64.1016C4.30273 64.0365 4.28646 63.8737 4.25391 63.6133C4.22135 63.3529 4.20508 63.1738 4.20508 63.0762C4.20508 62.6204 4.23763 62.2135 4.30273 61.8555C4.40039 61.4974 4.72591 61.2207 5.2793 61.0254C8.33919 61.0905 11.3503 61.0742 14.3125 60.9766C17.3073 60.8789 20.2858 60.7487 23.248 60.5859C26.2428 60.3906 29.2214 60.2116 32.1836 60.0488C35.1784 59.8861 38.1895 59.8047 41.2168 59.8047C41.2168 61.0417 40.9238 61.9531 40.3379 62.5391C39.752 63.0924 39.0195 63.4668 38.1406 63.6621C37.2943 63.8574 36.3503 63.9388 35.3086 63.9062C34.2669 63.8737 33.2578 63.89 32.2812 63.9551C31.3372 64.0202 30.4909 64.2155 29.7422 64.541C29.026 64.834 28.554 65.3874 28.3262 66.2012C28.2936 66.3965 28.2611 66.7708 28.2285 67.3242C28.196 67.8776 28.1634 68.4635 28.1309 69.082C28.1309 69.7005 28.1146 70.2865 28.082 70.8398C28.082 71.3607 28.082 71.735 28.082 71.9629C28.082 73.8184 28.3099 75.6576 28.7656 77.4805C29.2539 79.2708 29.7747 81.0612 30.3281 82.8516C30.9141 84.6094 31.4349 86.3835 31.8906 88.1738C32.3789 89.9316 32.623 91.722 32.623 93.5449C32.623 94.9121 31.8418 95.5957 30.2793 95.5957C29.3353 95.5957 28.4889 94.9447 27.7402 93.6426C27.0241 92.3405 26.3893 90.6803 25.8359 88.6621C25.3151 86.6439 24.8757 84.4466 24.5176 82.0703C24.1921 79.694 23.9154 77.4154 23.6875 75.2344C23.4922 73.0534 23.3457 71.1328 23.248 69.4727C23.1829 67.8125 23.1504 66.722 23.1504 66.2012ZM43.9512 85.5859C43.9512 83.5677 44.4232 81.696 45.3672 79.9707C46.3112 78.2129 47.5482 76.7155 49.0781 75.4785C50.6406 74.209 52.3822 73.2161 54.3027 72.5C56.2559 71.7839 58.2253 71.4258 60.2109 71.4258C61.3177 71.4258 62.2943 71.7839 63.1406 72.5C64.0195 73.2161 64.752 74.0951 65.3379 75.1367C65.9238 76.1458 66.3633 77.2201 66.6562 78.3594C66.9818 79.4987 67.1445 80.4915 67.1445 81.3379C67.1445 83.1608 66.7051 84.9349 65.8262 86.6602C64.9473 88.3529 63.8079 89.8665 62.4082 91.2012C61.0085 92.5033 59.4297 93.5612 57.6719 94.375C55.9141 95.1888 54.1562 95.5957 52.3984 95.5957C50.8359 95.5957 49.5176 95.3353 48.4434 94.8145C47.3691 94.2611 46.5065 93.5449 45.8555 92.666C45.2044 91.7546 44.7161 90.6966 44.3906 89.4922C44.0977 88.2552 43.9512 86.9531 43.9512 85.5859ZM48.1016 86.0742C48.1016 86.9206 48.1667 87.6693 48.2969 88.3203C48.4596 88.9388 48.7201 89.4759 49.0781 89.9316C49.4688 90.3874 49.9733 90.7454 50.5918 91.0059C51.2103 91.2337 51.9753 91.3477 52.8867 91.3477C54.0911 91.3477 55.2956 91.0221 56.5 90.3711C57.7044 89.6875 58.7786 88.8411 59.7227 87.832C60.6992 86.7904 61.4805 85.651 62.0664 84.4141C62.6523 83.1771 62.9453 81.9727 62.9453 80.8008C62.9453 80.2799 62.8965 79.7103 62.7988 79.0918C62.7012 78.4733 62.5384 77.9036 62.3105 77.3828C62.0827 76.862 61.7572 76.4225 61.334 76.0645C60.9108 75.7064 60.3737 75.5273 59.7227 75.5273C59.1367 75.5273 58.4368 75.7227 57.623 76.1133C56.8418 76.5039 56.0117 77.0085 55.1328 77.627C54.2865 78.2454 53.4401 78.9453 52.5938 79.7266C51.7799 80.5078 51.0312 81.2891 50.3477 82.0703C49.6641 82.8516 49.1107 83.6003 48.6875 84.3164C48.2969 85.0326 48.1016 85.6185 48.1016 86.0742ZM69.0488 75.5762C69.0488 75.3809 69.0488 75.0391 69.0488 74.5508C69.0814 74.0299 69.0977 73.4928 69.0977 72.9395C69.0977 72.3861 69.0977 71.8815 69.0977 71.4258C69.1302 70.9375 69.1465 70.5957 69.1465 70.4004C69.3743 70.0098 69.6348 69.6354 69.9277 69.2773C70.2533 68.8867 70.5788 68.6263 70.9043 68.4961C71.2624 68.3333 71.6367 68.3008 72.0273 68.3984C72.4505 68.4961 72.8737 68.8216 73.2969 69.375V69.7656V70.4004C73.2643 70.5632 73.1992 70.9538 73.1016 71.5723C73.0039 72.1582 72.89 72.8092 72.7598 73.5254C72.6296 74.2415 72.4993 74.9089 72.3691 75.5273C72.2715 76.1133 72.2227 76.4876 72.2227 76.6504C72.2227 77.2689 72.2878 78.0501 72.418 78.9941C72.5482 79.9056 72.7272 80.8659 72.9551 81.875C73.2155 82.8841 73.5247 83.8932 73.8828 84.9023C74.2734 85.9115 74.7292 86.8229 75.25 87.6367C75.7708 88.418 76.3405 89.069 76.959 89.5898C77.61 90.1107 78.3587 90.3711 79.2051 90.3711C80.2467 90.3711 81.1582 90.0944 81.9395 89.541C82.7533 88.9876 83.4531 88.2715 84.0391 87.3926C84.625 86.5137 85.097 85.5208 85.4551 84.4141C85.8457 83.3073 86.1549 82.2005 86.3828 81.0938C86.6107 79.9544 86.7734 78.8639 86.8711 77.8223C86.9688 76.7806 87.0176 75.8691 87.0176 75.0879C87.0176 74.3066 86.9525 73.5742 86.8223 72.8906C86.7246 72.1745 86.5944 71.4746 86.4316 70.791C86.2689 70.1074 86.1224 69.4401 85.9922 68.7891C85.8945 68.1055 85.8457 67.4219 85.8457 66.7383C85.8457 66.1198 86.0573 65.6803 86.4805 65.4199C86.9362 65.1595 87.4408 65.0293 87.9941 65.0293C88.6777 65.0293 89.2311 65.2409 89.6543 65.6641C90.0775 66.0547 90.403 66.5592 90.6309 67.1777C90.8913 67.7962 91.054 68.5124 91.1191 69.3262C91.2168 70.1074 91.2656 70.8887 91.2656 71.6699C91.2656 72.4512 91.2493 73.1999 91.2168 73.916C91.1842 74.5996 91.168 75.153 91.168 75.5762C91.168 76.6829 91.0866 77.9362 90.9238 79.3359C90.7611 80.7357 90.4681 82.1842 90.0449 83.6816C89.6543 85.1465 89.1497 86.5951 88.5312 88.0273C87.9453 89.4596 87.2129 90.7454 86.334 91.8848C85.4876 92.9915 84.4948 93.8867 83.3555 94.5703C82.2487 95.2539 80.9954 95.5957 79.5957 95.5957C78.1309 95.5957 76.8451 95.2539 75.7383 94.5703C74.6315 93.8542 73.6875 92.9264 72.9062 91.7871C72.1576 90.6152 71.5228 89.2969 71.002 87.832C70.4811 86.3672 70.0742 84.9023 69.7812 83.4375C69.5208 81.9727 69.3255 80.5566 69.1953 79.1895C69.0977 77.7897 69.0488 76.5853 69.0488 75.5762ZM93.0723 70.8887C93.0723 70.791 93.0885 70.7096 93.1211 70.6445C93.1211 70.5794 93.1374 70.498 93.1699 70.4004C93.3001 70.2376 93.4954 70.026 93.7559 69.7656C94.0163 69.5052 94.179 69.375 94.2441 69.375H104.059C104.059 69.0169 104.01 68.4473 103.912 67.666C103.814 66.8848 103.717 66.0221 103.619 65.0781C103.554 64.1341 103.538 63.1576 103.57 62.1484C103.603 61.1068 103.733 60.179 103.961 59.3652C104.221 58.5189 104.612 57.8353 105.133 57.3145C105.686 56.7611 106.451 56.4844 107.428 56.4844C107.428 59.7721 107.656 62.4089 108.111 64.3945C108.567 66.3802 109.169 67.9102 109.918 68.9844C110.699 70.0586 111.578 70.7585 112.555 71.084C113.531 71.4095 114.524 71.556 115.533 71.5234C116.575 71.4583 117.584 71.2956 118.561 71.0352C119.537 70.7747 120.4 70.5957 121.148 70.498C121.93 70.4004 122.548 70.4818 123.004 70.7422C123.46 70.9701 123.688 71.5397 123.688 72.4512C123.688 73.1348 123.525 73.623 123.199 73.916C122.906 74.209 122.32 74.4368 121.441 74.5996C121.181 74.6322 120.742 74.6973 120.123 74.7949C119.537 74.86 118.87 74.9251 118.121 74.9902C117.372 75.0553 116.575 75.1367 115.729 75.2344C114.882 75.2995 114.085 75.3646 113.336 75.4297C112.587 75.4948 111.904 75.5436 111.285 75.5762C110.667 75.5762 110.211 75.5762 109.918 75.5762C109.918 75.7389 109.902 76.0156 109.869 76.4062C109.837 76.7969 109.82 77.0573 109.82 77.1875C109.82 78.6198 110.048 80.0195 110.504 81.3867C110.96 82.7214 111.448 84.056 111.969 85.3906C112.522 86.7253 113.027 88.0599 113.482 89.3945C113.938 90.7292 114.166 92.1126 114.166 93.5449C114.166 93.8053 114.133 94.082 114.068 94.375C114.036 94.6354 113.938 94.8796 113.775 95.1074C113.645 95.3027 113.434 95.4492 113.141 95.5469C112.88 95.6771 112.506 95.6608 112.018 95.498C110.781 95.1725 109.853 94.4727 109.234 93.3984C108.648 92.3242 108.209 91.0547 107.916 89.5898C107.623 88.0924 107.428 86.5137 107.33 84.8535C107.232 83.1934 107.07 81.6471 106.842 80.2148C106.646 78.75 106.321 77.513 105.865 76.5039C105.41 75.4622 104.677 74.8275 103.668 74.5996L94.2441 72.4512C94.1139 72.4512 93.9186 72.321 93.6582 72.0605C93.3978 71.7676 93.235 71.556 93.1699 71.4258C93.1374 71.3607 93.1211 71.2793 93.1211 71.1816C93.0885 71.1165 93.0723 71.0189 93.0723 70.8887ZM147.76 70.0586C147.988 69.2773 148.248 68.9193 148.541 68.9844C148.867 69.0495 149.257 69.4238 149.713 70.1074C150.169 70.791 150.673 71.7025 151.227 72.8418C151.812 73.9811 152.431 75.2181 153.082 76.5527C153.733 77.8548 154.433 79.1895 155.182 80.5566C155.963 81.9238 156.76 83.1771 157.574 84.3164C158.421 85.4557 159.299 86.3997 160.211 87.1484C161.155 87.8971 162.115 88.3366 163.092 88.4668L166.998 68.252C167.063 67.6986 167.307 67.3893 167.73 67.3242C168.186 67.2266 168.626 67.1777 169.049 67.1777C170.514 67.1777 171.246 67.8613 171.246 69.2285C171.246 69.9447 171.181 71.084 171.051 72.6465C170.921 74.209 170.709 75.9342 170.416 77.8223C170.123 79.6777 169.765 81.5983 169.342 83.584C168.919 85.5371 168.414 87.3275 167.828 88.9551C167.242 90.5827 166.559 91.9173 165.777 92.959C165.029 94.0007 164.199 94.5215 163.287 94.5215C161.952 94.5215 160.634 94.082 159.332 93.2031C158.03 92.2917 156.793 91.1198 155.621 89.6875C154.482 88.2227 153.424 86.5951 152.447 84.8047C151.503 83.0143 150.673 81.224 149.957 79.4336C149.273 77.6107 148.736 75.8691 148.346 74.209C147.955 72.5488 147.76 71.1654 147.76 70.0586ZM174.176 85.5859C174.176 83.5677 174.648 81.696 175.592 79.9707C176.536 78.2129 177.773 76.7155 179.303 75.4785C180.865 74.209 182.607 73.2161 184.527 72.5C186.48 71.7839 188.45 71.4258 190.436 71.4258C191.542 71.4258 192.519 71.7839 193.365 72.5C194.244 73.2161 194.977 74.0951 195.562 75.1367C196.148 76.1458 196.588 77.2201 196.881 78.3594C197.206 79.4987 197.369 80.4915 197.369 81.3379C197.369 83.1608 196.93 84.9349 196.051 86.6602C195.172 88.3529 194.033 89.8665 192.633 91.2012C191.233 92.5033 189.654 93.5612 187.896 94.375C186.139 95.1888 184.381 95.5957 182.623 95.5957C181.061 95.5957 179.742 95.3353 178.668 94.8145C177.594 94.2611 176.731 93.5449 176.08 92.666C175.429 91.7546 174.941 90.6966 174.615 89.4922C174.322 88.2552 174.176 86.9531 174.176 85.5859ZM178.326 86.0742C178.326 86.9206 178.391 87.6693 178.521 88.3203C178.684 88.9388 178.945 89.4759 179.303 89.9316C179.693 90.3874 180.198 90.7454 180.816 91.0059C181.435 91.2337 182.2 91.3477 183.111 91.3477C184.316 91.3477 185.52 91.0221 186.725 90.3711C187.929 89.6875 189.003 88.8411 189.947 87.832C190.924 86.7904 191.705 85.651 192.291 84.4141C192.877 83.1771 193.17 81.9727 193.17 80.8008C193.17 80.2799 193.121 79.7103 193.023 79.0918C192.926 78.4733 192.763 77.9036 192.535 77.3828C192.307 76.862 191.982 76.4225 191.559 76.0645C191.135 75.7064 190.598 75.5273 189.947 75.5273C189.361 75.5273 188.661 75.7227 187.848 76.1133C187.066 76.5039 186.236 77.0085 185.357 77.627C184.511 78.2454 183.665 78.9453 182.818 79.7266C182.005 80.5078 181.256 81.2891 180.572 82.0703C179.889 82.8516 179.335 83.6003 178.912 84.3164C178.521 85.0326 178.326 85.6185 178.326 86.0742ZM201.324 77.1875C201.324 76.9922 201.324 76.6829 201.324 76.2598C201.357 75.804 201.373 75.332 201.373 74.8438C201.406 74.3555 201.422 73.8835 201.422 73.4277C201.454 72.972 201.471 72.6465 201.471 72.4512C201.829 71.9303 202.285 71.5072 202.838 71.1816C203.424 70.8561 204.01 70.5957 204.596 70.4004C204.693 72.1582 204.97 74.0299 205.426 76.0156C205.882 78.0013 206.37 80.0033 206.891 82.0215C207.411 84.0072 207.867 85.9766 208.258 87.9297C208.681 89.8828 208.893 91.7057 208.893 93.3984C208.893 94.8633 208.144 95.5957 206.646 95.5957C205.735 95.5957 204.97 95.2214 204.352 94.4727C203.733 93.724 203.229 92.7799 202.838 91.6406C202.48 90.4688 202.187 89.1829 201.959 87.7832C201.731 86.3509 201.568 84.9512 201.471 83.584C201.406 82.2168 201.357 80.9635 201.324 79.8242C201.324 78.6849 201.324 77.806 201.324 77.1875ZM202.008 58.877C202.626 59.1374 203.147 59.5605 203.57 60.1465C203.993 60.7324 204.173 61.2695 204.107 61.7578C204.075 62.2135 203.717 62.5391 203.033 62.7344C202.35 62.8971 201.21 62.7018 199.615 62.1484C199.615 61.2695 199.778 60.5046 200.104 59.8535C200.462 59.2025 201.096 58.877 202.008 58.877ZM210.797 74.9902C210.797 74.6973 210.813 74.4043 210.846 74.1113C210.878 73.7858 210.943 73.5091 211.041 73.2812C211.139 73.0208 211.285 72.8092 211.48 72.6465C211.708 72.4837 212.018 72.4023 212.408 72.4023C212.734 72.4023 213.092 72.6628 213.482 73.1836C213.906 73.6719 214.329 74.3066 214.752 75.0879C215.175 75.8366 215.582 76.6667 215.973 77.5781C216.396 78.4896 216.754 79.3359 217.047 80.1172C217.372 80.8659 217.633 81.5169 217.828 82.0703C218.023 82.6237 218.137 82.9167 218.17 82.9492C218.593 81.8099 219.065 80.5729 219.586 79.2383C220.107 77.9036 220.742 76.6667 221.49 75.5273C222.271 74.3555 223.183 73.3789 224.225 72.5977C225.299 71.8164 226.601 71.4258 228.131 71.4258C228.912 71.4258 229.645 71.556 230.328 71.8164C231.044 72.0443 231.663 72.4023 232.184 72.8906C232.737 73.3464 233.176 73.8997 233.502 74.5508C233.827 75.2018 233.99 75.9505 233.99 76.7969C233.99 77.513 233.697 78.0176 233.111 78.3105C232.558 78.6035 231.923 78.75 231.207 78.75H230.719L228.619 76.6504C228.554 76.6504 228.505 76.6341 228.473 76.6016C228.408 76.6016 228.342 76.6016 228.277 76.6016C228.245 76.569 228.196 76.5527 228.131 76.5527C226.992 76.5527 226.096 76.8783 225.445 77.5293C224.827 78.1478 224.355 78.929 224.029 79.873C223.704 80.7845 223.492 81.7611 223.395 82.8027C223.329 83.8118 223.297 84.7396 223.297 85.5859C223.297 86.237 223.362 86.9043 223.492 87.5879C223.622 88.2389 223.769 88.89 223.932 89.541C224.094 90.1595 224.241 90.8105 224.371 91.4941C224.501 92.1452 224.566 92.8288 224.566 93.5449C224.566 94.9121 223.834 95.5957 222.369 95.5957C221.555 95.5957 220.709 95.1725 219.83 94.3262C218.951 93.4473 218.072 92.3405 217.193 91.0059C216.347 89.6712 215.533 88.2064 214.752 86.6113C213.971 84.9837 213.287 83.4049 212.701 81.875C212.115 80.3451 211.643 78.9616 211.285 77.7246C210.96 76.4876 210.797 75.5762 210.797 74.9902Z" fill="#53513F"/>
</g>
<defs>
<filter id="filter0_d_280_153" x="0.205078" y="56.4844" width="237.785" height="47.2578" filterUnits="userSpaceOnUse" color-interpolation-filters="sRGB">
<feFlood flood-opacity="0" result="BackgroundImageFix"/>
<feColorMatrix in="SourceAlpha" type="matrix" values="0 0 0 0 0 0 0 0 0 0 0 0 0 0 0 0 0 0 127 0" result="hardAlpha"/>
<feOffset dy="4"/>
<feGaussianBlur stdDeviation="2"/>
<feComposite in2="hardAlpha" operator="out"/>
<feColorMatrix type="matrix" values="0 0 0 0 0 0 0 0 0 0 0 0 0 0 0 0 0 0 0.25 0"/>
<feBlend mode="normal" in2="BackgroundImageFix" result="effect1_dropShadow_280_153"/>
<feBlend mode="normal" in="SourceGraphic" in2="effect1_dropShadow_280_153" result="shape"/>
</filter>
</defs>
</svg>
