<svg width="1920" height="142" viewBox="0 0 1920 142" fill="none" xmlns="http://www.w3.org/2000/svg">
<path d="M427.445 0C220.932 0.000408193 0 87.9898 0 87.9898V934H1921V87.9898C1921 87.9898 1611.18 -1.38194e-05 1436.5 0C1213.54 1.76404e-05 1153.7 87.9893 932.471 87.9898C761.899 87.9902 586.611 -0.000314604 427.445 0Z" fill="#007CD7"/>
<path d="M619 50C619 50 726.822 79.1349 799.5 90.5C850.173 98.424 887.706 104.766 939 105.5C997.67 106.34 1018.9 101.612 1076.5 90.5C1147.24 76.8518 1261 37 1261 37" stroke="white" stroke-width="3"/>
<path d="M-3 100.001C-3 100.001 243.338 13.2885 397 5.99974C482.309 1.95321 559.839 21.0993 636.5 42.0304C713.161 62.9614 802 78.5 802 78.5" stroke="white" stroke-width="3"/>
<path d="M1079.5 77C1079.5 77 1147.82 61.6833 1227 37C1282 16 1348.25 8.5231 1412 5.4993C1497.31 1.45278 1675 35.4711 1755.5 52.9721C1836 70.4731 1922 96.4716 1922 96.4716" stroke="white" stroke-width="3"/>
</svg>
