<svg width="1920" height="712" viewBox="0 0 1920 712" fill="none" xmlns="http://www.w3.org/2000/svg">
<rect width="1921" height="364" fill="white"/>
<rect width="1920" height="342" fill="url(#paint0_linear_421_107)"/>
<rect y="342" width="1920" height="124" fill="#94C8EE"/>
<path d="M-5 389.503V470.003H1920V379.503C1920 379.503 1764.5 241 1713.5 248.001C1671.14 253.815 1636.17 287.867 1594.5 312.5C1532.28 349.28 1470.5 379.503 1470.5 379.503C1470.5 379.503 1392 299.876 1373 307.001C1306.6 331.904 1271.72 356.883 1204.5 379.503C1139.42 401.404 1101.16 415.419 1032.5 416.003C960.969 416.611 919.115 406.813 853 379.503C761 341.501 666 286.5 623.5 274.001C588.5 263.708 447.5 379.503 447.5 379.503C447.5 379.503 248 252.133 210 249.001C172 245.87 -5 389.503 -5 389.503Z" fill="#FFFACD"/>
<path d="M602 311.5C606.483 295.688 619 273 619 273C619 273 616 270.5 582.5 285.499C541.397 303.903 449 379 449 379C449 379 523.74 419.126 574 439.5C652.573 471.351 782.5 500 782.5 500C782.5 500 574.198 409.555 602 311.5Z" fill="url(#paint1_linear_421_107)"/>
<path d="M176.221 326.37C182.997 302.494 206.501 249 206.501 249C206.501 249 198.501 247.001 157.001 272C98.7105 307.113 -41.4994 414.501 -41.4994 414.501C-41.4994 414.501 -285.455 518.237 -209.5 549.001C-90.7577 597.095 449.001 611 449.001 611C449.001 611 134.205 474.431 176.221 326.37Z" fill="url(#paint2_linear_421_107)"/>
<path d="M1374 348C1370.33 332.014 1374 306.5 1374 306.5C1374 306.5 1311.5 330.775 1262.5 356.5C1236.64 370.075 1179.5 388 1179.5 388C1179.5 388 1246.68 412.76 1269.5 414.5C1381 423 1429.5 402.5 1429.5 402.5C1429.5 402.5 1381.68 381.462 1374 348Z" fill="url(#paint3_linear_421_107)"/>
<path d="M1713.5 351C1702.32 322.107 1771.5 265 1743 253.999C1714.56 243.022 1699 240.499 1631.5 288.5C1564 336.5 1423 403.001 1423 403.001C1423 403.001 1522.83 451.694 1585 474C1709.48 518.667 1932.5 554 1932.5 554C1932.5 554 1751.98 450.466 1713.5 351Z" fill="url(#paint4_linear_421_107)"/>
<path d="M1344.76 333.845C1344.76 333.845 1343.81 328.399 1344.14 325.13C1344.49 321.769 1346.57 317.069 1346.57 317.069" stroke="#31B51C" stroke-width="2"/>
<path d="M1345.61 333.912C1345.61 333.912 1346.15 328.428 1347.37 325.319C1348.61 322.123 1351.91 317.977 1351.91 317.977" stroke="#31B51C" stroke-width="2"/>
<path d="M1345.49 334.353C1345.49 334.353 1346.99 329.998 1348.36 327.572C1349.76 325.077 1352.54 321.92 1352.54 321.92" stroke="#31B51C" stroke-width="2"/>
<path d="M1344.37 334.022C1344.37 334.022 1345.87 329.667 1347.24 327.24C1348.64 324.746 1351.42 321.589 1351.42 321.589" stroke="#258A14" stroke-width="2"/>
<path d="M1344.43 334.498C1344.43 334.498 1341.44 329.502 1340.13 326.363C1338.79 323.136 1337.76 318.379 1337.76 318.379" stroke="#258A14" stroke-width="2"/>
<path d="M1345.56 334.506C1345.56 334.506 1342.57 329.51 1341.26 326.371C1339.91 323.144 1338.88 318.387 1338.88 318.387" stroke="#CAD827" stroke-width="2"/>
<path d="M1344.75 334.136C1344.75 334.136 1344.99 328.519 1345.63 325.232C1346.3 321.854 1348.11 317.28 1348.11 317.28" stroke="#CAD827" stroke-width="2"/>
<path d="M1344.76 334.871C1344.76 334.871 1342.78 331.524 1342.03 329.388C1341.25 327.192 1340.93 323.897 1340.93 323.897" stroke="#31B51C" stroke-width="2"/>
<path d="M1392.76 385.845C1392.76 385.845 1391.81 380.399 1392.14 377.13C1392.49 373.769 1394.57 369.069 1394.57 369.069" stroke="#31B51C" stroke-width="2"/>
<path d="M1393.61 385.912C1393.61 385.912 1394.15 380.428 1395.37 377.319C1396.61 374.123 1399.91 369.977 1399.91 369.977" stroke="#31B51C" stroke-width="2"/>
<path d="M1393.49 386.353C1393.49 386.353 1394.99 381.998 1396.36 379.572C1397.76 377.077 1400.54 373.92 1400.54 373.92" stroke="#31B51C" stroke-width="2"/>
<path d="M1392.37 386.022C1392.37 386.022 1393.87 381.667 1395.24 379.24C1396.64 376.746 1399.42 373.589 1399.42 373.589" stroke="#258A14" stroke-width="2"/>
<path d="M1392.43 386.498C1392.43 386.498 1389.44 381.502 1388.13 378.363C1386.79 375.136 1385.76 370.379 1385.76 370.379" stroke="#258A14" stroke-width="2"/>
<path d="M1393.56 386.506C1393.56 386.506 1390.57 381.51 1389.26 378.371C1387.91 375.144 1386.88 370.387 1386.88 370.387" stroke="#CAD827" stroke-width="2"/>
<path d="M1392.75 386.136C1392.75 386.136 1392.99 380.519 1393.63 377.232C1394.3 373.854 1396.11 369.28 1396.11 369.28" stroke="#CAD827" stroke-width="2"/>
<path d="M1392.76 386.871C1392.76 386.871 1390.78 383.524 1390.03 381.388C1389.25 379.192 1388.93 375.897 1388.93 375.897" stroke="#31B51C" stroke-width="2"/>
<path d="M1250.76 393.845C1250.76 393.845 1249.81 388.399 1250.14 385.13C1250.49 381.769 1252.57 377.069 1252.57 377.069" stroke="#31B51C" stroke-width="2"/>
<path d="M1251.61 393.912C1251.61 393.912 1252.15 388.428 1253.37 385.319C1254.61 382.123 1257.91 377.977 1257.91 377.977" stroke="#31B51C" stroke-width="2"/>
<path d="M1251.49 394.353C1251.49 394.353 1252.99 389.998 1254.36 387.572C1255.76 385.077 1258.54 381.92 1258.54 381.92" stroke="#31B51C" stroke-width="2"/>
<path d="M1250.37 394.022C1250.37 394.022 1251.87 389.667 1253.24 387.24C1254.64 384.746 1257.42 381.589 1257.42 381.589" stroke="#258A14" stroke-width="2"/>
<path d="M1250.43 394.498C1250.43 394.498 1247.44 389.502 1246.13 386.363C1244.79 383.136 1243.76 378.379 1243.76 378.379" stroke="#258A14" stroke-width="2"/>
<path d="M1251.56 394.506C1251.56 394.506 1248.57 389.51 1247.26 386.371C1245.91 383.144 1244.88 378.387 1244.88 378.387" stroke="#CAD827" stroke-width="2"/>
<path d="M1250.75 394.136C1250.75 394.136 1250.99 388.519 1251.63 385.232C1252.3 381.854 1254.11 377.28 1254.11 377.28" stroke="#CAD827" stroke-width="2"/>
<path d="M1250.76 394.871C1250.76 394.871 1248.78 391.524 1248.03 389.388C1247.25 387.192 1246.93 383.897 1246.93 383.897" stroke="#31B51C" stroke-width="2"/>
<path d="M587.758 287.845C587.758 287.845 586.806 282.399 587.143 279.13C587.49 275.769 589.572 271.069 589.572 271.069" stroke="#31B51C" stroke-width="2"/>
<path d="M588.606 287.912C588.606 287.912 589.154 282.428 590.368 279.319C591.615 276.123 594.912 271.977 594.912 271.977" stroke="#31B51C" stroke-width="2"/>
<path d="M588.488 288.353C588.488 288.353 589.992 283.998 591.359 281.572C592.765 279.077 595.544 275.92 595.544 275.92" stroke="#31B51C" stroke-width="2"/>
<path d="M587.368 288.022C587.368 288.022 588.872 283.667 590.239 281.24C591.644 278.746 594.424 275.589 594.424 275.589" stroke="#258A14" stroke-width="2"/>
<path d="M587.434 288.498C587.434 288.498 584.443 283.502 583.134 280.363C581.789 277.136 580.762 272.379 580.762 272.379" stroke="#258A14" stroke-width="2"/>
<path d="M588.556 288.506C588.556 288.506 585.565 283.51 584.257 280.371C582.911 277.144 581.884 272.387 581.884 272.387" stroke="#CAD827" stroke-width="2"/>
<path d="M587.75 288.136C587.75 288.136 587.987 282.519 588.633 279.232C589.297 275.854 591.109 271.28 591.109 271.28" stroke="#CAD827" stroke-width="2"/>
<path d="M587.759 288.871C587.759 288.871 585.779 285.524 585.025 283.388C584.251 281.192 583.934 277.897 583.934 277.897" stroke="#31B51C" stroke-width="2"/>
<path d="M570.758 320.845C570.758 320.845 569.806 315.399 570.143 312.13C570.49 308.769 572.572 304.069 572.572 304.069" stroke="#31B51C" stroke-width="2"/>
<path d="M571.606 320.912C571.606 320.912 572.154 315.428 573.368 312.319C574.615 309.123 577.912 304.977 577.912 304.977" stroke="#31B51C" stroke-width="2"/>
<path d="M571.488 321.353C571.488 321.353 572.992 316.998 574.359 314.572C575.765 312.077 578.544 308.92 578.544 308.92" stroke="#31B51C" stroke-width="2"/>
<path d="M570.368 321.022C570.368 321.022 571.872 316.667 573.239 314.24C574.644 311.746 577.424 308.589 577.424 308.589" stroke="#258A14" stroke-width="2"/>
<path d="M570.434 321.498C570.434 321.498 567.443 316.502 566.134 313.363C564.789 310.136 563.762 305.379 563.762 305.379" stroke="#258A14" stroke-width="2"/>
<path d="M571.556 321.506C571.556 321.506 568.565 316.51 567.257 313.371C565.911 310.144 564.884 305.387 564.884 305.387" stroke="#CAD827" stroke-width="2"/>
<path d="M570.75 321.136C570.75 321.136 570.987 315.519 571.633 312.232C572.297 308.854 574.109 304.28 574.109 304.28" stroke="#CAD827" stroke-width="2"/>
<path d="M570.759 321.871C570.759 321.871 568.779 318.524 568.025 316.388C567.251 314.192 566.934 310.897 566.934 310.897" stroke="#31B51C" stroke-width="2"/>
<path d="M186.322 270.778C186.322 270.778 185.091 263.737 185.528 259.51C185.976 255.165 188.668 249.089 188.668 249.089" stroke="#31B51C" stroke-width="2"/>
<path d="M187.419 270.865C187.419 270.865 188.128 263.775 189.697 259.755C191.309 255.624 195.573 250.263 195.573 250.263" stroke="#31B51C" stroke-width="2"/>
<path d="M187.267 271.437C187.267 271.437 189.212 265.806 190.979 262.669C192.796 259.445 196.389 255.363 196.389 255.363" stroke="#31B51C" stroke-width="2"/>
<path d="M185.818 271.007C185.818 271.007 187.763 265.377 189.531 262.24C191.347 259.015 194.941 254.933 194.941 254.933" stroke="#258A14" stroke-width="2"/>
<path d="M185.904 271.623C185.904 271.623 182.037 265.163 180.345 261.105C178.606 256.933 177.278 250.782 177.278 250.782" stroke="#258A14" stroke-width="2"/>
<path d="M187.355 271.634C187.355 271.634 183.488 265.174 181.796 261.116C180.057 256.944 178.729 250.793 178.729 250.793" stroke="#CAD827" stroke-width="2"/>
<path d="M186.311 271.155C186.311 271.155 186.618 263.893 187.453 259.644C188.311 255.276 190.655 249.363 190.655 249.363" stroke="#CAD827" stroke-width="2"/>
<path d="M186.326 272.106C186.326 272.106 183.765 267.78 182.791 265.018C181.79 262.178 181.381 257.918 181.381 257.918" stroke="#31B51C" stroke-width="2"/>
<path d="M142.322 319.778C142.322 319.778 141.091 312.737 141.528 308.51C141.976 304.165 144.668 298.089 144.668 298.089" stroke="#31B51C" stroke-width="2"/>
<path d="M143.419 319.865C143.419 319.865 144.128 312.775 145.697 308.755C147.309 304.624 151.573 299.263 151.573 299.263" stroke="#31B51C" stroke-width="2"/>
<path d="M143.267 320.437C143.267 320.437 145.212 314.806 146.979 311.669C148.796 308.445 152.389 304.363 152.389 304.363" stroke="#31B51C" stroke-width="2"/>
<path d="M141.818 320.007C141.818 320.007 143.763 314.377 145.531 311.24C147.347 308.015 150.941 303.933 150.941 303.933" stroke="#258A14" stroke-width="2"/>
<path d="M141.904 320.623C141.904 320.623 138.037 314.163 136.345 310.105C134.606 305.933 133.278 299.782 133.278 299.782" stroke="#258A14" stroke-width="2"/>
<path d="M143.355 320.634C143.355 320.634 139.488 314.174 137.796 310.116C136.057 305.944 134.729 299.793 134.729 299.793" stroke="#CAD827" stroke-width="2"/>
<path d="M142.311 320.155C142.311 320.155 142.618 312.893 143.453 308.644C144.311 304.276 146.655 298.363 146.655 298.363" stroke="#CAD827" stroke-width="2"/>
<path d="M142.326 321.106C142.326 321.106 139.765 316.78 138.791 314.018C137.79 311.178 137.381 306.918 137.381 306.918" stroke="#31B51C" stroke-width="2"/>
<path d="M226.595 373.319C226.595 373.319 224.814 363.133 225.445 357.017C226.094 350.731 229.989 341.94 229.989 341.94" stroke="#31B51C" stroke-width="2"/>
<path d="M228.182 373.444C228.182 373.444 229.207 363.185 231.476 357.369C233.81 351.392 239.978 343.637 239.978 343.637" stroke="#31B51C" stroke-width="2"/>
<path d="M227.96 374.27C227.96 374.27 230.774 366.125 233.331 361.586C235.959 356.921 241.158 351.015 241.158 351.015" stroke="#31B51C" stroke-width="2"/>
<path d="M225.865 373.651C225.865 373.651 228.679 365.505 231.236 360.967C233.865 356.302 239.063 350.396 239.063 350.396" stroke="#258A14" stroke-width="2"/>
<path d="M225.988 374.543C225.988 374.543 220.395 365.197 217.946 359.325C215.43 353.289 213.509 344.391 213.509 344.391" stroke="#258A14" stroke-width="2"/>
<path d="M228.087 374.557C228.087 374.557 222.493 365.212 220.045 359.34C217.528 353.304 215.608 344.406 215.608 344.406" stroke="#CAD827" stroke-width="2"/>
<path d="M226.578 373.863C226.578 373.863 227.022 363.356 228.23 357.208C229.472 350.889 232.862 342.334 232.862 342.334" stroke="#CAD827" stroke-width="2"/>
<path d="M226.599 375.239C226.599 375.239 222.894 368.98 221.485 364.984C220.037 360.876 219.444 354.713 219.444 354.713" stroke="#31B51C" stroke-width="2"/>
<path d="M1681.92 279.584C1681.92 279.584 1680.64 272.241 1681.09 267.832C1681.56 263.3 1684.37 256.963 1684.37 256.963" stroke="#31B51C" stroke-width="2"/>
<path d="M1683.07 279.675C1683.07 279.675 1683.8 272.279 1685.44 268.087C1687.12 263.777 1691.57 258.186 1691.57 258.186" stroke="#31B51C" stroke-width="2"/>
<path d="M1682.91 280.271C1682.91 280.271 1684.93 274.398 1686.78 271.126C1688.67 267.763 1692.42 263.505 1692.42 263.505" stroke="#31B51C" stroke-width="2"/>
<path d="M1681.4 279.823C1681.4 279.823 1683.42 273.951 1685.27 270.679C1687.16 267.316 1690.91 263.058 1690.91 263.058" stroke="#258A14" stroke-width="2"/>
<path d="M1681.48 280.466C1681.48 280.466 1677.45 273.728 1675.69 269.495C1673.87 265.144 1672.49 258.729 1672.49 258.729" stroke="#258A14" stroke-width="2"/>
<path d="M1683 280.477C1683 280.477 1678.97 273.739 1677.2 269.506C1675.39 265.154 1674 258.739 1674 258.739" stroke="#CAD827" stroke-width="2"/>
<path d="M1681.91 279.977C1681.91 279.977 1682.23 272.403 1683.1 267.971C1684 263.415 1686.44 257.247 1686.44 257.247" stroke="#CAD827" stroke-width="2"/>
<path d="M1681.92 280.969C1681.92 280.969 1679.25 276.456 1678.24 273.575C1677.19 270.614 1676.77 266.171 1676.77 266.171" stroke="#31B51C" stroke-width="2"/>
<path d="M1719.17 376.643C1719.17 376.643 1717.43 366.68 1718.04 360.698C1718.68 354.549 1722.49 345.951 1722.49 345.951" stroke="#31B51C" stroke-width="2"/>
<path d="M1720.72 376.765C1720.72 376.765 1721.72 366.731 1723.94 361.043C1726.23 355.196 1732.26 347.611 1732.26 347.611" stroke="#31B51C" stroke-width="2"/>
<path d="M1720.51 377.573C1720.51 377.573 1723.26 369.606 1725.76 365.166C1728.33 360.603 1733.42 354.827 1733.42 354.827" stroke="#31B51C" stroke-width="2"/>
<path d="M1718.46 376.965C1718.46 376.965 1721.21 368.998 1723.71 364.559C1726.28 359.996 1731.37 354.219 1731.37 354.219" stroke="#258A14" stroke-width="2"/>
<path d="M1718.58 377.837C1718.58 377.837 1713.11 368.696 1710.71 362.953C1708.25 357.049 1706.37 348.345 1706.37 348.345" stroke="#258A14" stroke-width="2"/>
<path d="M1720.63 377.853C1720.63 377.853 1715.16 368.712 1712.76 362.968C1710.3 357.065 1708.42 348.361 1708.42 348.361" stroke="#CAD827" stroke-width="2"/>
<path d="M1719.15 377.174C1719.15 377.174 1719.59 366.897 1720.77 360.884C1721.99 354.703 1725.3 346.335 1725.3 346.335" stroke="#CAD827" stroke-width="2"/>
<path d="M1719.17 378.523C1719.17 378.523 1715.55 372.401 1714.17 368.492C1712.75 364.474 1712.17 358.445 1712.17 358.445" stroke="#31B51C" stroke-width="2"/>
<path d="M1578.95 349.988C1578.95 349.988 1577.65 342.557 1578.11 338.095C1578.59 333.508 1581.43 327.095 1581.43 327.095" stroke="#31B51C" stroke-width="2"/>
<path d="M1580.11 350.079C1580.11 350.079 1580.86 342.595 1582.51 338.352C1584.22 333.991 1588.72 328.333 1588.72 328.333" stroke="#31B51C" stroke-width="2"/>
<path d="M1579.95 350.682C1579.95 350.682 1582 344.739 1583.87 341.428C1585.78 338.024 1589.58 333.715 1589.58 333.715" stroke="#31B51C" stroke-width="2"/>
<path d="M1578.42 350.23C1578.42 350.23 1580.47 344.287 1582.34 340.976C1584.26 337.572 1588.05 333.263 1588.05 333.263" stroke="#258A14" stroke-width="2"/>
<path d="M1578.51 350.878C1578.51 350.878 1574.43 344.06 1572.64 339.776C1570.81 335.372 1569.4 328.88 1569.4 328.88" stroke="#258A14" stroke-width="2"/>
<path d="M1580.04 350.891C1580.04 350.891 1575.96 344.073 1574.17 339.789C1572.34 335.385 1570.94 328.893 1570.94 328.893" stroke="#CAD827" stroke-width="2"/>
<path d="M1578.94 350.384C1578.94 350.384 1579.26 342.719 1580.15 338.234C1581.05 333.623 1583.53 327.381 1583.53 327.381" stroke="#CAD827" stroke-width="2"/>
<path d="M1578.95 351.389C1578.95 351.389 1576.25 346.823 1575.22 343.907C1574.17 340.91 1573.73 336.413 1573.73 336.413" stroke="#31B51C" stroke-width="2"/>
<path d="M1641.76 290.845C1641.76 290.845 1640.81 285.399 1641.14 282.13C1641.49 278.769 1643.57 274.069 1643.57 274.069" stroke="#31B51C" stroke-width="2"/>
<path d="M1642.61 290.912C1642.61 290.912 1643.15 285.428 1644.37 282.319C1645.61 279.123 1648.91 274.977 1648.91 274.977" stroke="#31B51C" stroke-width="2"/>
<path d="M1642.49 291.353C1642.49 291.353 1643.99 286.998 1645.36 284.572C1646.76 282.077 1649.54 278.92 1649.54 278.92" stroke="#31B51C" stroke-width="2"/>
<path d="M1641.37 291.022C1641.37 291.022 1642.87 286.667 1644.24 284.24C1645.64 281.746 1648.42 278.589 1648.42 278.589" stroke="#258A14" stroke-width="2"/>
<path d="M1641.43 291.498C1641.43 291.498 1638.44 286.502 1637.13 283.363C1635.79 280.136 1634.76 275.379 1634.76 275.379" stroke="#258A14" stroke-width="2"/>
<path d="M1642.56 291.506C1642.56 291.506 1639.57 286.51 1638.26 283.371C1636.91 280.144 1635.88 275.387 1635.88 275.387" stroke="#CAD827" stroke-width="2"/>
<path d="M1641.75 291.136C1641.75 291.136 1641.99 285.519 1642.63 282.232C1643.3 278.854 1645.11 274.28 1645.11 274.28" stroke="#CAD827" stroke-width="2"/>
<path d="M1641.76 291.871C1641.76 291.871 1639.78 288.524 1639.03 286.388C1638.25 284.192 1637.93 280.897 1637.93 280.897" stroke="#31B51C" stroke-width="2"/>
<path d="M1347.76 361.845C1347.76 361.845 1346.81 356.399 1347.14 353.13C1347.49 349.769 1349.57 345.069 1349.57 345.069" stroke="#31B51C" stroke-width="2"/>
<path d="M1348.61 361.912C1348.61 361.912 1349.15 356.428 1350.37 353.319C1351.61 350.123 1354.91 345.977 1354.91 345.977" stroke="#31B51C" stroke-width="2"/>
<path d="M1348.49 362.353C1348.49 362.353 1349.99 357.998 1351.36 355.572C1352.76 353.077 1355.54 349.92 1355.54 349.92" stroke="#31B51C" stroke-width="2"/>
<path d="M1347.37 362.022C1347.37 362.022 1348.87 357.667 1350.24 355.24C1351.64 352.746 1354.42 349.589 1354.42 349.589" stroke="#258A14" stroke-width="2"/>
<path d="M1347.43 362.498C1347.43 362.498 1344.44 357.502 1343.13 354.363C1341.79 351.136 1340.76 346.379 1340.76 346.379" stroke="#258A14" stroke-width="2"/>
<path d="M1348.56 362.506C1348.56 362.506 1345.57 357.51 1344.26 354.371C1342.91 351.144 1341.88 346.387 1341.88 346.387" stroke="#CAD827" stroke-width="2"/>
<path d="M1347.75 362.136C1347.75 362.136 1347.99 356.519 1348.63 353.232C1349.3 349.854 1351.11 345.28 1351.11 345.28" stroke="#CAD827" stroke-width="2"/>
<path d="M1347.76 362.871C1347.76 362.871 1345.78 359.524 1345.03 357.388C1344.25 355.192 1343.93 351.897 1343.93 351.897" stroke="#31B51C" stroke-width="2"/>
<path d="M1043.89 424.597L1043.38 422.061C1043.22 421.265 1043.47 420.442 1044.05 419.871C1044.73 419.19 1045.76 418.984 1046.66 419.348L1046.76 419.39C1047.46 419.674 1048 420.248 1048.24 420.964L1049.04 423.354C1049.27 424.054 1049.41 424.783 1049.45 425.521L1049.54 427.561C1049.57 428.126 1049.4 428.684 1049.05 429.134L1048.8 429.465C1048.39 430.008 1047.69 430.262 1047.02 430.115C1046.5 429.999 1046.05 429.645 1045.82 429.156L1044.45 426.287C1044.19 425.749 1044 425.181 1043.89 424.597Z" fill="#E1DA9E" fill-opacity="0.31"/>
<path d="M1040.08 438.732L1039.57 436.196C1039.41 435.4 1039.66 434.577 1040.24 434.006C1040.93 433.324 1041.95 433.119 1042.85 433.483L1042.95 433.525C1043.65 433.808 1044.19 434.383 1044.43 435.099L1045.23 437.489C1045.47 438.189 1045.6 438.918 1045.64 439.655L1045.74 441.695C1045.76 442.261 1045.59 442.818 1045.25 443.269L1044.99 443.599C1044.58 444.143 1043.89 444.397 1043.22 444.25C1042.69 444.133 1042.24 443.779 1042.01 443.291L1040.64 440.422C1040.39 439.884 1040.2 439.316 1040.08 438.732Z" fill="#E1DA9E" fill-opacity="0.31"/>
<path d="M1051.5 450.692L1050.99 448.156C1050.83 447.36 1051.08 446.537 1051.66 445.965C1052.34 445.284 1053.37 445.079 1054.27 445.442L1054.37 445.485C1055.07 445.768 1055.61 446.343 1055.85 447.059L1056.65 449.449C1056.88 450.149 1057.02 450.878 1057.06 451.615L1057.15 453.655C1057.18 454.221 1057.01 454.778 1056.66 455.229L1056.41 455.559C1056 456.103 1055.3 456.357 1054.64 456.21C1054.11 456.093 1053.66 455.739 1053.43 455.251L1052.06 452.382C1051.8 451.844 1051.61 451.276 1051.5 450.692Z" fill="#E1DA9E" fill-opacity="0.31"/>
<path d="M1046.06 463.739L1045.55 461.204C1045.39 460.408 1045.64 459.585 1046.22 459.013C1046.91 458.332 1047.93 458.127 1048.83 458.49L1048.93 458.532C1049.63 458.816 1050.17 459.391 1050.41 460.106L1051.21 462.496C1051.45 463.197 1051.58 463.926 1051.62 464.663L1051.72 466.703C1051.74 467.269 1051.57 467.826 1051.23 468.277L1050.97 468.607C1050.56 469.151 1049.87 469.405 1049.2 469.258C1048.67 469.141 1048.22 468.787 1047.99 468.298L1046.62 465.43C1046.37 464.892 1046.18 464.324 1046.06 463.739Z" fill="#E1DA9E" fill-opacity="0.31"/>
<path d="M1060.44 478.993L1060.16 474.238C1060.07 472.745 1060.74 471.307 1061.93 470.41C1063.36 469.342 1065.28 469.226 1066.83 470.118L1067.01 470.221C1068.21 470.916 1069.05 472.102 1069.31 473.468L1070.16 478.032C1070.41 479.369 1070.48 480.734 1070.35 482.088L1070.01 485.835C1069.92 486.875 1069.46 487.847 1068.72 488.582L1068.18 489.121C1067.28 490.009 1065.95 490.296 1064.77 489.858C1063.84 489.512 1063.11 488.753 1062.81 487.802L1061.04 482.221C1060.71 481.174 1060.51 480.09 1060.44 478.993Z" fill="#E1DA9E" fill-opacity="0.31"/>
<path d="M1049.92 503.821L1049.63 499.065C1049.54 497.572 1050.21 496.134 1051.41 495.237C1052.83 494.169 1054.76 494.054 1056.3 494.945L1056.48 495.048C1057.68 495.743 1058.52 496.929 1058.78 498.295L1059.63 502.859C1059.88 504.196 1059.95 505.561 1059.83 506.915L1059.49 510.662C1059.39 511.702 1058.93 512.675 1058.19 513.41L1057.65 513.948C1056.75 514.836 1055.43 515.123 1054.24 514.686C1053.31 514.339 1052.59 513.58 1052.28 512.629L1050.51 507.048C1050.18 506.001 1049.98 504.917 1049.92 503.821Z" fill="#E1DA9E" fill-opacity="0.31"/>
<path d="M1067.72 528.537L1067.43 523.782C1067.34 522.289 1068.01 520.851 1069.21 519.954C1070.63 518.886 1072.56 518.77 1074.1 519.662L1074.28 519.764C1075.48 520.459 1076.32 521.646 1076.58 523.012L1077.43 527.576C1077.68 528.913 1077.75 530.278 1077.63 531.632L1077.29 535.379C1077.19 536.419 1076.73 537.391 1075.99 538.126L1075.45 538.665C1074.55 539.552 1073.23 539.84 1072.04 539.402C1071.11 539.056 1070.39 538.297 1070.08 537.346L1068.31 531.765C1067.98 530.718 1067.78 529.634 1067.72 528.537Z" fill="#E1DA9E" fill-opacity="0.31"/>
<path d="M1054.49 550.968L1054.2 546.212C1054.11 544.72 1054.78 543.282 1055.98 542.385C1057.4 541.316 1059.33 541.201 1060.87 542.092L1061.05 542.195C1062.25 542.89 1063.09 544.076 1063.35 545.442L1064.21 550.006C1064.46 551.343 1064.52 552.708 1064.4 554.063L1064.06 557.81C1063.96 558.849 1063.5 559.822 1062.76 560.557L1062.22 561.096C1061.33 561.983 1060 562.271 1058.82 561.833C1057.88 561.486 1057.16 560.727 1056.86 559.776L1055.09 554.195C1054.75 553.148 1054.55 552.064 1054.49 550.968Z" fill="#E1DA9E" fill-opacity="0.31"/>
<path d="M952.443 475.993L952.159 471.238C952.07 469.745 952.736 468.307 953.933 467.41C955.359 466.342 957.285 466.226 958.828 467.118L959.006 467.221C960.21 467.916 961.05 469.102 961.306 470.468L962.161 475.032C962.412 476.369 962.477 477.734 962.354 479.088L962.013 482.835C961.918 483.875 961.46 484.847 960.719 485.582L960.176 486.121C959.282 487.009 957.954 487.296 956.772 486.858C955.836 486.512 955.113 485.753 954.811 484.802L953.042 479.221C952.71 478.174 952.509 477.09 952.443 475.993Z" fill="#E1DA9E" fill-opacity="0.31"/>
<path d="M941.916 500.821L941.632 496.065C941.542 494.572 942.209 493.134 943.406 492.237C944.832 491.169 946.758 491.054 948.301 491.945L948.479 492.048C949.683 492.743 950.523 493.929 950.779 495.295L951.634 499.859C951.885 501.196 951.949 502.561 951.826 503.915L951.485 507.662C951.391 508.702 950.933 509.675 950.192 510.41L949.649 510.948C948.754 511.836 947.426 512.123 946.245 511.686C945.309 511.339 944.586 510.58 944.284 509.629L942.514 504.048C942.182 503.001 941.981 501.917 941.916 500.821Z" fill="#E1DA9E" fill-opacity="0.31"/>
<path d="M959.716 525.537L959.431 520.782C959.342 519.289 960.009 517.851 961.206 516.954C962.632 515.886 964.557 515.77 966.101 516.662L966.279 516.764C967.482 517.459 968.322 518.646 968.578 520.012L969.434 524.576C969.685 525.913 969.749 527.278 969.626 528.632L969.285 532.379C969.191 533.419 968.733 534.391 967.992 535.126L967.448 535.665C966.554 536.552 965.226 536.84 964.045 536.402C963.109 536.056 962.385 535.297 962.084 534.346L960.314 528.765C959.982 527.718 959.781 526.634 959.716 525.537Z" fill="#E1DA9E" fill-opacity="0.31"/>
<path d="M946.487 547.968L946.203 543.212C946.114 541.72 946.78 540.282 947.977 539.385C949.403 538.316 951.329 538.201 952.872 539.092L953.05 539.195C954.254 539.89 955.094 541.076 955.35 542.442L956.205 547.006C956.456 548.343 956.521 549.708 956.397 551.063L956.057 554.81C955.962 555.849 955.504 556.822 954.763 557.557L954.22 558.096C953.326 558.983 951.997 559.271 950.816 558.833C949.88 558.486 949.157 557.727 948.855 556.776L947.086 551.195C946.754 550.148 946.553 549.064 946.487 547.968Z" fill="#E1DA9E" fill-opacity="0.31"/>
<path d="M852.813 485.839L855.151 479.45C855.744 477.83 857.042 476.612 858.641 476.176C860.794 475.59 863.071 476.525 864.288 478.495L864.411 478.694C865.25 480.052 865.509 481.713 865.127 483.274L863.546 489.724C863.129 491.423 862.51 493.059 861.703 494.593L859.231 499.29C858.674 500.349 857.792 501.179 856.728 501.646L855.762 502.07C854.355 502.687 852.725 502.315 851.678 501.137C850.919 500.284 850.567 499.117 850.722 497.965L851.798 489.955C851.987 488.546 852.327 487.165 852.813 485.839Z" fill="#E1DA9E" fill-opacity="0.31"/>
<path d="M828.842 510.561L831.18 504.172C831.773 502.552 833.071 501.335 834.67 500.899C836.823 500.312 839.1 501.247 840.317 503.217L840.44 503.417C841.279 504.774 841.539 506.436 841.156 507.996L839.575 514.447C839.159 516.146 838.539 517.782 837.732 519.316L835.261 524.012C834.703 525.072 833.821 525.902 832.758 526.369L831.792 526.793C830.385 527.41 828.755 527.038 827.707 525.86C826.948 525.006 826.597 523.839 826.751 522.688L827.827 514.678C828.016 513.268 828.357 511.888 828.842 510.561Z" fill="#E1DA9E" fill-opacity="0.31"/>
<path d="M834.752 549.816L837.091 543.427C837.683 541.807 838.981 540.59 840.58 540.154C842.733 539.567 845.011 540.502 846.228 542.472L846.351 542.672C847.189 544.029 847.449 545.691 847.066 547.251L845.485 553.702C845.069 555.401 844.45 557.037 843.642 558.57L841.171 563.267C840.613 564.327 839.732 565.157 838.668 565.624L837.702 566.047C836.295 566.665 834.665 566.293 833.617 565.115C832.859 564.261 832.507 563.094 832.662 561.942L833.737 553.932C833.926 552.523 834.267 551.142 834.752 549.816Z" fill="#E1DA9E" fill-opacity="0.31"/>
<path d="M809.182 570.226L811.52 563.837C812.113 562.217 813.411 561 815.01 560.564C817.163 559.977 819.44 560.912 820.657 562.883L820.78 563.082C821.619 564.439 821.879 566.101 821.496 567.661L819.915 574.112C819.498 575.811 818.879 577.447 818.072 578.981L815.6 583.677C815.043 584.737 814.161 585.567 813.098 586.034L812.132 586.458C810.724 587.075 809.094 586.703 808.047 585.525C807.288 584.671 806.937 583.504 807.091 582.353L808.167 574.343C808.356 572.934 808.696 571.553 809.182 570.226Z" fill="#E1DA9E" fill-opacity="0.31"/>
<path d="M1208.65 525.114L1205.89 519.319C1205.03 517.5 1205.13 515.368 1206.17 513.643C1207.42 511.588 1209.76 510.47 1212.14 510.803L1212.41 510.842C1214.27 511.101 1215.92 512.158 1216.93 513.734L1220.3 519.002C1221.29 520.544 1222.06 522.216 1222.59 523.97L1224.06 528.821C1224.47 530.167 1224.39 531.613 1223.83 532.906L1223.43 533.853C1222.76 535.413 1221.25 536.444 1219.55 536.494C1218.21 536.534 1216.92 535.952 1216.06 534.917L1211.03 528.842C1210.09 527.702 1209.29 526.45 1208.65 525.114Z" fill="#E1DA9E" fill-opacity="0.31"/>
<path d="M1208.05 561.439L1205.3 555.644C1204.43 553.824 1204.54 551.692 1205.58 549.967C1206.82 547.912 1209.16 546.795 1211.54 547.127L1211.82 547.166C1213.67 547.425 1215.32 548.482 1216.33 550.059L1219.7 555.326C1220.69 556.869 1221.46 558.54 1221.99 560.294L1223.46 565.145C1223.87 566.491 1223.79 567.938 1223.24 569.23L1222.83 570.178C1222.16 571.738 1220.65 572.768 1218.95 572.819C1217.61 572.859 1216.32 572.277 1215.46 571.241L1210.43 565.166C1209.49 564.027 1208.69 562.775 1208.05 561.439Z" fill="#E1DA9E" fill-opacity="0.31"/>
<path d="M1242.78 583.309L1240.02 577.514C1239.15 575.694 1239.26 573.562 1240.3 571.837C1241.54 569.782 1243.89 568.665 1246.26 568.998L1246.54 569.036C1248.39 569.296 1250.04 570.352 1251.05 571.929L1254.43 577.196C1255.41 578.739 1256.18 580.411 1256.72 582.164L1258.18 587.016C1258.59 588.361 1258.51 589.808 1257.96 591.1L1257.55 592.048C1256.88 593.608 1255.37 594.638 1253.67 594.689C1252.33 594.729 1251.04 594.147 1250.18 593.111L1245.15 587.036C1244.21 585.897 1243.41 584.645 1242.78 583.309Z" fill="#E1DA9E" fill-opacity="0.31"/>
<path d="M1237.59 618.004L1234.84 612.209C1233.97 610.39 1234.07 608.257 1235.12 606.532C1236.36 604.477 1238.7 603.36 1241.08 603.693L1241.36 603.731C1243.21 603.991 1244.86 605.048 1245.87 606.624L1249.24 611.891C1250.23 613.434 1251 615.106 1251.53 616.86L1253 621.711C1253.41 623.057 1253.33 624.503 1252.78 625.796L1252.37 626.743C1251.7 628.303 1250.19 629.333 1248.49 629.384C1247.15 629.424 1245.86 628.842 1245 627.807L1239.97 621.732C1239.03 620.592 1238.23 619.34 1237.59 618.004Z" fill="#E1DA9E" fill-opacity="0.31"/>
<path d="M1075.76 569.951L1075.68 563.533C1075.66 561.518 1076.65 559.626 1078.31 558.496C1080.3 557.15 1082.9 557.118 1084.92 558.417L1085.15 558.566C1086.73 559.579 1087.78 561.229 1088.04 563.084L1088.9 569.28C1089.15 571.095 1089.15 572.936 1088.89 574.751L1088.2 579.771C1088 581.164 1087.32 582.444 1086.28 583.385L1085.51 584.075C1084.25 585.212 1082.45 585.514 1080.89 584.849C1079.65 584.322 1078.72 583.255 1078.38 581.955L1076.36 574.332C1075.98 572.902 1075.78 571.43 1075.76 569.951Z" fill="#E1DA9E" fill-opacity="0.31"/>
<path d="M1060 602.684L1059.92 596.266C1059.9 594.252 1060.89 592.36 1062.55 591.23C1064.54 589.883 1067.14 589.852 1069.16 591.15L1069.39 591.3C1070.97 592.312 1072.02 593.962 1072.28 595.817L1073.14 602.014C1073.39 603.829 1073.39 605.67 1073.14 607.485L1072.44 612.505C1072.24 613.897 1071.56 615.177 1070.52 616.119L1069.75 616.809C1068.49 617.945 1066.69 618.247 1065.13 617.582C1063.89 617.056 1062.96 615.988 1062.62 614.689L1060.6 607.065C1060.22 605.635 1060.02 604.163 1060 602.684Z" fill="#E1DA9E" fill-opacity="0.31"/>
<path d="M1082.36 637.088L1082.29 630.671C1082.26 628.656 1083.25 626.764 1084.92 625.634C1086.91 624.287 1089.51 624.256 1091.52 625.554L1091.76 625.704C1093.33 626.717 1094.39 628.367 1094.64 630.221L1095.5 636.418C1095.75 638.233 1095.75 640.074 1095.5 641.889L1094.8 646.909C1094.61 648.302 1093.93 649.581 1092.88 650.523L1092.12 651.213C1090.86 652.35 1089.05 652.652 1087.49 651.987C1086.25 651.46 1085.33 650.393 1084.98 649.093L1082.96 641.47C1082.58 640.039 1082.38 638.568 1082.36 637.088Z" fill="#E1DA9E" fill-opacity="0.31"/>
<path d="M1063.12 666.421L1063.05 660.004C1063.02 657.989 1064.01 656.097 1065.68 654.967C1067.67 653.62 1070.27 653.589 1072.29 654.887L1072.52 655.037C1074.09 656.05 1075.15 657.7 1075.4 659.554L1076.26 665.751C1076.51 667.566 1076.51 669.407 1076.26 671.222L1075.56 676.242C1075.37 677.635 1074.69 678.914 1073.65 679.856L1072.88 680.546C1071.62 681.683 1069.81 681.985 1068.25 681.32C1067.02 680.793 1066.09 679.726 1065.75 678.426L1063.72 670.803C1063.34 669.372 1063.14 667.901 1063.12 666.421Z" fill="#E1DA9E" fill-opacity="0.31"/>
<path d="M956.683 573.987L959.966 568.472C960.996 566.74 962.827 565.642 964.84 565.549C967.238 565.437 969.471 566.767 970.517 568.928L970.637 569.178C971.452 570.863 971.491 572.821 970.742 574.537L968.241 580.271C967.508 581.951 966.547 583.521 965.384 584.937L962.169 588.855C961.276 589.942 960.03 590.679 958.647 590.937L957.634 591.127C955.966 591.438 954.268 590.754 953.283 589.372C952.502 588.277 952.271 586.884 952.654 585.595L954.907 578.036C955.329 576.618 955.926 575.258 956.683 573.987Z" fill="#E1DA9E" fill-opacity="0.31"/>
<path d="M926.158 593.686L929.441 588.171C930.472 586.44 932.303 585.342 934.315 585.248C936.713 585.137 938.947 586.466 939.992 588.627L940.113 588.877C940.928 590.562 940.966 592.52 940.218 594.236L937.716 599.97C936.984 601.65 936.023 603.22 934.86 604.636L931.644 608.554C930.752 609.641 929.505 610.378 928.123 610.637L927.11 610.826C925.441 611.138 923.744 610.453 922.758 609.071C921.978 607.976 921.746 606.583 922.13 605.295L924.382 597.735C924.805 596.317 925.401 594.957 926.158 593.686Z" fill="#E1DA9E" fill-opacity="0.31"/>
<path d="M927.284 634.705L930.567 629.19C931.598 627.459 933.429 626.361 935.441 626.268C937.839 626.156 940.073 627.486 941.118 629.647L941.239 629.896C942.054 631.582 942.092 633.54 941.344 635.256L938.842 640.99C938.11 642.669 937.148 644.24 935.986 645.656L932.77 649.574C931.878 650.66 930.631 651.398 929.249 651.656L928.236 651.845C926.567 652.157 924.87 651.472 923.884 650.09C923.104 648.996 922.872 647.602 923.256 646.314L925.508 638.755C925.931 637.337 926.527 635.977 927.284 634.705Z" fill="#E1DA9E" fill-opacity="0.31"/>
<path d="M895.565 649.689L898.848 644.174C899.879 642.443 901.71 641.345 903.723 641.251C906.121 641.14 908.354 642.469 909.399 644.63L909.52 644.88C910.335 646.565 910.374 648.523 909.625 650.239L907.124 655.973C906.391 657.653 905.43 659.223 904.267 660.639L901.051 664.557C900.159 665.644 898.912 666.381 897.53 666.64L896.517 666.829C894.849 667.141 893.151 666.456 892.166 665.074C891.385 663.979 891.153 662.586 891.537 661.297L893.79 653.738C894.212 652.32 894.809 650.96 895.565 649.689Z" fill="#E1DA9E" fill-opacity="0.31"/>
<path d="M806.462 607.04L812.563 602.21C814.66 600.55 817.281 600.123 819.512 601.078C822.043 602.162 823.646 604.836 823.625 607.94L823.623 608.318C823.606 610.863 822.57 613.371 820.795 615.167L815.373 620.651C813.709 622.333 811.857 623.763 809.873 624.897L804.625 627.896C803.038 628.803 801.26 629.074 799.616 628.658L798.513 628.38C796.6 627.896 795.193 626.227 794.877 624.066C794.618 622.291 795.128 620.409 796.258 618.969L802.442 611.089C803.635 609.569 804.986 608.208 806.462 607.04Z" fill="#E1DA9E" fill-opacity="0.31"/>
<path d="M764.097 615.182L770.199 610.351C772.295 608.691 774.917 608.264 777.148 609.22C779.679 610.303 781.282 612.978 781.261 616.081L781.259 616.46C781.241 619.005 780.206 621.513 778.431 623.308L773.009 628.792C771.345 630.475 769.493 631.905 767.509 633.038L762.261 636.037C760.673 636.945 758.895 637.215 757.251 636.8L756.149 636.521C754.235 636.038 752.829 634.369 752.513 632.207C752.254 630.433 752.764 628.551 753.894 627.11L760.078 619.231C761.271 617.711 762.622 616.35 764.097 615.182Z" fill="#E1DA9E" fill-opacity="0.31"/>
<path d="M743.993 665.618L750.094 660.788C752.191 659.128 754.812 658.701 757.044 659.656C759.574 660.74 761.177 663.414 761.157 666.518L761.154 666.896C761.137 669.441 760.101 671.949 758.326 673.745L752.904 679.229C751.24 680.912 749.388 682.342 747.405 683.475L742.156 686.474C740.569 687.381 738.791 687.652 737.147 687.236L736.044 686.958C734.131 686.474 732.724 684.806 732.408 682.644C732.149 680.87 732.659 678.987 733.789 677.547L739.974 669.667C741.167 668.147 742.517 666.786 743.993 665.618Z" fill="#E1DA9E" fill-opacity="0.31"/>
<path d="M702.818 667.405L708.919 662.575C711.016 660.915 713.637 660.488 715.869 661.443C718.399 662.527 720.003 665.201 719.982 668.305L719.979 668.683C719.962 671.228 718.927 673.737 717.152 675.532L711.729 681.016C710.065 682.699 708.213 684.129 706.23 685.262L700.982 688.261C699.394 689.168 697.616 689.439 695.972 689.023L694.869 688.745C692.956 688.261 691.55 686.593 691.234 684.431C690.974 682.657 691.484 680.774 692.615 679.334L698.799 671.454C699.992 669.934 701.343 668.573 702.818 667.405Z" fill="#E1DA9E" fill-opacity="0.31"/>
<path d="M1150.38 466.308L1147.8 463.289C1146.99 462.342 1146.71 461.05 1147.05 459.851C1147.46 458.422 1148.68 457.375 1150.16 457.19L1150.33 457.169C1151.48 457.025 1152.63 457.39 1153.49 458.17L1156.36 460.773C1157.2 461.536 1157.93 462.411 1158.53 463.374L1160.19 466.036C1160.65 466.775 1160.84 467.653 1160.72 468.515L1160.63 469.147C1160.48 470.187 1159.74 471.047 1158.73 471.351C1157.94 471.592 1157.07 471.452 1156.39 470.972L1152.41 468.152C1151.66 467.624 1150.98 467.004 1150.38 466.308Z" fill="#E1DA9E" fill-opacity="0.31"/>
<path d="M1155.89 488.117L1153.3 485.098C1152.49 484.15 1152.21 482.859 1152.56 481.659C1152.97 480.231 1154.19 479.184 1155.66 478.999L1155.83 478.978C1156.98 478.834 1158.14 479.199 1159 479.978L1161.87 482.582C1162.71 483.344 1163.44 484.219 1164.04 485.182L1165.7 487.845C1166.16 488.584 1166.34 489.461 1166.22 490.323L1166.13 490.955C1165.98 491.996 1165.25 492.856 1164.24 493.16C1163.44 493.401 1162.58 493.261 1161.9 492.78L1157.91 489.961C1157.16 489.432 1156.48 488.813 1155.89 488.117Z" fill="#E1DA9E" fill-opacity="0.31"/>
<path d="M1180.17 495.585L1177.59 492.566C1176.78 491.618 1176.5 490.326 1176.84 489.127C1177.25 487.698 1178.47 486.652 1179.95 486.467L1180.12 486.445C1181.27 486.301 1182.42 486.667 1183.28 487.446L1186.15 490.05C1186.99 490.812 1187.72 491.687 1188.32 492.65L1189.98 495.313C1190.44 496.051 1190.63 496.929 1190.51 497.791L1190.42 498.423C1190.27 499.463 1189.53 500.324 1188.53 500.628C1187.73 500.869 1186.87 500.728 1186.19 500.248L1182.2 497.429C1181.45 496.9 1180.77 496.28 1180.17 495.585Z" fill="#E1DA9E" fill-opacity="0.31"/>
<path d="M1182.68 517.163L1180.09 514.144C1179.28 513.196 1179 511.905 1179.35 510.705C1179.76 509.277 1180.98 508.23 1182.45 508.045L1182.62 508.024C1183.77 507.879 1184.93 508.245 1185.79 509.024L1188.66 511.628C1189.5 512.39 1190.23 513.265 1190.83 514.228L1192.49 516.891C1192.95 517.63 1193.13 518.507 1193.01 519.369L1192.92 520.001C1192.77 521.042 1192.04 521.902 1191.03 522.206C1190.23 522.447 1189.37 522.307 1188.69 521.826L1184.7 519.007C1183.95 518.478 1183.28 517.859 1182.68 517.163Z" fill="#E1DA9E" fill-opacity="0.31"/>
<path d="M1119.79 419.716L1118.68 417.381C1118.33 416.648 1118.37 415.788 1118.79 415.093C1119.29 414.265 1120.24 413.815 1121.19 413.949L1121.31 413.965C1122.05 414.069 1122.72 414.495 1123.12 415.13L1124.48 417.253C1124.88 417.875 1125.19 418.548 1125.41 419.255L1126 421.21C1126.16 421.752 1126.13 422.335 1125.91 422.855L1125.74 423.237C1125.47 423.866 1124.86 424.281 1124.18 424.301C1123.64 424.317 1123.12 424.083 1122.77 423.666L1120.75 421.218C1120.37 420.758 1120.05 420.254 1119.79 419.716Z" fill="#E1DA9E" fill-opacity="0.31"/>
<path d="M1119.55 434.351L1118.44 432.016C1118.09 431.283 1118.13 430.424 1118.55 429.729C1119.05 428.901 1119.99 428.451 1120.95 428.585L1121.06 428.601C1121.81 428.705 1122.47 429.131 1122.88 429.766L1124.24 431.889C1124.64 432.51 1124.95 433.184 1125.16 433.891L1125.76 435.845C1125.92 436.388 1125.89 436.97 1125.66 437.491L1125.5 437.873C1125.23 438.502 1124.62 438.917 1123.94 438.937C1123.4 438.953 1122.88 438.719 1122.53 438.301L1120.51 435.853C1120.13 435.394 1119.8 434.89 1119.55 434.351Z" fill="#E1DA9E" fill-opacity="0.31"/>
<path d="M1133.54 443.165L1132.43 440.83C1132.08 440.097 1132.12 439.238 1132.54 438.543C1133.04 437.715 1133.98 437.264 1134.94 437.399L1135.05 437.414C1135.8 437.519 1136.46 437.944 1136.87 438.58L1138.23 440.702C1138.63 441.324 1138.94 441.997 1139.15 442.704L1139.75 444.659C1139.91 445.201 1139.88 445.784 1139.65 446.305L1139.49 446.686C1139.22 447.315 1138.61 447.73 1137.93 447.75C1137.39 447.767 1136.87 447.532 1136.52 447.115L1134.5 444.667C1134.12 444.208 1133.79 443.703 1133.54 443.165Z" fill="#E1DA9E" fill-opacity="0.31"/>
<path d="M1131.45 457.144L1130.34 454.809C1129.99 454.076 1130.03 453.217 1130.45 452.522C1130.95 451.694 1131.9 451.244 1132.85 451.378L1132.96 451.394C1133.71 451.498 1134.38 451.924 1134.78 452.559L1136.14 454.682C1136.54 455.303 1136.85 455.977 1137.07 456.684L1137.66 458.638C1137.82 459.181 1137.79 459.763 1137.57 460.284L1137.4 460.666C1137.13 461.294 1136.52 461.71 1135.84 461.73C1135.3 461.746 1134.78 461.512 1134.43 461.094L1132.41 458.646C1132.03 458.187 1131.7 457.683 1131.45 457.144Z" fill="#E1DA9E" fill-opacity="0.31"/>
<path d="M968.006 418.608L968.97 416.208C969.272 415.455 969.933 414.904 970.728 414.741C971.676 414.548 972.648 414.938 973.199 415.733L973.262 415.825C973.692 416.445 973.829 417.222 973.637 417.952L972.998 420.39C972.811 421.105 972.526 421.79 972.151 422.426L971.115 424.185C970.827 424.674 970.377 425.045 969.843 425.234L969.451 425.372C968.806 425.6 968.088 425.433 967.61 424.944C967.231 424.557 967.052 424.016 967.124 423.48L967.551 420.33C967.631 419.739 967.784 419.161 968.006 418.608Z" fill="#E1DA9E" fill-opacity="0.31"/>
<path d="M957.08 428.348L958.044 425.948C958.347 425.195 959.007 424.644 959.803 424.481C960.75 424.288 961.722 424.678 962.273 425.473L962.336 425.565C962.766 426.186 962.903 426.963 962.712 427.692L962.072 430.131C961.885 430.845 961.6 431.53 961.226 432.166L960.189 433.926C959.901 434.414 959.451 434.785 958.917 434.974L958.525 435.112C957.88 435.34 957.162 435.173 956.684 434.684C956.305 434.297 956.126 433.757 956.199 433.22L956.625 430.07C956.705 429.48 956.858 428.901 957.08 428.348Z" fill="#E1DA9E" fill-opacity="0.31"/>
<path d="M960.08 444.608L961.044 442.208C961.347 441.455 962.007 440.904 962.803 440.741C963.75 440.548 964.722 440.938 965.273 441.733L965.336 441.825C965.766 442.445 965.903 443.222 965.712 443.952L965.072 446.39C964.885 447.105 964.6 447.79 964.226 448.426L963.189 450.185C962.901 450.674 962.451 451.045 961.917 451.234L961.525 451.372C960.88 451.6 960.162 451.433 959.684 450.944C959.305 450.557 959.126 450.016 959.199 449.48L959.625 446.33C959.705 445.739 959.858 445.161 960.08 444.608Z" fill="#E1DA9E" fill-opacity="0.31"/>
<path d="M948.385 452.546L949.349 450.146C949.651 449.393 950.312 448.842 951.107 448.68C952.055 448.486 953.027 448.876 953.577 449.672L953.641 449.764C954.07 450.384 954.207 451.161 954.016 451.891L953.377 454.329C953.19 455.043 952.905 455.728 952.53 456.364L951.494 458.124C951.206 458.612 950.756 458.983 950.221 459.172L949.83 459.31C949.185 459.538 948.467 459.371 947.988 458.882C947.61 458.495 947.431 457.955 947.503 457.418L947.93 454.269C948.01 453.678 948.163 453.099 948.385 452.546Z" fill="#E1DA9E" fill-opacity="0.31"/>
<path d="M899.008 424.087L901.267 421.672C901.977 420.912 902.96 420.584 903.883 420.798C904.98 421.053 905.8 422.03 905.967 423.281L905.986 423.425C906.117 424.402 905.857 425.419 905.276 426.208L903.339 428.838C902.771 429.609 902.115 430.295 901.39 430.874L899.387 432.475C898.83 432.92 898.163 433.138 897.502 433.091L897.018 433.056C896.221 433 895.552 432.425 895.302 431.584C895.104 430.917 895.196 430.167 895.552 429.551L897.635 425.946C898.025 425.269 898.487 424.645 899.008 424.087Z" fill="#E1DA9E" fill-opacity="0.31"/>
<path d="M882.448 430.271L884.706 427.856C885.417 427.096 886.4 426.767 887.322 426.982C888.42 427.237 889.24 428.213 889.406 429.464L889.426 429.609C889.556 430.586 889.296 431.602 888.715 432.392L886.779 435.022C886.211 435.793 885.555 436.478 884.83 437.057L882.827 438.658C882.27 439.103 881.602 439.322 880.941 439.274L880.458 439.24C879.66 439.183 878.991 438.609 878.741 437.767C878.543 437.1 878.636 436.35 878.991 435.735L881.074 432.13C881.465 431.453 881.926 430.828 882.448 430.271Z" fill="#E1DA9E" fill-opacity="0.31"/>
<path d="M877.166 451.582L879.425 449.167C880.135 448.407 881.118 448.079 882.041 448.293C883.139 448.549 883.958 449.525 884.125 450.776L884.144 450.921C884.275 451.898 884.015 452.914 883.434 453.703L881.497 456.333C880.929 457.105 880.274 457.79 879.549 458.369L877.546 459.97C876.989 460.415 876.321 460.633 875.66 460.586L875.176 460.551C874.379 460.495 873.71 459.92 873.46 459.079C873.262 458.412 873.354 457.662 873.71 457.046L875.793 453.441C876.184 452.764 876.645 452.14 877.166 451.582Z" fill="#E1DA9E" fill-opacity="0.31"/>
<path d="M860.733 455.174L862.991 452.759C863.702 451.999 864.685 451.671 865.607 451.885C866.705 452.14 867.525 453.117 867.692 454.368L867.711 454.512C867.841 455.489 867.582 456.506 867.001 457.295L865.064 459.925C864.496 460.696 863.84 461.381 863.115 461.961L861.112 463.562C860.555 464.007 859.887 464.225 859.226 464.178L858.743 464.143C857.946 464.086 857.276 463.512 857.026 462.671C856.829 462.004 856.921 461.254 857.276 460.638L859.359 457.033C859.75 456.356 860.212 455.732 860.733 455.174Z" fill="#E1DA9E" fill-opacity="0.31"/>
<defs>
<linearGradient id="paint0_linear_421_107" x1="960" y1="0" x2="960" y2="342" gradientUnits="userSpaceOnUse">
<stop stop-color="#449DCE"/>
<stop offset="0.9999" stop-color="#449DCE" stop-opacity="0.328543"/>
<stop offset="1" stop-color="#449DCE" stop-opacity="0.14"/>
</linearGradient>
<linearGradient id="paint1_linear_421_107" x1="615.75" y1="272.844" x2="615.75" y2="500" gradientUnits="userSpaceOnUse">
<stop offset="0.03125" stop-color="#F3ECB3"/>
<stop offset="1" stop-color="#F3ECB3" stop-opacity="0"/>
</linearGradient>
<linearGradient id="paint2_linear_421_107" x1="112.421" y1="248.962" x2="112.421" y2="611" gradientUnits="userSpaceOnUse">
<stop offset="0.526042" stop-color="#F3ECB3"/>
<stop offset="1" stop-color="#F3ECB3" stop-opacity="0"/>
</linearGradient>
<linearGradient id="paint3_linear_421_107" x1="1304.25" y1="306.5" x2="1304.25" y2="416.564" gradientUnits="userSpaceOnUse">
<stop offset="0.395833" stop-color="#F3EDB3"/>
<stop offset="1" stop-color="#F3EDB3" stop-opacity="0"/>
</linearGradient>
<linearGradient id="paint4_linear_421_107" x1="1713" y1="248.001" x2="1675" y2="464.501" gradientUnits="userSpaceOnUse">
<stop offset="0.686941" stop-color="#F3EDB3"/>
<stop offset="1" stop-color="#FFFACD"/>
</linearGradient>
</defs>
</svg>
