<svg width="1919" height="831" viewBox="0 0 1919 831" fill="none" xmlns="http://www.w3.org/2000/svg">
<g opacity="0.5">
<path d="M1838.84 770.576C1839.9 799.966 1827.84 845.076 1827.84 845.076H1797.34C1797.34 845.076 1813.54 800.332 1813.34 770.576C1813.09 732.945 1790.13 715.515 1786.34 678.076C1782.14 636.476 1798.46 613.373 1797.34 571.576C1795.94 518.9 1774.08 491.722 1771.84 439.076C1769.58 385.905 1789.89 356.676 1786.34 303.575C1783.16 255.838 1760.98 231.892 1759.35 184.075C1757.98 144.161 1758.4 120.182 1771.84 82.5755C1776.52 69.4888 1772.51 48.7808 1786.34 50.0755C1799.69 51.3237 1794.44 69.4945 1797.34 82.5755C1805.98 121.499 1784.67 144.24 1786.34 184.075C1788.35 231.877 1810.4 255.822 1813.34 303.575C1816.62 356.758 1794.43 385.871 1797.34 439.076C1800.25 492.094 1826.57 518.493 1827.84 571.576C1828.86 613.538 1810.06 636.23 1813.34 678.076C1816.28 715.431 1837.5 733.128 1838.84 770.576Z" fill="#669A2E"/>
<path d="M1681.84 770.575C1682.9 799.966 1670.84 845.075 1670.84 845.075H1640.35C1640.35 845.075 1656.54 800.332 1656.35 770.575C1656.09 732.945 1633.13 715.515 1629.35 678.075C1625.14 636.476 1641.46 613.372 1640.35 571.575C1638.94 518.9 1631.58 491.721 1629.35 439.075C1627.08 385.905 1632.89 356.675 1629.35 303.575C1626.16 255.837 1603.98 231.891 1602.35 184.075C1600.98 144.161 1603.91 174.517 1606.41 134.017C1607.27 120.145 1615.51 105.222 1629.35 106.517C1642.69 107.765 1644.53 132.289 1640.35 145.019C1629.35 178.517 1639.18 145.438 1629.35 184.075C1618.41 227.017 1653.4 255.822 1656.35 303.575C1659.62 356.758 1653.43 385.871 1656.35 439.075C1659.25 492.093 1669.57 518.493 1670.84 571.575C1671.86 613.538 1653.06 636.23 1656.35 678.075C1659.28 715.431 1680.5 733.128 1681.84 770.575Z" fill="#669A2E"/>
<path d="M1754.34 761.018C1755.4 790.408 1768.85 845.075 1768.85 845.075H1738.35C1738.35 845.075 1723.61 790.774 1723.41 761.018C1723.16 723.388 1731.13 715.515 1727.35 678.075C1723.14 636.475 1686.52 613.372 1685.41 571.575C1684.01 518.9 1715.08 491.721 1712.85 439.075C1710.58 385.905 1688.95 356.675 1685.41 303.575C1682.23 255.837 1701.98 231.891 1700.35 184.075C1698.98 144.161 1671.97 120.181 1685.41 82.575C1690.09 69.4882 1699.01 -1.27715 1712.85 0.0175413C1726.19 1.26578 1709.94 79.9366 1712.85 93.0176C1721.48 131.941 1725.67 144.24 1727.35 184.075C1729.35 231.877 1709.9 255.822 1712.85 303.575C1716.12 356.758 1735.43 385.871 1738.35 439.075C1741.25 492.093 1711.57 518.493 1712.85 571.575C1713.86 613.537 1751.06 636.23 1754.35 678.075C1757.28 715.431 1753 723.571 1754.34 761.018Z" fill="#448400"/>
</g>
<g opacity="0.5">
<path d="M390.846 1373.09C391.899 1402.48 379.846 1447.59 379.846 1447.59H349.346C349.346 1447.59 365.545 1402.84 365.346 1373.09C365.095 1335.46 342.135 1318.02 338.346 1280.59C334.137 1238.99 350.459 1215.88 349.346 1174.09C347.944 1121.41 326.085 1094.23 323.846 1041.59C321.585 988.415 341.889 959.185 338.346 906.085C335.161 858.347 312.98 834.401 311.346 786.585C309.983 746.671 310.401 722.692 323.846 685.085C328.525 671.999 324.509 651.291 338.346 652.585C351.687 653.833 346.443 672.004 349.346 685.085C357.985 724.008 336.673 746.75 338.346 786.585C340.355 834.387 362.403 858.332 365.346 906.085C368.625 959.268 346.435 988.381 349.346 1041.59C352.247 1094.6 378.568 1121 379.846 1174.09C380.857 1216.05 362.057 1238.74 365.346 1280.59C368.283 1317.94 389.505 1335.64 390.846 1373.09Z" fill="#669A2E"/>
<path d="M233.847 1373.09C234.899 1402.48 222.847 1447.59 222.847 1447.59H192.347C192.347 1447.59 208.546 1402.84 208.347 1373.09C208.096 1335.45 185.136 1318.02 181.347 1280.59C177.137 1238.99 193.46 1215.88 192.347 1174.08C190.945 1121.41 183.586 1094.23 181.347 1041.58C179.086 988.415 184.89 959.185 181.347 906.085C178.162 858.347 155.981 834.401 154.347 786.585C152.983 746.671 155.912 777.026 158.412 736.527C159.268 722.655 167.51 707.732 181.347 709.027C194.688 710.275 196.528 734.798 192.347 747.529C181.347 781.026 191.186 747.948 181.347 786.585C170.412 829.526 205.403 858.331 208.347 906.085C211.625 959.268 205.436 988.381 208.347 1041.58C211.248 1094.6 221.568 1121 222.847 1174.08C223.858 1216.05 205.057 1238.74 208.347 1280.59C211.284 1317.94 232.506 1335.64 233.847 1373.09Z" fill="#669A2E"/>
<path d="M306.347 1363.53C307.399 1392.92 320.847 1447.58 320.847 1447.58H290.347C290.347 1447.58 275.611 1393.28 275.413 1363.53C275.161 1325.9 283.136 1318.02 279.347 1280.58C275.138 1238.99 238.525 1215.88 237.413 1174.08C236.01 1121.41 267.086 1094.23 264.847 1041.58C262.586 988.415 240.956 959.185 237.413 906.085C234.227 858.347 253.981 834.401 252.347 786.585C250.984 746.67 252.347 766.515 237.413 728.015C232.386 715.058 211.574 605.717 225.412 607.011C238.753 608.26 261.944 682.446 264.847 695.527C273.486 734.451 277.674 746.75 279.347 786.585C281.356 834.387 261.904 858.331 264.847 906.085C268.126 959.267 287.436 988.381 290.347 1041.58C293.248 1094.6 263.569 1121 264.847 1174.08C265.858 1216.05 303.058 1238.74 306.347 1280.58C309.284 1317.94 305.006 1326.08 306.347 1363.53Z" fill="#448400"/>
</g>
</svg>
