<svg width="238" height="161" viewBox="0 0 238 161" fill="none" xmlns="http://www.w3.org/2000/svg">
<circle cx="125.475" cy="80.502" r="66" stroke="#E06D02" stroke-width="28"/>
<path d="M87.9748 44.502C91.9388 39.8653 98.9748 35.502 98.9748 35.502C98.9748 35.502 90.7748 29.5476 86.9748 25.502C83.3382 21.6303 79.9748 14.502 79.9748 14.502C79.9748 14.502 76.9746 15.502 67.4745 25.002C63.0713 29.4051 58.8584 36.502 58.8584 36.502C58.8584 36.502 60.9378 42.5119 64.9748 46.502C69.3135 50.7901 79.9748 56.502 79.9748 56.502C79.9748 56.502 84.6661 48.3722 87.9748 44.502Z" fill="white"/>
<path d="M164.474 115.502C160.51 120.139 153.474 124.502 153.474 124.502C153.474 124.502 161.674 130.456 165.474 134.502C169.111 138.374 172.474 145.502 172.474 145.502C172.474 145.502 175.475 144.502 184.975 135.002C189.378 130.599 193.591 123.502 193.591 123.502C193.591 123.502 191.511 117.492 187.474 113.502C183.136 109.214 172.474 103.502 172.474 103.502C172.474 103.502 167.783 111.632 164.474 115.502Z" fill="white"/>
<path d="M90.4746 118.502C85.8379 114.538 81.4746 107.502 81.4746 107.502C81.4746 107.502 75.5202 115.702 71.4746 119.502C67.603 123.138 60.4746 126.502 60.4746 126.502C60.4746 126.502 61.4746 129.502 70.9746 139.002C75.3777 143.405 82.4746 147.618 82.4746 147.618C82.4746 147.618 88.4846 145.539 92.4746 141.502C96.7628 137.163 102.475 126.502 102.475 126.502C102.475 126.502 94.3448 121.811 90.4746 118.502Z" fill="white"/>
<path d="M160.475 42.002C164.975 46.002 169.475 52.6184 169.475 52.6184C169.475 52.6184 175.429 44.4184 179.475 40.6184C183.346 36.9818 190.475 33.6184 190.475 33.6184C190.475 33.6184 189.475 30.6182 179.975 21.118C175.571 16.7149 167.975 12.502 167.975 12.502C167.975 12.502 162.465 14.5814 158.475 18.6184C154.186 22.957 148.475 33.6184 148.475 33.6184C148.475 33.6184 156.669 38.6191 160.475 42.002Z" fill="white"/>
<g filter="url(#filter0_d_280_153)">
<path d="M23.1504 66.7031C23.0202 66.2474 22.7598 65.9382 22.3691 65.7754C22.0111 65.6126 21.6042 65.5312 21.1484 65.5312C20.7253 65.4987 20.3021 65.515 19.8789 65.5801C19.4557 65.6452 19.1302 65.6777 18.9023 65.6777C18.349 65.6452 17.3887 65.5801 16.0215 65.4824C14.6543 65.3848 13.1732 65.2871 11.5781 65.1895C10.0156 65.0592 8.55078 64.9453 7.18359 64.8477C5.81641 64.7174 4.85612 64.6361 4.30273 64.6035C4.30273 64.5384 4.28646 64.3757 4.25391 64.1152C4.22135 63.8548 4.20508 63.6758 4.20508 63.5781C4.20508 63.1224 4.23763 62.7155 4.30273 62.3574C4.40039 61.9993 4.72591 61.7227 5.2793 61.5273C8.33919 61.5924 11.3503 61.5762 14.3125 61.4785C17.3073 61.3809 20.2858 61.2507 23.248 61.0879C26.2428 60.8926 29.2214 60.7135 32.1836 60.5508C35.1784 60.388 38.1895 60.3066 41.2168 60.3066C41.2168 61.5436 40.9238 62.4551 40.3379 63.041C39.752 63.5944 39.0195 63.9688 38.1406 64.1641C37.2943 64.3594 36.3503 64.4408 35.3086 64.4082C34.2669 64.3757 33.2578 64.3919 32.2812 64.457C31.3372 64.5221 30.4909 64.7174 29.7422 65.043C29.026 65.3359 28.554 65.8893 28.3262 66.7031C28.2936 66.8984 28.2611 67.2728 28.2285 67.8262C28.196 68.3796 28.1634 68.9655 28.1309 69.584C28.1309 70.2025 28.1146 70.7884 28.082 71.3418C28.082 71.8626 28.082 72.237 28.082 72.4648C28.082 74.3203 28.3099 76.1595 28.7656 77.9824C29.2539 79.7728 29.7747 81.5632 30.3281 83.3535C30.9141 85.1113 31.4349 86.8854 31.8906 88.6758C32.3789 90.4336 32.623 92.224 32.623 94.0469C32.623 95.4141 31.8418 96.0977 30.2793 96.0977C29.3353 96.0977 28.4889 95.4466 27.7402 94.1445C27.0241 92.8424 26.3893 91.1823 25.8359 89.1641C25.3151 87.1458 24.8757 84.9486 24.5176 82.5723C24.1921 80.196 23.9154 77.9173 23.6875 75.7363C23.4922 73.5553 23.3457 71.6348 23.248 69.9746C23.1829 68.3145 23.1504 67.224 23.1504 66.7031ZM43.9512 86.0879C43.9512 84.0697 44.4232 82.1979 45.3672 80.4727C46.3112 78.7148 47.5482 77.2174 49.0781 75.9805C50.6406 74.7109 52.3822 73.7181 54.3027 73.002C56.2559 72.2858 58.2253 71.9277 60.2109 71.9277C61.3177 71.9277 62.2943 72.2858 63.1406 73.002C64.0195 73.7181 64.752 74.597 65.3379 75.6387C65.9238 76.6478 66.3633 77.722 66.6562 78.8613C66.9818 80.0007 67.1445 80.9935 67.1445 81.8398C67.1445 83.6628 66.7051 85.4368 65.8262 87.1621C64.9473 88.8548 63.8079 90.3685 62.4082 91.7031C61.0085 93.0052 59.4297 94.0632 57.6719 94.877C55.9141 95.6908 54.1562 96.0977 52.3984 96.0977C50.8359 96.0977 49.5176 95.8372 48.4434 95.3164C47.3691 94.763 46.5065 94.0469 45.8555 93.168C45.2044 92.2565 44.7161 91.1986 44.3906 89.9941C44.0977 88.7572 43.9512 87.4551 43.9512 86.0879ZM48.1016 86.5762C48.1016 87.4225 48.1667 88.1712 48.2969 88.8223C48.4596 89.4408 48.7201 89.9779 49.0781 90.4336C49.4688 90.8893 49.9733 91.2474 50.5918 91.5078C51.2103 91.7357 51.9753 91.8496 52.8867 91.8496C54.0911 91.8496 55.2956 91.5241 56.5 90.873C57.7044 90.1895 58.7786 89.3431 59.7227 88.334C60.6992 87.2923 61.4805 86.153 62.0664 84.916C62.6523 83.679 62.9453 82.4746 62.9453 81.3027C62.9453 80.7819 62.8965 80.2122 62.7988 79.5938C62.7012 78.9753 62.5384 78.4056 62.3105 77.8848C62.0827 77.3639 61.7572 76.9245 61.334 76.5664C60.9108 76.2083 60.3737 76.0293 59.7227 76.0293C59.1367 76.0293 58.4368 76.2246 57.623 76.6152C56.8418 77.0059 56.0117 77.5104 55.1328 78.1289C54.2865 78.7474 53.4401 79.4473 52.5938 80.2285C51.7799 81.0098 51.0312 81.791 50.3477 82.5723C49.6641 83.3535 49.1107 84.1022 48.6875 84.8184C48.2969 85.5345 48.1016 86.1204 48.1016 86.5762ZM69.0488 76.0781C69.0488 75.8828 69.0488 75.541 69.0488 75.0527C69.0814 74.5319 69.0977 73.9948 69.0977 73.4414C69.0977 72.888 69.0977 72.3835 69.0977 71.9277C69.1302 71.4395 69.1465 71.0977 69.1465 70.9023C69.3743 70.5117 69.6348 70.1374 69.9277 69.7793C70.2533 69.3887 70.5788 69.1283 70.9043 68.998C71.2624 68.8353 71.6367 68.8027 72.0273 68.9004C72.4505 68.998 72.8737 69.3236 73.2969 69.877V70.2676V70.9023C73.2643 71.0651 73.1992 71.4557 73.1016 72.0742C73.0039 72.6602 72.89 73.3112 72.7598 74.0273C72.6296 74.7435 72.4993 75.4108 72.3691 76.0293C72.2715 76.6152 72.2227 76.9896 72.2227 77.1523C72.2227 77.7708 72.2878 78.5521 72.418 79.4961C72.5482 80.4076 72.7272 81.3678 72.9551 82.377C73.2155 83.3861 73.5247 84.3952 73.8828 85.4043C74.2734 86.4134 74.7292 87.3249 75.25 88.1387C75.7708 88.9199 76.3405 89.571 76.959 90.0918C77.61 90.6126 78.3587 90.873 79.2051 90.873C80.2467 90.873 81.1582 90.5964 81.9395 90.043C82.7533 89.4896 83.4531 88.7734 84.0391 87.8945C84.625 87.0156 85.097 86.0228 85.4551 84.916C85.8457 83.8092 86.1549 82.7025 86.3828 81.5957C86.6107 80.4564 86.7734 79.3659 86.8711 78.3242C86.9688 77.2826 87.0176 76.3711 87.0176 75.5898C87.0176 74.8086 86.9525 74.0762 86.8223 73.3926C86.7246 72.6764 86.5944 71.9766 86.4316 71.293C86.2689 70.6094 86.1224 69.9421 85.9922 69.291C85.8945 68.6074 85.8457 67.9238 85.8457 67.2402C85.8457 66.6217 86.0573 66.1823 86.4805 65.9219C86.9362 65.6615 87.4408 65.5312 87.9941 65.5312C88.6777 65.5312 89.2311 65.7428 89.6543 66.166C90.0775 66.5566 90.403 67.0612 90.6309 67.6797C90.8913 68.2982 91.054 69.0143 91.1191 69.8281C91.2168 70.6094 91.2656 71.3906 91.2656 72.1719C91.2656 72.9531 91.2493 73.7018 91.2168 74.418C91.1842 75.1016 91.168 75.6549 91.168 76.0781C91.168 77.1849 91.0866 78.4382 90.9238 79.8379C90.7611 81.2376 90.4681 82.6862 90.0449 84.1836C89.6543 85.6484 89.1497 87.097 88.5312 88.5293C87.9453 89.9616 87.2129 91.2474 86.334 92.3867C85.4876 93.4935 84.4948 94.3887 83.3555 95.0723C82.2487 95.7559 80.9954 96.0977 79.5957 96.0977C78.1309 96.0977 76.8451 95.7559 75.7383 95.0723C74.6315 94.3561 73.6875 93.4284 72.9062 92.2891C72.1576 91.1172 71.5228 89.7988 71.002 88.334C70.4811 86.8691 70.0742 85.4043 69.7812 83.9395C69.5208 82.4746 69.3255 81.0586 69.1953 79.6914C69.0977 78.2917 69.0488 77.0872 69.0488 76.0781ZM93.0723 71.3906C93.0723 71.293 93.0885 71.2116 93.1211 71.1465C93.1211 71.0814 93.1374 71 93.1699 70.9023C93.3001 70.7396 93.4954 70.528 93.7559 70.2676C94.0163 70.0072 94.179 69.877 94.2441 69.877H104.059C104.059 69.5189 104.01 68.9492 103.912 68.168C103.814 67.3867 103.717 66.5241 103.619 65.5801C103.554 64.6361 103.538 63.6595 103.57 62.6504C103.603 61.6087 103.733 60.681 103.961 59.8672C104.221 59.0208 104.612 58.3372 105.133 57.8164C105.686 57.263 106.451 56.9863 107.428 56.9863C107.428 60.2741 107.656 62.9108 108.111 64.8965C108.567 66.8822 109.169 68.4121 109.918 69.4863C110.699 70.5605 111.578 71.2604 112.555 71.5859C113.531 71.9115 114.524 72.0579 115.533 72.0254C116.575 71.9603 117.584 71.7975 118.561 71.5371C119.537 71.2767 120.4 71.0977 121.148 71C121.93 70.9023 122.548 70.9837 123.004 71.2441C123.46 71.472 123.688 72.0417 123.688 72.9531C123.688 73.6367 123.525 74.125 123.199 74.418C122.906 74.7109 122.32 74.9388 121.441 75.1016C121.181 75.1341 120.742 75.1992 120.123 75.2969C119.537 75.362 118.87 75.4271 118.121 75.4922C117.372 75.5573 116.575 75.6387 115.729 75.7363C114.882 75.8014 114.085 75.8665 113.336 75.9316C112.587 75.9967 111.904 76.0456 111.285 76.0781C110.667 76.0781 110.211 76.0781 109.918 76.0781C109.918 76.2409 109.902 76.5176 109.869 76.9082C109.837 77.2988 109.82 77.5592 109.82 77.6895C109.82 79.1217 110.048 80.5215 110.504 81.8887C110.96 83.2233 111.448 84.5579 111.969 85.8926C112.522 87.2272 113.027 88.5618 113.482 89.8965C113.938 91.2311 114.166 92.6146 114.166 94.0469C114.166 94.3073 114.133 94.584 114.068 94.877C114.036 95.1374 113.938 95.3815 113.775 95.6094C113.645 95.8047 113.434 95.9512 113.141 96.0488C112.88 96.179 112.506 96.1628 112.018 96C110.781 95.6745 109.853 94.9746 109.234 93.9004C108.648 92.8262 108.209 91.5566 107.916 90.0918C107.623 88.5944 107.428 87.0156 107.33 85.3555C107.232 83.6953 107.07 82.1491 106.842 80.7168C106.646 79.252 106.321 78.015 105.865 77.0059C105.41 75.9642 104.677 75.3294 103.668 75.1016L94.2441 72.9531C94.1139 72.9531 93.9186 72.8229 93.6582 72.5625C93.3978 72.2695 93.235 72.0579 93.1699 71.9277C93.1374 71.8626 93.1211 71.7812 93.1211 71.6836C93.0885 71.6185 93.0723 71.5208 93.0723 71.3906ZM147.76 70.5605C147.988 69.7793 148.248 69.4212 148.541 69.4863C148.867 69.5514 149.257 69.9258 149.713 70.6094C150.169 71.293 150.673 72.2044 151.227 73.3438C151.812 74.4831 152.431 75.7201 153.082 77.0547C153.733 78.3568 154.433 79.6914 155.182 81.0586C155.963 82.4258 156.76 83.679 157.574 84.8184C158.421 85.9577 159.299 86.9017 160.211 87.6504C161.155 88.3991 162.115 88.8385 163.092 88.9688L166.998 68.7539C167.063 68.2005 167.307 67.8913 167.73 67.8262C168.186 67.7285 168.626 67.6797 169.049 67.6797C170.514 67.6797 171.246 68.3633 171.246 69.7305C171.246 70.4466 171.181 71.5859 171.051 73.1484C170.921 74.7109 170.709 76.4362 170.416 78.3242C170.123 80.1797 169.765 82.1003 169.342 84.0859C168.919 86.0391 168.414 87.8294 167.828 89.457C167.242 91.0846 166.559 92.4193 165.777 93.4609C165.029 94.5026 164.199 95.0234 163.287 95.0234C161.952 95.0234 160.634 94.584 159.332 93.7051C158.03 92.7936 156.793 91.6217 155.621 90.1895C154.482 88.7246 153.424 87.097 152.447 85.3066C151.503 83.5163 150.673 81.7259 149.957 79.9355C149.273 78.1126 148.736 76.3711 148.346 74.7109C147.955 73.0508 147.76 71.6673 147.76 70.5605ZM174.176 86.0879C174.176 84.0697 174.648 82.1979 175.592 80.4727C176.536 78.7148 177.773 77.2174 179.303 75.9805C180.865 74.7109 182.607 73.7181 184.527 73.002C186.48 72.2858 188.45 71.9277 190.436 71.9277C191.542 71.9277 192.519 72.2858 193.365 73.002C194.244 73.7181 194.977 74.597 195.562 75.6387C196.148 76.6478 196.588 77.722 196.881 78.8613C197.206 80.0007 197.369 80.9935 197.369 81.8398C197.369 83.6628 196.93 85.4368 196.051 87.1621C195.172 88.8548 194.033 90.3685 192.633 91.7031C191.233 93.0052 189.654 94.0632 187.896 94.877C186.139 95.6908 184.381 96.0977 182.623 96.0977C181.061 96.0977 179.742 95.8372 178.668 95.3164C177.594 94.763 176.731 94.0469 176.08 93.168C175.429 92.2565 174.941 91.1986 174.615 89.9941C174.322 88.7572 174.176 87.4551 174.176 86.0879ZM178.326 86.5762C178.326 87.4225 178.391 88.1712 178.521 88.8223C178.684 89.4408 178.945 89.9779 179.303 90.4336C179.693 90.8893 180.198 91.2474 180.816 91.5078C181.435 91.7357 182.2 91.8496 183.111 91.8496C184.316 91.8496 185.52 91.5241 186.725 90.873C187.929 90.1895 189.003 89.3431 189.947 88.334C190.924 87.2923 191.705 86.153 192.291 84.916C192.877 83.679 193.17 82.4746 193.17 81.3027C193.17 80.7819 193.121 80.2122 193.023 79.5938C192.926 78.9753 192.763 78.4056 192.535 77.8848C192.307 77.3639 191.982 76.9245 191.559 76.5664C191.135 76.2083 190.598 76.0293 189.947 76.0293C189.361 76.0293 188.661 76.2246 187.848 76.6152C187.066 77.0059 186.236 77.5104 185.357 78.1289C184.511 78.7474 183.665 79.4473 182.818 80.2285C182.005 81.0098 181.256 81.791 180.572 82.5723C179.889 83.3535 179.335 84.1022 178.912 84.8184C178.521 85.5345 178.326 86.1204 178.326 86.5762ZM201.324 77.6895C201.324 77.4941 201.324 77.1849 201.324 76.7617C201.357 76.306 201.373 75.834 201.373 75.3457C201.406 74.8574 201.422 74.3854 201.422 73.9297C201.454 73.474 201.471 73.1484 201.471 72.9531C201.829 72.4323 202.285 72.0091 202.838 71.6836C203.424 71.3581 204.01 71.0977 204.596 70.9023C204.693 72.6602 204.97 74.5319 205.426 76.5176C205.882 78.5033 206.37 80.5052 206.891 82.5234C207.411 84.5091 207.867 86.4785 208.258 88.4316C208.681 90.3848 208.893 92.2077 208.893 93.9004C208.893 95.3652 208.144 96.0977 206.646 96.0977C205.735 96.0977 204.97 95.7233 204.352 94.9746C203.733 94.2259 203.229 93.2819 202.838 92.1426C202.48 90.9707 202.187 89.6849 201.959 88.2852C201.731 86.8529 201.568 85.4531 201.471 84.0859C201.406 82.7188 201.357 81.4655 201.324 80.3262C201.324 79.1868 201.324 78.3079 201.324 77.6895ZM202.008 59.3789C202.626 59.6393 203.147 60.0625 203.57 60.6484C203.993 61.2344 204.173 61.7715 204.107 62.2598C204.075 62.7155 203.717 63.041 203.033 63.2363C202.35 63.3991 201.21 63.2038 199.615 62.6504C199.615 61.7715 199.778 61.0065 200.104 60.3555C200.462 59.7044 201.096 59.3789 202.008 59.3789ZM210.797 75.4922C210.797 75.1992 210.813 74.9062 210.846 74.6133C210.878 74.2878 210.943 74.0111 211.041 73.7832C211.139 73.5228 211.285 73.3112 211.48 73.1484C211.708 72.9857 212.018 72.9043 212.408 72.9043C212.734 72.9043 213.092 73.1647 213.482 73.6855C213.906 74.1738 214.329 74.8086 214.752 75.5898C215.175 76.3385 215.582 77.1686 215.973 78.0801C216.396 78.9915 216.754 79.8379 217.047 80.6191C217.372 81.3678 217.633 82.0189 217.828 82.5723C218.023 83.1257 218.137 83.4186 218.17 83.4512C218.593 82.3118 219.065 81.0749 219.586 79.7402C220.107 78.4056 220.742 77.1686 221.49 76.0293C222.271 74.8574 223.183 73.8809 224.225 73.0996C225.299 72.3184 226.601 71.9277 228.131 71.9277C228.912 71.9277 229.645 72.0579 230.328 72.3184C231.044 72.5462 231.663 72.9043 232.184 73.3926C232.737 73.8483 233.176 74.4017 233.502 75.0527C233.827 75.7038 233.99 76.4525 233.99 77.2988C233.99 78.015 233.697 78.5195 233.111 78.8125C232.558 79.1055 231.923 79.252 231.207 79.252H230.719L228.619 77.1523C228.554 77.1523 228.505 77.1361 228.473 77.1035C228.408 77.1035 228.342 77.1035 228.277 77.1035C228.245 77.071 228.196 77.0547 228.131 77.0547C226.992 77.0547 226.096 77.3802 225.445 78.0312C224.827 78.6497 224.355 79.431 224.029 80.375C223.704 81.2865 223.492 82.263 223.395 83.3047C223.329 84.3138 223.297 85.2415 223.297 86.0879C223.297 86.7389 223.362 87.4062 223.492 88.0898C223.622 88.7409 223.769 89.3919 223.932 90.043C224.094 90.6615 224.241 91.3125 224.371 91.9961C224.501 92.6471 224.566 93.3307 224.566 94.0469C224.566 95.4141 223.834 96.0977 222.369 96.0977C221.555 96.0977 220.709 95.6745 219.83 94.8281C218.951 93.9492 218.072 92.8424 217.193 91.5078C216.347 90.1732 215.533 88.7083 214.752 87.1133C213.971 85.4857 213.287 83.9069 212.701 82.377C212.115 80.847 211.643 79.4635 211.285 78.2266C210.96 76.9896 210.797 76.0781 210.797 75.4922Z" fill="white"/>
</g>
<defs>
<filter id="filter0_d_280_153" x="0.205078" y="56.9863" width="237.785" height="47.2578" filterUnits="userSpaceOnUse" color-interpolation-filters="sRGB">
<feFlood flood-opacity="0" result="BackgroundImageFix"/>
<feColorMatrix in="SourceAlpha" type="matrix" values="0 0 0 0 0 0 0 0 0 0 0 0 0 0 0 0 0 0 127 0" result="hardAlpha"/>
<feOffset dy="4"/>
<feGaussianBlur stdDeviation="2"/>
<feComposite in2="hardAlpha" operator="out"/>
<feColorMatrix type="matrix" values="0 0 0 0 0 0 0 0 0 0 0 0 0 0 0 0 0 0 0.25 0"/>
<feBlend mode="normal" in2="BackgroundImageFix" result="effect1_dropShadow_280_153"/>
<feBlend mode="normal" in="SourceGraphic" in2="effect1_dropShadow_280_153" result="shape"/>
</filter>
</defs>
</svg>
